<?xml version="1.0" standalone="no"?>
 <!DOCTYPE svg PUBLIC "-//W3C//DTD SVG 1.1//EN" 
 "http://www.w3.org/Graphics/SVG/1.1/DTD/svg11.dtd"> 
<svg
  xmlns:svg="http://www.w3.org/2000/svg"
  xmlns="http://www.w3.org/2000/svg"
  xmlns:xlink="http://www.w3.org/1999/xlink"
  version="1.1"
  width="6.446520cm" height="5.897880cm" viewBox="0 0 25380 23220">
<title>SVG Picture created as night-light-brd.svg date 2022/06/03 20:13:39 </title>
  <desc>Picture generated by PCBNEW </desc>
<g style="fill:#000000; fill-opacity:1;stroke:#000000; stroke-opacity:1;
stroke-linecap:round; stroke-linejoin:round;"
 transform="translate(0 0) scale(1 1)">
</g>
<g style="fill:#000000; fill-opacity:0.0; 
stroke:#000000; stroke-width:-0.000393701; stroke-opacity:1; 
stroke-linecap:round; stroke-linejoin:round;">
<g >
</g>
<g style="fill:#000000; fill-opacity:0.0; 
stroke:#000000; stroke-width:0; stroke-opacity:1; 
stroke-linecap:round; stroke-linejoin:round;">
</g>
<g style="fill:#000000; fill-opacity:1.0; 
stroke:#000000; stroke-width:0; stroke-opacity:1; 
stroke-linecap:round; stroke-linejoin:round;">
<path style="fill:#000000; fill-opacity:1.0; 
stroke:#000000; stroke-width:0; stroke-opacity:1; 
stroke-linecap:round; stroke-linejoin:round;fill-rule:evenodd;"
d="M 14817.3,5190.55
14817.3,4796.85
15211,4796.85
15211,5190.55
Z" /> 
</g>
<g >
</g>
<g >
</g>
<g >
</g>
<g >
</g>
<g >
</g>
<g style="fill:#000000; fill-opacity:1.0; 
stroke:#000000; stroke-width:0; stroke-opacity:1; 
stroke-linecap:round; stroke-linejoin:round;">
<path style="fill:#000000; fill-opacity:1.0; 
stroke:#000000; stroke-width:0; stroke-opacity:1; 
stroke-linecap:round; stroke-linejoin:round;fill-rule:evenodd;"
d="M 12817.3,5690.55
12817.3,5296.85
13211,5296.85
13211,5690.55
Z" /> 
</g>
<g >
</g>
<g style="fill:#000000; fill-opacity:1.0; 
stroke:#000000; stroke-width:0; stroke-opacity:1; 
stroke-linecap:round; stroke-linejoin:round;">
<path style="fill:#000000; fill-opacity:1.0; 
stroke:#000000; stroke-width:0; stroke-opacity:1; 
stroke-linecap:round; stroke-linejoin:round;fill-rule:evenodd;"
d="M 13817.3,8390.55
13817.3,7996.85
14211,7996.85
14211,8390.55
Z" /> 
</g>
<g >
</g>
<g style="fill:#000000; fill-opacity:1.0; 
stroke:#000000; stroke-width:0; stroke-opacity:1; 
stroke-linecap:round; stroke-linejoin:round;">
<path style="fill:#000000; fill-opacity:1.0; 
stroke:#000000; stroke-width:0; stroke-opacity:1; 
stroke-linecap:round; stroke-linejoin:round;fill-rule:evenodd;"
d="M 17852.8,13784.3
17852.8,13390.6
18246.5,13390.6
18246.5,13784.3
Z" /> 
</g>
<g >
</g>
<g style="fill:#000000; fill-opacity:1.0; 
stroke:#000000; stroke-width:0; stroke-opacity:1; 
stroke-linecap:round; stroke-linejoin:round;">
<path style="fill:#000000; fill-opacity:1.0; 
stroke:#000000; stroke-width:0; stroke-opacity:1; 
stroke-linecap:round; stroke-linejoin:round;fill-rule:evenodd;"
d="M 11848.8,18721.3
11848.8,18327.6
12242.5,18327.6
12242.5,18721.3
Z" /> 
</g>
<g >
</g>
<g style="fill:#000000; fill-opacity:1.0; 
stroke:#000000; stroke-width:0; stroke-opacity:1; 
stroke-linecap:round; stroke-linejoin:round;">
<path style="fill:#000000; fill-opacity:1.0; 
stroke:#000000; stroke-width:0; stroke-opacity:1; 
stroke-linecap:round; stroke-linejoin:round;fill-rule:evenodd;"
d="M 10447.2,5981.1
10447.2,5587.4
10840.9,5587.4
10840.9,5981.1
Z" /> 
</g>
<g >
</g>
<g style="fill:#000000; fill-opacity:1.0; 
stroke:#000000; stroke-width:0; stroke-opacity:1; 
stroke-linecap:round; stroke-linejoin:round;">
<path style="fill:#000000; fill-opacity:1.0; 
stroke:#000000; stroke-width:0; stroke-opacity:1; 
stroke-linecap:round; stroke-linejoin:round;fill-rule:evenodd;"
d="M 9179.53,15571.7
9179.53,15178
9573.23,15178
9573.23,15571.7
Z" /> 
</g>
<g >
</g>
<g >
</g>
<g >
</g>
<g >
</g>
<g style="fill:#000000; fill-opacity:1.0; 
stroke:#000000; stroke-width:0; stroke-opacity:1; 
stroke-linecap:round; stroke-linejoin:round;">
<circle cx="13726.8" cy="20780.3" r="300" /> 
</g>
<g style="fill:#000000; fill-opacity:1.0; 
stroke:#000000; stroke-width:39.3701; stroke-opacity:1; 
stroke-linecap:round; stroke-linejoin:round;">
</g>
<g style="fill:#000000; fill-opacity:1.0; 
stroke:#000000; stroke-width:0; stroke-opacity:1; 
stroke-linecap:round; stroke-linejoin:round;">
<circle cx="12939.4" cy="20780.3" r="300" /> 
</g>
<g style="fill:#000000; fill-opacity:1.0; 
stroke:#000000; stroke-width:39.3701; stroke-opacity:1; 
stroke-linecap:round; stroke-linejoin:round;">
</g>
<g style="fill:#000000; fill-opacity:1.0; 
stroke:#000000; stroke-width:0; stroke-opacity:1; 
stroke-linecap:round; stroke-linejoin:round;">
<circle cx="12152" cy="20780.3" r="300" /> 
</g>
<g style="fill:#000000; fill-opacity:1.0; 
stroke:#000000; stroke-width:39.3701; stroke-opacity:1; 
stroke-linecap:round; stroke-linejoin:round;">
</g>
<g style="fill:#000000; fill-opacity:1.0; 
stroke:#000000; stroke-width:0; stroke-opacity:1; 
stroke-linecap:round; stroke-linejoin:round;">
<circle cx="10577.2" cy="20780.3" r="300" /> 
</g>
<g style="fill:#000000; fill-opacity:1.0; 
stroke:#000000; stroke-width:39.3701; stroke-opacity:1; 
stroke-linecap:round; stroke-linejoin:round;">
</g>
<g style="fill:#000000; fill-opacity:1.0; 
stroke:#000000; stroke-width:0; stroke-opacity:1; 
stroke-linecap:round; stroke-linejoin:round;">
<circle cx="13726.8" cy="19796.1" r="300" /> 
</g>
<g style="fill:#000000; fill-opacity:1.0; 
stroke:#000000; stroke-width:39.3701; stroke-opacity:1; 
stroke-linecap:round; stroke-linejoin:round;">
</g>
<g style="fill:#000000; fill-opacity:1.0; 
stroke:#000000; stroke-width:0; stroke-opacity:1; 
stroke-linecap:round; stroke-linejoin:round;">
<circle cx="12939.4" cy="19796.1" r="300" /> 
</g>
<g style="fill:#000000; fill-opacity:1.0; 
stroke:#000000; stroke-width:39.3701; stroke-opacity:1; 
stroke-linecap:round; stroke-linejoin:round;">
</g>
<g style="fill:#000000; fill-opacity:1.0; 
stroke:#000000; stroke-width:0; stroke-opacity:1; 
stroke-linecap:round; stroke-linejoin:round;">
<circle cx="12152" cy="19796.1" r="300" /> 
</g>
<g style="fill:#000000; fill-opacity:1.0; 
stroke:#000000; stroke-width:39.3701; stroke-opacity:1; 
stroke-linecap:round; stroke-linejoin:round;">
</g>
<g style="fill:#000000; fill-opacity:1.0; 
stroke:#000000; stroke-width:0; stroke-opacity:1; 
stroke-linecap:round; stroke-linejoin:round;">
<circle cx="10577.2" cy="19796.1" r="300" /> 
</g>
<g style="fill:#000000; fill-opacity:1.0; 
stroke:#000000; stroke-width:39.3701; stroke-opacity:1; 
stroke-linecap:round; stroke-linejoin:round;">
</g>
<g >
</g>
<g style="fill:#000000; fill-opacity:1.0; 
stroke:#000000; stroke-width:39.3701; stroke-opacity:1; 
stroke-linecap:round; stroke-linejoin:round;">
</g>
<g style="fill:#000000; fill-opacity:1.0; 
stroke:#000000; stroke-width:472.441; stroke-opacity:1; 
stroke-linecap:round; stroke-linejoin:round;">
</g>
<g style="fill:#000000; fill-opacity:0.0; 
stroke:#000000; stroke-width:472.441; stroke-opacity:1; 
stroke-linecap:round; stroke-linejoin:round;">
<path d="M8025 17211
L8025 16994
" />
</g>
<g style="fill:#000000; fill-opacity:0.0; 
stroke:#000000; stroke-width:0; stroke-opacity:1; 
stroke-linecap:round; stroke-linejoin:round;">
</g>
<g style="fill:#000000; fill-opacity:1.0; 
stroke:#000000; stroke-width:0; stroke-opacity:1; 
stroke-linecap:round; stroke-linejoin:round;">
<path style="fill:#000000; fill-opacity:1.0; 
stroke:#000000; stroke-width:0; stroke-opacity:1; 
stroke-linecap:round; stroke-linejoin:round;fill-rule:evenodd;"
d="M 8960.97,16759.1
8970.51,16760.5
8979.86,16762.9
8988.94,16766.1
8997.66,16770.3
9005.93,16775.2
9013.68,16781
9020.82,16787.4
9027.3,16794.6
9033.05,16802.3
9038,16810.6
9042.13,16819.3
9045.37,16828.4
9047.72,16837.8
9049.13,16847.3
9049.61,16856.9
9049.61,17349.4
9049.13,17359
9047.72,17368.5
9045.37,17377.9
9042.13,17387
9038,17395.7
9033.05,17404
9027.3,17411.7
9020.82,17418.9
9013.68,17425.3
9005.93,17431.1
8997.66,17436
8988.94,17440.2
8979.86,17443.4
8970.51,17445.7
8960.97,17447.2
8951.34,17447.6
8675.43,17447.6
8665.8,17447.2
8656.26,17445.7
8646.91,17443.4
8637.83,17440.2
8629.11,17436
8620.84,17431.1
8613.09,17425.3
8605.95,17418.9
8599.47,17411.7
8593.73,17404
8588.77,17395.7
8584.65,17387
8581.4,17377.9
8579.05,17368.5
8577.64,17359
8577.17,17349.4
8577.17,16856.9
8577.64,16847.3
8579.05,16837.8
8581.4,16828.4
8584.65,16819.3
8588.77,16810.6
8593.73,16802.3
8599.47,16794.6
8605.95,16787.4
8613.09,16781
8620.84,16775.2
8629.11,16770.3
8637.83,16766.1
8646.91,16762.9
8656.26,16760.5
8665.8,16759.1
8675.43,16758.7
8951.34,16758.7
Z" /> 
</g>
<g >
</g>
<g style="fill:#000000; fill-opacity:1.0; 
stroke:#000000; stroke-width:0; stroke-opacity:1; 
stroke-linecap:round; stroke-linejoin:round;">
<circle cx="16045.7" cy="18622.8" r="283.465" /> 
</g>
<g style="fill:#000000; fill-opacity:1.0; 
stroke:#000000; stroke-width:39.3701; stroke-opacity:1; 
stroke-linecap:round; stroke-linejoin:round;">
</g>
<g style="fill:#000000; fill-opacity:1.0; 
stroke:#000000; stroke-width:0; stroke-opacity:1; 
stroke-linecap:round; stroke-linejoin:round;">
<circle cx="16045.7" cy="19622.8" r="283.465" /> 
</g>
<g style="fill:#000000; fill-opacity:1.0; 
stroke:#000000; stroke-width:39.3701; stroke-opacity:1; 
stroke-linecap:round; stroke-linejoin:round;">
</g>
<g style="fill:#000000; fill-opacity:1.0; 
stroke:#000000; stroke-width:0; stroke-opacity:1; 
stroke-linecap:round; stroke-linejoin:round;">
<circle cx="16045.7" cy="20622.8" r="283.465" /> 
</g>
<g style="fill:#000000; fill-opacity:1.0; 
stroke:#000000; stroke-width:39.3701; stroke-opacity:1; 
stroke-linecap:round; stroke-linejoin:round;">
</g>
<g >
</g>
<g >
</g>
<g >
</g>
<g >
</g>
<g >
</g>
<g >
</g>
<g >
</g>
<g >
</g>
<g >
</g>
<g >
</g>
<g >
</g>
<g style="fill:#000000; fill-opacity:1.0; 
stroke:#000000; stroke-width:39.3701; stroke-opacity:1; 
stroke-linecap:round; stroke-linejoin:round;">
</g>
<g style="fill:#000000; fill-opacity:1.0; 
stroke:#000000; stroke-width:0; stroke-opacity:1; 
stroke-linecap:round; stroke-linejoin:round;">
<circle cx="15596.9" cy="12689.8" r="334.646" /> 
<circle cx="15596.9" cy="11689.8" r="334.646" /> 
<circle cx="15596.9" cy="10689.8" r="334.646" /> 
<path style="fill:#000000; fill-opacity:1.0; 
stroke:#000000; stroke-width:0; stroke-opacity:1; 
stroke-linecap:round; stroke-linejoin:round;fill-rule:evenodd;"
d="M 15262.2,10024.4
15262.2,9355.12
15931.5,9355.12
15931.5,10024.4
Z" /> 
</g>
<g >
</g>
<g >
</g>
<g >
</g>
<g >
</g>
<g >
</g>
<g >
</g>
<g >
</g>
<g >
</g>
<g >
</g>
<g >
</g>
<g >
</g>
<g >
</g>
<g style="fill:#000000; fill-opacity:1.0; 
stroke:#000000; stroke-width:0; stroke-opacity:1; 
stroke-linecap:round; stroke-linejoin:round;">
<circle cx="15734.6" cy="6075.59" r="314.961" /> 
</g>
<g style="fill:#000000; fill-opacity:1.0; 
stroke:#000000; stroke-width:39.3701; stroke-opacity:1; 
stroke-linecap:round; stroke-linejoin:round;">
</g>
<g style="fill:#000000; fill-opacity:1.0; 
stroke:#000000; stroke-width:0; stroke-opacity:1; 
stroke-linecap:round; stroke-linejoin:round;">
<path style="fill:#000000; fill-opacity:1.0; 
stroke:#000000; stroke-width:0; stroke-opacity:1; 
stroke-linecap:round; stroke-linejoin:round;fill-rule:evenodd;"
d="M 16049.6,7768.5
15419.7,7768.5
15419.7,7138.58
16049.6,7138.58
Z" /> 
</g>
<g >
</g>
<g >
</g>
<g >
</g>
<g style="fill:#000000; fill-opacity:1.0; 
stroke:#000000; stroke-width:0; stroke-opacity:1; 
stroke-linecap:round; stroke-linejoin:round;">
</g>
<g style="fill:#000000; fill-opacity:1.0; 
stroke:#000000; stroke-width:472.441; stroke-opacity:1; 
stroke-linecap:round; stroke-linejoin:round;">
</g>
<g style="fill:#000000; fill-opacity:0.0; 
stroke:#000000; stroke-width:472.441; stroke-opacity:1; 
stroke-linecap:round; stroke-linejoin:round;">
<path d="M12506 6506
L12506 6723
" />
</g>
<g style="fill:#000000; fill-opacity:0.0; 
stroke:#000000; stroke-width:0; stroke-opacity:1; 
stroke-linecap:round; stroke-linejoin:round;">
</g>
<g style="fill:#000000; fill-opacity:1.0; 
stroke:#000000; stroke-width:0; stroke-opacity:1; 
stroke-linecap:round; stroke-linejoin:round;">
<path style="fill:#000000; fill-opacity:1.0; 
stroke:#000000; stroke-width:0; stroke-opacity:1; 
stroke-linecap:round; stroke-linejoin:round;fill-rule:evenodd;"
d="M 11866.5,6270.95
11876,6272.36
11885.4,6274.7
11894.5,6277.95
11903.2,6282.08
11911.4,6287.03
11919.2,6292.78
11926.3,6299.25
11932.8,6306.4
11938.6,6314.15
11943.5,6322.42
11947.6,6331.13
11950.9,6340.21
11953.2,6349.57
11954.6,6359.11
11955.1,6368.74
11955.1,6861.18
11954.6,6870.81
11953.2,6880.35
11950.9,6889.71
11947.6,6898.79
11943.5,6907.5
11938.6,6915.78
11932.8,6923.52
11926.3,6930.67
11919.2,6937.14
11911.4,6942.89
11903.2,6947.85
11894.5,6951.97
11885.4,6955.22
11876,6957.56
11866.5,6958.98
11856.9,6959.45
11580.9,6959.45
11571.3,6958.98
11561.8,6957.56
11552.4,6955.22
11543.3,6951.97
11534.6,6947.85
11526.4,6942.89
11518.6,6937.14
11511.5,6930.67
11505,6923.52
11499.2,6915.78
11494.3,6907.5
11490.2,6898.79
11486.9,6889.71
11484.6,6880.35
11483.2,6870.81
11482.7,6861.18
11482.7,6368.74
11483.2,6359.11
11484.6,6349.57
11486.9,6340.21
11490.2,6331.13
11494.3,6322.42
11499.2,6314.15
11505,6306.4
11511.5,6299.25
11518.6,6292.78
11526.4,6287.03
11534.6,6282.08
11543.3,6277.95
11552.4,6274.7
11561.8,6272.36
11571.3,6270.95
11580.9,6270.47
11856.9,6270.47
Z" /> 
</g>
<g >
</g>
<g >
</g>
<g style="fill:#000000; fill-opacity:1.0; 
stroke:#000000; stroke-width:0; stroke-opacity:1; 
stroke-linecap:round; stroke-linejoin:round;">
</g>
<g style="fill:#000000; fill-opacity:1.0; 
stroke:#000000; stroke-width:98.4252; stroke-opacity:1; 
stroke-linecap:round; stroke-linejoin:round;">
</g>
<g style="fill:#000000; fill-opacity:0.0; 
stroke:#000000; stroke-width:98.4252; stroke-opacity:1; 
stroke-linecap:round; stroke-linejoin:round;">
<path d="M13726 19796
L14919 19796
" />
<path d="M14919 19796
L15447 20323
" />
<path d="M15746 20323
L16045 20622
" />
<path d="M15447 20323
L15746 20323
" />
<path d="M14754 7453
L14014 8193
" />
<path d="M15734 7453
L14754 7453
" />
<path d="M16045 20622
L16974 20622
" />
<path d="M16974 20622
L17266 20331
" />
<path d="M17266 8985
L15734 7453
" />
<path d="M17266 13587
L17266 8985
" />
<path d="M18049 13587
L17266 13587
" />
<path d="M17266 20331
L17266 13587
" />
</g>
<g style="fill:#000000; fill-opacity:0.0; 
stroke:#000000; stroke-width:196.85; stroke-opacity:1; 
stroke-linecap:round; stroke-linejoin:round;">
<path d="M12151 20780
L12939 20780
" />
<path d="M12151 20780
L11612 20780
" />
<path d="M11612 20780
L11455 20622
" />
<path d="M11455 19114
L12045 18524
" />
<path d="M11455 20622
L11455 19114
" />
<path d="M10888 5784
L11718 6614
" />
<path d="M10644 5784
L10888 5784
" />
<path d="M10577 20780
L10577 21193
" />
<path d="M10577 21193
L10809 21425
" />
<path d="M10809 21425
L13699 21425
" />
<path d="M13726 21398
L13726 20780
" />
<path d="M13699 21425
L13726 21398
" />
<path d="M10577 20780
L10825 20780
" />
<path d="M11054 7279
L11718 6614
" />
<path d="M11054 20551
L11054 7279
" />
<path d="M10825 20780
L11054 20551
" />
<path d="M9376 16540
L8813 17103
" />
<path d="M9376 15374
L9376 16540
" />
</g>
<g style="fill:#000000; fill-opacity:0.0; 
stroke:#000000; stroke-width:98.4252; stroke-opacity:1; 
stroke-linecap:round; stroke-linejoin:round;">
<path d="M12939 19796
L12939 19414
" />
<path d="M12939 19414
L13360 18992
" />
<path d="M13360 18992
L14837 18992
" />
<path d="M14837 18992
L16411 17418
" />
<path d="M16411 10504
L15596 9689
" />
<path d="M16411 17418
L16411 10504
" />
</g>
<g >
</g>
<g style="fill:#000000; fill-opacity:0.0; 
stroke:#000000; stroke-width:98.4252; stroke-opacity:1; 
stroke-linecap:round; stroke-linejoin:round;">
<g >
</g>
<g style="fill:#000000; fill-opacity:1.0; 
stroke:#000000; stroke-width:100; stroke-opacity:1; 
stroke-linecap:round; stroke-linejoin:round;">
<path style="fill:#000000; fill-opacity:1.0; 
stroke:#000000; stroke-width:100; stroke-opacity:1; 
stroke-linecap:round; stroke-linejoin:round;fill-rule:evenodd;"
d="M 13463.2,1602.14
14265.2,1690.8
15058.4,1839.34
15838.1,2046.93
16600.2,2312.41
17340.1,2634.27
18053.9,3010.71
18737.4,3439.6
19386.8,3918.53
19998.5,4444.81
20569,5015.47
21095.1,5627.3
21573.9,6276.86
22002.6,6960.48
22378.8,7674.33
22700.5,8414.37
22965.7,9176.45
23173.1,9956.27
23321.4,10749.5
23409.9,11551.5
23437.9,12358
23405.4,13164.2
23312.6,13965.8
23159.9,14758.1
22948.2,15536.8
22678.8,16297.4
22353,17035.7
21972.9,17747.4
21540.4,18428.7
21058.1,19075.6
20528.6,19684.5
19955,20252
19340.4,20774.9
18688.3,21250.3
18013.6,21668.5
13950.9,21668.5
13957.7,21660.3
13961,21656.9
13974.3,21646
14017.9,21592.9
14050.2,21532.4
14070.2,21466.7
14075.2,21415.5
14075.2,21415.5
14076.9,21398.4
14075.2,21381.3
14075.2,21209
14077.4,21207.5
14154,21130.9
14214.2,21040.8
14255.6,20940.7
14276.8,20834.5
14276.8,20726.1
14270.4,20694.3
14333.6,20736.5
14425.7,20774.7
14523.4,20794.1
14623.1,20794.1
14720.8,20774.7
14812.9,20736.5
14895.7,20681.2
14966.2,20610.7
15021.6,20527.8
15059.7,20435.8
15072.4,20371.9
15225.3,20524.8
15234.6,20536.2
15280.2,20573.6
15332.2,20601.4
15388.6,20618.5
15432.5,20622.8
15432.5,20622.8
15447.2,20624.3
15461.9,20622.8
15512.2,20622.8
15512.2,20675.4
15532.7,20778.4
15572.9,20875.5
15631.3,20962.9
15705.6,21037.2
15793,21095.6
15890.1,21135.8
15993.1,21156.3
16098.2,21156.3
16201.3,21135.8
16298.4,21095.6
16385.7,21037.2
16460,20962.9
16487.3,20922
16960.1,20922
16974.8,20923.5
16989.5,20922
16989.5,20922
17033.5,20917.7
17089.9,20900.6
17141.8,20872.8
17187.4,20835.4
17196.8,20824
17467.3,20553.5
17478.7,20544.1
17492.1,20527.8
17516.1,20498.5
17543.9,20446.6
17548,20433.2
17561,20390.2
17565.4,20346.2
17565.4,20346.2
17566.8,20331.5
17565.4,20316.8
17565.4,19936.6
18349.2,19936.6
18349.2,20063.4
18373.9,20187.8
18422.5,20304.9
18492.9,20410.3
18582.6,20500
18688,20570.4
18805.2,20619
18929.5,20643.7
19056.3,20643.7
19180.7,20619
19297.8,20570.4
19403.2,20500
19492.9,20410.3
19563.4,20304.9
19611.9,20187.8
19636.6,20063.4
19636.6,19936.6
19611.9,19812.2
19563.4,19695.1
19492.9,19589.7
19403.2,19500
19297.8,19429.6
19180.7,19381
19056.3,19356.3
18929.5,19356.3
18805.2,19381
18688,19429.6
18582.6,19500
18492.9,19589.7
18422.5,19695.1
18373.9,19812.2
18349.2,19936.6
17565.4,19936.6
17565.4,13886.6
17624,13886.6
17643.9,13923.8
17675.1,13961.9
17713.2,13993.1
17756.6,14016.3
17803.7,14030.6
17852.8,14035.5
18246.5,14035.5
18295.5,14030.6
18342.6,14016.3
18386,13993.1
18424.1,13961.9
18455.3,13923.8
18478.5,13880.4
18492.8,13833.3
18497.7,13784.3
18497.7,13390.6
18492.8,13341.5
18478.5,13294.4
18455.3,13251
18424.1,13212.9
18386,13181.7
18342.6,13158.5
18295.5,13144.2
18246.5,13139.3
17852.8,13139.3
17803.7,13144.2
17756.6,13158.5
17713.2,13181.7
17675.1,13212.9
17643.9,13251
17624,13288.2
17565.4,13288.2
17565.4,8999.73
17566.8,8985.04
17565.4,8970.34
17565.4,8970.34
17561,8926.38
17543.9,8869.98
17516.1,8818
17478.7,8772.44
17467.3,8763.07
16300.8,7596.56
16300.8,7138.58
16296,7089.57
16281.7,7042.45
16258.5,6999.02
16227.2,6960.95
16207.2,6944.48
20317.7,6944.48
20317.7,7071.27
20342.5,7195.63
20391,7312.78
20461.4,7418.21
20551.1,7507.87
20656.5,7578.31
20773.7,7626.84
20898,7651.57
21024.8,7651.57
21149.2,7626.84
21266.3,7578.31
21371.8,7507.87
21461.4,7418.21
21531.9,7312.78
21580.4,7195.63
21605.1,7071.27
21605.1,6944.48
21580.4,6820.11
21531.9,6702.97
21461.4,6597.54
21371.8,6507.88
21266.3,6437.43
21149.2,6388.91
21024.8,6364.17
20898,6364.17
20773.7,6388.91
20656.5,6437.43
20551.1,6507.88
20461.4,6597.54
20391,6702.97
20342.5,6820.11
20317.7,6944.48
16207.2,6944.48
16189.2,6929.71
16145.7,6906.5
16098.6,6892.2
16049.6,6887.37
15419.7,6887.37
15370.7,6892.2
15323.6,6906.5
15280.1,6929.71
15242.1,6960.95
15210.8,6999.02
15187.6,7042.45
15173.3,7089.57
15168.5,7138.58
15168.5,7154.33
14769,7154.33
14754.3,7152.88
14739.6,7154.33
14739.6,7154.33
14695.7,7158.66
14639.3,7175.77
14587.3,7203.55
14587.3,7203.55
14587.3,7203.55
14553.1,7231.58
14553.1,7231.58
14541.7,7240.94
14532.4,7252.36
14039.1,7745.64
13817.3,7745.64
13768.3,7750.47
13721.2,7764.76
13677.8,7787.98
13639.7,7819.22
13608.4,7857.29
13585.2,7900.72
13570.9,7947.84
13566.1,7996.85
13566.1,8390.55
13570.9,8439.56
13585.2,8486.69
13608.4,8530.12
13639.7,8568.18
13677.8,8599.42
13721.2,8622.64
13768.3,8636.93
13817.3,8641.76
14211,8641.76
14260,8636.93
14307.2,8622.64
14350.6,8599.42
14388.7,8568.18
14419.9,8530.12
14443.1,8486.69
14457.4,8439.56
14462.2,8390.55
14462.2,8168.79
14878.3,7752.76
15168.5,7752.76
15168.5,7768.5
15173.3,7817.51
15187.6,7864.64
15210.8,7908.07
15242.1,7946.14
15280.1,7977.38
15323.6,8000.59
15370.7,8014.89
15419.7,8019.71
15877.7,8019.71
16966.9,9108.98
16966.9,13572.7
16965.5,13587.4
16966.9,13602.1
16966.9,20207.6
16850.9,20323.6
16487.3,20323.6
16460,20282.8
16385.7,20208.5
16298.4,20150.1
16232.2,20122.7
16277.3,20106.2
16318.9,20084
16343.3,19991.2
16045.7,19693.5
15748,19991.2
15756.7,20024
15746.5,20023
15731.8,20024.4
15571.2,20024.4
15198.6,19651.8
15510.4,19651.8
15526.4,19755.7
15562.3,19854.5
15584.5,19896.1
15677.3,19920.5
15975,19622.8
16116.4,19622.8
16414,19920.5
16506.8,19896.1
16551.3,19800.9
16576.3,19698.8
16580.9,19593.8
16565,19490
16529.1,19391.2
16506.8,19349.6
16414,19325.2
16116.4,19622.8
15975,19622.8
15677.3,19325.2
15584.5,19349.6
15540.1,19444.8
15515,19546.9
15510.4,19651.8
15198.6,19651.8
15141.7,19594.9
15132.3,19583.5
15086.7,19546.1
15034.7,19518.3
14978.3,19501.2
14934.4,19496.9
14934.4,19496.9
14919.7,19495.4
14905,19496.9
14188.3,19496.9
14154,19445.5
14077.4,19368.9
13987.3,19308.7
13947.4,19292.1
14822.3,19292.1
14837,19293.6
14851.7,19292.1
14851.7,19292.1
14895.7,19287.8
14952.1,19270.7
15004,19242.9
15049.6,19205.5
15059,19194.1
15523.1,18730
15532.7,18778.4
15572.9,18875.5
15631.3,18962.9
15705.6,19037.2
15793,19095.6
15859.2,19123
15814,19139.4
15772.4,19161.7
15748,19254.5
16045.7,19552.1
16343.3,19254.5
16318.9,19161.7
16234.2,19122.1
16298.4,19095.6
16385.7,19037.2
16460,18962.9
16518.4,18875.5
16558.6,18778.4
16579.1,18675.4
16579.1,18570.3
16558.6,18467.2
16518.4,18370.1
16460,18282.8
16385.7,18208.5
16298.4,18150.1
16201.3,18109.9
16152.8,18100.2
16613,17640.1
16624.4,17630.7
16661.8,17585.1
16689.6,17533.2
16706.7,17476.8
16711,17432.8
16711,17432.8
16712.5,17418.1
16711,17403.4
16711,10519.4
16712.5,10504.7
16711,10490
16711,10490
16706.7,10446.1
16689.6,10389.7
16688.6,10387.8
16661.8,10337.7
16633.8,10303.5
16624.4,10292.1
16613,10282.8
16182.7,9852.47
16182.7,9355.12
16177.9,9306.11
16163.6,9258.98
16140.4,9215.55
16109.1,9177.49
16071.1,9146.25
16027.6,9123.03
15980.5,9108.74
15931.5,9103.91
15262.2,9103.91
15213.2,9108.74
15166.1,9123.03
15122.6,9146.25
15084.6,9177.49
15053.3,9215.55
15030.1,9258.98
15015.8,9306.11
15011,9355.12
15011,10024.4
15015.8,10073.4
15030.1,10120.5
15053.3,10164
15084.6,10202
15122.6,10233.3
15166.1,10256.5
15197.8,10266.1
15164.7,10296
15096.2,10387.8
15046.9,10491.3
15029.3,10549.3
15077.1,10639.8
15546.9,10639.8
15546.9,10631.9
15646.9,10631.9
15646.9,10639.8
15654.7,10639.8
15654.7,10739.8
15646.9,10739.8
15646.9,10747.6
15546.9,10747.6
15546.9,10739.8
15077.1,10739.8
15029.3,10830.3
15046.9,10888.2
15096.2,10991.7
15164.7,11083.6
15249.9,11160.3
15295.9,11187.7
15224.2,11235.6
15142.7,11317.1
15078.7,11412.8
15034.7,11519.2
15012.2,11632.2
15012.2,11747.3
15034.7,11860.3
15078.7,11966.7
15142.7,12062.5
15224.2,12143.9
15292.8,12189.8
15224.2,12235.6
15142.7,12317.1
15078.7,12412.8
15034.7,12519.2
15012.2,12632.2
15012.2,12747.3
15034.7,12860.3
15078.7,12966.7
15142.7,13062.5
15224.2,13143.9
15319.9,13207.9
15426.3,13251.9
15539.3,13274.4
15654.4,13274.4
15767.4,13251.9
15873.8,13207.9
15969.5,13143.9
16051,13062.5
16112.6,12970.2
16112.6,17294.2
14713.1,18693.7
13375.3,18693.7
13360.6,18692.3
13345.9,18693.7
13302,18698
13245.6,18715.1
13193.6,18742.9
13148,18780.3
13138.7,18791.7
12738.2,19192.2
12726.8,19201.6
12717.4,19213
12717.4,19213
12689.4,19247.1
12661.6,19299.1
12653.6,19325.5
12588.8,19368.9
12545.7,19411.9
12502.6,19368.9
12412.5,19308.7
12312.4,19267.2
12206.1,19246.1
12097.8,19246.1
11991.5,19267.2
11891.4,19308.7
11803.5,19367.4
11803.5,19259.3
12090.4,18972.5
12242.5,18972.5
12291.5,18967.6
12338.7,18953.3
12382.1,18930.1
12420.2,18898.9
12451.4,18860.8
12474.6,18817.4
12488.9,18770.3
12493.7,18721.3
12493.7,18327.6
12488.9,18278.6
12474.6,18231.4
12451.4,18188
12420.2,18149.9
12382.1,18118.7
12338.7,18095.5
12291.5,18081.2
12242.5,18076.3
11848.8,18076.3
11799.8,18081.2
11752.7,18095.5
11709.3,18118.7
11671.2,18149.9
11639.9,18188
11616.7,18231.4
11602.4,18278.6
11597.6,18327.6
11597.6,18479.7
11402.8,18674.6
11402.8,7423.85
11615.9,7210.66
11856.9,7210.66
11925,7203.94
11990.6,7184.06
12051,7151.76
12104,7108.3
12147.4,7055.34
12148.5,7053.42
12197.8,7102.39
12277.7,7155.28
12366.4,7191.57
12381.3,7193.1
12456.3,7143.99
12456.3,6664.96
12556.3,6664.96
12556.3,7143.99
12631.3,7193.1
12646.2,7191.57
12734.9,7155.28
12814.8,7102.39
12882.8,7034.93
12936.4,6955.49
12973.4,6867.12
12992.5,6773.23
12992.5,6664.96
12556.3,6664.96
12456.3,6664.96
12448.4,6664.96
12448.4,6564.96
12456.3,6564.96
12456.3,6085.93
12556.3,6085.93
12556.3,6564.96
12992.5,6564.96
12992.5,6466.42
15414.5,6466.42
15442.7,6562.47
15543.3,6610.07
15651.3,6637.13
15762.4,6642.61
15872.5,6626.29
15977.3,6588.82
16026.6,6562.47
16054.8,6466.42
15734.6,6146.3
15414.5,6466.42
12992.5,6466.42
12992.5,6456.69
12973.4,6362.8
12936.4,6274.43
12882.8,6194.99
12814.8,6127.53
12778.2,6103.35
15167.6,6103.35
15183.9,6213.44
15221.4,6318.23
15247.8,6367.53
15343.8,6395.71
15663.9,6075.59
15805.4,6075.59
16125.5,6395.71
16221.5,6367.53
16269.1,6266.93
16296.2,6158.98
16301.7,6047.83
16285.3,5937.74
16247.9,5832.96
16221.5,5783.66
16125.5,5755.47
15805.4,6075.59
15663.9,6075.59
15343.8,5755.47
15247.8,5783.66
15200.2,5884.25
15173.1,5992.2
15167.6,6103.35
12778.2,6103.35
12734.9,6074.64
12646.2,6038.35
12631.3,6036.83
12556.3,6085.93
12456.3,6085.93
12381.3,6036.83
12366.4,6038.35
12277.7,6074.64
12197.8,6127.53
12148.5,6176.5
12147.4,6174.58
12104,6121.62
12051,6078.16
11990.6,6045.87
11925,6025.98
11856.9,6019.26
11615.9,6019.26
11287.2,5690.55
12566.1,5690.55
12570.9,5739.56
12585.2,5786.69
12608.5,5830.12
12639.7,5868.18
12677.8,5899.42
12721.2,5922.64
12768.3,5936.93
12817.3,5941.76
12901.7,5940.55
12964.2,5878.05
12964.2,5543.7
13064.2,5543.7
13064.2,5878.05
13126.7,5940.55
13211,5941.76
13260,5936.93
13307.2,5922.64
13350.6,5899.42
13388.7,5868.18
13419.9,5830.12
13443.1,5786.69
13457.4,5739.56
13462.2,5690.55
13462.2,5684.76
15414.5,5684.76
15734.6,6004.88
16054.8,5684.76
16026.6,5588.71
15926,5541.11
15818,5514.06
15706.9,5508.58
15596.8,5524.89
15492,5562.36
15442.7,5588.71
15414.5,5684.76
13462.2,5684.76
13461,5606.2
13398.5,5543.7
13064.2,5543.7
12964.2,5543.7
12629.8,5543.7
12567.3,5606.2
12566.1,5690.55
11287.2,5690.55
11146.7,5549.98
11135.8,5536.69
11082.7,5493.15
11070.6,5486.66
11049.8,5447.84
11018.6,5409.77
10980.5,5378.53
10937.1,5355.31
10890,5341.02
10840.9,5336.19
10447.2,5336.19
10398.2,5341.02
10351.1,5355.31
10307.7,5378.53
10269.6,5409.77
10238.4,5447.84
10215.2,5491.27
10200.9,5538.39
10196,5587.4
10196,5981.1
10200.9,6030.11
10215.2,6077.24
10238.4,6120.67
10269.6,6158.73
10307.7,6189.98
10351.1,6213.19
10398.2,6227.49
10447.2,6232.31
10840.9,6232.31
10843.3,6232.08
11226.1,6614.96
10820.1,7021.05
10806.8,7031.96
10795.9,7045.26
10795.9,7045.26
10763.2,7085.02
10730.9,7145.55
10710.9,7211.22
10704.2,7279.53
10705.9,7296.64
10705.9,19260.9
10631.3,19246.1
10523,19246.1
10416.7,19267.2
10316.6,19308.7
10226.6,19368.9
10150,19445.5
10089.8,19535.5
10048.3,19635.6
10027.2,19741.9
10027.2,19850.2
10033.5,19882.1
9970.34,19839.9
9878.28,19801.7
9780.54,19782.3
9680.88,19782.3
9583.14,19801.7
9491.07,19839.9
9408.21,19895.2
9337.75,19965.7
9282.38,20048.6
9244.24,20140.6
9224.8,20238.4
9224.8,20338
9244.24,20435.8
9282.38,20527.8
9337.75,20610.7
9408.21,20681.2
9491.07,20736.5
9583.14,20774.7
9680.88,20794.1
9780.54,20794.1
9878.28,20774.7
9970.34,20736.5
10033.5,20694.3
10027.2,20726.1
10027.2,20834.5
10048.3,20940.7
10089.8,21040.8
10150,21130.9
10226.6,21207.5
10228.5,21208.9
10233.8,21262
10253.7,21327.7
10286.1,21388.2
10318.7,21428
10318.7,21428
10329.6,21441.3
10342.9,21452.2
10551,21660.3
10557.7,21668.5
7356.77,21668.5
6722.99,21280
6068.58,20807.9
5451.41,20288
5092.62,19936.6
5750.79,19936.6
5750.79,20063.4
5775.52,20187.8
5824.05,20304.9
5894.49,20410.3
5984.15,20500
6089.58,20570.4
6206.73,20619
6331.09,20643.7
6457.89,20643.7
6582.25,20619
6699.39,20570.4
6804.82,20500
6894.48,20410.3
6964.93,20304.9
7013.45,20187.8
7038.19,20063.4
7038.19,19936.6
7013.45,19812.2
6964.93,19695.1
6894.48,19589.7
6804.82,19500
6699.39,19429.6
6582.25,19381
6457.89,19356.3
6331.09,19356.3
6206.73,19381
6089.58,19429.6
5984.15,19500
5894.49,19589.7
5824.05,19695.1
5775.52,19812.2
5750.79,19936.6
5092.62,19936.6
4874.96,19723.4
4342.47,19117.1
3856.93,18472.6
3421.09,17793.5
3074.97,17153.1
7539.76,17153.1
7539.76,17261.4
7558.86,17355.3
7595.91,17443.7
7649.49,17523.1
7717.53,17590.6
7797.43,17643.5
7886.11,17679.8
7900.94,17681.3
7975.98,17632.2
7975.98,17153.1
7539.76,17153.1
3074.97,17153.1
3037.39,17083.6
2975.35,16944.9
7539.76,16944.9
7539.76,17053.1
7975.98,17053.1
7975.98,16574.1
8075.98,16574.1
8075.98,17053.1
8083.86,17053.1
8083.86,17153.1
8075.98,17153.1
8075.98,17632.2
8151.03,17681.3
8165.86,17679.8
8254.54,17643.5
8334.44,17590.6
8383.83,17541.6
8384.85,17543.5
8428.32,17596.5
8481.27,17639.9
8541.69,17672.2
8607.25,17692.1
8675.43,17698.8
8951.34,17698.8
9019.52,17692.1
9085.08,17672.2
9145.5,17639.9
9198.46,17596.5
9241.92,17543.5
9274.21,17483.1
9294.1,17417.5
9300.82,17349.4
9300.82,17108.5
9610.65,16798.6
9623.94,16787.7
9644.55,16762.6
9667.48,16734.7
9673.62,16723.2
9699.84,16674.1
9719.76,16608.5
9724.8,16557.3
9724.8,16557.3
9726.49,16540.2
9724.8,16523
9724.8,15770.7
9750.86,15749.3
9782.1,15711.2
9805.32,15667.8
9819.61,15620.7
9824.44,15571.7
9824.44,15178
9819.61,15128.9
9805.32,15081.8
9782.1,15038.4
9750.86,15000.3
9712.79,14969.1
9669.36,14945.9
9622.24,14931.6
9573.23,14926.7
9179.53,14926.7
9130.52,14931.6
9083.39,14945.9
9039.96,14969.1
9001.9,15000.3
8970.65,15038.4
8947.44,15081.8
8933.14,15128.9
8928.32,15178
8928.32,15571.7
8933.14,15620.7
8947.44,15667.8
8970.65,15711.2
9001.9,15749.3
9027.95,15770.7
9027.95,16395.8
8916.34,16507.5
8675.43,16507.5
8607.25,16514.2
8541.69,16534.1
8481.27,16566.3
8428.32,16609.8
8384.85,16662.8
8383.83,16664.7
8334.44,16615.7
8254.54,16562.8
8165.86,16526.5
8151.03,16525
8075.98,16574.1
7975.98,16574.1
7900.94,16525
7886.11,16526.5
7797.43,16562.8
7717.53,16615.7
7649.49,16683.2
7595.91,16762.6
7558.86,16851
7539.76,16944.9
2975.35,16944.9
2708,16347
2434.77,15587.7
2219.23,14810.1
2062.6,14018.5
1965.77,13217.5
1929.28,12411.4
1953.32,11604.8
2037.78,10802.3
2182.17,10008.4
2385.67,9227.54
2647.15,8464.16
2965.14,7722.52
3337.83,7006.82
3376.5,6944.48
3782.28,6944.48
3782.28,7071.27
3807.02,7195.63
3855.54,7312.78
3925.99,7418.21
4015.65,7507.87
4121.08,7578.31
4238.22,7626.84
4362.59,7651.57
4489.38,7651.57
4613.74,7626.84
4730.89,7578.31
4836.32,7507.87
4925.98,7418.21
4996.42,7312.78
5044.95,7195.63
5069.69,7071.27
5069.69,6944.48
5044.95,6820.11
4996.42,6702.97
4925.98,6597.54
4836.32,6507.88
4730.89,6437.43
4613.74,6388.91
4489.38,6364.17
4362.59,6364.17
4238.22,6388.91
4121.08,6437.43
4015.65,6507.88
3925.99,6597.54
3855.54,6702.97
3807.02,6820.11
3782.28,6944.48
3376.5,6944.48
3763.14,6321.08
4238.67,5669.15
4555.61,5296.85
12566.1,5296.85
12567.3,5381.2
12629.8,5443.7
12964.2,5443.7
12964.2,5109.35
13064.2,5109.35
13064.2,5443.7
13398.5,5443.7
13461,5381.2
13462.2,5296.85
13457.4,5247.84
13443.1,5200.72
13437.7,5190.55
14566.1,5190.55
14570.9,5239.56
14585.2,5286.69
14608.4,5330.12
14639.7,5368.18
14677.8,5399.42
14721.2,5422.64
14768.3,5436.93
14817.3,5441.76
14901.7,5440.55
14964.2,5378.05
14964.2,5043.7
15064.2,5043.7
15064.2,5378.05
15126.7,5440.55
15211,5441.76
15260,5436.93
15307.2,5422.64
15350.6,5399.42
15388.7,5368.18
15419.9,5330.12
15443.1,5286.69
15457.4,5239.56
15462.2,5190.55
15461,5106.2
15398.5,5043.7
15064.2,5043.7
14964.2,5043.7
14629.8,5043.7
14567.3,5106.2
14566.1,5190.55
13437.7,5190.55
13419.9,5157.29
13388.7,5119.22
13350.6,5087.98
13307.2,5064.76
13260,5050.47
13211,5045.64
13126.7,5046.85
13064.2,5109.35
12964.2,5109.35
12901.7,5046.85
12817.3,5045.64
12768.3,5050.47
12721.2,5064.76
12677.8,5087.98
12639.7,5119.22
12608.5,5157.29
12585.2,5200.72
12570.9,5247.84
12566.1,5296.85
4555.61,5296.85
4761.74,5054.71
5016.98,4796.85
14566.1,4796.85
14567.3,4881.2
14629.8,4943.7
14964.2,4943.7
14964.2,4609.35
15064.2,4609.35
15064.2,4943.7
15398.5,4943.7
15461,4881.2
15462.2,4796.85
15457.4,4747.84
15443.1,4700.72
15419.9,4657.29
15388.7,4619.22
15350.6,4587.98
15307.2,4564.76
15260,4550.47
15211,4545.64
15126.7,4546.85
15064.2,4609.35
14964.2,4609.35
14901.7,4546.85
14817.3,4545.64
14768.3,4550.47
14721.2,4564.76
14677.8,4587.98
14639.7,4619.22
14608.4,4657.29
14585.2,4700.72
14570.9,4747.84
14566.1,4796.85
5016.98,4796.85
5329.4,4481.23
5938.47,3951.92
6585.51,3469.77
7266.88,3037.49
7978.75,2657.51
8717.09,2331.98
9477.77,2062.72
10256.5,1851.26
11048.9,1698.78
11850.5,1606.14
12656.8,1573.87
Z" /> 
</g>
</g>
</g>
<g style="fill:#FFFFFF; fill-opacity:1.0; 
stroke:#FFFFFF; stroke-width:100; stroke-opacity:1; 
stroke-linecap:round; stroke-linejoin:round;">
</g>
<g style="fill:#FFFFFF; fill-opacity:1.0; 
stroke:#FFFFFF; stroke-width:0; stroke-opacity:1; 
stroke-linecap:round; stroke-linejoin:round;">
<circle cx="15014.2" cy="4993.7" r="98.4252" /> 
</g>
<g style="fill:#FFFFFF; fill-opacity:1.0; 
stroke:#FFFFFF; stroke-width:39.3701; stroke-opacity:1; 
stroke-linecap:round; stroke-linejoin:round;">
</g>
<g style="fill:#FFFFFF; fill-opacity:1.0; 
stroke:#FFFFFF; stroke-width:0; stroke-opacity:1; 
stroke-linecap:round; stroke-linejoin:round;">
<circle cx="4425.98" cy="7007.87" r="393.701" /> 
</g>
<g style="fill:#FFFFFF; fill-opacity:1.0; 
stroke:#FFFFFF; stroke-width:39.3701; stroke-opacity:1; 
stroke-linecap:round; stroke-linejoin:round;">
</g>
<g style="fill:#FFFFFF; fill-opacity:1.0; 
stroke:#FFFFFF; stroke-width:0; stroke-opacity:1; 
stroke-linecap:round; stroke-linejoin:round;">
<circle cx="20961.4" cy="7007.87" r="393.701" /> 
</g>
<g style="fill:#FFFFFF; fill-opacity:1.0; 
stroke:#FFFFFF; stroke-width:39.3701; stroke-opacity:1; 
stroke-linecap:round; stroke-linejoin:round;">
</g>
<g style="fill:#FFFFFF; fill-opacity:1.0; 
stroke:#FFFFFF; stroke-width:0; stroke-opacity:1; 
stroke-linecap:round; stroke-linejoin:round;">
<circle cx="18992.9" cy="20000" r="393.701" /> 
</g>
<g style="fill:#FFFFFF; fill-opacity:1.0; 
stroke:#FFFFFF; stroke-width:39.3701; stroke-opacity:1; 
stroke-linecap:round; stroke-linejoin:round;">
</g>
<g style="fill:#FFFFFF; fill-opacity:1.0; 
stroke:#FFFFFF; stroke-width:0; stroke-opacity:1; 
stroke-linecap:round; stroke-linejoin:round;">
<circle cx="6394.49" cy="20000" r="393.701" /> 
</g>
<g style="fill:#FFFFFF; fill-opacity:1.0; 
stroke:#FFFFFF; stroke-width:39.3701; stroke-opacity:1; 
stroke-linecap:round; stroke-linejoin:round;">
</g>
<g style="fill:#FFFFFF; fill-opacity:1.0; 
stroke:#FFFFFF; stroke-width:0; stroke-opacity:1; 
stroke-linecap:round; stroke-linejoin:round;">
<circle cx="13014.2" cy="5493.7" r="98.4252" /> 
</g>
<g style="fill:#FFFFFF; fill-opacity:1.0; 
stroke:#FFFFFF; stroke-width:39.3701; stroke-opacity:1; 
stroke-linecap:round; stroke-linejoin:round;">
</g>
<g style="fill:#FFFFFF; fill-opacity:1.0; 
stroke:#FFFFFF; stroke-width:0; stroke-opacity:1; 
stroke-linecap:round; stroke-linejoin:round;">
<circle cx="14014.2" cy="8193.7" r="98.4252" /> 
</g>
<g style="fill:#FFFFFF; fill-opacity:1.0; 
stroke:#FFFFFF; stroke-width:39.3701; stroke-opacity:1; 
stroke-linecap:round; stroke-linejoin:round;">
</g>
<g style="fill:#FFFFFF; fill-opacity:1.0; 
stroke:#FFFFFF; stroke-width:0; stroke-opacity:1; 
stroke-linecap:round; stroke-linejoin:round;">
<circle cx="18049.6" cy="13587.4" r="98.4252" /> 
</g>
<g style="fill:#FFFFFF; fill-opacity:1.0; 
stroke:#FFFFFF; stroke-width:39.3701; stroke-opacity:1; 
stroke-linecap:round; stroke-linejoin:round;">
</g>
<g style="fill:#FFFFFF; fill-opacity:1.0; 
stroke:#FFFFFF; stroke-width:0; stroke-opacity:1; 
stroke-linecap:round; stroke-linejoin:round;">
<circle cx="12045.7" cy="18524.4" r="98.4252" /> 
</g>
<g style="fill:#FFFFFF; fill-opacity:1.0; 
stroke:#FFFFFF; stroke-width:39.3701; stroke-opacity:1; 
stroke-linecap:round; stroke-linejoin:round;">
</g>
<g style="fill:#FFFFFF; fill-opacity:1.0; 
stroke:#FFFFFF; stroke-width:0; stroke-opacity:1; 
stroke-linecap:round; stroke-linejoin:round;">
<circle cx="10644.1" cy="5784.25" r="98.4252" /> 
</g>
<g style="fill:#FFFFFF; fill-opacity:1.0; 
stroke:#FFFFFF; stroke-width:39.3701; stroke-opacity:1; 
stroke-linecap:round; stroke-linejoin:round;">
</g>
<g style="fill:#FFFFFF; fill-opacity:1.0; 
stroke:#FFFFFF; stroke-width:0; stroke-opacity:1; 
stroke-linecap:round; stroke-linejoin:round;">
<circle cx="9376.38" cy="15374.8" r="98.4252" /> 
</g>
<g style="fill:#FFFFFF; fill-opacity:1.0; 
stroke:#FFFFFF; stroke-width:39.3701; stroke-opacity:1; 
stroke-linecap:round; stroke-linejoin:round;">
</g>
<g style="fill:#FFFFFF; fill-opacity:1.0; 
stroke:#FFFFFF; stroke-width:0; stroke-opacity:1; 
stroke-linecap:round; stroke-linejoin:round;">
<circle cx="14573.2" cy="20288.2" r="255.905" /> 
</g>
<g style="fill:#FFFFFF; fill-opacity:1.0; 
stroke:#FFFFFF; stroke-width:39.3701; stroke-opacity:1; 
stroke-linecap:round; stroke-linejoin:round;">
</g>
<g style="fill:#FFFFFF; fill-opacity:1.0; 
stroke:#FFFFFF; stroke-width:0; stroke-opacity:1; 
stroke-linecap:round; stroke-linejoin:round;">
<circle cx="9730.71" cy="20288.2" r="255.905" /> 
</g>
<g style="fill:#FFFFFF; fill-opacity:1.0; 
stroke:#FFFFFF; stroke-width:39.3701; stroke-opacity:1; 
stroke-linecap:round; stroke-linejoin:round;">
</g>
<g style="fill:#FFFFFF; fill-opacity:1.0; 
stroke:#FFFFFF; stroke-width:0; stroke-opacity:1; 
stroke-linecap:round; stroke-linejoin:round;">
<circle cx="13726.8" cy="20780.3" r="150" /> 
</g>
<g style="fill:#FFFFFF; fill-opacity:1.0; 
stroke:#FFFFFF; stroke-width:39.3701; stroke-opacity:1; 
stroke-linecap:round; stroke-linejoin:round;">
</g>
<g style="fill:#FFFFFF; fill-opacity:1.0; 
stroke:#FFFFFF; stroke-width:0; stroke-opacity:1; 
stroke-linecap:round; stroke-linejoin:round;">
<circle cx="12939.4" cy="20780.3" r="137.795" /> 
</g>
<g style="fill:#FFFFFF; fill-opacity:1.0; 
stroke:#FFFFFF; stroke-width:39.3701; stroke-opacity:1; 
stroke-linecap:round; stroke-linejoin:round;">
</g>
<g style="fill:#FFFFFF; fill-opacity:1.0; 
stroke:#FFFFFF; stroke-width:0; stroke-opacity:1; 
stroke-linecap:round; stroke-linejoin:round;">
<circle cx="12152" cy="20780.3" r="137.795" /> 
</g>
<g style="fill:#FFFFFF; fill-opacity:1.0; 
stroke:#FFFFFF; stroke-width:39.3701; stroke-opacity:1; 
stroke-linecap:round; stroke-linejoin:round;">
</g>
<g style="fill:#FFFFFF; fill-opacity:1.0; 
stroke:#FFFFFF; stroke-width:0; stroke-opacity:1; 
stroke-linecap:round; stroke-linejoin:round;">
<circle cx="10577.2" cy="20780.3" r="150" /> 
</g>
<g style="fill:#FFFFFF; fill-opacity:1.0; 
stroke:#FFFFFF; stroke-width:39.3701; stroke-opacity:1; 
stroke-linecap:round; stroke-linejoin:round;">
</g>
<g style="fill:#FFFFFF; fill-opacity:1.0; 
stroke:#FFFFFF; stroke-width:0; stroke-opacity:1; 
stroke-linecap:round; stroke-linejoin:round;">
<circle cx="13726.8" cy="19796.1" r="150" /> 
</g>
<g style="fill:#FFFFFF; fill-opacity:1.0; 
stroke:#FFFFFF; stroke-width:39.3701; stroke-opacity:1; 
stroke-linecap:round; stroke-linejoin:round;">
</g>
<g style="fill:#FFFFFF; fill-opacity:1.0; 
stroke:#FFFFFF; stroke-width:0; stroke-opacity:1; 
stroke-linecap:round; stroke-linejoin:round;">
<circle cx="12939.4" cy="19796.1" r="137.795" /> 
</g>
<g style="fill:#FFFFFF; fill-opacity:1.0; 
stroke:#FFFFFF; stroke-width:39.3701; stroke-opacity:1; 
stroke-linecap:round; stroke-linejoin:round;">
</g>
<g style="fill:#FFFFFF; fill-opacity:1.0; 
stroke:#FFFFFF; stroke-width:0; stroke-opacity:1; 
stroke-linecap:round; stroke-linejoin:round;">
<circle cx="12152" cy="19796.1" r="137.795" /> 
</g>
<g style="fill:#FFFFFF; fill-opacity:1.0; 
stroke:#FFFFFF; stroke-width:39.3701; stroke-opacity:1; 
stroke-linecap:round; stroke-linejoin:round;">
</g>
<g style="fill:#FFFFFF; fill-opacity:1.0; 
stroke:#FFFFFF; stroke-width:0; stroke-opacity:1; 
stroke-linecap:round; stroke-linejoin:round;">
<circle cx="10577.2" cy="19796.1" r="137.795" /> 
</g>
<g style="fill:#FFFFFF; fill-opacity:1.0; 
stroke:#FFFFFF; stroke-width:39.3701; stroke-opacity:1; 
stroke-linecap:round; stroke-linejoin:round;">
</g>
<g style="fill:#FFFFFF; fill-opacity:1.0; 
stroke:#FFFFFF; stroke-width:0; stroke-opacity:1; 
stroke-linecap:round; stroke-linejoin:round;">
<circle cx="8025.98" cy="17103.1" r="147.638" /> 
</g>
<g style="fill:#FFFFFF; fill-opacity:1.0; 
stroke:#FFFFFF; stroke-width:39.3701; stroke-opacity:1; 
stroke-linecap:round; stroke-linejoin:round;">
</g>
<g style="fill:#FFFFFF; fill-opacity:1.0; 
stroke:#FFFFFF; stroke-width:0; stroke-opacity:1; 
stroke-linecap:round; stroke-linejoin:round;">
<circle cx="8813.39" cy="17103.1" r="147.638" /> 
</g>
<g style="fill:#FFFFFF; fill-opacity:1.0; 
stroke:#FFFFFF; stroke-width:39.3701; stroke-opacity:1; 
stroke-linecap:round; stroke-linejoin:round;">
</g>
<g style="fill:#FFFFFF; fill-opacity:1.0; 
stroke:#FFFFFF; stroke-width:0; stroke-opacity:1; 
stroke-linecap:round; stroke-linejoin:round;">
<circle cx="16045.7" cy="18622.8" r="157.48" /> 
</g>
<g style="fill:#FFFFFF; fill-opacity:1.0; 
stroke:#FFFFFF; stroke-width:39.3701; stroke-opacity:1; 
stroke-linecap:round; stroke-linejoin:round;">
</g>
<g style="fill:#FFFFFF; fill-opacity:1.0; 
stroke:#FFFFFF; stroke-width:0; stroke-opacity:1; 
stroke-linecap:round; stroke-linejoin:round;">
<circle cx="16045.7" cy="19622.8" r="157.48" /> 
</g>
<g style="fill:#FFFFFF; fill-opacity:1.0; 
stroke:#FFFFFF; stroke-width:39.3701; stroke-opacity:1; 
stroke-linecap:round; stroke-linejoin:round;">
</g>
<g style="fill:#FFFFFF; fill-opacity:1.0; 
stroke:#FFFFFF; stroke-width:0; stroke-opacity:1; 
stroke-linecap:round; stroke-linejoin:round;">
<circle cx="16045.7" cy="20622.8" r="157.48" /> 
</g>
<g style="fill:#FFFFFF; fill-opacity:1.0; 
stroke:#FFFFFF; stroke-width:39.3701; stroke-opacity:1; 
stroke-linecap:round; stroke-linejoin:round;">
</g>
<g style="fill:#FFFFFF; fill-opacity:1.0; 
stroke:#FFFFFF; stroke-width:0; stroke-opacity:1; 
stroke-linecap:round; stroke-linejoin:round;">
<circle cx="15596.9" cy="12689.8" r="196.85" /> 
</g>
<g style="fill:#FFFFFF; fill-opacity:1.0; 
stroke:#FFFFFF; stroke-width:39.3701; stroke-opacity:1; 
stroke-linecap:round; stroke-linejoin:round;">
</g>
<g style="fill:#FFFFFF; fill-opacity:1.0; 
stroke:#FFFFFF; stroke-width:0; stroke-opacity:1; 
stroke-linecap:round; stroke-linejoin:round;">
<circle cx="15596.9" cy="11689.8" r="196.85" /> 
</g>
<g style="fill:#FFFFFF; fill-opacity:1.0; 
stroke:#FFFFFF; stroke-width:39.3701; stroke-opacity:1; 
stroke-linecap:round; stroke-linejoin:round;">
</g>
<g style="fill:#FFFFFF; fill-opacity:1.0; 
stroke:#FFFFFF; stroke-width:0; stroke-opacity:1; 
stroke-linecap:round; stroke-linejoin:round;">
<circle cx="15596.9" cy="10689.8" r="196.85" /> 
</g>
<g style="fill:#FFFFFF; fill-opacity:1.0; 
stroke:#FFFFFF; stroke-width:39.3701; stroke-opacity:1; 
stroke-linecap:round; stroke-linejoin:round;">
</g>
<g style="fill:#FFFFFF; fill-opacity:1.0; 
stroke:#FFFFFF; stroke-width:0; stroke-opacity:1; 
stroke-linecap:round; stroke-linejoin:round;">
<circle cx="15596.9" cy="9689.76" r="196.85" /> 
</g>
<g style="fill:#FFFFFF; fill-opacity:1.0; 
stroke:#FFFFFF; stroke-width:39.3701; stroke-opacity:1; 
stroke-linecap:round; stroke-linejoin:round;">
</g>
<g style="fill:#FFFFFF; fill-opacity:1.0; 
stroke:#FFFFFF; stroke-width:0; stroke-opacity:1; 
stroke-linecap:round; stroke-linejoin:round;">
<circle cx="15734.6" cy="6075.59" r="157.48" /> 
</g>
<g style="fill:#FFFFFF; fill-opacity:1.0; 
stroke:#FFFFFF; stroke-width:39.3701; stroke-opacity:1; 
stroke-linecap:round; stroke-linejoin:round;">
</g>
<g style="fill:#FFFFFF; fill-opacity:1.0; 
stroke:#FFFFFF; stroke-width:0; stroke-opacity:1; 
stroke-linecap:round; stroke-linejoin:round;">
<circle cx="15734.6" cy="7453.54" r="157.48" /> 
</g>
<g style="fill:#FFFFFF; fill-opacity:1.0; 
stroke:#FFFFFF; stroke-width:39.3701; stroke-opacity:1; 
stroke-linecap:round; stroke-linejoin:round;">
</g>
<g style="fill:#FFFFFF; fill-opacity:1.0; 
stroke:#FFFFFF; stroke-width:0; stroke-opacity:1; 
stroke-linecap:round; stroke-linejoin:round;">
<circle cx="12506.3" cy="6614.96" r="147.638" /> 
</g>
<g style="fill:#FFFFFF; fill-opacity:1.0; 
stroke:#FFFFFF; stroke-width:39.3701; stroke-opacity:1; 
stroke-linecap:round; stroke-linejoin:round;">
</g>
<g style="fill:#FFFFFF; fill-opacity:1.0; 
stroke:#FFFFFF; stroke-width:0; stroke-opacity:1; 
stroke-linecap:round; stroke-linejoin:round;">
<circle cx="11718.9" cy="6614.96" r="147.638" /> 
</g>
<g style="fill:#FFFFFF; fill-opacity:1.0; 
stroke:#FFFFFF; stroke-width:39.3701; stroke-opacity:1; 
stroke-linecap:round; stroke-linejoin:round;">
</g>
<g style="fill:#000000; fill-opacity:1.0; 
stroke:#000000; stroke-width:39.3701; stroke-opacity:1; 
stroke-linecap:round; stroke-linejoin:round;">
</g>
<g style="fill:#000000; fill-opacity:1.0; 
stroke:#000000; stroke-width:19.685; stroke-opacity:1; 
stroke-linecap:round; stroke-linejoin:round;">
</g>
<g style="fill:#000000; fill-opacity:0.0; 
stroke:#000000; stroke-width:19.685; stroke-opacity:1; 
stroke-linecap:round; stroke-linejoin:round;">
<path d="M18083 21928
L7283 21928
" />
<path d="M18083.5 21928.3 A11014.5 11014.5 0.0 1 0 7283.46 21928.3" />
<g >
</g>
<g >
</g>
<g >
</g>
<g >
</g>
<g >
</g>
<g >
</g>
<g >
</g>
<g >
</g>
<g >
</g>
<g >
</g>
<g >
</g>
<g >
</g>
<g >
</g>
<g >
</g>
<g >
</g>
<g >
</g>
<g >
</g>
<g >
</g>
<g >
</g>
<g >
</g>
<g >
</g>
<g >
</g>
<g >
</g>
<g >
</g>
<g >
</g>
<g >
</g>
<g >
</g>
<g >
</g>
<g >
</g>
<g >
</g>
<g >
</g>
<g >
</g>
<g >
</g>
<g >
</g>
<g >
</g>
<g >
</g>
<g >
</g>
<g >
</g>
<g >
</g>
<g >
</g>
<g >
</g>
<g >
</g>
<g >
</g>
<g >
</g>
</g> 
</svg>
