<?xml version="1.0" standalone="no"?>
 <!DOCTYPE svg PUBLIC "-//W3C//DTD SVG 1.1//EN" 
 "http://www.w3.org/Graphics/SVG/1.1/DTD/svg11.dtd"> 
<svg
  xmlns:svg="http://www.w3.org/2000/svg"
  xmlns="http://www.w3.org/2000/svg"
  xmlns:xlink="http://www.w3.org/1999/xlink"
  version="1.1"
  width="6.446520cm" height="5.897880cm" viewBox="0 0 25380 23220">
<title>SVG Picture created as night-light-brd.svg date 2022/06/03 20:07:02 </title>
  <desc>Picture generated by PCBNEW </desc>
<g style="fill:#000000; fill-opacity:1;stroke:#000000; stroke-opacity:1;
stroke-linecap:round; stroke-linejoin:round;"
 transform="translate(0 0) scale(1 1)">
</g>
<g style="fill:#000000; fill-opacity:0.0; 
stroke:#000000; stroke-width:-0.000393701; stroke-opacity:1; 
stroke-linecap:round; stroke-linejoin:round;">
<g >
</g>
<g style="fill:#000000; fill-opacity:0.0; 
stroke:#000000; stroke-width:0; stroke-opacity:1; 
stroke-linecap:round; stroke-linejoin:round;">
</g>
<g style="fill:#000000; fill-opacity:1.0; 
stroke:#000000; stroke-width:0; stroke-opacity:1; 
stroke-linecap:round; stroke-linejoin:round;">
<path style="fill:#000000; fill-opacity:1.0; 
stroke:#000000; stroke-width:0; stroke-opacity:1; 
stroke-linecap:round; stroke-linejoin:round;fill-rule:evenodd;"
d="M 14817.3,5190.55
14817.3,4796.85
15211,4796.85
15211,5190.55
Z" /> 
</g>
<g >
</g>
<g style="fill:#000000; fill-opacity:1.0; 
stroke:#000000; stroke-width:0; stroke-opacity:1; 
stroke-linecap:round; stroke-linejoin:round;">
<circle cx="4425.98" cy="7007.87" r="393.701" /> 
</g>
<g style="fill:#000000; fill-opacity:1.0; 
stroke:#000000; stroke-width:39.3701; stroke-opacity:1; 
stroke-linecap:round; stroke-linejoin:round;">
</g>
<g >
</g>
<g style="fill:#000000; fill-opacity:1.0; 
stroke:#000000; stroke-width:39.3701; stroke-opacity:1; 
stroke-linecap:round; stroke-linejoin:round;">
</g>
<g style="fill:#000000; fill-opacity:1.0; 
stroke:#000000; stroke-width:0; stroke-opacity:1; 
stroke-linecap:round; stroke-linejoin:round;">
<circle cx="20961.4" cy="7007.87" r="393.701" /> 
</g>
<g style="fill:#000000; fill-opacity:1.0; 
stroke:#000000; stroke-width:39.3701; stroke-opacity:1; 
stroke-linecap:round; stroke-linejoin:round;">
</g>
<g >
</g>
<g style="fill:#000000; fill-opacity:1.0; 
stroke:#000000; stroke-width:39.3701; stroke-opacity:1; 
stroke-linecap:round; stroke-linejoin:round;">
</g>
<g style="fill:#000000; fill-opacity:1.0; 
stroke:#000000; stroke-width:0; stroke-opacity:1; 
stroke-linecap:round; stroke-linejoin:round;">
<circle cx="18992.9" cy="20000" r="393.701" /> 
</g>
<g style="fill:#000000; fill-opacity:1.0; 
stroke:#000000; stroke-width:39.3701; stroke-opacity:1; 
stroke-linecap:round; stroke-linejoin:round;">
</g>
<g >
</g>
<g style="fill:#000000; fill-opacity:1.0; 
stroke:#000000; stroke-width:39.3701; stroke-opacity:1; 
stroke-linecap:round; stroke-linejoin:round;">
</g>
<g style="fill:#000000; fill-opacity:1.0; 
stroke:#000000; stroke-width:0; stroke-opacity:1; 
stroke-linecap:round; stroke-linejoin:round;">
<circle cx="6394.49" cy="20000" r="393.701" /> 
</g>
<g style="fill:#000000; fill-opacity:1.0; 
stroke:#000000; stroke-width:39.3701; stroke-opacity:1; 
stroke-linecap:round; stroke-linejoin:round;">
</g>
<g >
</g>
<g style="fill:#000000; fill-opacity:1.0; 
stroke:#000000; stroke-width:39.3701; stroke-opacity:1; 
stroke-linecap:round; stroke-linejoin:round;">
</g>
<g style="fill:#000000; fill-opacity:1.0; 
stroke:#000000; stroke-width:0; stroke-opacity:1; 
stroke-linecap:round; stroke-linejoin:round;">
<path style="fill:#000000; fill-opacity:1.0; 
stroke:#000000; stroke-width:0; stroke-opacity:1; 
stroke-linecap:round; stroke-linejoin:round;fill-rule:evenodd;"
d="M 12817.3,5690.55
12817.3,5296.85
13211,5296.85
13211,5690.55
Z" /> 
</g>
<g >
</g>
<g style="fill:#000000; fill-opacity:1.0; 
stroke:#000000; stroke-width:0; stroke-opacity:1; 
stroke-linecap:round; stroke-linejoin:round;">
<path style="fill:#000000; fill-opacity:1.0; 
stroke:#000000; stroke-width:0; stroke-opacity:1; 
stroke-linecap:round; stroke-linejoin:round;fill-rule:evenodd;"
d="M 13817.3,8390.55
13817.3,7996.85
14211,7996.85
14211,8390.55
Z" /> 
</g>
<g >
</g>
<g style="fill:#000000; fill-opacity:1.0; 
stroke:#000000; stroke-width:0; stroke-opacity:1; 
stroke-linecap:round; stroke-linejoin:round;">
<path style="fill:#000000; fill-opacity:1.0; 
stroke:#000000; stroke-width:0; stroke-opacity:1; 
stroke-linecap:round; stroke-linejoin:round;fill-rule:evenodd;"
d="M 17852.8,13784.3
17852.8,13390.6
18246.5,13390.6
18246.5,13784.3
Z" /> 
</g>
<g >
</g>
<g style="fill:#000000; fill-opacity:1.0; 
stroke:#000000; stroke-width:0; stroke-opacity:1; 
stroke-linecap:round; stroke-linejoin:round;">
<path style="fill:#000000; fill-opacity:1.0; 
stroke:#000000; stroke-width:0; stroke-opacity:1; 
stroke-linecap:round; stroke-linejoin:round;fill-rule:evenodd;"
d="M 11848.8,18721.3
11848.8,18327.6
12242.5,18327.6
12242.5,18721.3
Z" /> 
</g>
<g >
</g>
<g style="fill:#000000; fill-opacity:1.0; 
stroke:#000000; stroke-width:0; stroke-opacity:1; 
stroke-linecap:round; stroke-linejoin:round;">
<path style="fill:#000000; fill-opacity:1.0; 
stroke:#000000; stroke-width:0; stroke-opacity:1; 
stroke-linecap:round; stroke-linejoin:round;fill-rule:evenodd;"
d="M 10447.2,5981.1
10447.2,5587.4
10840.9,5587.4
10840.9,5981.1
Z" /> 
</g>
<g >
</g>
<g style="fill:#000000; fill-opacity:1.0; 
stroke:#000000; stroke-width:0; stroke-opacity:1; 
stroke-linecap:round; stroke-linejoin:round;">
<path style="fill:#000000; fill-opacity:1.0; 
stroke:#000000; stroke-width:0; stroke-opacity:1; 
stroke-linecap:round; stroke-linejoin:round;fill-rule:evenodd;"
d="M 9179.53,15571.7
9179.53,15178
9573.23,15178
9573.23,15571.7
Z" /> 
</g>
<g >
</g>
<g style="fill:#000000; fill-opacity:1.0; 
stroke:#000000; stroke-width:0; stroke-opacity:1; 
stroke-linecap:round; stroke-linejoin:round;">
<path style="fill:#000000; fill-opacity:1.0; 
stroke:#000000; stroke-width:0; stroke-opacity:1; 
stroke-linecap:round; stroke-linejoin:round;fill-rule:evenodd;"
d="M 15919.7,15620.9
15919.7,15365
16337,15365
16337,15620.9
Z" /> 
<path style="fill:#000000; fill-opacity:1.0; 
stroke:#000000; stroke-width:0; stroke-opacity:1; 
stroke-linecap:round; stroke-linejoin:round;fill-rule:evenodd;"
d="M 15919.7,16368.9
15919.7,16113
16337,16113
16337,16368.9
Z" /> 
<path style="fill:#000000; fill-opacity:1.0; 
stroke:#000000; stroke-width:0; stroke-opacity:1; 
stroke-linecap:round; stroke-linejoin:round;fill-rule:evenodd;"
d="M 15053.5,16368.9
15053.5,16113
15470.9,16113
15470.9,16368.9
Z" /> 
<path style="fill:#000000; fill-opacity:1.0; 
stroke:#000000; stroke-width:0; stroke-opacity:1; 
stroke-linecap:round; stroke-linejoin:round;fill-rule:evenodd;"
d="M 15053.5,15994.9
15053.5,15739
15470.9,15739
15470.9,15994.9
Z" /> 
<path style="fill:#000000; fill-opacity:1.0; 
stroke:#000000; stroke-width:0; stroke-opacity:1; 
stroke-linecap:round; stroke-linejoin:round;fill-rule:evenodd;"
d="M 15053.5,15620.9
15053.5,15365
15470.9,15365
15470.9,15620.9
Z" /> 
</g>
<g >
</g>
<g style="fill:#000000; fill-opacity:1.0; 
stroke:#000000; stroke-width:0; stroke-opacity:1; 
stroke-linecap:round; stroke-linejoin:round;">
<path style="fill:#000000; fill-opacity:1.0; 
stroke:#000000; stroke-width:0; stroke-opacity:1; 
stroke-linecap:round; stroke-linejoin:round;fill-rule:evenodd;"
d="M 9691.73,7483.66
8391.73,7483.66
8391.73,6533.66
9691.73,6533.66
Z" /> 
<path style="fill:#000000; fill-opacity:1.0; 
stroke:#000000; stroke-width:0; stroke-opacity:1; 
stroke-linecap:round; stroke-linejoin:round;fill-rule:evenodd;"
d="M 8394.93,5646.54
8396.53,5646.77
8398.11,5647.17
8399.64,5647.72
8401.1,5648.41
8402.49,5649.24
8403.8,5650.21
8405,5651.3
8406.09,5652.5
8407.06,5653.81
8407.89,5655.2
8408.58,5656.66
8409.13,5658.19
8409.52,5659.77
8409.76,5661.37
8409.84,5662.99
8409.84,6405.51
8409.76,6407.13
8409.52,6408.74
8409.13,6410.31
8408.58,6411.84
8407.89,6413.31
8407.06,6414.7
8406.09,6416
8405,6417.2
8403.8,6418.29
8402.49,6419.26
8401.1,6420.09
8399.64,6420.79
8398.11,6421.34
8396.53,6421.73
8394.93,6421.97
8393.31,6422.05
8190.16,6422.05
8188.54,6421.97
8186.93,6421.73
8185.36,6421.34
8183.83,6420.79
8182.36,6420.09
8180.97,6419.26
8179.67,6418.29
8178.47,6417.2
8177.38,6416
8176.41,6414.7
8175.57,6413.31
8174.88,6411.84
8174.33,6410.31
8173.94,6408.74
8173.7,6407.13
8173.62,6405.51
8173.62,5662.99
8173.7,5661.37
8173.94,5659.77
8174.33,5658.19
8174.88,5656.66
8175.57,5655.2
8176.41,5653.81
8177.38,5652.5
8178.47,5651.3
8179.67,5650.21
8180.97,5649.24
8182.36,5648.41
8183.83,5647.72
8185.36,5647.17
8186.93,5646.77
8188.54,5646.54
8190.16,5646.46
8393.31,5646.46
Z" /> 
<path style="fill:#000000; fill-opacity:1.0; 
stroke:#000000; stroke-width:0; stroke-opacity:1; 
stroke-linecap:round; stroke-linejoin:round;fill-rule:evenodd;"
d="M 8894.93,5646.54
8896.53,5646.77
8898.11,5647.17
8899.64,5647.72
8901.1,5648.41
8902.49,5649.24
8903.8,5650.21
8905,5651.3
8906.09,5652.5
8907.06,5653.81
8907.89,5655.2
8908.58,5656.66
8909.13,5658.19
8909.52,5659.77
8909.76,5661.37
8909.84,5662.99
8909.84,6405.51
8909.76,6407.13
8909.52,6408.74
8909.13,6410.31
8908.58,6411.84
8907.89,6413.31
8907.06,6414.7
8906.09,6416
8905,6417.2
8903.8,6418.29
8902.49,6419.26
8901.1,6420.09
8899.64,6420.79
8898.11,6421.34
8896.53,6421.73
8894.93,6421.97
8893.31,6422.05
8690.16,6422.05
8688.54,6421.97
8686.93,6421.73
8685.36,6421.34
8683.83,6420.79
8682.36,6420.09
8680.97,6419.26
8679.67,6418.29
8678.47,6417.2
8677.38,6416
8676.41,6414.7
8675.57,6413.31
8674.88,6411.84
8674.33,6410.31
8673.94,6408.74
8673.7,6407.13
8673.62,6405.51
8673.62,5662.99
8673.7,5661.37
8673.94,5659.77
8674.33,5658.19
8674.88,5656.66
8675.57,5655.2
8676.41,5653.81
8677.38,5652.5
8678.47,5651.3
8679.67,5650.21
8680.97,5649.24
8682.36,5648.41
8683.83,5647.72
8685.36,5647.17
8686.93,5646.77
8688.54,5646.54
8690.16,5646.46
8893.31,5646.46
Z" /> 
<path style="fill:#000000; fill-opacity:1.0; 
stroke:#000000; stroke-width:0; stroke-opacity:1; 
stroke-linecap:round; stroke-linejoin:round;fill-rule:evenodd;"
d="M 9394.93,5646.54
9396.53,5646.77
9398.11,5647.17
9399.64,5647.72
9401.1,5648.41
9402.49,5649.24
9403.8,5650.21
9405,5651.3
9406.09,5652.5
9407.06,5653.81
9407.89,5655.2
9408.58,5656.66
9409.13,5658.19
9409.52,5659.77
9409.76,5661.37
9409.84,5662.99
9409.84,6405.51
9409.76,6407.13
9409.52,6408.74
9409.13,6410.31
9408.58,6411.84
9407.89,6413.31
9407.06,6414.7
9406.09,6416
9405,6417.2
9403.8,6418.29
9402.49,6419.26
9401.1,6420.09
9399.64,6420.79
9398.11,6421.34
9396.53,6421.73
9394.93,6421.97
9393.31,6422.05
9190.16,6422.05
9188.54,6421.97
9186.93,6421.73
9185.36,6421.34
9183.83,6420.79
9182.36,6420.09
9180.97,6419.26
9179.67,6418.29
9178.47,6417.2
9177.38,6416
9176.41,6414.7
9175.57,6413.31
9174.88,6411.84
9174.33,6410.31
9173.94,6408.74
9173.7,6407.13
9173.62,6405.51
9173.62,5662.99
9173.7,5661.37
9173.94,5659.77
9174.33,5658.19
9174.88,5656.66
9175.57,5655.2
9176.41,5653.81
9177.38,5652.5
9178.47,5651.3
9179.67,5650.21
9180.97,5649.24
9182.36,5648.41
9183.83,5647.72
9185.36,5647.17
9186.93,5646.77
9188.54,5646.54
9190.16,5646.46
9393.31,5646.46
Z" /> 
<path style="fill:#000000; fill-opacity:1.0; 
stroke:#000000; stroke-width:0; stroke-opacity:1; 
stroke-linecap:round; stroke-linejoin:round;fill-rule:evenodd;"
d="M 9894.93,5646.54
9896.53,5646.77
9898.11,5647.17
9899.64,5647.72
9901.1,5648.41
9902.49,5649.24
9903.8,5650.21
9905,5651.3
9906.09,5652.5
9907.06,5653.81
9907.89,5655.2
9908.58,5656.66
9909.13,5658.19
9909.52,5659.77
9909.76,5661.37
9909.84,5662.99
9909.84,6405.51
9909.76,6407.13
9909.52,6408.74
9909.13,6410.31
9908.58,6411.84
9907.89,6413.31
9907.06,6414.7
9906.09,6416
9905,6417.2
9903.8,6418.29
9902.49,6419.26
9901.1,6420.09
9899.64,6420.79
9898.11,6421.34
9896.53,6421.73
9894.93,6421.97
9893.31,6422.05
9690.16,6422.05
9688.54,6421.97
9686.93,6421.73
9685.36,6421.34
9683.83,6420.79
9682.36,6420.09
9680.97,6419.26
9679.67,6418.29
9678.47,6417.2
9677.38,6416
9676.41,6414.7
9675.57,6413.31
9674.88,6411.84
9674.33,6410.31
9673.94,6408.74
9673.7,6407.13
9673.62,6405.51
9673.62,5662.99
9673.7,5661.37
9673.94,5659.77
9674.33,5658.19
9674.88,5656.66
9675.57,5655.2
9676.41,5653.81
9677.38,5652.5
9678.47,5651.3
9679.67,5650.21
9680.97,5649.24
9682.36,5648.41
9683.83,5647.72
9685.36,5647.17
9686.93,5646.77
9688.54,5646.54
9690.16,5646.46
9893.31,5646.46
Z" /> 
<path style="fill:#000000; fill-opacity:1.0; 
stroke:#000000; stroke-width:0; stroke-opacity:1; 
stroke-linecap:round; stroke-linejoin:round;fill-rule:evenodd;"
d="M 9894.93,7595.36
9896.53,7595.59
9898.11,7595.99
9899.64,7596.53
9901.1,7597.23
9902.49,7598.06
9903.8,7599.03
9905,7600.12
9906.09,7601.32
9907.06,7602.62
9907.89,7604.02
9908.58,7605.48
9909.13,7607.01
9909.52,7608.59
9909.76,7610.19
9909.84,7611.81
9909.84,8354.33
9909.76,8355.95
9909.52,8357.56
9909.13,8359.13
9908.58,8360.66
9907.89,8362.13
9907.06,8363.52
9906.09,8364.82
9905,8366.02
9903.8,8367.11
9902.49,8368.08
9901.1,8368.91
9899.64,8369.61
9898.11,8370.15
9896.53,8370.55
9894.93,8370.79
9893.31,8370.87
9690.16,8370.87
9688.54,8370.79
9686.93,8370.55
9685.36,8370.15
9683.83,8369.61
9682.36,8368.91
9680.97,8368.08
9679.67,8367.11
9678.47,8366.02
9677.38,8364.82
9676.41,8363.52
9675.57,8362.13
9674.88,8360.66
9674.33,8359.13
9673.94,8357.56
9673.7,8355.95
9673.62,8354.33
9673.62,7611.81
9673.7,7610.19
9673.94,7608.59
9674.33,7607.01
9674.88,7605.48
9675.57,7604.02
9676.41,7602.62
9677.38,7601.32
9678.47,7600.12
9679.67,7599.03
9680.97,7598.06
9682.36,7597.23
9683.83,7596.53
9685.36,7595.99
9686.93,7595.59
9688.54,7595.36
9690.16,7595.28
9893.31,7595.28
Z" /> 
<path style="fill:#000000; fill-opacity:1.0; 
stroke:#000000; stroke-width:0; stroke-opacity:1; 
stroke-linecap:round; stroke-linejoin:round;fill-rule:evenodd;"
d="M 9394.93,7595.36
9396.53,7595.59
9398.11,7595.99
9399.64,7596.53
9401.1,7597.23
9402.49,7598.06
9403.8,7599.03
9405,7600.12
9406.09,7601.32
9407.06,7602.62
9407.89,7604.02
9408.58,7605.48
9409.13,7607.01
9409.52,7608.59
9409.76,7610.19
9409.84,7611.81
9409.84,8354.33
9409.76,8355.95
9409.52,8357.56
9409.13,8359.13
9408.58,8360.66
9407.89,8362.13
9407.06,8363.52
9406.09,8364.82
9405,8366.02
9403.8,8367.11
9402.49,8368.08
9401.1,8368.91
9399.64,8369.61
9398.11,8370.15
9396.53,8370.55
9394.93,8370.79
9393.31,8370.87
9190.16,8370.87
9188.54,8370.79
9186.93,8370.55
9185.36,8370.15
9183.83,8369.61
9182.36,8368.91
9180.97,8368.08
9179.67,8367.11
9178.47,8366.02
9177.38,8364.82
9176.41,8363.52
9175.57,8362.13
9174.88,8360.66
9174.33,8359.13
9173.94,8357.56
9173.7,8355.95
9173.62,8354.33
9173.62,7611.81
9173.7,7610.19
9173.94,7608.59
9174.33,7607.01
9174.88,7605.48
9175.57,7604.02
9176.41,7602.62
9177.38,7601.32
9178.47,7600.12
9179.67,7599.03
9180.97,7598.06
9182.36,7597.23
9183.83,7596.53
9185.36,7595.99
9186.93,7595.59
9188.54,7595.36
9190.16,7595.28
9393.31,7595.28
Z" /> 
<path style="fill:#000000; fill-opacity:1.0; 
stroke:#000000; stroke-width:0; stroke-opacity:1; 
stroke-linecap:round; stroke-linejoin:round;fill-rule:evenodd;"
d="M 8894.93,7595.36
8896.53,7595.59
8898.11,7595.99
8899.64,7596.53
8901.1,7597.23
8902.49,7598.06
8903.8,7599.03
8905,7600.12
8906.09,7601.32
8907.06,7602.62
8907.89,7604.02
8908.58,7605.48
8909.13,7607.01
8909.52,7608.59
8909.76,7610.19
8909.84,7611.81
8909.84,8354.33
8909.76,8355.95
8909.52,8357.56
8909.13,8359.13
8908.58,8360.66
8907.89,8362.13
8907.06,8363.52
8906.09,8364.82
8905,8366.02
8903.8,8367.11
8902.49,8368.08
8901.1,8368.91
8899.64,8369.61
8898.11,8370.15
8896.53,8370.55
8894.93,8370.79
8893.31,8370.87
8690.16,8370.87
8688.54,8370.79
8686.93,8370.55
8685.36,8370.15
8683.83,8369.61
8682.36,8368.91
8680.97,8368.08
8679.67,8367.11
8678.47,8366.02
8677.38,8364.82
8676.41,8363.52
8675.57,8362.13
8674.88,8360.66
8674.33,8359.13
8673.94,8357.56
8673.7,8355.95
8673.62,8354.33
8673.62,7611.81
8673.7,7610.19
8673.94,7608.59
8674.33,7607.01
8674.88,7605.48
8675.57,7604.02
8676.41,7602.62
8677.38,7601.32
8678.47,7600.12
8679.67,7599.03
8680.97,7598.06
8682.36,7597.23
8683.83,7596.53
8685.36,7595.99
8686.93,7595.59
8688.54,7595.36
8690.16,7595.28
8893.31,7595.28
Z" /> 
<path style="fill:#000000; fill-opacity:1.0; 
stroke:#000000; stroke-width:0; stroke-opacity:1; 
stroke-linecap:round; stroke-linejoin:round;fill-rule:evenodd;"
d="M 8394.93,7595.36
8396.53,7595.59
8398.11,7595.99
8399.64,7596.53
8401.1,7597.23
8402.49,7598.06
8403.8,7599.03
8405,7600.12
8406.09,7601.32
8407.06,7602.62
8407.89,7604.02
8408.58,7605.48
8409.13,7607.01
8409.52,7608.59
8409.76,7610.19
8409.84,7611.81
8409.84,8354.33
8409.76,8355.95
8409.52,8357.56
8409.13,8359.13
8408.58,8360.66
8407.89,8362.13
8407.06,8363.52
8406.09,8364.82
8405,8366.02
8403.8,8367.11
8402.49,8368.08
8401.1,8368.91
8399.64,8369.61
8398.11,8370.15
8396.53,8370.55
8394.93,8370.79
8393.31,8370.87
8190.16,8370.87
8188.54,8370.79
8186.93,8370.55
8185.36,8370.15
8183.83,8369.61
8182.36,8368.91
8180.97,8368.08
8179.67,8367.11
8178.47,8366.02
8177.38,8364.82
8176.41,8363.52
8175.57,8362.13
8174.88,8360.66
8174.33,8359.13
8173.94,8357.56
8173.7,8355.95
8173.62,8354.33
8173.62,7611.81
8173.7,7610.19
8173.94,7608.59
8174.33,7607.01
8174.88,7605.48
8175.57,7604.02
8176.41,7602.62
8177.38,7601.32
8178.47,7600.12
8179.67,7599.03
8180.97,7598.06
8182.36,7597.23
8183.83,7596.53
8185.36,7595.99
8186.93,7595.59
8188.54,7595.36
8190.16,7595.28
8393.31,7595.28
Z" /> 
</g>
<g >
</g>
<g style="fill:#000000; fill-opacity:1.0; 
stroke:#000000; stroke-width:0; stroke-opacity:1; 
stroke-linecap:round; stroke-linejoin:round;">
<path style="fill:#000000; fill-opacity:1.0; 
stroke:#000000; stroke-width:0; stroke-opacity:1; 
stroke-linecap:round; stroke-linejoin:round;fill-rule:evenodd;"
d="M 8482.68,10965.4
8482.68,11221.3
8065.35,11221.3
8065.35,10965.4
Z" /> 
<path style="fill:#000000; fill-opacity:1.0; 
stroke:#000000; stroke-width:0; stroke-opacity:1; 
stroke-linecap:round; stroke-linejoin:round;fill-rule:evenodd;"
d="M 8482.68,10217.3
8482.68,10473.2
8065.35,10473.2
8065.35,10217.3
Z" /> 
<path style="fill:#000000; fill-opacity:1.0; 
stroke:#000000; stroke-width:0; stroke-opacity:1; 
stroke-linecap:round; stroke-linejoin:round;fill-rule:evenodd;"
d="M 9348.82,10217.3
9348.82,10473.2
8931.5,10473.2
8931.5,10217.3
Z" /> 
<path style="fill:#000000; fill-opacity:1.0; 
stroke:#000000; stroke-width:0; stroke-opacity:1; 
stroke-linecap:round; stroke-linejoin:round;fill-rule:evenodd;"
d="M 9348.82,10591.3
9348.82,10847.2
8931.5,10847.2
8931.5,10591.3
Z" /> 
<path style="fill:#000000; fill-opacity:1.0; 
stroke:#000000; stroke-width:0; stroke-opacity:1; 
stroke-linecap:round; stroke-linejoin:round;fill-rule:evenodd;"
d="M 9348.82,10965.4
9348.82,11221.3
8931.5,11221.3
8931.5,10965.4
Z" /> 
</g>
<g >
</g>
<g style="fill:#000000; fill-opacity:1.0; 
stroke:#000000; stroke-width:0; stroke-opacity:1; 
stroke-linecap:round; stroke-linejoin:round;">
<circle cx="14573.2" cy="20288.2" r="255.906" /> 
</g>
<g style="fill:#000000; fill-opacity:1.0; 
stroke:#000000; stroke-width:39.3701; stroke-opacity:1; 
stroke-linecap:round; stroke-linejoin:round;">
</g>
<g style="fill:#000000; fill-opacity:1.0; 
stroke:#000000; stroke-width:0; stroke-opacity:1; 
stroke-linecap:round; stroke-linejoin:round;">
<circle cx="9730.71" cy="20288.2" r="255.906" /> 
</g>
<g style="fill:#000000; fill-opacity:1.0; 
stroke:#000000; stroke-width:39.3701; stroke-opacity:1; 
stroke-linecap:round; stroke-linejoin:round;">
</g>
<g >
</g>
<g >
</g>
<g >
</g>
<g style="fill:#000000; fill-opacity:1.0; 
stroke:#000000; stroke-width:39.3701; stroke-opacity:1; 
stroke-linecap:round; stroke-linejoin:round;">
</g>
<g style="fill:#000000; fill-opacity:1.0; 
stroke:#000000; stroke-width:0; stroke-opacity:1; 
stroke-linecap:round; stroke-linejoin:round;">
<path style="fill:#000000; fill-opacity:1.0; 
stroke:#000000; stroke-width:0; stroke-opacity:1; 
stroke-linecap:round; stroke-linejoin:round;fill-rule:evenodd;"
d="M 9582.88,3426.46
9592.43,3427.88
9601.8,3430.22
9610.89,3433.48
9619.63,3437.61
9627.91,3442.57
9635.67,3448.33
9642.83,3454.81
9649.31,3461.97
9655.07,3469.73
9660.03,3478.01
9664.16,3486.74
9667.42,3495.84
9669.76,3505.21
9671.18,3514.76
9671.65,3524.41
9671.65,3878.74
9671.18,3888.39
9669.76,3897.94
9667.42,3907.31
9664.16,3916.41
9660.03,3925.14
9655.07,3933.42
9649.31,3941.18
9642.83,3948.34
9635.67,3954.82
9627.91,3960.58
9619.63,3965.54
9610.89,3969.67
9601.8,3972.93
9592.43,3975.27
9582.88,3976.69
9573.23,3977.17
9366.54,3977.17
9356.89,3976.69
9347.33,3975.27
9337.96,3972.93
9328.87,3969.67
9320.14,3965.54
9311.85,3960.58
9304.09,3954.82
9296.94,3948.34
9290.45,3941.18
9284.7,3933.42
9279.73,3925.14
9275.6,3916.41
9272.35,3907.31
9270,3897.94
9268.58,3888.39
9268.11,3878.74
9268.11,3524.41
9268.58,3514.76
9270,3505.21
9272.35,3495.84
9275.6,3486.74
9279.73,3478.01
9284.7,3469.73
9290.45,3461.97
9296.94,3454.81
9304.09,3448.33
9311.85,3442.57
9320.14,3437.61
9328.87,3433.48
9337.96,3430.22
9347.33,3427.88
9356.89,3426.46
9366.54,3425.98
9573.23,3425.98
Z" /> 
<path style="fill:#000000; fill-opacity:1.0; 
stroke:#000000; stroke-width:0; stroke-opacity:1; 
stroke-linecap:round; stroke-linejoin:round;fill-rule:evenodd;"
d="M 10301.4,3426.46
10310.9,3427.88
10320.3,3430.22
10329.4,3433.48
10338.1,3437.61
10346.4,3442.57
10354.2,3448.33
10361.3,3454.81
10367.8,3461.97
10373.6,3469.73
10378.5,3478.01
10382.7,3486.74
10385.9,3495.84
10388.3,3505.21
10389.7,3514.76
10390.2,3524.41
10390.2,3878.74
10389.7,3888.39
10388.3,3897.94
10385.9,3907.31
10382.7,3916.41
10378.5,3925.14
10373.6,3933.42
10367.8,3941.18
10361.3,3948.34
10354.2,3954.82
10346.4,3960.58
10338.1,3965.54
10329.4,3969.67
10320.3,3972.93
10310.9,3975.27
10301.4,3976.69
10291.7,3977.17
10085,3977.17
10075.4,3976.69
10065.8,3975.27
10056.5,3972.93
10047.4,3969.67
10038.6,3965.54
10030.4,3960.58
10022.6,3954.82
10015.4,3948.34
10009,3941.18
10003.2,3933.42
9998.24,3925.14
9994.11,3916.41
9990.85,3907.31
9988.51,3897.94
9987.09,3888.39
9986.61,3878.74
9986.61,3524.41
9987.09,3514.76
9988.51,3505.21
9990.85,3495.84
9994.11,3486.74
9998.24,3478.01
10003.2,3469.73
10009,3461.97
10015.4,3454.81
10022.6,3448.33
10030.4,3442.57
10038.6,3437.61
10047.4,3433.48
10056.5,3430.22
10065.8,3427.88
10075.4,3426.46
10085,3425.98
10291.7,3425.98
Z" /> 
</g>
<g >
</g>
<g style="fill:#000000; fill-opacity:1.0; 
stroke:#000000; stroke-width:0; stroke-opacity:1; 
stroke-linecap:round; stroke-linejoin:round;">
<path style="fill:#000000; fill-opacity:1.0; 
stroke:#000000; stroke-width:0; stroke-opacity:1; 
stroke-linecap:round; stroke-linejoin:round;fill-rule:evenodd;"
d="M 9531.73,4774.79
9539.38,4775.92
9546.87,4777.8
9554.15,4780.4
9561.13,4783.71
9567.76,4787.68
9573.97,4792.28
9579.69,4797.47
9584.88,4803.2
9589.49,4809.4
9593.46,4816.03
9596.76,4823.02
9599.37,4830.29
9601.24,4837.79
9602.38,4845.43
9602.76,4853.15
9602.76,5069.69
9602.38,5077.4
9601.24,5085.05
9599.37,5092.54
9596.76,5099.82
9593.46,5106.8
9589.49,5113.43
9584.88,5119.64
9579.69,5125.36
9573.97,5130.55
9567.76,5135.16
9561.13,5139.13
9554.15,5142.43
9546.87,5145.03
9539.38,5146.91
9531.73,5148.05
9524.02,5148.43
9366.54,5148.43
9358.82,5148.05
9351.17,5146.91
9343.68,5145.03
9336.4,5142.43
9329.42,5139.13
9322.79,5135.16
9316.58,5130.55
9310.86,5125.36
9305.67,5119.64
9301.07,5113.43
9297.09,5106.8
9293.79,5099.82
9291.19,5092.54
9289.31,5085.05
9288.17,5077.4
9287.8,5069.69
9287.8,4853.15
9288.17,4845.43
9289.31,4837.79
9291.19,4830.29
9293.79,4823.02
9297.09,4816.03
9301.07,4809.4
9305.67,4803.2
9310.86,4797.47
9316.58,4792.28
9322.79,4787.68
9329.42,4783.71
9336.4,4780.4
9343.68,4777.8
9351.17,4775.92
9358.82,4774.79
9366.54,4774.41
9524.02,4774.41
Z" /> 
<path style="fill:#000000; fill-opacity:1.0; 
stroke:#000000; stroke-width:0; stroke-opacity:1; 
stroke-linecap:round; stroke-linejoin:round;fill-rule:evenodd;"
d="M 8882.13,4774.79
8889.77,4775.92
8897.27,4777.8
8904.54,4780.4
8911.53,4783.71
8918.16,4787.68
8924.36,4792.28
8930.09,4797.47
8935.28,4803.2
8939.88,4809.4
8943.85,4816.03
8947.16,4823.02
8949.76,4830.29
8951.64,4837.79
8952.77,4845.43
8953.15,4853.15
8953.15,5069.69
8952.77,5077.4
8951.64,5085.05
8949.76,5092.54
8947.16,5099.82
8943.85,5106.8
8939.88,5113.43
8935.28,5119.64
8930.09,5125.36
8924.36,5130.55
8918.16,5135.16
8911.53,5139.13
8904.54,5142.43
8897.27,5145.03
8889.77,5146.91
8882.13,5148.05
8874.41,5148.43
8716.93,5148.43
8709.21,5148.05
8701.57,5146.91
8694.07,5145.03
8686.8,5142.43
8679.81,5139.13
8673.18,5135.16
8666.98,5130.55
8661.25,5125.36
8656.06,5119.64
8651.46,5113.43
8647.49,5106.8
8644.18,5099.82
8641.58,5092.54
8639.7,5085.05
8638.57,5077.4
8638.19,5069.69
8638.19,4853.15
8638.57,4845.43
8639.7,4837.79
8641.58,4830.29
8644.18,4823.02
8647.49,4816.03
8651.46,4809.4
8656.06,4803.2
8661.25,4797.47
8666.98,4792.28
8673.18,4787.68
8679.81,4783.71
8686.8,4780.4
8694.07,4777.8
8701.57,4775.92
8709.21,4774.79
8716.93,4774.41
8874.41,4774.41
Z" /> 
</g>
<g >
</g>
<g style="fill:#000000; fill-opacity:1.0; 
stroke:#000000; stroke-width:0; stroke-opacity:1; 
stroke-linecap:round; stroke-linejoin:round;">
<path style="fill:#000000; fill-opacity:1.0; 
stroke:#000000; stroke-width:0; stroke-opacity:1; 
stroke-linecap:round; stroke-linejoin:round;fill-rule:evenodd;"
d="M 14657.7,13487.4
14665.4,13488.5
14672.9,13490.4
14680.1,13493
14687.1,13496.3
14693.7,13500.3
14700,13504.9
14705.7,13510.1
14710.9,13515.8
14715.5,13522
14719.4,13528.6
14722.7,13535.6
14725.3,13542.9
14727.2,13550.4
14728.4,13558
14728.7,13565.7
14728.7,13723.2
14728.4,13730.9
14727.2,13738.6
14725.3,13746.1
14722.7,13753.4
14719.4,13760.3
14715.5,13767
14710.9,13773.2
14705.7,13778.9
14700,13784.1
14693.7,13788.7
14687.1,13792.7
14680.1,13796
14672.9,13798.6
14665.4,13800.5
14657.7,13801.6
14650,13802
14433.5,13802
14425.7,13801.6
14418.1,13800.5
14410.6,13798.6
14403.3,13796
14396.3,13792.7
14389.7,13788.7
14383.5,13784.1
14377.8,13778.9
14372.6,13773.2
14368,13767
14364,13760.3
14360.7,13753.4
14358.1,13746.1
14356.2,13738.6
14355.1,13730.9
14354.7,13723.2
14354.7,13565.7
14355.1,13558
14356.2,13550.4
14358.1,13542.9
14360.7,13535.6
14364,13528.6
14368,13522
14372.6,13515.8
14377.8,13510.1
14383.5,13504.9
14389.7,13500.3
14396.3,13496.3
14403.3,13493
14410.6,13490.4
14418.1,13488.5
14425.7,13487.4
14433.5,13487
14650,13487
Z" /> 
<path style="fill:#000000; fill-opacity:1.0; 
stroke:#000000; stroke-width:0; stroke-opacity:1; 
stroke-linecap:round; stroke-linejoin:round;fill-rule:evenodd;"
d="M 14657.7,14137
14665.4,14138.1
14672.9,14140
14680.1,14142.6
14687.1,14145.9
14693.7,14149.9
14700,14154.5
14705.7,14159.7
14710.9,14165.4
14715.5,14171.6
14719.4,14178.2
14722.7,14185.2
14725.3,14192.5
14727.2,14200
14728.4,14207.6
14728.7,14215.4
14728.7,14372.8
14728.4,14380.6
14727.2,14388.2
14725.3,14395.7
14722.7,14403
14719.4,14410
14715.5,14416.6
14710.9,14422.8
14705.7,14428.5
14700,14433.7
14693.7,14438.3
14687.1,14442.3
14680.1,14445.6
14672.9,14448.2
14665.4,14450.1
14657.7,14451.2
14650,14451.6
14433.5,14451.6
14425.7,14451.2
14418.1,14450.1
14410.6,14448.2
14403.3,14445.6
14396.3,14442.3
14389.7,14438.3
14383.5,14433.7
14377.8,14428.5
14372.6,14422.8
14368,14416.6
14364,14410
14360.7,14403
14358.1,14395.7
14356.2,14388.2
14355.1,14380.6
14354.7,14372.8
14354.7,14215.4
14355.1,14207.6
14356.2,14200
14358.1,14192.5
14360.7,14185.2
14364,14178.2
14368,14171.6
14372.6,14165.4
14377.8,14159.7
14383.5,14154.5
14389.7,14149.9
14396.3,14145.9
14403.3,14142.6
14410.6,14140
14418.1,14138.1
14425.7,14137
14433.5,14136.6
14650,14136.6
Z" /> 
</g>
<g >
</g>
<g style="fill:#000000; fill-opacity:1.0; 
stroke:#000000; stroke-width:0; stroke-opacity:1; 
stroke-linecap:round; stroke-linejoin:round;">
<path style="fill:#000000; fill-opacity:1.0; 
stroke:#000000; stroke-width:0; stroke-opacity:1; 
stroke-linecap:round; stroke-linejoin:round;fill-rule:evenodd;"
d="M 14665.6,14696
14673.2,14697.2
14680.7,14699.1
14688,14701.7
14695,14705
14701.6,14708.9
14707.8,14713.5
14713.6,14718.7
14718.7,14724.5
14723.3,14730.7
14727.3,14737.3
14730.6,14744.3
14733.2,14751.6
14735.1,14759
14736.2,14766.7
14736.6,14774.4
14736.6,14931.9
14736.2,14939.6
14735.1,14947.3
14733.2,14954.7
14730.6,14962
14727.3,14969
14723.3,14975.6
14718.7,14981.8
14713.6,14987.6
14707.8,14992.8
14701.6,14997.4
14695,15001.3
14688,15004.6
14680.7,15007.2
14673.2,15009.1
14665.6,15010.3
14657.9,15010.6
14441.3,15010.6
14433.6,15010.3
14426,15009.1
14418.5,15007.2
14411.2,15004.6
14404.2,15001.3
14397.6,14997.4
14391.4,14992.8
14385.7,14987.6
14380.5,14981.8
14375.9,14975.6
14371.9,14969
14368.6,14962
14366,14954.7
14364.1,14947.3
14363,14939.6
14362.6,14931.9
14362.6,14774.4
14363,14766.7
14364.1,14759
14366,14751.6
14368.6,14744.3
14371.9,14737.3
14375.9,14730.7
14380.5,14724.5
14385.7,14718.7
14391.4,14713.5
14397.6,14708.9
14404.2,14705
14411.2,14701.7
14418.5,14699.1
14426,14697.2
14433.6,14696
14441.3,14695.7
14657.9,14695.7
Z" /> 
<path style="fill:#000000; fill-opacity:1.0; 
stroke:#000000; stroke-width:0; stroke-opacity:1; 
stroke-linecap:round; stroke-linejoin:round;fill-rule:evenodd;"
d="M 14665.6,15345.7
14673.2,15346.8
14680.7,15348.7
14688,15351.3
14695,15354.6
14701.6,15358.5
14707.8,15363.1
14713.6,15368.3
14718.7,15374.1
14723.3,15380.3
14727.3,15386.9
14730.6,15393.9
14733.2,15401.2
14735.1,15408.7
14736.2,15416.3
14736.6,15424
14736.6,15581.5
14736.2,15589.2
14735.1,15596.9
14733.2,15604.4
14730.6,15611.6
14727.3,15618.6
14723.3,15625.2
14718.7,15631.4
14713.6,15637.2
14707.8,15642.4
14701.6,15647
14695,15650.9
14688,15654.2
14680.7,15656.8
14673.2,15658.7
14665.6,15659.9
14657.9,15660.2
14441.3,15660.2
14433.6,15659.9
14426,15658.7
14418.5,15656.8
14411.2,15654.2
14404.2,15650.9
14397.6,15647
14391.4,15642.4
14385.7,15637.2
14380.5,15631.4
14375.9,15625.2
14371.9,15618.6
14368.6,15611.6
14366,15604.4
14364.1,15596.9
14363,15589.2
14362.6,15581.5
14362.6,15424
14363,15416.3
14364.1,15408.7
14366,15401.2
14368.6,15393.9
14371.9,15386.9
14375.9,15380.3
14380.5,15374.1
14385.7,15368.3
14391.4,15363.1
14397.6,15358.5
14404.2,15354.6
14411.2,15351.3
14418.5,15348.7
14426,15346.8
14433.6,15345.7
14441.3,15345.3
14657.9,15345.3
Z" /> 
</g>
<g >
</g>
<g style="fill:#000000; fill-opacity:1.0; 
stroke:#000000; stroke-width:0; stroke-opacity:1; 
stroke-linecap:round; stroke-linejoin:round;">
<path style="fill:#000000; fill-opacity:1.0; 
stroke:#000000; stroke-width:0; stroke-opacity:1; 
stroke-linecap:round; stroke-linejoin:round;fill-rule:evenodd;"
d="M 8803.39,8829.91
8811.03,8831.04
8818.53,8832.92
8825.8,8835.52
8832.79,8838.83
8839.41,8842.8
8845.62,8847.4
8851.35,8852.59
8856.54,8858.32
8861.14,8864.52
8865.11,8871.15
8868.42,8878.14
8871.02,8885.41
8872.9,8892.91
8874.03,8900.55
8874.41,8908.27
8874.41,9124.8
8874.03,9132.52
8872.9,9140.16
8871.02,9147.66
8868.42,9154.94
8865.11,9161.92
8861.14,9168.55
8856.54,9174.76
8851.35,9180.48
8845.62,9185.67
8839.41,9190.27
8832.79,9194.25
8825.8,9197.55
8818.53,9200.15
8811.03,9202.03
8803.39,9203.16
8795.67,9203.54
8638.19,9203.54
8630.47,9203.16
8622.83,9202.03
8615.33,9200.15
8608.06,9197.55
8601.07,9194.25
8594.44,9190.27
8588.24,9185.67
8582.51,9180.48
8577.32,9174.76
8572.72,9168.55
8568.75,9161.92
8565.44,9154.94
8562.84,9147.66
8560.96,9140.16
8559.83,9132.52
8559.45,9124.8
8559.45,8908.27
8559.83,8900.55
8560.96,8892.91
8562.84,8885.41
8565.44,8878.14
8568.75,8871.15
8572.72,8864.52
8577.32,8858.32
8582.51,8852.59
8588.24,8847.4
8594.44,8842.8
8601.07,8838.83
8608.06,8835.52
8615.33,8832.92
8622.83,8831.04
8630.47,8829.91
8638.19,8829.53
8795.67,8829.53
Z" /> 
<path style="fill:#000000; fill-opacity:1.0; 
stroke:#000000; stroke-width:0; stroke-opacity:1; 
stroke-linecap:round; stroke-linejoin:round;fill-rule:evenodd;"
d="M 9452.99,8829.91
9460.64,8831.04
9468.13,8832.92
9475.41,8835.52
9482.39,8838.83
9489.02,8842.8
9495.23,8847.4
9500.95,8852.59
9506.14,8858.32
9510.75,8864.52
9514.72,8871.15
9518.02,8878.14
9520.63,8885.41
9522.5,8892.91
9523.64,8900.55
9524.02,8908.27
9524.02,9124.8
9523.64,9132.52
9522.5,9140.16
9520.63,9147.66
9518.02,9154.94
9514.72,9161.92
9510.75,9168.55
9506.14,9174.76
9500.95,9180.48
9495.23,9185.67
9489.02,9190.27
9482.39,9194.25
9475.41,9197.55
9468.13,9200.15
9460.64,9202.03
9452.99,9203.16
9445.28,9203.54
9287.8,9203.54
9280.08,9203.16
9272.43,9202.03
9264.94,9200.15
9257.66,9197.55
9250.68,9194.25
9244.05,9190.27
9237.84,9185.67
9232.12,9180.48
9226.93,9174.76
9222.33,9168.55
9218.35,9161.92
9215.05,9154.94
9212.45,9147.66
9210.57,9140.16
9209.43,9132.52
9209.06,9124.8
9209.06,8908.27
9209.43,8900.55
9210.57,8892.91
9212.45,8885.41
9215.05,8878.14
9218.35,8871.15
9222.33,8864.52
9226.93,8858.32
9232.12,8852.59
9237.84,8847.4
9244.05,8842.8
9250.68,8838.83
9257.66,8835.52
9264.94,8832.92
9272.43,8831.04
9280.08,8829.91
9287.8,8829.53
9445.28,8829.53
Z" /> 
</g>
<g >
</g>
<g style="fill:#000000; fill-opacity:1.0; 
stroke:#000000; stroke-width:0; stroke-opacity:1; 
stroke-linecap:round; stroke-linejoin:round;">
<path style="fill:#000000; fill-opacity:1.0; 
stroke:#000000; stroke-width:0; stroke-opacity:1; 
stroke-linecap:round; stroke-linejoin:round;fill-rule:evenodd;"
d="M 14413.6,4845.65
14421.3,4846.79
14428.8,4848.67
14436,4851.27
14443,4854.57
14449.7,4858.55
14455.9,4863.15
14461.6,4868.34
14466.8,4874.06
14471.4,4880.27
14475.3,4886.9
14478.7,4893.88
14481.3,4901.16
14483.1,4908.65
14484.3,4916.3
14484.6,4924.02
14484.6,5140.55
14484.3,5148.27
14483.1,5155.91
14481.3,5163.41
14478.7,5170.68
14475.3,5177.67
14471.4,5184.3
14466.8,5190.5
14461.6,5196.23
14455.9,5201.42
14449.7,5206.02
14443,5209.99
14436,5213.3
14428.8,5215.9
14421.3,5217.78
14413.6,5218.91
14405.9,5219.29
14248.4,5219.29
14240.7,5218.91
14233.1,5217.78
14225.6,5215.9
14218.3,5213.3
14211.3,5209.99
14204.7,5206.02
14198.5,5201.42
14192.7,5196.23
14187.6,5190.5
14183,5184.3
14179,5177.67
14175.7,5170.68
14173.1,5163.41
14171.2,5155.91
14170.1,5148.27
14169.7,5140.55
14169.7,4924.02
14170.1,4916.3
14171.2,4908.65
14173.1,4901.16
14175.7,4893.88
14179,4886.9
14183,4880.27
14187.6,4874.06
14192.7,4868.34
14198.5,4863.15
14204.7,4858.55
14211.3,4854.57
14218.3,4851.27
14225.6,4848.67
14233.1,4846.79
14240.7,4845.65
14248.4,4845.28
14405.9,4845.28
Z" /> 
<path style="fill:#000000; fill-opacity:1.0; 
stroke:#000000; stroke-width:0; stroke-opacity:1; 
stroke-linecap:round; stroke-linejoin:round;fill-rule:evenodd;"
d="M 13764,4845.65
13771.7,4846.79
13779.2,4848.67
13786.4,4851.27
13793.4,4854.57
13800,4858.55
13806.3,4863.15
13812,4868.34
13817.2,4874.06
13821.8,4880.27
13825.7,4886.9
13829,4893.88
13831.6,4901.16
13833.5,4908.65
13834.7,4916.3
13835,4924.02
13835,5140.55
13834.7,5148.27
13833.5,5155.91
13831.6,5163.41
13829,5170.68
13825.7,5177.67
13821.8,5184.3
13817.2,5190.5
13812,5196.23
13806.3,5201.42
13800,5206.02
13793.4,5209.99
13786.4,5213.3
13779.2,5215.9
13771.7,5217.78
13764,5218.91
13756.3,5219.29
13598.8,5219.29
13591.1,5218.91
13583.5,5217.78
13576,5215.9
13568.7,5213.3
13561.7,5209.99
13555.1,5206.02
13548.9,5201.42
13543.1,5196.23
13538,5190.5
13533.3,5184.3
13529.4,5177.67
13526.1,5170.68
13523.5,5163.41
13521.6,5155.91
13520.5,5148.27
13520.1,5140.55
13520.1,4924.02
13520.5,4916.3
13521.6,4908.65
13523.5,4901.16
13526.1,4893.88
13529.4,4886.9
13533.3,4880.27
13538,4874.06
13543.1,4868.34
13548.9,4863.15
13555.1,4858.55
13561.7,4854.57
13568.7,4851.27
13576,4848.67
13583.5,4846.79
13591.1,4845.65
13598.8,4845.28
13756.3,4845.28
Z" /> 
</g>
<g >
</g>
<g style="fill:#000000; fill-opacity:1.0; 
stroke:#000000; stroke-width:0; stroke-opacity:1; 
stroke-linecap:round; stroke-linejoin:round;">
<path style="fill:#000000; fill-opacity:1.0; 
stroke:#000000; stroke-width:0; stroke-opacity:1; 
stroke-linecap:round; stroke-linejoin:round;fill-rule:evenodd;"
d="M 15733.1,4075.59
15733.1,3760.63
16087.4,3760.63
16087.4,4075.59
Z" /> 
<path style="fill:#000000; fill-opacity:1.0; 
stroke:#000000; stroke-width:0; stroke-opacity:1; 
stroke-linecap:round; stroke-linejoin:round;fill-rule:evenodd;"
d="M 14945.7,4449.61
14945.7,4134.65
15300,4134.65
15300,4449.61
Z" /> 
<path style="fill:#000000; fill-opacity:1.0; 
stroke:#000000; stroke-width:0; stroke-opacity:1; 
stroke-linecap:round; stroke-linejoin:round;fill-rule:evenodd;"
d="M 14945.7,3701.57
14945.7,3386.61
15300,3386.61
15300,3701.57
Z" /> 
</g>
<g >
</g>
<g style="fill:#000000; fill-opacity:1.0; 
stroke:#000000; stroke-width:0; stroke-opacity:1; 
stroke-linecap:round; stroke-linejoin:round;">
<path style="fill:#000000; fill-opacity:1.0; 
stroke:#000000; stroke-width:0; stroke-opacity:1; 
stroke-linecap:round; stroke-linejoin:round;fill-rule:evenodd;"
d="M 13678,3729.13
13678,4044.09
13323.6,4044.09
13323.6,3729.13
Z" /> 
<path style="fill:#000000; fill-opacity:1.0; 
stroke:#000000; stroke-width:0; stroke-opacity:1; 
stroke-linecap:round; stroke-linejoin:round;fill-rule:evenodd;"
d="M 14465.4,3355.12
14465.4,3670.08
14111,3670.08
14111,3355.12
Z" /> 
<path style="fill:#000000; fill-opacity:1.0; 
stroke:#000000; stroke-width:0; stroke-opacity:1; 
stroke-linecap:round; stroke-linejoin:round;fill-rule:evenodd;"
d="M 14465.4,4103.15
14465.4,4418.11
14111,4418.11
14111,4103.15
Z" /> 
</g>
<g >
</g>
<g style="fill:#000000; fill-opacity:1.0; 
stroke:#000000; stroke-width:0; stroke-opacity:1; 
stroke-linecap:round; stroke-linejoin:round;">
<path style="fill:#000000; fill-opacity:1.0; 
stroke:#000000; stroke-width:0; stroke-opacity:1; 
stroke-linecap:round; stroke-linejoin:round;fill-rule:evenodd;"
d="M 18356.7,15788.2
16821.3,15788.2
16821.3,15315.7
18356.7,15315.7
Z" /> 
<path style="fill:#000000; fill-opacity:1.0; 
stroke:#000000; stroke-width:0; stroke-opacity:1; 
stroke-linecap:round; stroke-linejoin:round;fill-rule:evenodd;"
d="M 18356.7,16890.6
16821.3,16890.6
16821.3,16418.1
18356.7,16418.1
Z" /> 
</g>
<g >
</g>
<g style="fill:#000000; fill-opacity:1.0; 
stroke:#000000; stroke-width:0; stroke-opacity:1; 
stroke-linecap:round; stroke-linejoin:round;">
<path style="fill:#000000; fill-opacity:1.0; 
stroke:#000000; stroke-width:0; stroke-opacity:1; 
stroke-linecap:round; stroke-linejoin:round;fill-rule:evenodd;"
d="M 7738.58,13835.4
7738.58,15370.9
7266.14,15370.9
7266.14,13835.4
Z" /> 
<path style="fill:#000000; fill-opacity:1.0; 
stroke:#000000; stroke-width:0; stroke-opacity:1; 
stroke-linecap:round; stroke-linejoin:round;fill-rule:evenodd;"
d="M 8840.94,13835.4
8840.94,15370.9
8368.5,15370.9
8368.5,13835.4
Z" /> 
</g>
<g >
</g>
<g style="fill:#000000; fill-opacity:1.0; 
stroke:#000000; stroke-width:0; stroke-opacity:1; 
stroke-linecap:round; stroke-linejoin:round;">
<circle cx="15596.9" cy="12689.8" r="334.646" /> 
<circle cx="15596.9" cy="11689.8" r="334.646" /> 
<circle cx="15596.9" cy="10689.8" r="334.646" /> 
<path style="fill:#000000; fill-opacity:1.0; 
stroke:#000000; stroke-width:0; stroke-opacity:1; 
stroke-linecap:round; stroke-linejoin:round;fill-rule:evenodd;"
d="M 15262.2,10024.4
15262.2,9355.12
15931.5,9355.12
15931.5,10024.4
Z" /> 
</g>
<g >
</g>
<g style="fill:#000000; fill-opacity:1.0; 
stroke:#000000; stroke-width:0; stroke-opacity:1; 
stroke-linecap:round; stroke-linejoin:round;">
<path style="fill:#000000; fill-opacity:1.0; 
stroke:#000000; stroke-width:0; stroke-opacity:1; 
stroke-linecap:round; stroke-linejoin:round;fill-rule:evenodd;"
d="M 16569.3,14563.8
16569.3,13855.1
17553.5,13855.1
17553.5,14563.8
Z" /> 
<path style="fill:#000000; fill-opacity:1.0; 
stroke:#000000; stroke-width:0; stroke-opacity:1; 
stroke-linecap:round; stroke-linejoin:round;fill-rule:evenodd;"
d="M 14994.5,14563.8
14994.5,13855.1
15978.7,13855.1
15978.7,14563.8
Z" /> 
</g>
<g >
</g>
<g style="fill:#000000; fill-opacity:1.0; 
stroke:#000000; stroke-width:0; stroke-opacity:1; 
stroke-linecap:round; stroke-linejoin:round;">
<path style="fill:#000000; fill-opacity:1.0; 
stroke:#000000; stroke-width:0; stroke-opacity:1; 
stroke-linecap:round; stroke-linejoin:round;fill-rule:evenodd;"
d="M 10903,4774.82
10911.4,4776.06
10919.6,4778.12
10927.5,4780.96
10935.2,4784.58
10942.4,4788.92
10949.2,4793.96
10955.5,4799.63
10961.2,4805.9
10966.2,4812.68
10970.5,4819.93
10974.2,4827.57
10977,4835.53
10979.1,4843.73
10980.3,4852.09
10980.7,4860.53
10980.7,5062.3
10980.3,5070.74
10979.1,5079.1
10977,5087.3
10974.2,5095.26
10970.5,5102.9
10966.2,5110.15
10961.2,5116.94
10955.5,5123.2
10949.2,5128.88
10942.4,5133.91
10935.2,5138.26
10927.5,5141.87
10919.6,5144.72
10911.4,5146.77
10903,5148.01
10894.6,5148.43
10722.3,5148.43
10713.9,5148.01
10705.5,5146.77
10697.3,5144.72
10689.4,5141.87
10681.7,5138.26
10674.5,5133.91
10667.7,5128.88
10661.4,5123.2
10655.8,5116.94
10650.7,5110.15
10646.4,5102.9
10642.8,5095.26
10639.9,5087.3
10637.9,5079.1
10636.6,5070.74
10636.2,5062.3
10636.2,4860.53
10636.6,4852.09
10637.9,4843.73
10639.9,4835.53
10642.8,4827.57
10646.4,4819.93
10650.7,4812.68
10655.8,4805.9
10661.4,4799.63
10667.7,4793.96
10674.5,4788.92
10681.7,4784.58
10689.4,4780.96
10697.3,4778.12
10705.5,4776.06
10713.9,4774.82
10722.3,4774.41
10894.6,4774.41
Z" /> 
<path style="fill:#000000; fill-opacity:1.0; 
stroke:#000000; stroke-width:0; stroke-opacity:1; 
stroke-linecap:round; stroke-linejoin:round;fill-rule:evenodd;"
d="M 10282.9,4774.82
10291.3,4776.06
10299.5,4778.12
10307.5,4780.96
10315.1,4784.58
10322.4,4788.92
10329.1,4793.96
10335.4,4799.63
10341.1,4805.9
10346.1,4812.68
10350.5,4819.93
10354.1,4827.57
10356.9,4835.53
10359,4843.73
10360.2,4852.09
10360.6,4860.53
10360.6,5062.3
10360.2,5070.74
10359,5079.1
10356.9,5087.3
10354.1,5095.26
10350.5,5102.9
10346.1,5110.15
10341.1,5116.94
10335.4,5123.2
10329.1,5128.88
10322.4,5133.91
10315.1,5138.26
10307.5,5141.87
10299.5,5144.72
10291.3,5146.77
10282.9,5148.01
10274.5,5148.43
10102.3,5148.43
10093.8,5148.01
10085.5,5146.77
10077.3,5144.72
10069.3,5141.87
10061.7,5138.26
10054.4,5133.91
10047.6,5128.88
10041.4,5123.2
10035.7,5116.94
10030.7,5110.15
10026.3,5102.9
10022.7,5095.26
10019.9,5087.3
10017.8,5079.1
10016.6,5070.74
10016.1,5062.3
10016.1,4860.53
10016.6,4852.09
10017.8,4843.73
10019.9,4835.53
10022.7,4827.57
10026.3,4819.93
10030.7,4812.68
10035.7,4805.9
10041.4,4799.63
10047.6,4793.96
10054.4,4788.92
10061.7,4784.58
10069.3,4780.96
10077.3,4778.12
10085.5,4776.06
10093.8,4774.82
10102.3,4774.41
10274.5,4774.41
Z" /> 
</g>
<g >
</g>
<g style="fill:#000000; fill-opacity:1.0; 
stroke:#000000; stroke-width:0; stroke-opacity:1; 
stroke-linecap:round; stroke-linejoin:round;">
<path style="fill:#000000; fill-opacity:1.0; 
stroke:#000000; stroke-width:0; stroke-opacity:1; 
stroke-linecap:round; stroke-linejoin:round;fill-rule:evenodd;"
d="M 12791.9,2984.33
12801.5,2985.75
12810.9,2988.1
12819.9,2991.35
12828.7,2995.48
12837,3000.45
12844.7,3006.2
12851.9,3012.69
12858.4,3019.84
12864.1,3027.6
12869.1,3035.89
12873.2,3044.62
12876.5,3053.71
12878.8,3063.08
12880.2,3072.64
12880.7,3082.28
12880.7,3574.41
12880.2,3584.06
12878.8,3593.61
12876.5,3602.98
12873.2,3612.08
12869.1,3620.81
12864.1,3629.09
12858.4,3636.85
12851.9,3644.01
12844.7,3650.49
12837,3656.25
12828.7,3661.21
12819.9,3665.34
12810.9,3668.6
12801.5,3670.94
12791.9,3672.36
12782.3,3672.83
12487,3672.83
12477.4,3672.36
12467.8,3670.94
12458.4,3668.6
12449.3,3665.34
12440.6,3661.21
12432.3,3656.25
12424.6,3650.49
12417.4,3644.01
12410.9,3636.85
12405.2,3629.09
12400.2,3620.81
12396.1,3612.08
12392.8,3602.98
12390.5,3593.61
12389.1,3584.06
12388.6,3574.41
12388.6,3082.28
12389.1,3072.64
12390.5,3063.08
12392.8,3053.71
12396.1,3044.62
12400.2,3035.89
12405.2,3027.6
12410.9,3019.84
12417.4,3012.69
12424.6,3006.2
12432.3,3000.45
12440.6,2995.48
12449.3,2991.35
12458.4,2988.1
12467.8,2985.75
12477.4,2984.33
12487,2983.86
12782.3,2983.86
Z" /> 
<path style="fill:#000000; fill-opacity:1.0; 
stroke:#000000; stroke-width:0; stroke-opacity:1; 
stroke-linecap:round; stroke-linejoin:round;fill-rule:evenodd;"
d="M 11689.6,2984.33
11699.1,2985.75
11708.5,2988.1
11717.6,2991.35
11726.3,2995.48
11734.6,3000.45
11742.4,3006.2
11749.5,3012.69
11756,3019.84
11761.8,3027.6
11766.7,3035.89
11770.9,3044.62
11774.1,3053.71
11776.5,3063.08
11777.9,3072.64
11778.3,3082.28
11778.3,3574.41
11777.9,3584.06
11776.5,3593.61
11774.1,3602.98
11770.9,3612.08
11766.7,3620.81
11761.8,3629.09
11756,3636.85
11749.5,3644.01
11742.4,3650.49
11734.6,3656.25
11726.3,3661.21
11717.6,3665.34
11708.5,3668.6
11699.1,3670.94
11689.6,3672.36
11679.9,3672.83
11384.6,3672.83
11375,3672.36
11365.4,3670.94
11356.1,3668.6
11347,3665.34
11338.2,3661.21
11330,3656.25
11322.2,3650.49
11315,3644.01
11308.6,3636.85
11302.8,3629.09
11297.8,3620.81
11293.7,3612.08
11290.5,3602.98
11288.1,3593.61
11286.7,3584.06
11286.2,3574.41
11286.2,3082.28
11286.7,3072.64
11288.1,3063.08
11290.5,3053.71
11293.7,3044.62
11297.8,3035.89
11302.8,3027.6
11308.6,3019.84
11315,3012.69
11322.2,3006.2
11330,3000.45
11338.2,2995.48
11347,2991.35
11356.1,2988.1
11365.4,2985.75
11375,2984.33
11384.6,2983.86
11679.9,2983.86
Z" /> 
</g>
<g >
</g>
<g style="fill:#000000; fill-opacity:1.0; 
stroke:#000000; stroke-width:0; stroke-opacity:1; 
stroke-linecap:round; stroke-linejoin:round;">
<path style="fill:#000000; fill-opacity:1.0; 
stroke:#000000; stroke-width:0; stroke-opacity:1; 
stroke-linecap:round; stroke-linejoin:round;fill-rule:evenodd;"
d="M 20539.2,12633.9
20548.7,12635.4
20558.1,12637.7
20567.2,12641
20575.9,12645.1
20584.2,12650.1
20592,12655.8
20599.1,12662.3
20605.6,12669.4
20611.4,12677.2
20616.3,12685.5
20620.5,12694.2
20623.7,12703.3
20626.1,12712.7
20627.5,12722.2
20628,12731.9
20628,13027.2
20627.5,13036.8
20626.1,13046.4
20623.7,13055.7
20620.5,13064.8
20616.3,13073.6
20611.4,13081.8
20605.6,13089.6
20599.1,13096.8
20592,13103.2
20584.2,13109
20575.9,13114
20567.2,13118.1
20558.1,13121.4
20548.7,13123.7
20539.2,13125.1
20529.5,13125.6
20037.4,13125.6
20027.8,13125.1
20018.2,13123.7
20008.8,13121.4
19999.7,13118.1
19991,13114
19982.7,13109
19975,13103.2
19967.8,13096.8
19961.3,13089.6
19955.6,13081.8
19950.6,13073.6
19946.5,13064.8
19943.2,13055.7
19940.9,13046.4
19939.5,13036.8
19939,13027.2
19939,12731.9
19939.5,12722.2
19940.9,12712.7
19943.2,12703.3
19946.5,12694.2
19950.6,12685.5
19955.6,12677.2
19961.3,12669.4
19967.8,12662.3
19975,12655.8
19982.7,12650.1
19991,12645.1
19999.7,12641
20008.8,12637.7
20018.2,12635.4
20027.8,12633.9
20037.4,12633.5
20529.5,12633.5
Z" /> 
<path style="fill:#000000; fill-opacity:1.0; 
stroke:#000000; stroke-width:0; stroke-opacity:1; 
stroke-linecap:round; stroke-linejoin:round;fill-rule:evenodd;"
d="M 20539.2,11531.6
20548.7,11533
20558.1,11535.3
20567.2,11538.6
20575.9,11542.7
20584.2,11547.7
20592,11553.4
20599.1,11559.9
20605.6,11567.1
20611.4,11574.8
20616.3,11583.1
20620.5,11591.9
20623.7,11601
20626.1,11610.3
20627.5,11619.9
20628,11629.5
20628,11924.8
20627.5,11934.5
20626.1,11944
20623.7,11953.4
20620.5,11962.5
20616.3,11971.2
20611.4,11979.5
20605.6,11987.2
20599.1,11994.4
20592,12000.9
20584.2,12006.6
20575.9,12011.6
20567.2,12015.7
20558.1,12019
20548.7,12021.3
20539.2,12022.8
20529.5,12023.2
20037.4,12023.2
20027.8,12022.8
20018.2,12021.3
20008.8,12019
19999.7,12015.7
19991,12011.6
19982.7,12006.6
19975,12000.9
19967.8,11994.4
19961.3,11987.2
19955.6,11979.5
19950.6,11971.2
19946.5,11962.5
19943.2,11953.4
19940.9,11944
19939.5,11934.5
19939,11924.8
19939,11629.5
19939.5,11619.9
19940.9,11610.3
19943.2,11601
19946.5,11591.9
19950.6,11583.1
19955.6,11574.8
19961.3,11567.1
19967.8,11559.9
19975,11553.4
19982.7,11547.7
19991,11542.7
19999.7,11538.6
20008.8,11535.3
20018.2,11533
20027.8,11531.6
20037.4,11531.1
20529.5,11531.1
Z" /> 
</g>
<g >
</g>
<g style="fill:#000000; fill-opacity:1.0; 
stroke:#000000; stroke-width:0; stroke-opacity:1; 
stroke-linecap:round; stroke-linejoin:round;">
<path style="fill:#000000; fill-opacity:1.0; 
stroke:#000000; stroke-width:0; stroke-opacity:1; 
stroke-linecap:round; stroke-linejoin:round;fill-rule:evenodd;"
d="M 5139.17,12633.9
5148.73,12635.4
5158.1,12637.7
5167.19,12641
5175.92,12645.1
5184.21,12650.1
5191.97,12655.8
5199.12,12662.3
5205.61,12669.4
5211.36,12677.2
5216.33,12685.5
5220.46,12694.2
5223.71,12703.3
5226.06,12712.7
5227.48,12722.2
5227.95,12731.9
5227.95,13027.2
5227.48,13036.8
5226.06,13046.4
5223.71,13055.7
5220.46,13064.8
5216.33,13073.6
5211.36,13081.8
5205.61,13089.6
5199.12,13096.8
5191.97,13103.2
5184.21,13109
5175.92,13114
5167.19,13118.1
5158.1,13121.4
5148.73,13123.7
5139.17,13125.1
5129.53,13125.6
4637.4,13125.6
4627.75,13125.1
4618.2,13123.7
4608.83,13121.4
4599.74,13118.1
4591,13114
4582.72,13109
4574.96,13103.2
4567.8,13096.8
4561.32,13089.6
4555.56,13081.8
4550.6,13073.6
4546.47,13064.8
4543.21,13055.7
4540.87,13046.4
4539.45,13036.8
4538.98,13027.2
4538.98,12731.9
4539.45,12722.2
4540.87,12712.7
4543.21,12703.3
4546.47,12694.2
4550.6,12685.5
4555.56,12677.2
4561.32,12669.4
4567.8,12662.3
4574.96,12655.8
4582.72,12650.1
4591,12645.1
4599.74,12641
4608.83,12637.7
4618.2,12635.4
4627.75,12633.9
4637.4,12633.5
5129.53,12633.5
Z" /> 
<path style="fill:#000000; fill-opacity:1.0; 
stroke:#000000; stroke-width:0; stroke-opacity:1; 
stroke-linecap:round; stroke-linejoin:round;fill-rule:evenodd;"
d="M 5139.17,11531.6
5148.73,11533
5158.1,11535.3
5167.19,11538.6
5175.92,11542.7
5184.21,11547.7
5191.97,11553.4
5199.12,11559.9
5205.61,11567.1
5211.36,11574.8
5216.33,11583.1
5220.46,11591.9
5223.71,11601
5226.06,11610.3
5227.48,11619.9
5227.95,11629.5
5227.95,11924.8
5227.48,11934.5
5226.06,11944
5223.71,11953.4
5220.46,11962.5
5216.33,11971.2
5211.36,11979.5
5205.61,11987.2
5199.12,11994.4
5191.97,12000.9
5184.21,12006.6
5175.92,12011.6
5167.19,12015.7
5158.1,12019
5148.73,12021.3
5139.17,12022.8
5129.53,12023.2
4637.4,12023.2
4627.75,12022.8
4618.2,12021.3
4608.83,12019
4599.74,12015.7
4591,12011.6
4582.72,12006.6
4574.96,12000.9
4567.8,11994.4
4561.32,11987.2
4555.56,11979.5
4550.6,11971.2
4546.47,11962.5
4543.21,11953.4
4540.87,11944
4539.45,11934.5
4538.98,11924.8
4538.98,11629.5
4539.45,11619.9
4540.87,11610.3
4543.21,11601
4546.47,11591.9
4550.6,11583.1
4555.56,11574.8
4561.32,11567.1
4567.8,11559.9
4574.96,11553.4
4582.72,11547.7
4591,11542.7
4599.74,11538.6
4608.83,11535.3
4618.2,11533
4627.75,11531.6
4637.4,11531.1
5129.53,11531.1
Z" /> 
</g>
<g >
</g>
<g style="fill:#000000; fill-opacity:1.0; 
stroke:#000000; stroke-width:0; stroke-opacity:1; 
stroke-linecap:round; stroke-linejoin:round;">
<path style="fill:#000000; fill-opacity:1.0; 
stroke:#000000; stroke-width:0; stroke-opacity:1; 
stroke-linecap:round; stroke-linejoin:round;fill-rule:evenodd;"
d="M 17474.8,11835.4
17002.4,11835.4
17002.4,11481.1
17474.8,11481.1
Z" /> 
<path style="fill:#000000; fill-opacity:1.0; 
stroke:#000000; stroke-width:0; stroke-opacity:1; 
stroke-linecap:round; stroke-linejoin:round;fill-rule:evenodd;"
d="M 17474.8,13134.6
17002.4,13134.6
17002.4,12780.3
17474.8,12780.3
Z" /> 
</g>
<g >
</g>
<g style="fill:#000000; fill-opacity:1.0; 
stroke:#000000; stroke-width:0; stroke-opacity:1; 
stroke-linecap:round; stroke-linejoin:round;">
<path style="fill:#000000; fill-opacity:1.0; 
stroke:#000000; stroke-width:0; stroke-opacity:1; 
stroke-linecap:round; stroke-linejoin:round;fill-rule:evenodd;"
d="M 8067.32,12530.3
8067.32,13239
7083.07,13239
7083.07,12530.3
Z" /> 
<path style="fill:#000000; fill-opacity:1.0; 
stroke:#000000; stroke-width:0; stroke-opacity:1; 
stroke-linecap:round; stroke-linejoin:round;fill-rule:evenodd;"
d="M 9642.13,12530.3
9642.13,13239
8657.87,13239
8657.87,12530.3
Z" /> 
</g>
<g >
</g>
<g style="fill:#000000; fill-opacity:1.0; 
stroke:#000000; stroke-width:0; stroke-opacity:1; 
stroke-linecap:round; stroke-linejoin:round;">
<path style="fill:#000000; fill-opacity:1.0; 
stroke:#000000; stroke-width:0; stroke-opacity:1; 
stroke-linecap:round; stroke-linejoin:round;fill-rule:evenodd;"
d="M 14621.3,16745.3
14629.9,16746.6
14638.3,16748.7
14646.5,16751.6
14654.4,16755.3
14661.8,16759.8
14668.8,16765
14675.2,16770.8
14681.1,16777.3
14686.3,16784.3
14690.7,16791.7
14694.4,16799.6
14697.4,16807.8
14699.5,16816.2
14700.8,16824.8
14701.2,16833.5
14701.2,17010.6
14700.8,17019.3
14699.5,17027.9
14697.4,17036.3
14694.4,17044.5
14690.7,17052.4
14686.3,17059.8
14681.1,17066.8
14675.2,17073.3
14668.8,17079.1
14661.8,17084.3
14654.4,17088.8
14646.5,17092.5
14638.3,17095.4
14629.9,17097.5
14621.3,17098.8
14612.6,17099.2
14415.7,17099.2
14407.1,17098.8
14398.5,17097.5
14390,17095.4
14381.8,17092.5
14374,17088.8
14366.5,17084.3
14359.6,17079.1
14353.1,17073.3
14347.3,17066.8
14342.1,17059.8
14337.6,17052.4
14333.9,17044.5
14331,17036.3
14328.9,17027.9
14327.6,17019.3
14327.2,17010.6
14327.2,16833.5
14327.6,16824.8
14328.9,16816.2
14331,16807.8
14333.9,16799.6
14337.6,16791.7
14342.1,16784.3
14347.3,16777.3
14353.1,16770.8
14359.6,16765
14366.5,16759.8
14374,16755.3
14381.8,16751.6
14390,16748.7
14398.5,16746.6
14407.1,16745.3
14415.7,16744.9
14612.6,16744.9
Z" /> 
<path style="fill:#000000; fill-opacity:1.0; 
stroke:#000000; stroke-width:0; stroke-opacity:1; 
stroke-linecap:round; stroke-linejoin:round;fill-rule:evenodd;"
d="M 14621.3,16135.1
14629.9,16136.3
14638.3,16138.5
14646.5,16141.4
14654.4,16145.1
14661.8,16149.6
14668.8,16154.8
14675.2,16160.6
14681.1,16167
14686.3,16174
14690.7,16181.5
14694.4,16189.3
14697.4,16197.5
14699.5,16205.9
14700.8,16214.5
14701.2,16223.2
14701.2,16400.4
14700.8,16409.1
14699.5,16417.7
14697.4,16426.1
14694.4,16434.3
14690.7,16442.2
14686.3,16449.6
14681.1,16456.6
14675.2,16463
14668.8,16468.9
14661.8,16474
14654.4,16478.5
14646.5,16482.2
14638.3,16485.2
14629.9,16487.3
14621.3,16488.5
14612.6,16489
14415.7,16489
14407.1,16488.5
14398.5,16487.3
14390,16485.2
14381.8,16482.2
14374,16478.5
14366.5,16474
14359.6,16468.9
14353.1,16463
14347.3,16456.6
14342.1,16449.6
14337.6,16442.2
14333.9,16434.3
14331,16426.1
14328.9,16417.7
14327.6,16409.1
14327.2,16400.4
14327.2,16223.2
14327.6,16214.5
14328.9,16205.9
14331,16197.5
14333.9,16189.3
14337.6,16181.5
14342.1,16174
14347.3,16167
14353.1,16160.6
14359.6,16154.8
14366.5,16149.6
14374,16145.1
14381.8,16141.4
14390,16138.5
14398.5,16136.3
14407.1,16135.1
14415.7,16134.6
14612.6,16134.6
Z" /> 
</g>
<g >
</g>
<g style="fill:#000000; fill-opacity:1.0; 
stroke:#000000; stroke-width:0; stroke-opacity:1; 
stroke-linecap:round; stroke-linejoin:round;">
<path style="fill:#000000; fill-opacity:1.0; 
stroke:#000000; stroke-width:0; stroke-opacity:1; 
stroke-linecap:round; stroke-linejoin:round;fill-rule:evenodd;"
d="M 15542.5,16782.7
15551.1,16784
15559.6,16786.1
15567.8,16789
15575.6,16792.7
15583.1,16797.2
15590.1,16802.4
15596.5,16808.2
15602.3,16814.7
15607.5,16821.7
15612,16829.1
15615.7,16837
15618.6,16845.2
15620.7,16853.6
15622,16862.2
15622.4,16870.9
15622.4,17067.7
15622,17076.4
15620.7,17085
15618.6,17093.4
15615.7,17101.6
15612,17109.5
15607.5,17116.9
15602.3,17123.9
15596.5,17130.4
15590.1,17136.2
15583.1,17141.4
15575.6,17145.8
15567.8,17149.6
15559.6,17152.5
15551.1,17154.6
15542.5,17155.9
15533.9,17156.3
15356.7,17156.3
15348,17155.9
15339.4,17154.6
15331,17152.5
15322.8,17149.6
15314.9,17145.8
15307.5,17141.4
15300.5,17136.2
15294.1,17130.4
15288.2,17123.9
15283,17116.9
15278.6,17109.5
15274.9,17101.6
15271.9,17093.4
15269.8,17085
15268.5,17076.4
15268.1,17067.7
15268.1,16870.9
15268.5,16862.2
15269.8,16853.6
15271.9,16845.2
15274.9,16837
15278.6,16829.1
15283,16821.7
15288.2,16814.7
15294.1,16808.2
15300.5,16802.4
15307.5,16797.2
15314.9,16792.7
15322.8,16789
15331,16786.1
15339.4,16784
15348,16782.7
15356.7,16782.3
15533.9,16782.3
Z" /> 
<path style="fill:#000000; fill-opacity:1.0; 
stroke:#000000; stroke-width:0; stroke-opacity:1; 
stroke-linecap:round; stroke-linejoin:round;fill-rule:evenodd;"
d="M 16152.8,16782.7
16161.4,16784
16169.8,16786.1
16178,16789
16185.9,16792.7
16193.3,16797.2
16200.3,16802.4
16206.7,16808.2
16212.6,16814.7
16217.7,16821.7
16222.2,16829.1
16225.9,16837
16228.9,16845.2
16231,16853.6
16232.3,16862.2
16232.7,16870.9
16232.7,17067.7
16232.3,17076.4
16231,17085
16228.9,17093.4
16225.9,17101.6
16222.2,17109.5
16217.7,17116.9
16212.6,17123.9
16206.7,17130.4
16200.3,17136.2
16193.3,17141.4
16185.9,17145.8
16178,17149.6
16169.8,17152.5
16161.4,17154.6
16152.8,17155.9
16144.1,17156.3
15966.9,17156.3
15958.2,17155.9
15949.6,17154.6
15941.2,17152.5
15933,17149.6
15925.2,17145.8
15917.7,17141.4
15910.7,17136.2
15904.3,17130.4
15898.5,17123.9
15893.3,17116.9
15888.8,17109.5
15885.1,17101.6
15882.2,17093.4
15880,17085
15878.8,17076.4
15878.3,17067.7
15878.3,16870.9
15878.8,16862.2
15880,16853.6
15882.2,16845.2
15885.1,16837
15888.8,16829.1
15893.3,16821.7
15898.5,16814.7
15904.3,16808.2
15910.7,16802.4
15917.7,16797.2
15925.2,16792.7
15933,16789
15941.2,16786.1
15949.6,16784
15958.2,16782.7
15966.9,16782.3
16144.1,16782.3
Z" /> 
</g>
<g >
</g>
<g style="fill:#000000; fill-opacity:1.0; 
stroke:#000000; stroke-width:0; stroke-opacity:1; 
stroke-linecap:round; stroke-linejoin:round;">
<path style="fill:#000000; fill-opacity:1.0; 
stroke:#000000; stroke-width:0; stroke-opacity:1; 
stroke-linecap:round; stroke-linejoin:round;fill-rule:evenodd;"
d="M 12239.4,4774.84
12248,4776.11
12256.4,4778.22
12264.6,4781.15
12272.5,4784.87
12279.9,4789.34
12286.9,4794.52
12293.3,4800.35
12299.2,4806.8
12304.4,4813.78
12308.8,4821.23
12312.5,4829.09
12315.5,4837.28
12317.6,4845.71
12318.9,4854.31
12319.3,4862.99
12319.3,5059.84
12318.9,5068.53
12317.6,5077.12
12315.5,5085.56
12312.5,5093.74
12308.8,5101.6
12304.4,5109.06
12299.2,5116.04
12293.3,5122.48
12286.9,5128.32
12279.9,5133.5
12272.5,5137.97
12264.6,5141.68
12256.4,5144.61
12248,5146.72
12239.4,5148
12230.7,5148.43
12053.5,5148.43
12044.9,5148
12036.3,5146.72
12027.8,5144.61
12019.6,5141.68
12011.8,5137.97
12004.3,5133.5
11997.3,5128.32
11990.9,5122.48
11985.1,5116.04
11979.9,5109.06
11975.4,5101.6
11971.7,5093.74
11968.8,5085.56
11966.7,5077.12
11965.4,5068.53
11965,5059.84
11965,4862.99
11965.4,4854.31
11966.7,4845.71
11968.8,4837.28
11971.7,4829.09
11975.4,4821.23
11979.9,4813.78
11985.1,4806.8
11990.9,4800.35
11997.3,4794.52
12004.3,4789.34
12011.8,4784.87
12019.6,4781.15
12027.8,4778.22
12036.3,4776.11
12044.9,4774.84
12053.5,4774.41
12230.7,4774.41
Z" /> 
<path style="fill:#000000; fill-opacity:1.0; 
stroke:#000000; stroke-width:0; stroke-opacity:1; 
stroke-linecap:round; stroke-linejoin:round;fill-rule:evenodd;"
d="M 11629.2,4774.84
11637.8,4776.11
11646.2,4778.22
11654.4,4781.15
11662.2,4784.87
11669.7,4789.34
11676.7,4794.52
11683.1,4800.35
11688.9,4806.8
11694.1,4813.78
11698.6,4821.23
11702.3,4829.09
11705.2,4837.28
11707.4,4845.71
11708.6,4854.31
11709.1,4862.99
11709.1,5059.84
11708.6,5068.53
11707.4,5077.12
11705.2,5085.56
11702.3,5093.74
11698.6,5101.6
11694.1,5109.06
11688.9,5116.04
11683.1,5122.48
11676.7,5128.32
11669.7,5133.5
11662.2,5137.97
11654.4,5141.68
11646.2,5144.61
11637.8,5146.72
11629.2,5148
11620.5,5148.43
11443.3,5148.43
11434.6,5148
11426,5146.72
11417.6,5144.61
11409.4,5141.68
11401.5,5137.97
11394.1,5133.5
11387.1,5128.32
11380.7,5122.48
11374.8,5116.04
11369.7,5109.06
11365.2,5101.6
11361.5,5093.74
11358.5,5085.56
11356.4,5077.12
11355.2,5068.53
11354.7,5059.84
11354.7,4862.99
11355.2,4854.31
11356.4,4845.71
11358.5,4837.28
11361.5,4829.09
11365.2,4821.23
11369.7,4813.78
11374.8,4806.8
11380.7,4800.35
11387.1,4794.52
11394.1,4789.34
11401.5,4784.87
11409.4,4781.15
11417.6,4778.22
11426,4776.11
11434.6,4774.84
11443.3,4774.41
11620.5,4774.41
Z" /> 
</g>
<g >
</g>
<g style="fill:#000000; fill-opacity:1.0; 
stroke:#000000; stroke-width:0; stroke-opacity:1; 
stroke-linecap:round; stroke-linejoin:round;">
<path style="fill:#000000; fill-opacity:1.0; 
stroke:#000000; stroke-width:0; stroke-opacity:1; 
stroke-linecap:round; stroke-linejoin:round;fill-rule:evenodd;"
d="M 10408.7,8810.27
10417.3,8811.54
10425.7,8813.66
10433.9,8816.59
10441.8,8820.3
10449.2,8824.77
10456.2,8829.95
10462.6,8835.79
10468.5,8842.23
10473.7,8849.21
10478.1,8856.67
10481.8,8864.53
10484.8,8872.71
10486.9,8881.14
10488.2,8889.74
10488.6,8898.43
10488.6,9075.59
10488.2,9084.27
10486.9,9092.87
10484.8,9101.3
10481.8,9109.49
10478.1,9117.35
10473.7,9124.8
10468.5,9131.79
10462.6,9138.23
10456.2,9144.07
10449.2,9149.24
10441.8,9153.71
10433.9,9157.43
10425.7,9160.36
10417.3,9162.47
10408.7,9163.75
10400,9164.17
10203.1,9164.17
10194.5,9163.75
10185.9,9162.47
10177.4,9160.36
10169.3,9157.43
10161.4,9153.71
10153.9,9149.24
10147,9144.07
10140.5,9138.23
10134.7,9131.79
10129.5,9124.8
10125,9117.35
10121.3,9109.49
10118.4,9101.3
10116.3,9092.87
10115,9084.27
10114.6,9075.59
10114.6,8898.43
10115,8889.74
10116.3,8881.14
10118.4,8872.71
10121.3,8864.53
10125,8856.67
10129.5,8849.21
10134.7,8842.23
10140.5,8835.79
10147,8829.95
10153.9,8824.77
10161.4,8820.3
10169.3,8816.59
10177.4,8813.66
10185.9,8811.54
10194.5,8810.27
10203.1,8809.84
10400,8809.84
Z" /> 
<path style="fill:#000000; fill-opacity:1.0; 
stroke:#000000; stroke-width:0; stroke-opacity:1; 
stroke-linecap:round; stroke-linejoin:round;fill-rule:evenodd;"
d="M 10408.7,9420.51
10417.3,9421.78
10425.7,9423.89
10433.9,9426.82
10441.8,9430.54
10449.2,9435.01
10456.2,9440.19
10462.6,9446.02
10468.5,9452.47
10473.7,9459.45
10478.1,9466.9
10481.8,9474.76
10484.8,9482.95
10486.9,9491.38
10488.2,9499.98
10488.6,9508.66
10488.6,9685.83
10488.2,9694.51
10486.9,9703.11
10484.8,9711.54
10481.8,9719.73
10478.1,9727.58
10473.7,9735.04
10468.5,9742.02
10462.6,9748.46
10456.2,9754.3
10449.2,9759.48
10441.8,9763.95
10433.9,9767.67
10425.7,9770.6
10417.3,9772.71
10408.7,9773.98
10400,9774.41
10203.1,9774.41
10194.5,9773.98
10185.9,9772.71
10177.4,9770.6
10169.3,9767.67
10161.4,9763.95
10153.9,9759.48
10147,9754.3
10140.5,9748.46
10134.7,9742.02
10129.5,9735.04
10125,9727.58
10121.3,9719.73
10118.4,9711.54
10116.3,9703.11
10115,9694.51
10114.6,9685.83
10114.6,9508.66
10115,9499.98
10116.3,9491.38
10118.4,9482.95
10121.3,9474.76
10125,9466.9
10129.5,9459.45
10134.7,9452.47
10140.5,9446.02
10147,9440.19
10153.9,9435.01
10161.4,9430.54
10169.3,9426.82
10177.4,9423.89
10185.9,9421.78
10194.5,9420.51
10203.1,9420.08
10400,9420.08
Z" /> 
</g>
<g >
</g>
<g >
</g>
<g style="fill:#000000; fill-opacity:1.0; 
stroke:#000000; stroke-width:0; stroke-opacity:1; 
stroke-linecap:round; stroke-linejoin:round;">
<path style="fill:#000000; fill-opacity:1.0; 
stroke:#000000; stroke-width:0; stroke-opacity:1; 
stroke-linecap:round; stroke-linejoin:round;fill-rule:evenodd;"
d="M 10438.2,10139
10446.8,10140.3
10455.2,10142.4
10463.4,10145.3
10471.3,10149
10478.7,10153.5
10485.7,10158.7
10492.2,10164.5
10498,10171
10503.2,10178
10507.7,10185.4
10511.4,10193.3
10514.3,10201.5
10516.4,10209.9
10517.7,10218.5
10518.1,10227.2
10518.1,10404.3
10517.7,10413
10516.4,10421.6
10514.3,10430
10511.4,10438.2
10507.7,10446.1
10503.2,10453.5
10498,10460.5
10492.2,10467
10485.7,10472.8
10478.7,10478
10471.3,10482.5
10463.4,10486.2
10455.2,10489.1
10446.8,10491.2
10438.2,10492.5
10429.5,10492.9
10232.7,10492.9
10224,10492.5
10215.4,10491.2
10207,10489.1
10198.8,10486.2
10190.9,10482.5
10183.5,10478
10176.5,10472.8
10170,10467
10164.2,10460.5
10159,10453.5
10154.6,10446.1
10150.8,10438.2
10147.9,10430
10145.8,10421.6
10144.5,10413
10144.1,10404.3
10144.1,10227.2
10144.5,10218.5
10145.8,10209.9
10147.9,10201.5
10150.8,10193.3
10154.6,10185.4
10159,10178
10164.2,10171
10170,10164.5
10176.5,10158.7
10183.5,10153.5
10190.9,10149
10198.8,10145.3
10207,10142.4
10215.4,10140.3
10224,10139
10232.7,10138.6
10429.5,10138.6
Z" /> 
<path style="fill:#000000; fill-opacity:1.0; 
stroke:#000000; stroke-width:0; stroke-opacity:1; 
stroke-linecap:round; stroke-linejoin:round;fill-rule:evenodd;"
d="M 10438.2,10749.2
10446.8,10750.5
10455.2,10752.6
10463.4,10755.6
10471.3,10759.3
10478.7,10763.7
10485.7,10768.9
10492.2,10774.8
10498,10781.2
10503.2,10788.2
10507.7,10795.6
10511.4,10803.5
10514.3,10811.7
10516.4,10820.1
10517.7,10828.7
10518.1,10837.4
10518.1,11014.6
10517.7,11023.2
10516.4,11031.8
10514.3,11040.3
10511.4,11048.5
10507.7,11056.3
10503.2,11063.8
10498,11070.8
10492.2,11077.2
10485.7,11083
10478.7,11088.2
10471.3,11092.7
10463.4,11096.4
10455.2,11099.3
10446.8,11101.4
10438.2,11102.7
10429.5,11103.1
10232.7,11103.1
10224,11102.7
10215.4,11101.4
10207,11099.3
10198.8,11096.4
10190.9,11092.7
10183.5,11088.2
10176.5,11083
10170,11077.2
10164.2,11070.8
10159,11063.8
10154.6,11056.3
10150.8,11048.5
10147.9,11040.3
10145.8,11031.8
10144.5,11023.2
10144.1,11014.6
10144.1,10837.4
10144.5,10828.7
10145.8,10820.1
10147.9,10811.7
10150.8,10803.5
10154.6,10795.6
10159,10788.2
10164.2,10781.2
10170,10774.8
10176.5,10768.9
10183.5,10763.7
10190.9,10759.3
10198.8,10755.6
10207,10752.6
10215.4,10750.5
10224,10749.2
10232.7,10748.8
10429.5,10748.8
Z" /> 
</g>
<g >
</g>
<g style="fill:#000000; fill-opacity:1.0; 
stroke:#000000; stroke-width:0; stroke-opacity:1; 
stroke-linecap:round; stroke-linejoin:round;">
<path style="fill:#000000; fill-opacity:1.0; 
stroke:#000000; stroke-width:0; stroke-opacity:1; 
stroke-linecap:round; stroke-linejoin:round;fill-rule:evenodd;"
d="M 9487.42,14479.6
9496.02,14480.8
9504.45,14482.9
9512.64,14485.9
9520.5,14489.6
9527.95,14494.1
9534.94,14499.2
9541.38,14505.1
9547.22,14511.5
9552.39,14518.5
9556.86,14526
9560.58,14533.8
9563.51,14542
9565.62,14550.4
9566.9,14559
9567.32,14567.7
9567.32,14744.9
9566.9,14753.6
9565.62,14762.2
9563.51,14770.6
9560.58,14778.8
9556.86,14786.6
9552.39,14794.1
9547.22,14801.1
9541.38,14807.5
9534.94,14813.4
9527.95,14818.5
9520.5,14823
9512.64,14826.7
9504.45,14829.7
9496.02,14831.8
9487.42,14833
9478.74,14833.5
9281.89,14833.5
9273.21,14833
9264.61,14831.8
9256.18,14829.7
9247.99,14826.7
9240.13,14823
9232.68,14818.5
9225.69,14813.4
9219.25,14807.5
9213.41,14801.1
9208.24,14794.1
9203.77,14786.6
9200.05,14778.8
9197.12,14770.6
9195.01,14762.2
9193.73,14753.6
9193.31,14744.9
9193.31,14567.7
9193.73,14559
9195.01,14550.4
9197.12,14542
9200.05,14533.8
9203.77,14526
9208.24,14518.5
9213.41,14511.5
9219.25,14505.1
9225.69,14499.2
9232.68,14494.1
9240.13,14489.6
9247.99,14485.9
9256.18,14482.9
9264.61,14480.8
9273.21,14479.6
9281.89,14479.1
9478.74,14479.1
Z" /> 
<path style="fill:#000000; fill-opacity:1.0; 
stroke:#000000; stroke-width:0; stroke-opacity:1; 
stroke-linecap:round; stroke-linejoin:round;fill-rule:evenodd;"
d="M 9487.42,13869.3
9496.02,13870.6
9504.45,13872.7
9512.64,13875.6
9520.5,13879.4
9527.95,13883.8
9534.94,13889
9541.38,13894.8
9547.22,13901.3
9552.39,13908.3
9556.86,13915.7
9560.58,13923.6
9563.51,13931.8
9565.62,13940.2
9566.9,13948.8
9567.32,13957.5
9567.32,14134.6
9566.9,14143.3
9565.62,14151.9
9563.51,14160.4
9560.58,14168.5
9556.86,14176.4
9552.39,14183.9
9547.22,14190.8
9541.38,14197.3
9534.94,14203.1
9527.95,14208.3
9520.5,14212.8
9512.64,14216.5
9504.45,14219.4
9496.02,14221.5
9487.42,14222.8
9478.74,14223.2
9281.89,14223.2
9273.21,14222.8
9264.61,14221.5
9256.18,14219.4
9247.99,14216.5
9240.13,14212.8
9232.68,14208.3
9225.69,14203.1
9219.25,14197.3
9213.41,14190.8
9208.24,14183.9
9203.77,14176.4
9200.05,14168.5
9197.12,14160.4
9195.01,14151.9
9193.73,14143.3
9193.31,14134.6
9193.31,13957.5
9193.73,13948.8
9195.01,13940.2
9197.12,13931.8
9200.05,13923.6
9203.77,13915.7
9208.24,13908.3
9213.41,13901.3
9219.25,13894.8
9225.69,13889
9232.68,13883.8
9240.13,13879.4
9247.99,13875.6
9256.18,13872.7
9264.61,13870.6
9273.21,13869.3
9281.89,13868.9
9478.74,13868.9
Z" /> 
</g>
<g >
</g>
<g >
</g>
<g >
</g>
<g >
</g>
</g>
<g style="fill:#000000; fill-opacity:1.0; 
stroke:#000000; stroke-width:0; stroke-opacity:1; 
stroke-linecap:round; stroke-linejoin:round;">
</g>
<g style="fill:#000000; fill-opacity:1.0; 
stroke:#000000; stroke-width:19.685; stroke-opacity:1; 
stroke-linecap:round; stroke-linejoin:round;">
</g>
<g style="fill:#000000; fill-opacity:0.0; 
stroke:#000000; stroke-width:19.685; stroke-opacity:1; 
stroke-linecap:round; stroke-linejoin:round;">
<path d="M18083 21928
L7283 21928
" />
<path d="M18083.5 21928.3 A11014.5 11014.5 0.0 1 0 7283.46 21928.3" />
<g >
</g>
<g >
</g>
<g >
</g>
<g >
</g>
<g >
</g>
<g >
</g>
<g >
</g>
<g >
</g>
<g >
</g>
<g >
</g>
<g >
</g>
<g >
</g>
<g >
</g>
<g >
</g>
<g >
</g>
<g >
</g>
<g >
</g>
<g >
</g>
<g >
</g>
<g >
</g>
<g >
</g>
<g >
</g>
<g >
</g>
<g >
</g>
<g >
</g>
<g >
</g>
<g >
</g>
<g >
</g>
<g >
</g>
<g >
</g>
<g >
</g>
<g >
</g>
<g >
</g>
<g >
</g>
<g >
</g>
<g >
</g>
<g >
</g>
<g >
</g>
<g >
</g>
<g >
</g>
<g >
</g>
<g >
</g>
<g >
</g>
<g >
</g>
</g> 
</svg>
