<?xml version="1.0" standalone="no"?>
 <!DOCTYPE svg PUBLIC "-//W3C//DTD SVG 1.1//EN" 
 "http://www.w3.org/Graphics/SVG/1.1/DTD/svg11.dtd"> 
<svg
  xmlns:svg="http://www.w3.org/2000/svg"
  xmlns="http://www.w3.org/2000/svg"
  xmlns:xlink="http://www.w3.org/1999/xlink"
  version="1.1"
  width="6.446520cm" height="5.897880cm" viewBox="0 0 25380 23220">
<title>SVG Picture created as night-light-brd.svg date 2022/06/03 20:06:45 </title>
  <desc>Picture generated by PCBNEW </desc>
<g style="fill:#000000; fill-opacity:1;stroke:#000000; stroke-opacity:1;
stroke-linecap:round; stroke-linejoin:round;"
 transform="translate(0 0) scale(1 1)">
</g>
<g style="fill:#000000; fill-opacity:0.0; 
stroke:#000000; stroke-width:-0.000393701; stroke-opacity:1; 
stroke-linecap:round; stroke-linejoin:round;">
</g>
<g style="fill:#000000; fill-opacity:0.0; 
stroke:#000000; stroke-width:59.0551; stroke-opacity:1; 
stroke-linecap:round; stroke-linejoin:round;">
<g transform="rotate(-90 12283.5 13728.3)">
<text x="12283.5" y="14122"
textLength="3899.51" font-size="1049.87" lengthAdjust="spacingAndGlyphs"
text-anchor="middle" opacity="0">Li-Pol</text>
</g>
<path d="M12639 15115
L12639 15490
L11852 15490
" />
<path d="M12639 14853
L12114 14853
" />
<path d="M11852 14853
L11889 14890
L11927 14853
L11889 14815
L11852 14853
L11927 14853
" />
<path d="M12339 14478
L12339 13878
" />
<path d="M12639 13503
L11852 13503
L11852 13203
L11889 13128
L11927 13090
L12002 13053
L12114 13053
L12189 13090
L12227 13128
L12264 13203
L12264 13503
" />
<path d="M12639 12603
L12602 12678
L12564 12715
L12489 12753
L12264 12753
L12189 12715
L12152 12678
L12114 12603
L12114 12491
L12152 12416
L12189 12378
L12264 12341
L12489 12341
L12564 12378
L12602 12416
L12639 12491
L12639 12603
" />
<path d="M12639 11891
L12602 11966
L12527 12003
L11852 12003
" />
</g>
<g style="fill:#000000; fill-opacity:0.0; 
stroke:#000000; stroke-width:47.2441; stroke-opacity:1; 
stroke-linecap:round; stroke-linejoin:round;">
<path d="M9829 18504
L9829 8662
" />
<path d="M14553 18504
L9829 18504
" />
<path d="M14553 8662
L14553 18504
" />
<path d="M9829 8662
L14553 8662
" />
<path d="M14738 4718
L15289 4718
" />
<path d="M15289 4718
L15289 5269
" />
<path d="M15289 5269
L14738 5269
" />
<path d="M14738 5269
L14738 4718
" />
<path d="M12738 5218
L13289 5218
" />
<path d="M13289 5218
L13289 5769
" />
<path d="M13289 5769
L12738 5769
" />
<path d="M12738 5769
L12738 5218
" />
<path d="M13738 7918
L14289 7918
" />
<path d="M14289 7918
L14289 8469
" />
<path d="M14289 8469
L13738 8469
" />
<path d="M13738 8469
L13738 7918
" />
<path d="M17774 13311
L18325 13311
" />
<path d="M18325 13311
L18325 13862
" />
<path d="M18325 13862
L17774 13862
" />
<path d="M17774 13862
L17774 13311
" />
<path d="M11770 18248
L12321 18248
" />
<path d="M12321 18248
L12321 18800
" />
<path d="M12321 18800
L11770 18800
" />
<path d="M11770 18800
L11770 18248
" />
<path d="M10368 5508
L10919 5508
" />
<path d="M10919 5508
L10919 6059
" />
<path d="M10919 6059
L10368 6059
" />
<path d="M10368 6059
L10368 5508
" />
<path d="M9100 15099
L9651 15099
" />
<path d="M9651 15099
L9651 15650
" />
<path d="M9651 15650
L9100 15650
" />
<path d="M9100 15650
L9100 15099
" />
<path d="M16049 15233
L15085 15233
" />
<path d="M15340 16500
L16049 16500
" />
</g>
<g style="fill:#000000; fill-opacity:0.0; 
stroke:#000000; stroke-width:50; stroke-opacity:1; 
stroke-linecap:round; stroke-linejoin:round;">
<path d="M10045 7796
L10045 6221
" />
<path d="M8037 7796
L8037 6221
" />
</g>
<g style="fill:#000000; fill-opacity:0.0; 
stroke:#000000; stroke-width:78.7402; stroke-opacity:1; 
stroke-linecap:round; stroke-linejoin:round;">
<circle cx="8055.51" cy="8758.66" r="39.3701" /> 
</g>
<g style="fill:#000000; fill-opacity:0.0; 
stroke:#000000; stroke-width:47.2441; stroke-opacity:1; 
stroke-linecap:round; stroke-linejoin:round;">
<path d="M8352 11353
L9317 11353
" />
<path d="M9061 10085
L8352 10085
" />
<path d="M10970 23004
L11758 23004
" />
<path d="M10970 21646
L10970 23004
" />
<path d="M11758 21646
L11758 23004
" />
<path d="M9651 18929
L9651 21646
" />
<path d="M9651 21646
L14651 21646
" />
<path d="M14651 18929
L14651 21646
" />
<path d="M9651 18929
L14651 18929
" />
<path d="M9742 17933
L9742 17441
" />
<path d="M9250 17933
L9742 17933
" />
<path d="M8419 16197
L8419 16394
" />
<path d="M8380 16394
L8380 16197
" />
<path d="M8459 16394
L8380 16394
" />
<path d="M8459 16197
L8459 16394
" />
<path d="M7214 16788
L7455 16788
" />
<path d="M7214 17300
L7455 17300
" />
<path d="M9624 16788
L9384 16788
" />
<path d="M9624 17300
L9384 17300
" />
<path d="M8222 17575
L8222 17815
" />
<path d="M7455 17575
L8222 17575
" />
<path d="M7455 16197
L7455 17575
" />
<path d="M9384 16197
L7455 16197
" />
<path d="M9384 17575
L9384 16197
" />
<path d="M8616 17575
L9384 17575
" />
<path d="M8616 17815
L8616 17575
" />
<path d="M8931 17855
L9049 17855
" />
<path d="M9049 17894
L9049 17815
" />
<path d="M8931 17894
L9049 17894
" />
<path d="M8931 17815
L8931 17894
" />
<path d="M7214 17815
L9624 17815
" />
<path d="M7214 15957
L7214 17815
" />
<path d="M9624 15957
L7214 15957
" />
<path d="M9624 17815
L9624 15957
" />
<path d="M17041 21546
L15045 21546
" />
<path d="M17041 17699
L15045 17699
" />
<path d="M15045 17699
L15045 21546
" />
<path d="M17041 17699
L17041 21546
" />
<path d="M9918 3412
L9739 3412
" />
<path d="M9918 3990
L9739 3990
" />
<path d="M9027 5167
L9213 5167
" />
<path d="M9027 4755
L9213 4755
" />
<path d="M14747 14062
L14747 13875
" />
<path d="M14336 14062
L14336 13875
" />
<path d="M14755 15271
L14755 15084
" />
<path d="M14343 15271
L14343 15084
" />
<path d="M9135 8810
L8948 8810
" />
<path d="M9135 9222
L8948 9222
" />
<path d="M13908 5237
L14095 5237
" />
<path d="M13908 4826
L14095 4826
" />
<path d="M15815 4540
L15240 4540
" />
<path d="M15815 3296
L14965 3296
" />
<path d="M15815 3296
L15815 3662
" />
<path d="M15815 4540
L15815 4174
" />
<path d="M13595 3264
L14170 3264
" />
<path d="M13595 4508
L14445 4508
" />
<path d="M13595 4508
L13595 4142
" />
<path d="M13595 3264
L13595 3630
" />
<path d="M18415 16890
L18415 15315
" />
<path d="M16762 16890
L16762 15315
" />
<path d="M8840 13776
L7266 13776
" />
<path d="M8840 15429
L7266 15429
" />
<path d="M15073 9166
L15596 9166
" />
<path d="M15073 9689
L15073 9166
" />
<path d="M15073 10189
L16120 10189
" />
<path d="M16120 10189
L16120 13213
" />
<path d="M15073 10189
L15073 13213
" />
<path d="M15073 13213
L16120 13213
" />
<path d="M14935 13559
L17061 13559
" />
<path d="M14935 14859
L17061 14859
" />
<path d="M14935 13559
L14935 14859
" />
<path d="M9913 5250
L10813 5250
" />
<path d="M9913 4672
L9913 5250
" />
<path d="M10813 4672
L9913 4672
" />
<path d="M11183 3775
L12713 3775
" />
<path d="M11183 2881
L11183 3775
" />
<path d="M12713 2881
L11183 2881
" />
<path d="M19836 11428
L19836 12958
" />
<path d="M20730 11428
L19836 11428
" />
<path d="M20730 12958
L20730 11428
" />
<path d="M4436 11428
L4436 12958
" />
<path d="M5330 11428
L4436 11428
" />
<path d="M5330 12958
L5330 11428
" />
<path d="M16844 13193
L16844 11658
" />
<path d="M17632 13193
L17632 11658
" />
<path d="M16844 13193
L17632 13193
" />
<path d="M9701 13534
L7575 13534
" />
<path d="M9701 12235
L7575 12235
" />
<path d="M9701 13534
L9701 12235
" />
<path d="M14313 16561
L14313 16672
" />
<path d="M14714 16561
L14714 16672
" />
<path d="M15805 16768
L15695 16768
" />
<path d="M15805 17170
L15695 17170
" />
<path d="M11781 5162
L11892 5162
" />
<path d="M11781 4760
L11892 4760
" />
<path d="M10502 9347
L10502 9236
" />
<path d="M10100 9347
L10100 9236
" />
<path d="M14665 8343
L14980 8343
" />
<path d="M14823 8500
L14823 8185
" />
<path d="M15524 5157
L15944 5157
" />
<path d="M15432 5173
L16037 5173
" />
<path d="M15361 5189
L16107 5189
" />
<path d="M15302 5205
L16166 5205
" />
<path d="M15250 5220
L16218 5220
" />
<path d="M15204 5236
L16264 5236
" />
<path d="M15162 5252
L16306 5252
" />
<path d="M15123 5268
L16345 5268
" />
<path d="M15087 5283
L16382 5283
" />
<path d="M15053 5299
L16416 5299
" />
<path d="M15020 5315
L16448 5315
" />
<path d="M14990 5331
L16478 5331
" />
<path d="M14961 5346
L16507 5346
" />
<path d="M14933 5362
L16535 5362
" />
<path d="M14907 5378
L16562 5378
" />
<path d="M14881 5394
L16587 5394
" />
<path d="M14857 5409
L16611 5409
" />
<path d="M14834 5425
L16635 5425
" />
<path d="M14811 5441
L16657 5441
" />
<path d="M14789 5457
L16679 5457
" />
<path d="M14768 5472
L16700 5472
" />
<path d="M14748 5488
L16720 5488
" />
<path d="M14728 5504
L16740 5504
" />
<path d="M14709 5520
L16759 5520
" />
<path d="M14690 5535
L16778 5535
" />
<path d="M14672 5551
L16796 5551
" />
<path d="M14655 5567
L16813 5567
" />
<path d="M14638 5583
L16830 5583
" />
<path d="M14622 5598
L16847 5598
" />
<path d="M14605 5614
L16863 5614
" />
<path d="M14590 5630
L16879 5630
" />
<path d="M14575 5646
L16894 5646
" />
<path d="M14560 5661
L16909 5661
" />
<path d="M16144 5677
L16923 5677
" />
<path d="M14546 5677
L15325 5677
" />
<path d="M16144 5693
L16937 5693
" />
<path d="M14531 5693
L15325 5693
" />
<path d="M16144 5709
L16951 5709
" />
<path d="M14518 5709
L15325 5709
" />
<path d="M16144 5724
L16964 5724
" />
<path d="M14504 5724
L15325 5724
" />
<path d="M16144 5740
L16977 5740
" />
<path d="M14492 5740
L15325 5740
" />
<path d="M16144 5756
L16990 5756
" />
<path d="M14479 5756
L15325 5756
" />
<path d="M16144 5772
L17002 5772
" />
<path d="M14466 5772
L15325 5772
" />
<path d="M16144 5787
L17014 5787
" />
<path d="M14455 5787
L15325 5787
" />
<path d="M16144 5803
L17025 5803
" />
<path d="M14443 5803
L15325 5803
" />
<path d="M16144 5819
L17037 5819
" />
<path d="M14431 5819
L15325 5819
" />
<path d="M16144 5835
L17048 5835
" />
<path d="M14420 5835
L15325 5835
" />
<path d="M16144 5850
L17059 5850
" />
<path d="M14409 5850
L15325 5850
" />
<path d="M16144 5866
L17070 5866
" />
<path d="M14399 5866
L15325 5866
" />
<path d="M16144 5882
L17080 5882
" />
<path d="M14388 5882
L15325 5882
" />
<path d="M16144 5898
L17090 5898
" />
<path d="M14378 5898
L15325 5898
" />
<path d="M16144 5913
L17100 5913
" />
<path d="M14368 5913
L15325 5913
" />
<path d="M16144 5929
L17109 5929
" />
<path d="M14359 5929
L15325 5929
" />
<path d="M16144 5945
L17119 5945
" />
<path d="M14350 5945
L15325 5945
" />
<path d="M16144 5961
L17128 5961
" />
<path d="M14340 5961
L15325 5961
" />
<path d="M16144 5976
L17137 5976
" />
<path d="M14332 5976
L15325 5976
" />
<path d="M16144 5992
L17145 5992
" />
<path d="M14323 5992
L15325 5992
" />
<path d="M16144 6008
L17154 6008
" />
<path d="M14314 6008
L15325 6008
" />
<path d="M16144 6024
L17162 6024
" />
<path d="M14306 6024
L15325 6024
" />
<path d="M16144 6039
L17170 6039
" />
<path d="M14298 6039
L15325 6039
" />
<path d="M16144 6055
L17177 6055
" />
<path d="M14291 6055
L15325 6055
" />
<path d="M16144 6071
L17185 6071
" />
<path d="M14283 6071
L15325 6071
" />
<path d="M16144 6087
L17192 6087
" />
<path d="M14276 6087
L15325 6087
" />
<path d="M16144 6102
L17200 6102
" />
<path d="M14269 6102
L15325 6102
" />
<path d="M16144 6118
L17207 6118
" />
<path d="M14262 6118
L15325 6118
" />
<path d="M16144 6134
L17213 6134
" />
<path d="M14255 6134
L15325 6134
" />
<path d="M16144 6150
L17220 6150
" />
<path d="M14248 6150
L15325 6150
" />
<path d="M16144 6165
L17226 6165
" />
<path d="M14242 6165
L15325 6165
" />
<path d="M16144 6181
L17232 6181
" />
<path d="M14236 6181
L15325 6181
" />
<path d="M16144 6197
L17238 6197
" />
<path d="M14230 6197
L15325 6197
" />
<path d="M16144 6212
L17244 6212
" />
<path d="M14224 6212
L15325 6212
" />
<path d="M16144 6228
L17250 6228
" />
<path d="M14218 6228
L15325 6228
" />
<path d="M16144 6244
L17255 6244
" />
<path d="M14213 6244
L15325 6244
" />
<path d="M16144 6260
L17261 6260
" />
<path d="M14208 6260
L15325 6260
" />
<path d="M16144 6275
L17265 6275
" />
<path d="M14203 6275
L15325 6275
" />
<path d="M16144 6291
L17270 6291
" />
<path d="M14198 6291
L15325 6291
" />
<path d="M16144 6307
L17275 6307
" />
<path d="M14193 6307
L15325 6307
" />
<path d="M16144 6323
L17279 6323
" />
<path d="M14189 6323
L15325 6323
" />
<path d="M16144 6338
L17284 6338
" />
<path d="M14185 6338
L15325 6338
" />
<path d="M16144 6354
L17288 6354
" />
<path d="M14180 6354
L15325 6354
" />
<path d="M16144 6370
L17292 6370
" />
<path d="M14176 6370
L15325 6370
" />
<path d="M16144 6386
L17296 6386
" />
<path d="M14172 6386
L15325 6386
" />
<path d="M16144 6401
L17300 6401
" />
<path d="M14169 6401
L15325 6401
" />
<path d="M16144 6417
L17303 6417
" />
<path d="M14165 6417
L15325 6417
" />
<path d="M16144 6433
L17307 6433
" />
<path d="M14162 6433
L15325 6433
" />
<path d="M16144 6449
L17310 6449
" />
<path d="M14159 6449
L15325 6449
" />
<path d="M16144 6464
L17313 6464
" />
<path d="M14155 6464
L15325 6464
" />
<path d="M16144 6480
L17316 6480
" />
<path d="M14153 6480
L15325 6480
" />
<path d="M14150 6496
L17318 6496
" />
<path d="M14148 6512
L17321 6512
" />
<path d="M14145 6528
L17324 6528
" />
<path d="M14143 6544
L17325 6544
" />
<path d="M14140 6559
L17328 6559
" />
<path d="M14139 6575
L17329 6575
" />
<path d="M14137 6591
L17331 6591
" />
<path d="M14135 6607
L17333 6607
" />
<path d="M14134 6622
L17335 6622
" />
<path d="M14133 6638
L17336 6638
" />
<path d="M14131 6654
L17337 6654
" />
<path d="M14130 6670
L17338 6670
" />
<path d="M14129 6685
L17339 6685
" />
<path d="M14129 6701
L17339 6701
" />
<path d="M14128 6717
L17340 6717
" />
<path d="M14128 6733
L17340 6733
" />
<path d="M14128 6748
L17340 6748
" />
<path d="M14128 6764
L17340 6764
" />
<circle cx="15734.6" cy="6764.57" r="1622.05" /> 
<path d="M10531 10676
L10531 10565
" />
<path d="M10130 10676
L10130 10565
" />
<path d="M9179 14295
L9179 14406
" />
<path d="M9581 14295
L9581 14406
" />
<path d="M11380 6670
L11380 6191
" />
<path d="M11403 8229
L11403 9118
" />
<path d="M11600 8229
L11600 9118
" />
<path d="M12624 7599
L13018 7599
" />
<path d="M12624 8229
L12624 7599
" />
<path d="M13018 8229
L12624 8229
" />
<path d="M13018 7599
L13018 8229
" />
<path d="M11600 7599
L11207 7599
" />
<path d="M11600 8229
L11600 7599
" />
<path d="M11207 8229
L11600 8229
" />
<path d="M11207 7599
L11207 8229
" />
<path d="M13317 6670
L12955 6670
" />
<path d="M10907 6670
L11270 6670
" />
<path d="M12309 7402
L12309 9118
" />
<path d="M11915 7402
L12309 7402
" />
<path d="M11915 9118
L11915 7402
" />
<path d="M12955 6670
L12844 6670
" />
<path d="M12955 6040
L12955 6670
" />
<path d="M13317 6040
L12955 6040
" />
<path d="M13317 9118
L13317 6040
" />
<path d="M10907 9118
L13317 9118
" />
<path d="M10907 6040
L10907 9118
" />
<path d="M11270 6040
L10907 6040
" />
<path d="M11270 6670
L11270 6040
" />
<path d="M11380 6670
L11270 6670
" />
</g>
<g style="fill:#000000; fill-opacity:0.0; 
stroke:#000000; stroke-width:59.0551; stroke-opacity:1; 
stroke-linecap:round; stroke-linejoin:round;">
<text x="16083.5" y="15225.2"
textLength="864.173" font-size="524.934" lengthAdjust="spacingAndGlyphs"
text-anchor="middle" opacity="0">U3</text>
<path d="M15783 14812
L15783 15131
L15802 15168
L15820 15187
L15858 15206
L15933 15206
L15970 15187
L15989 15168
L16008 15131
L16008 14812
" />
<path d="M16158 14812
L16402 14812
L16270 14962
L16327 14962
L16364 14981
L16383 15000
L16402 15037
L16402 15131
L16383 15168
L16364 15187
L16327 15206
L16214 15206
L16177 15187
L16158 15168
" />
<text x="10283.5" y="7225.2"
textLength="864.173" font-size="524.934" lengthAdjust="spacingAndGlyphs"
text-anchor="middle" opacity="0">U2</text>
<path d="M9983 6812
L9983 7131
L10002 7168
L10020 7187
L10058 7206
L10133 7206
L10170 7187
L10189 7168
L10208 7131
L10208 6812
" />
<path d="M10377 6850
L10395 6831
L10433 6812
L10527 6812
L10564 6831
L10583 6850
L10602 6887
L10602 6925
L10583 6981
L10358 7206
L10602 7206
" />
<text x="9789.76" y="11780.3"
textLength="864.173" font-size="524.934" lengthAdjust="spacingAndGlyphs"
text-anchor="middle" opacity="0">U1</text>
<path d="M9489 11367
L9489 11686
L9508 11724
L9527 11742
L9564 11761
L9639 11761
L9677 11742
L9696 11724
L9714 11686
L9714 11367
" />
<path d="M10108 11761
L9883 11761
" />
<path d="M9995 11761
L9995 11367
L9958 11424
L9920 11461
L9883 11480
" />
<text x="8951.18" y="19579.5"
textLength="1276.62" font-size="524.934" lengthAdjust="spacingAndGlyphs"
text-anchor="middle" opacity="0">SW1</text>
<path d="M8426 19542
L8482 19560
L8576 19560
L8613 19542
L8632 19523
L8651 19485
L8651 19448
L8632 19410
L8613 19392
L8576 19373
L8501 19354
L8463 19335
L8444 19317
L8426 19279
L8426 19242
L8444 19204
L8463 19185
L8501 19167
L8594 19167
L8651 19185
" />
<path d="M8782 19167
L8876 19560
L8951 19279
L9026 19560
L9119 19167
" />
<path d="M9476 19560
L9251 19560
" />
<path d="M9363 19560
L9363 19167
L9326 19223
L9288 19260
L9251 19279
" />
<text x="8407.87" y="18512.6"
textLength="1220.38" font-size="524.934" lengthAdjust="spacingAndGlyphs"
text-anchor="middle" opacity="0">SC1</text>
<path d="M7911 18475
L7967 18493
L8061 18493
L8098 18475
L8117 18456
L8136 18418
L8136 18381
L8117 18343
L8098 18325
L8061 18306
L7986 18287
L7948 18268
L7929 18250
L7911 18212
L7911 18175
L7929 18137
L7948 18118
L7986 18100
L8079 18100
L8136 18118
" />
<path d="M8529 18456
L8510 18475
L8454 18493
L8417 18493
L8361 18475
L8323 18437
L8304 18400
L8286 18325
L8286 18268
L8304 18193
L8323 18156
L8361 18118
L8417 18100
L8454 18100
L8510 18118
L8529 18137
" />
<path d="M8904 18493
L8679 18493
" />
<path d="M8792 18493
L8792 18100
L8754 18156
L8717 18193
L8679 18212
" />
<text x="17783.5" y="21425.2"
textLength="1182.88" font-size="524.934" lengthAdjust="spacingAndGlyphs"
text-anchor="middle" opacity="0">RV1</text>
<path d="M17549 21406
L17417 21218
" />
<path d="M17324 21406
L17324 21012
L17474 21012
L17511 21031
L17530 21050
L17549 21087
L17549 21143
L17530 21181
L17511 21200
L17474 21218
L17324 21218
" />
<path d="M17661 21012
L17792 21406
L17924 21012
" />
<path d="M18261 21406
L18036 21406
" />
<path d="M18149 21406
L18149 21012
L18111 21068
L18074 21106
L18036 21125
" />
<text x="9829.13" y="3111.02"
textLength="845.426" font-size="524.934" lengthAdjust="spacingAndGlyphs"
text-anchor="middle" opacity="0">R6</text>
<path d="M9763 3092
L9632 2904
" />
<path d="M9538 3092
L9538 2698
L9688 2698
L9726 2717
L9744 2736
L9763 2773
L9763 2829
L9744 2867
L9726 2886
L9688 2904
L9538 2904
" />
<path d="M10100 2698
L10025 2698
L9988 2717
L9969 2736
L9932 2792
L9913 2867
L9913 3017
L9932 3054
L9950 3073
L9988 3092
L10063 3092
L10100 3073
L10119 3054
L10138 3017
L10138 2923
L10119 2886
L10100 2867
L10063 2848
L9988 2848
L9950 2867
L9932 2886
L9913 2923
" />
<text x="9120.47" y="4595.28"
textLength="845.426" font-size="524.934" lengthAdjust="spacingAndGlyphs"
text-anchor="middle" opacity="0">R5</text>
<path d="M9054 4576
L8923 4389
" />
<path d="M8829 4576
L8829 4182
L8979 4182
L9017 4201
L9036 4220
L9054 4257
L9054 4314
L9036 4351
L9017 4370
L8979 4389
L8829 4389
" />
<path d="M9411 4182
L9223 4182
L9204 4370
L9223 4351
L9261 4332
L9354 4332
L9392 4351
L9411 4370
L9429 4407
L9429 4501
L9411 4539
L9392 4557
L9354 4576
L9261 4576
L9223 4557
L9204 4539
" />
<text x="13883.5" y="14125.2"
textLength="845.426" font-size="524.934" lengthAdjust="spacingAndGlyphs"
text-anchor="middle" opacity="0">R4</text>
<path d="M13817 14106
L13686 13918
" />
<path d="M13592 14106
L13592 13712
L13742 13712
L13780 13731
L13799 13750
L13817 13787
L13817 13843
L13799 13881
L13780 13900
L13742 13918
L13592 13918
" />
<path d="M14155 13843
L14155 14106
" />
<path d="M14061 13694
L13967 13975
L14211 13975
" />
<text x="13883.5" y="15425.2"
textLength="845.426" font-size="524.934" lengthAdjust="spacingAndGlyphs"
text-anchor="middle" opacity="0">R3</text>
<path d="M13817 15406
L13686 15218
" />
<path d="M13592 15406
L13592 15012
L13742 15012
L13780 15031
L13799 15050
L13817 15087
L13817 15143
L13799 15181
L13780 15200
L13742 15218
L13592 15218
" />
<path d="M13949 15012
L14192 15012
L14061 15162
L14117 15162
L14155 15181
L14174 15200
L14192 15237
L14192 15331
L14174 15368
L14155 15387
L14117 15406
L14005 15406
L13967 15387
L13949 15368
" />
<text x="8085.04" y="9394.49"
textLength="845.426" font-size="524.934" lengthAdjust="spacingAndGlyphs"
text-anchor="middle" opacity="0">R2</text>
<path d="M8019 9375
L7888 9188
" />
<path d="M7794 9375
L7794 8982
L7944 8982
L7981 9000
L8000 9019
L8019 9057
L8019 9113
L8000 9150
L7981 9169
L7944 9188
L7794 9188
" />
<path d="M8169 9019
L8188 9000
L8225 8982
L8319 8982
L8356 9000
L8375 9019
L8394 9057
L8394 9094
L8375 9150
L8150 9375
L8394 9375
" />
<text x="14018.1" y="5807.87"
textLength="845.426" font-size="524.934" lengthAdjust="spacingAndGlyphs"
text-anchor="middle" opacity="0">R1</text>
<path d="M13952 5789
L13821 5601
" />
<path d="M13727 5789
L13727 5395
L13877 5395
L13914 5414
L13933 5432
L13952 5470
L13952 5526
L13933 5564
L13914 5582
L13877 5601
L13727 5601
" />
<path d="M14327 5789
L14102 5789
" />
<path d="M14214 5789
L14214 5395
L14177 5451
L14139 5489
L14102 5507
" />
<text x="15516.5" y="3130.71"
textLength="864.173" font-size="524.934" lengthAdjust="spacingAndGlyphs"
text-anchor="middle" opacity="0">Q2</text>
<path d="M15479 3149
L15441 3130
L15404 3093
L15347 3036
L15310 3018
L15272 3018
" />
<path d="M15291 3111
L15254 3093
L15216 3055
L15197 2980
L15197 2849
L15216 2774
L15254 2737
L15291 2718
L15366 2718
L15404 2737
L15441 2774
L15460 2849
L15460 2980
L15441 3055
L15404 3093
L15366 3111
L15291 3111
" />
<path d="M15610 2755
L15629 2737
L15666 2718
L15760 2718
L15797 2737
L15816 2755
L15835 2793
L15835 2830
L15816 2886
L15591 3111
L15835 3111
" />
<text x="13083.5" y="4525.2"
textLength="864.173" font-size="524.934" lengthAdjust="spacingAndGlyphs"
text-anchor="middle" opacity="0">Q1</text>
<path d="M13045 4543
L13008 4525
L12970 4487
L12914 4431
L12877 4412
L12839 4412
" />
<path d="M12858 4506
L12820 4487
L12783 4450
L12764 4375
L12764 4243
L12783 4168
L12820 4131
L12858 4112
L12933 4112
L12970 4131
L13008 4168
L13027 4243
L13027 4375
L13008 4450
L12970 4487
L12933 4506
L12858 4506
" />
<path d="M13402 4506
L13177 4506
" />
<path d="M13289 4506
L13289 4112
L13252 4168
L13214 4206
L13177 4225
" />
<text x="18876.4" y="16307.9"
textLength="770.435" font-size="524.934" lengthAdjust="spacingAndGlyphs"
text-anchor="middle" opacity="0">L2</text>
<path d="M18810 16289
L18623 16289
L18623 15895
" />
<path d="M18923 15932
L18941 15914
L18979 15895
L19073 15895
L19110 15914
L19129 15932
L19148 15970
L19148 16007
L19129 16064
L18904 16289
L19148 16289
" />
<text x="6833.07" y="14697.6"
textLength="770.435" font-size="524.934" lengthAdjust="spacingAndGlyphs"
text-anchor="middle" opacity="0">L1</text>
<path d="M6767 14678
L6579 14678
L6579 14285
" />
<path d="M7104 14678
L6879 14678
" />
<path d="M6992 14678
L6992 14285
L6954 14341
L6917 14378
L6879 14397
" />
<text x="15596.9" y="8969.29"
textLength="751.687" font-size="524.934" lengthAdjust="spacingAndGlyphs"
text-anchor="middle" opacity="0">J1</text>
<path d="M15465 8556
L15465 8838
L15446 8894
L15409 8931
L15353 8950
L15315 8950
" />
<path d="M15859 8950
L15634 8950
" />
<path d="M15746 8950
L15746 8556
L15709 8613
L15671 8650
L15634 8669
" />
<text x="18083.5" y="14525.2"
textLength="845.426" font-size="524.934" lengthAdjust="spacingAndGlyphs"
text-anchor="middle" opacity="0">D7</text>
<path d="M17792 14506
L17792 14112
L17886 14112
L17942 14131
L17980 14168
L17999 14206
L18017 14281
L18017 14337
L17999 14412
L17980 14450
L17942 14487
L17886 14506
L17792 14506
" />
<path d="M18149 14112
L18411 14112
L18242 14506
" />
<text x="10498.4" y="4595.28"
textLength="845.426" font-size="524.934" lengthAdjust="spacingAndGlyphs"
text-anchor="middle" opacity="0">D6</text>
<path d="M10207 4576
L10207 4182
L10301 4182
L10357 4201
L10395 4239
L10414 4276
L10432 4351
L10432 4407
L10414 4482
L10395 4520
L10357 4557
L10301 4576
L10207 4576
" />
<path d="M10770 4182
L10695 4182
L10657 4201
L10639 4220
L10601 4276
L10582 4351
L10582 4501
L10601 4539
L10620 4557
L10657 4576
L10732 4576
L10770 4557
L10789 4539
L10807 4501
L10807 4407
L10789 4370
L10770 4351
L10732 4332
L10657 4332
L10620 4351
L10601 4370
L10582 4407
" />
<text x="12083.5" y="2725.2"
textLength="845.426" font-size="524.934" lengthAdjust="spacingAndGlyphs"
text-anchor="middle" opacity="0">D5</text>
<path d="M11792 2706
L11792 2312
L11886 2312
L11942 2331
L11980 2368
L11999 2406
L12017 2481
L12017 2537
L11999 2612
L11980 2650
L11942 2687
L11886 2706
L11792 2706
" />
<path d="M12374 2312
L12186 2312
L12167 2500
L12186 2481
L12224 2462
L12317 2462
L12355 2481
L12374 2500
L12392 2537
L12392 2631
L12374 2668
L12355 2687
L12317 2706
L12224 2706
L12186 2687
L12167 2668
" />
<text x="20283.5" y="13925.2"
textLength="845.426" font-size="524.934" lengthAdjust="spacingAndGlyphs"
text-anchor="middle" opacity="0">D4</text>
<path d="M19992 13906
L19992 13512
L20086 13512
L20142 13531
L20180 13568
L20199 13606
L20217 13681
L20217 13737
L20199 13812
L20180 13850
L20142 13887
L20086 13906
L19992 13906
" />
<path d="M20555 13643
L20555 13906
" />
<path d="M20461 13494
L20367 13775
L20611 13775
" />
<text x="5833.86" y="13376.4"
textLength="845.426" font-size="524.934" lengthAdjust="spacingAndGlyphs"
text-anchor="middle" opacity="0">D3</text>
<path d="M5543 13357
L5543 12963
L5637 12963
L5693 12982
L5730 13020
L5749 13057
L5768 13132
L5768 13188
L5749 13263
L5730 13301
L5693 13338
L5637 13357
L5543 13357
" />
<path d="M5899 12963
L6143 12963
L6011 13113
L6068 13113
L6105 13132
L6124 13151
L6143 13188
L6143 13282
L6124 13320
L6105 13338
L6068 13357
L5955 13357
L5918 13338
L5899 13320
" />
<text x="18026" y="12603.1"
textLength="845.426" font-size="524.934" lengthAdjust="spacingAndGlyphs"
text-anchor="middle" opacity="0">D2</text>
<path d="M17735 12584
L17735 12190
L17829 12190
L17885 12209
L17922 12246
L17941 12284
L17960 12359
L17960 12415
L17941 12490
L17922 12528
L17885 12565
L17829 12584
L17735 12584
" />
<path d="M18110 12228
L18129 12209
L18166 12190
L18260 12190
L18297 12209
L18316 12228
L18335 12265
L18335 12303
L18316 12359
L18091 12584
L18335 12584
" />
<text x="10222.8" y="13107.1"
textLength="845.426" font-size="524.934" lengthAdjust="spacingAndGlyphs"
text-anchor="middle" opacity="0">D1</text>
<path d="M9932 13088
L9932 12694
L10025 12694
L10082 12713
L10119 12750
L10138 12788
L10157 12863
L10157 12919
L10138 12994
L10119 13032
L10082 13069
L10025 13088
L9932 13088
" />
<path d="M10532 13088
L10307 13088
" />
<path d="M10419 13088
L10419 12694
L10382 12750
L10344 12788
L10307 12807
" />
<text x="14581.1" y="17762.6"
textLength="845.426" font-size="524.934" lengthAdjust="spacingAndGlyphs"
text-anchor="middle" opacity="0">C7</text>
<path d="M14515 17706
L14496 17725
L14440 17743
L14402 17743
L14346 17725
L14309 17687
L14290 17650
L14271 17575
L14271 17518
L14290 17443
L14309 17406
L14346 17368
L14402 17350
L14440 17350
L14496 17368
L14515 17387
" />
<path d="M14646 17350
L14909 17350
L14740 17743
" />
<text x="15750.4" y="17729.1"
textLength="845.426" font-size="524.934" lengthAdjust="spacingAndGlyphs"
text-anchor="middle" opacity="0">C6</text>
<path d="M15684 17672
L15666 17691
L15609 17710
L15572 17710
L15516 17691
L15478 17654
L15459 17616
L15441 17541
L15441 17485
L15459 17410
L15478 17372
L15516 17335
L15572 17316
L15609 17316
L15666 17335
L15684 17354
" />
<path d="M16022 17316
L15947 17316
L15909 17335
L15891 17354
L15853 17410
L15834 17485
L15834 17635
L15853 17672
L15872 17691
L15909 17710
L15984 17710
L16022 17691
L16040 17672
L16059 17635
L16059 17541
L16040 17504
L16022 17485
L15984 17466
L15909 17466
L15872 17485
L15853 17504
L15834 17541
" />
<text x="11837" y="4595.28"
textLength="845.426" font-size="524.934" lengthAdjust="spacingAndGlyphs"
text-anchor="middle" opacity="0">C5</text>
<path d="M11771 4539
L11752 4557
L11696 4576
L11658 4576
L11602 4557
L11565 4520
L11546 4482
L11527 4407
L11527 4351
L11546 4276
L11565 4239
L11602 4201
L11658 4182
L11696 4182
L11752 4201
L11771 4220
" />
<path d="M12127 4182
L11940 4182
L11921 4370
L11940 4351
L11977 4332
L12071 4332
L12108 4351
L12127 4370
L12146 4407
L12146 4501
L12127 4539
L12108 4557
L12071 4576
L11977 4576
L11940 4557
L11921 4539
" />
<text x="10983.5" y="9488.98"
textLength="845.426" font-size="524.934" lengthAdjust="spacingAndGlyphs"
text-anchor="middle" opacity="0">C4</text>
<path d="M10917 9432
L10899 9451
L10842 9470
L10805 9470
L10749 9451
L10711 9413
L10692 9376
L10674 9301
L10674 9245
L10692 9170
L10711 9132
L10749 9095
L10805 9076
L10842 9076
L10899 9095
L10917 9114
" />
<path d="M11255 9207
L11255 9470
" />
<path d="M11161 9057
L11067 9338
L11311 9338
" />
<text x="17053.5" y="8618.9"
textLength="845.426" font-size="524.934" lengthAdjust="spacingAndGlyphs"
text-anchor="middle" opacity="0">C3</text>
<path d="M16987 8562
L16969 8581
L16912 8600
L16875 8600
L16819 8581
L16781 8543
L16762 8506
L16744 8431
L16744 8375
L16762 8300
L16781 8262
L16819 8225
L16875 8206
L16912 8206
L16969 8225
L16987 8243
" />
<path d="M17119 8206
L17362 8206
L17231 8356
L17287 8356
L17325 8375
L17344 8393
L17362 8431
L17362 8525
L17344 8562
L17325 8581
L17287 8600
L17175 8600
L17137 8581
L17119 8562
" />
<text x="11000.4" y="10857.1"
textLength="845.426" font-size="524.934" lengthAdjust="spacingAndGlyphs"
text-anchor="middle" opacity="0">C2</text>
<path d="M10934 10800
L10916 10819
L10859 10838
L10822 10838
L10766 10819
L10728 10782
L10709 10744
L10691 10669
L10691 10613
L10709 10538
L10728 10500
L10766 10463
L10822 10444
L10859 10444
L10916 10463
L10934 10482
" />
<path d="M11084 10482
L11103 10463
L11141 10444
L11234 10444
L11272 10463
L11290 10482
L11309 10519
L11309 10557
L11290 10613
L11066 10838
L11309 10838
" />
<text x="10183.5" y="14525.2"
textLength="845.426" font-size="524.934" lengthAdjust="spacingAndGlyphs"
text-anchor="middle" opacity="0">C1</text>
<path d="M10117 14468
L10099 14487
L10042 14506
L10005 14506
L9949 14487
L9911 14450
L9892 14412
L9874 14337
L9874 14281
L9892 14206
L9911 14168
L9949 14131
L10005 14112
L10042 14112
L10099 14131
L10117 14150
" />
<path d="M10492 14506
L10267 14506
" />
<path d="M10380 14506
L10380 14112
L10342 14168
L10305 14206
L10267 14225
" />
<text x="12083.5" y="6125.2"
textLength="1145.39" font-size="524.934" lengthAdjust="spacingAndGlyphs"
text-anchor="middle" opacity="0">BT1</text>
<path d="M11774 5900
L11830 5918
L11849 5937
L11867 5975
L11867 6031
L11849 6068
L11830 6087
L11792 6106
L11642 6106
L11642 5712
L11774 5712
L11811 5731
L11830 5750
L11849 5787
L11849 5825
L11830 5862
L11811 5881
L11774 5900
L11642 5900
" />
<path d="M11980 5712
L12205 5712
" />
<path d="M12092 6106
L12092 5712
" />
<path d="M12542 6106
L12317 6106
" />
<path d="M12430 6106
L12430 5712
L12392 5768
L12355 5806
L12317 5825
" />
<g >
</g>
</g>
<g style="fill:#000000; fill-opacity:0.0; 
stroke:#000000; stroke-width:59.0551; stroke-opacity:1; 
stroke-linecap:round; stroke-linejoin:round;">
</g>
<g style="fill:#000000; fill-opacity:0.0; 
stroke:#000000; stroke-width:19.685; stroke-opacity:1; 
stroke-linecap:round; stroke-linejoin:round;">
<path d="M18083 21928
L7283 21928
" />
<path d="M18083.5 21928.3 A11014.5 11014.5 0.0 1 0 7283.46 21928.3" />
<g >
</g>
<g >
</g>
<g >
</g>
<g >
</g>
<g >
</g>
<g >
</g>
<g >
</g>
<g >
</g>
<g >
</g>
<g >
</g>
<g >
</g>
<g >
</g>
<g >
</g>
<g >
</g>
<g >
</g>
<g >
</g>
<g >
</g>
<g >
</g>
<g >
</g>
<g >
</g>
<g >
</g>
<g >
</g>
<g >
</g>
<g >
</g>
<g >
</g>
<g >
</g>
<g >
</g>
<g >
</g>
<g >
</g>
<g >
</g>
<g >
</g>
<g >
</g>
<g >
</g>
<g >
</g>
<g >
</g>
<g >
</g>
<g >
</g>
<g >
</g>
<g >
</g>
<g >
</g>
<g >
</g>
<g >
</g>
<g >
</g>
<g >
</g>
</g> 
</svg>
