<?xml version="1.0" standalone="no"?>
 <!DOCTYPE svg PUBLIC "-//W3C//DTD SVG 1.1//EN" 
 "http://www.w3.org/Graphics/SVG/1.1/DTD/svg11.dtd"> 
<svg
  xmlns:svg="http://www.w3.org/2000/svg"
  xmlns="http://www.w3.org/2000/svg"
  xmlns:xlink="http://www.w3.org/1999/xlink"
  version="1.1"
  width="5.410200cm" height="5.158740cm" viewBox="0 0 21300 20310">
<title>SVG Picture created as night-light-brd.svg date 2022/05/30 18:37:11 </title>
  <desc>Picture generated by PCBNEW </desc>
<g style="fill:#000000; fill-opacity:1;stroke:#000000; stroke-opacity:1;
stroke-linecap:round; stroke-linejoin:round;"
 transform="translate(0 0) scale(1 1)">
</g>
<g style="fill:#000000; fill-opacity:0.0; 
stroke:#000000; stroke-width:-0.000393701; stroke-opacity:1; 
stroke-linecap:round; stroke-linejoin:round;">
<g >
</g>
<g style="fill:#000000; fill-opacity:1.0; 
stroke:#000000; stroke-width:0; stroke-opacity:1; 
stroke-linecap:round; stroke-linejoin:round;">
<circle cx="15728.8" cy="17802.3" r="492.126" /> 
</g>
<g style="fill:#000000; fill-opacity:1.0; 
stroke:#000000; stroke-width:39.3701; stroke-opacity:1; 
stroke-linecap:round; stroke-linejoin:round;">
</g>
<g >
</g>
<g style="fill:#000000; fill-opacity:1.0; 
stroke:#000000; stroke-width:39.3701; stroke-opacity:1; 
stroke-linecap:round; stroke-linejoin:round;">
</g>
<g style="fill:#000000; fill-opacity:1.0; 
stroke:#000000; stroke-width:0; stroke-opacity:1; 
stroke-linecap:round; stroke-linejoin:round;">
<circle cx="3524.09" cy="2251.12" r="492.126" /> 
</g>
<g style="fill:#000000; fill-opacity:1.0; 
stroke:#000000; stroke-width:39.3701; stroke-opacity:1; 
stroke-linecap:round; stroke-linejoin:round;">
</g>
<g >
</g>
<g style="fill:#000000; fill-opacity:1.0; 
stroke:#000000; stroke-width:39.3701; stroke-opacity:1; 
stroke-linecap:round; stroke-linejoin:round;">
</g>
<g style="fill:#000000; fill-opacity:1.0; 
stroke:#000000; stroke-width:0; stroke-opacity:1; 
stroke-linecap:round; stroke-linejoin:round;">
<circle cx="3524.09" cy="18589.7" r="492.126" /> 
</g>
<g style="fill:#000000; fill-opacity:1.0; 
stroke:#000000; stroke-width:39.3701; stroke-opacity:1; 
stroke-linecap:round; stroke-linejoin:round;">
</g>
<g >
</g>
<g style="fill:#000000; fill-opacity:1.0; 
stroke:#000000; stroke-width:39.3701; stroke-opacity:1; 
stroke-linecap:round; stroke-linejoin:round;">
</g>
<g style="fill:#000000; fill-opacity:1.0; 
stroke:#000000; stroke-width:0; stroke-opacity:1; 
stroke-linecap:round; stroke-linejoin:round;">
<path style="fill:#000000; fill-opacity:1.0; 
stroke:#000000; stroke-width:0; stroke-opacity:1; 
stroke-linecap:round; stroke-linejoin:round;fill-rule:evenodd;"
d="M 5925.67,5833.8
5925.67,5440.1
6319.37,5440.1
6319.37,5833.8
Z" /> 
</g>
<g >
</g>
<g style="fill:#000000; fill-opacity:1.0; 
stroke:#000000; stroke-width:0; stroke-opacity:1; 
stroke-linecap:round; stroke-linejoin:round;">
<path style="fill:#000000; fill-opacity:1.0; 
stroke:#000000; stroke-width:0; stroke-opacity:1; 
stroke-linecap:round; stroke-linejoin:round;fill-rule:evenodd;"
d="M 6398.11,11581.8
6398.11,11188.1
6791.81,11188.1
6791.81,11581.8
Z" /> 
</g>
<g >
</g>
<g style="fill:#000000; fill-opacity:1.0; 
stroke:#000000; stroke-width:0; stroke-opacity:1; 
stroke-linecap:round; stroke-linejoin:round;">
<path style="fill:#000000; fill-opacity:1.0; 
stroke:#000000; stroke-width:0; stroke-opacity:1; 
stroke-linecap:round; stroke-linejoin:round;fill-rule:evenodd;"
d="M 14980.8,12841.7
14980.8,12448
15374.5,12448
15374.5,12841.7
Z" /> 
</g>
<g >
</g>
<g >
</g>
<g >
</g>
<g >
</g>
<g >
</g>
<g >
</g>
<g style="fill:#000000; fill-opacity:1.0; 
stroke:#000000; stroke-width:0; stroke-opacity:1; 
stroke-linecap:round; stroke-linejoin:round;">
<circle cx="4075.27" cy="8215.69" r="255.906" /> 
</g>
<g style="fill:#000000; fill-opacity:1.0; 
stroke:#000000; stroke-width:39.3701; stroke-opacity:1; 
stroke-linecap:round; stroke-linejoin:round;">
</g>
<g style="fill:#000000; fill-opacity:1.0; 
stroke:#000000; stroke-width:0; stroke-opacity:1; 
stroke-linecap:round; stroke-linejoin:round;">
<circle cx="4075.27" cy="3373.17" r="255.906" /> 
</g>
<g style="fill:#000000; fill-opacity:1.0; 
stroke:#000000; stroke-width:39.3701; stroke-opacity:1; 
stroke-linecap:round; stroke-linejoin:round;">
</g>
<g style="fill:#000000; fill-opacity:1.0; 
stroke:#000000; stroke-width:0; stroke-opacity:1; 
stroke-linecap:round; stroke-linejoin:round;">
<circle cx="3583.15" cy="7369.24" r="300" /> 
</g>
<g style="fill:#000000; fill-opacity:1.0; 
stroke:#000000; stroke-width:39.3701; stroke-opacity:1; 
stroke-linecap:round; stroke-linejoin:round;">
</g>
<g style="fill:#000000; fill-opacity:1.0; 
stroke:#000000; stroke-width:0; stroke-opacity:1; 
stroke-linecap:round; stroke-linejoin:round;">
<circle cx="3583.15" cy="6581.83" r="300" /> 
</g>
<g style="fill:#000000; fill-opacity:1.0; 
stroke:#000000; stroke-width:39.3701; stroke-opacity:1; 
stroke-linecap:round; stroke-linejoin:round;">
</g>
<g style="fill:#000000; fill-opacity:1.0; 
stroke:#000000; stroke-width:0; stroke-opacity:1; 
stroke-linecap:round; stroke-linejoin:round;">
<circle cx="3583.15" cy="5794.43" r="300" /> 
</g>
<g style="fill:#000000; fill-opacity:1.0; 
stroke:#000000; stroke-width:39.3701; stroke-opacity:1; 
stroke-linecap:round; stroke-linejoin:round;">
</g>
<g style="fill:#000000; fill-opacity:1.0; 
stroke:#000000; stroke-width:0; stroke-opacity:1; 
stroke-linecap:round; stroke-linejoin:round;">
<circle cx="3583.15" cy="4219.63" r="300" /> 
</g>
<g style="fill:#000000; fill-opacity:1.0; 
stroke:#000000; stroke-width:39.3701; stroke-opacity:1; 
stroke-linecap:round; stroke-linejoin:round;">
</g>
<g style="fill:#000000; fill-opacity:1.0; 
stroke:#000000; stroke-width:0; stroke-opacity:1; 
stroke-linecap:round; stroke-linejoin:round;">
<circle cx="4567.4" cy="7369.24" r="300" /> 
</g>
<g style="fill:#000000; fill-opacity:1.0; 
stroke:#000000; stroke-width:39.3701; stroke-opacity:1; 
stroke-linecap:round; stroke-linejoin:round;">
</g>
<g style="fill:#000000; fill-opacity:1.0; 
stroke:#000000; stroke-width:0; stroke-opacity:1; 
stroke-linecap:round; stroke-linejoin:round;">
<circle cx="4567.4" cy="6581.83" r="300" /> 
</g>
<g style="fill:#000000; fill-opacity:1.0; 
stroke:#000000; stroke-width:39.3701; stroke-opacity:1; 
stroke-linecap:round; stroke-linejoin:round;">
</g>
<g style="fill:#000000; fill-opacity:1.0; 
stroke:#000000; stroke-width:0; stroke-opacity:1; 
stroke-linecap:round; stroke-linejoin:round;">
<circle cx="4567.4" cy="5794.43" r="300" /> 
</g>
<g style="fill:#000000; fill-opacity:1.0; 
stroke:#000000; stroke-width:39.3701; stroke-opacity:1; 
stroke-linecap:round; stroke-linejoin:round;">
</g>
<g style="fill:#000000; fill-opacity:1.0; 
stroke:#000000; stroke-width:0; stroke-opacity:1; 
stroke-linecap:round; stroke-linejoin:round;">
<circle cx="4567.4" cy="4219.63" r="300" /> 
</g>
<g style="fill:#000000; fill-opacity:1.0; 
stroke:#000000; stroke-width:39.3701; stroke-opacity:1; 
stroke-linecap:round; stroke-linejoin:round;">
</g>
<g >
</g>
<g style="fill:#000000; fill-opacity:1.0; 
stroke:#000000; stroke-width:39.3701; stroke-opacity:1; 
stroke-linecap:round; stroke-linejoin:round;">
</g>
<g style="fill:#000000; fill-opacity:1.0; 
stroke:#000000; stroke-width:0; stroke-opacity:1; 
stroke-linecap:round; stroke-linejoin:round;">
<circle cx="15335.1" cy="8345.61" r="283.465" /> 
</g>
<g style="fill:#000000; fill-opacity:1.0; 
stroke:#000000; stroke-width:39.3701; stroke-opacity:1; 
stroke-linecap:round; stroke-linejoin:round;">
</g>
<g style="fill:#000000; fill-opacity:1.0; 
stroke:#000000; stroke-width:0; stroke-opacity:1; 
stroke-linecap:round; stroke-linejoin:round;">
<circle cx="15335.1" cy="7345.61" r="283.465" /> 
</g>
<g style="fill:#000000; fill-opacity:1.0; 
stroke:#000000; stroke-width:39.3701; stroke-opacity:1; 
stroke-linecap:round; stroke-linejoin:round;">
</g>
<g style="fill:#000000; fill-opacity:1.0; 
stroke:#000000; stroke-width:0; stroke-opacity:1; 
stroke-linecap:round; stroke-linejoin:round;">
<circle cx="15335.1" cy="6345.61" r="283.465" /> 
</g>
<g style="fill:#000000; fill-opacity:1.0; 
stroke:#000000; stroke-width:39.3701; stroke-opacity:1; 
stroke-linecap:round; stroke-linejoin:round;">
</g>
<g >
</g>
<g >
</g>
<g >
</g>
<g >
</g>
<g >
</g>
<g >
</g>
<g >
</g>
<g >
</g>
<g >
</g>
<g style="fill:#000000; fill-opacity:1.0; 
stroke:#000000; stroke-width:39.3701; stroke-opacity:1; 
stroke-linecap:round; stroke-linejoin:round;">
</g>
<g style="fill:#000000; fill-opacity:1.0; 
stroke:#000000; stroke-width:0; stroke-opacity:1; 
stroke-linecap:round; stroke-linejoin:round;">
<circle cx="5075.27" cy="16660.6" r="334.646" /> 
<path style="fill:#000000; fill-opacity:1.0; 
stroke:#000000; stroke-width:0; stroke-opacity:1; 
stroke-linecap:round; stroke-linejoin:round;fill-rule:evenodd;"
d="M 4409.92,16995.2
3740.63,16995.2
3740.63,16325.9
4409.92,16325.9
Z" /> 
</g>
<g >
</g>
<g style="fill:#000000; fill-opacity:1.0; 
stroke:#000000; stroke-width:0; stroke-opacity:1; 
stroke-linecap:round; stroke-linejoin:round;">
<circle cx="13681.6" cy="14920.4" r="334.646" /> 
<circle cx="13681.6" cy="15920.4" r="334.646" /> 
<circle cx="13681.6" cy="16920.4" r="334.646" /> 
<path style="fill:#000000; fill-opacity:1.0; 
stroke:#000000; stroke-width:0; stroke-opacity:1; 
stroke-linecap:round; stroke-linejoin:round;fill-rule:evenodd;"
d="M 14016.2,17585.8
14016.2,18255.1
13346.9,18255.1
13346.9,17585.8
Z" /> 
</g>
<g >
</g>
<g >
</g>
<g >
</g>
<g >
</g>
<g >
</g>
<g >
</g>
<g >
</g>
<g >
</g>
<g style="fill:#000000; fill-opacity:1.0; 
stroke:#000000; stroke-width:0; stroke-opacity:1; 
stroke-linecap:round; stroke-linejoin:round;">
<circle cx="12539.8" cy="12014.9" r="314.961" /> 
</g>
<g style="fill:#000000; fill-opacity:1.0; 
stroke:#000000; stroke-width:39.3701; stroke-opacity:1; 
stroke-linecap:round; stroke-linejoin:round;">
</g>
<g style="fill:#000000; fill-opacity:1.0; 
stroke:#000000; stroke-width:0; stroke-opacity:1; 
stroke-linecap:round; stroke-linejoin:round;">
<path style="fill:#000000; fill-opacity:1.0; 
stroke:#000000; stroke-width:0; stroke-opacity:1; 
stroke-linecap:round; stroke-linejoin:round;fill-rule:evenodd;"
d="M 14232.8,11699.9
14232.8,12329.9
13602.8,12329.9
13602.8,11699.9
Z" /> 
</g>
<g >
</g>
<g >
</g>
<g >
</g>
<g >
</g>
<g style="fill:#000000; fill-opacity:1.0; 
stroke:#000000; stroke-width:0; stroke-opacity:1; 
stroke-linecap:round; stroke-linejoin:round;">
<circle cx="7894.17" cy="15715.7" r="319.685" /> 
</g>
<g style="fill:#000000; fill-opacity:1.0; 
stroke:#000000; stroke-width:39.3701; stroke-opacity:1; 
stroke-linecap:round; stroke-linejoin:round;">
</g>
<g style="fill:#000000; fill-opacity:1.0; 
stroke:#000000; stroke-width:0; stroke-opacity:1; 
stroke-linecap:round; stroke-linejoin:round;">
<circle cx="10650.1" cy="15715.7" r="319.685" /> 
</g>
<g style="fill:#000000; fill-opacity:1.0; 
stroke:#000000; stroke-width:39.3701; stroke-opacity:1; 
stroke-linecap:round; stroke-linejoin:round;">
</g>
<g >
</g>
<g style="fill:#000000; fill-opacity:1.0; 
stroke:#000000; stroke-width:39.3701; stroke-opacity:1; 
stroke-linecap:round; stroke-linejoin:round;">
</g>
<g style="fill:#000000; fill-opacity:1.0; 
stroke:#000000; stroke-width:0; stroke-opacity:1; 
stroke-linecap:round; stroke-linejoin:round;">
<circle cx="7854.8" cy="8392.86" r="319.685" /> 
</g>
<g style="fill:#000000; fill-opacity:1.0; 
stroke:#000000; stroke-width:39.3701; stroke-opacity:1; 
stroke-linecap:round; stroke-linejoin:round;">
</g>
<g style="fill:#000000; fill-opacity:1.0; 
stroke:#000000; stroke-width:0; stroke-opacity:1; 
stroke-linecap:round; stroke-linejoin:round;">
<circle cx="10610.7" cy="8392.86" r="319.685" /> 
</g>
<g style="fill:#000000; fill-opacity:1.0; 
stroke:#000000; stroke-width:39.3701; stroke-opacity:1; 
stroke-linecap:round; stroke-linejoin:round;">
</g>
<g >
</g>
<g >
</g>
<g >
</g>
</g>
<g style="fill:#000000; fill-opacity:1.0; 
stroke:#000000; stroke-width:39.3701; stroke-opacity:1; 
stroke-linecap:round; stroke-linejoin:round;">
<g >
</g>
<g style="fill:#000000; fill-opacity:1.0; 
stroke:#000000; stroke-width:0; stroke-opacity:1; 
stroke-linecap:round; stroke-linejoin:round;">
<circle cx="15728.8" cy="17802.3" r="492.126" /> 
</g>
<g style="fill:#000000; fill-opacity:1.0; 
stroke:#000000; stroke-width:39.3701; stroke-opacity:1; 
stroke-linecap:round; stroke-linejoin:round;">
</g>
<g >
</g>
<g style="fill:#000000; fill-opacity:1.0; 
stroke:#000000; stroke-width:39.3701; stroke-opacity:1; 
stroke-linecap:round; stroke-linejoin:round;">
</g>
<g style="fill:#000000; fill-opacity:1.0; 
stroke:#000000; stroke-width:0; stroke-opacity:1; 
stroke-linecap:round; stroke-linejoin:round;">
<circle cx="3524.09" cy="2251.12" r="492.126" /> 
</g>
<g style="fill:#000000; fill-opacity:1.0; 
stroke:#000000; stroke-width:39.3701; stroke-opacity:1; 
stroke-linecap:round; stroke-linejoin:round;">
</g>
<g >
</g>
<g style="fill:#000000; fill-opacity:1.0; 
stroke:#000000; stroke-width:39.3701; stroke-opacity:1; 
stroke-linecap:round; stroke-linejoin:round;">
</g>
<g style="fill:#000000; fill-opacity:1.0; 
stroke:#000000; stroke-width:0; stroke-opacity:1; 
stroke-linecap:round; stroke-linejoin:round;">
<circle cx="3524.09" cy="18589.7" r="492.126" /> 
</g>
<g style="fill:#000000; fill-opacity:1.0; 
stroke:#000000; stroke-width:39.3701; stroke-opacity:1; 
stroke-linecap:round; stroke-linejoin:round;">
</g>
<g >
</g>
<g style="fill:#000000; fill-opacity:1.0; 
stroke:#000000; stroke-width:39.3701; stroke-opacity:1; 
stroke-linecap:round; stroke-linejoin:round;">
</g>
<g style="fill:#000000; fill-opacity:1.0; 
stroke:#000000; stroke-width:0; stroke-opacity:1; 
stroke-linecap:round; stroke-linejoin:round;">
<path style="fill:#000000; fill-opacity:1.0; 
stroke:#000000; stroke-width:0; stroke-opacity:1; 
stroke-linecap:round; stroke-linejoin:round;fill-rule:evenodd;"
d="M 5925.67,5833.8
5925.67,5440.1
6319.37,5440.1
6319.37,5833.8
Z" /> 
</g>
<g >
</g>
<g style="fill:#000000; fill-opacity:1.0; 
stroke:#000000; stroke-width:0; stroke-opacity:1; 
stroke-linecap:round; stroke-linejoin:round;">
<path style="fill:#000000; fill-opacity:1.0; 
stroke:#000000; stroke-width:0; stroke-opacity:1; 
stroke-linecap:round; stroke-linejoin:round;fill-rule:evenodd;"
d="M 6398.11,11581.8
6398.11,11188.1
6791.81,11188.1
6791.81,11581.8
Z" /> 
</g>
<g >
</g>
<g style="fill:#000000; fill-opacity:1.0; 
stroke:#000000; stroke-width:0; stroke-opacity:1; 
stroke-linecap:round; stroke-linejoin:round;">
<path style="fill:#000000; fill-opacity:1.0; 
stroke:#000000; stroke-width:0; stroke-opacity:1; 
stroke-linecap:round; stroke-linejoin:round;fill-rule:evenodd;"
d="M 14980.8,12841.7
14980.8,12448
15374.5,12448
15374.5,12841.7
Z" /> 
</g>
<g >
</g>
<g style="fill:#000000; fill-opacity:1.0; 
stroke:#000000; stroke-width:0; stroke-opacity:1; 
stroke-linecap:round; stroke-linejoin:round;">
<path style="fill:#000000; fill-opacity:1.0; 
stroke:#000000; stroke-width:0; stroke-opacity:1; 
stroke-linecap:round; stroke-linejoin:round;fill-rule:evenodd;"
d="M 13917.8,8786.56
13445.4,8786.56
13445.4,8432.23
13917.8,8432.23
Z" /> 
<path style="fill:#000000; fill-opacity:1.0; 
stroke:#000000; stroke-width:0; stroke-opacity:1; 
stroke-linecap:round; stroke-linejoin:round;fill-rule:evenodd;"
d="M 13917.8,10085.8
13445.4,10085.8
13445.4,9731.44
13917.8,9731.44
Z" /> 
</g>
<g >
</g>
<g style="fill:#000000; fill-opacity:1.0; 
stroke:#000000; stroke-width:0; stroke-opacity:1; 
stroke-linecap:round; stroke-linejoin:round;">
<path style="fill:#000000; fill-opacity:1.0; 
stroke:#000000; stroke-width:0; stroke-opacity:1; 
stroke-linecap:round; stroke-linejoin:round;fill-rule:evenodd;"
d="M 6929.6,4298.37
8465.04,4298.37
8465.04,4770.81
6929.6,4770.81
Z" /> 
<path style="fill:#000000; fill-opacity:1.0; 
stroke:#000000; stroke-width:0; stroke-opacity:1; 
stroke-linecap:round; stroke-linejoin:round;fill-rule:evenodd;"
d="M 6929.6,3196.01
8465.04,3196.01
8465.04,3668.45
6929.6,3668.45
Z" /> 
</g>
<g >
</g>
<g style="fill:#000000; fill-opacity:1.0; 
stroke:#000000; stroke-width:0; stroke-opacity:1; 
stroke-linecap:round; stroke-linejoin:round;">
<path style="fill:#000000; fill-opacity:1.0; 
stroke:#000000; stroke-width:0; stroke-opacity:1; 
stroke-linecap:round; stroke-linejoin:round;fill-rule:evenodd;"
d="M 5394.17,14613.3
3858.74,14613.3
3858.74,14140.9
5394.17,14140.9
Z" /> 
<path style="fill:#000000; fill-opacity:1.0; 
stroke:#000000; stroke-width:0; stroke-opacity:1; 
stroke-linecap:round; stroke-linejoin:round;fill-rule:evenodd;"
d="M 5394.17,15715.7
3858.74,15715.7
3858.74,15243.3
5394.17,15243.3
Z" /> 
</g>
<g >
</g>
<g style="fill:#000000; fill-opacity:1.0; 
stroke:#000000; stroke-width:0; stroke-opacity:1; 
stroke-linecap:round; stroke-linejoin:round;">
<path style="fill:#000000; fill-opacity:1.0; 
stroke:#000000; stroke-width:0; stroke-opacity:1; 
stroke-linecap:round; stroke-linejoin:round;fill-rule:evenodd;"
d="M 9756.37,3993.25
9756.37,4249.16
9339.05,4249.16
9339.05,3993.25
Z" /> 
<path style="fill:#000000; fill-opacity:1.0; 
stroke:#000000; stroke-width:0; stroke-opacity:1; 
stroke-linecap:round; stroke-linejoin:round;fill-rule:evenodd;"
d="M 9756.37,3245.22
9756.37,3501.12
9339.05,3501.12
9339.05,3245.22
Z" /> 
<path style="fill:#000000; fill-opacity:1.0; 
stroke:#000000; stroke-width:0; stroke-opacity:1; 
stroke-linecap:round; stroke-linejoin:round;fill-rule:evenodd;"
d="M 10622.5,3245.22
10622.5,3501.12
10205.2,3501.12
10205.2,3245.22
Z" /> 
<path style="fill:#000000; fill-opacity:1.0; 
stroke:#000000; stroke-width:0; stroke-opacity:1; 
stroke-linecap:round; stroke-linejoin:round;fill-rule:evenodd;"
d="M 10622.5,3619.24
10622.5,3875.14
10205.2,3875.14
10205.2,3619.24
Z" /> 
<path style="fill:#000000; fill-opacity:1.0; 
stroke:#000000; stroke-width:0; stroke-opacity:1; 
stroke-linecap:round; stroke-linejoin:round;fill-rule:evenodd;"
d="M 10622.5,3993.25
10622.5,4249.16
10205.2,4249.16
10205.2,3993.25
Z" /> 
</g>
<g >
</g>
<g style="fill:#000000; fill-opacity:1.0; 
stroke:#000000; stroke-width:0; stroke-opacity:1; 
stroke-linecap:round; stroke-linejoin:round;">
<path style="fill:#000000; fill-opacity:1.0; 
stroke:#000000; stroke-width:0; stroke-opacity:1; 
stroke-linecap:round; stroke-linejoin:round;fill-rule:evenodd;"
d="M 2569.37,14546.4
2313.46,14546.4
2313.46,14129.1
2569.37,14129.1
Z" /> 
<path style="fill:#000000; fill-opacity:1.0; 
stroke:#000000; stroke-width:0; stroke-opacity:1; 
stroke-linecap:round; stroke-linejoin:round;fill-rule:evenodd;"
d="M 3317.4,14546.4
3061.49,14546.4
3061.49,14129.1
3317.4,14129.1
Z" /> 
<path style="fill:#000000; fill-opacity:1.0; 
stroke:#000000; stroke-width:0; stroke-opacity:1; 
stroke-linecap:round; stroke-linejoin:round;fill-rule:evenodd;"
d="M 3317.4,15412.5
3061.49,15412.5
3061.49,14995.2
3317.4,14995.2
Z" /> 
<path style="fill:#000000; fill-opacity:1.0; 
stroke:#000000; stroke-width:0; stroke-opacity:1; 
stroke-linecap:round; stroke-linejoin:round;fill-rule:evenodd;"
d="M 2943.38,15412.5
2687.48,15412.5
2687.48,14995.2
2943.38,14995.2
Z" /> 
<path style="fill:#000000; fill-opacity:1.0; 
stroke:#000000; stroke-width:0; stroke-opacity:1; 
stroke-linecap:round; stroke-linejoin:round;fill-rule:evenodd;"
d="M 2569.37,15412.5
2313.46,15412.5
2313.46,14995.2
2569.37,14995.2
Z" /> 
</g>
<g >
</g>
<g style="fill:#000000; fill-opacity:1.0; 
stroke:#000000; stroke-width:0; stroke-opacity:1; 
stroke-linecap:round; stroke-linejoin:round;">
<circle cx="4075.27" cy="8215.69" r="255.906" /> 
</g>
<g style="fill:#000000; fill-opacity:1.0; 
stroke:#000000; stroke-width:39.3701; stroke-opacity:1; 
stroke-linecap:round; stroke-linejoin:round;">
</g>
<g style="fill:#000000; fill-opacity:1.0; 
stroke:#000000; stroke-width:0; stroke-opacity:1; 
stroke-linecap:round; stroke-linejoin:round;">
<circle cx="4075.27" cy="3373.17" r="255.906" /> 
</g>
<g style="fill:#000000; fill-opacity:1.0; 
stroke:#000000; stroke-width:39.3701; stroke-opacity:1; 
stroke-linecap:round; stroke-linejoin:round;">
</g>
<g >
</g>
<g >
</g>
<g style="fill:#000000; fill-opacity:1.0; 
stroke:#000000; stroke-width:39.3701; stroke-opacity:1; 
stroke-linecap:round; stroke-linejoin:round;">
</g>
<g style="fill:#000000; fill-opacity:1.0; 
stroke:#000000; stroke-width:0; stroke-opacity:1; 
stroke-linecap:round; stroke-linejoin:round;">
<path style="fill:#000000; fill-opacity:1.0; 
stroke:#000000; stroke-width:0; stroke-opacity:1; 
stroke-linecap:round; stroke-linejoin:round;fill-rule:evenodd;"
d="M 12577.1,2773.16
12584.7,2774.29
12592.2,2776.17
12599.5,2778.77
12606.5,2782.08
12613.1,2786.05
12619.3,2790.65
12625,2795.84
12630.2,2801.57
12634.8,2807.77
12638.8,2814.4
12642.1,2821.39
12644.7,2828.66
12646.6,2836.16
12647.7,2843.8
12648.1,2851.52
12648.1,3068.05
12647.7,3075.77
12646.6,3083.42
12644.7,3090.91
12642.1,3098.19
12638.8,3105.17
12634.8,3111.8
12630.2,3118.01
12625,3123.73
12619.3,3128.92
12613.1,3133.52
12606.5,3137.5
12599.5,3140.8
12592.2,3143.4
12584.7,3145.28
12577.1,3146.41
12569.4,3146.79
12411.9,3146.79
12404.2,3146.41
12396.5,3145.28
12389,3143.4
12381.8,3140.8
12374.8,3137.5
12368.1,3133.52
12361.9,3128.92
12356.2,3123.73
12351,3118.01
12346.4,3111.8
12342.4,3105.17
12339.1,3098.19
12336.5,3090.91
12334.7,3083.42
12333.5,3075.77
12333.1,3068.05
12333.1,2851.52
12333.5,2843.8
12334.7,2836.16
12336.5,2828.66
12339.1,2821.39
12342.4,2814.4
12346.4,2807.77
12351,2801.57
12356.2,2795.84
12361.9,2790.65
12368.1,2786.05
12374.8,2782.08
12381.8,2778.77
12389,2776.17
12396.5,2774.29
12404.2,2773.16
12411.9,2772.78
12569.4,2772.78
Z" /> 
<path style="fill:#000000; fill-opacity:1.0; 
stroke:#000000; stroke-width:0; stroke-opacity:1; 
stroke-linecap:round; stroke-linejoin:round;fill-rule:evenodd;"
d="M 13226.7,2773.16
13234.3,2774.29
13241.8,2776.17
13249.1,2778.77
13256.1,2782.08
13262.7,2786.05
13268.9,2790.65
13274.6,2795.84
13279.8,2801.57
13284.4,2807.77
13288.4,2814.4
13291.7,2821.39
13294.3,2828.66
13296.2,2836.16
13297.3,2843.8
13297.7,2851.52
13297.7,3068.05
13297.3,3075.77
13296.2,3083.42
13294.3,3090.91
13291.7,3098.19
13288.4,3105.17
13284.4,3111.8
13279.8,3118.01
13274.6,3123.73
13268.9,3128.92
13262.7,3133.52
13256.1,3137.5
13249.1,3140.8
13241.8,3143.4
13234.3,3145.28
13226.7,3146.41
13219,3146.79
13061.5,3146.79
13053.8,3146.41
13046.1,3145.28
13038.6,3143.4
13031.4,3140.8
13024.4,3137.5
13017.7,3133.52
13011.5,3128.92
13005.8,3123.73
13000.6,3118.01
12996,3111.8
12992,3105.17
12988.7,3098.19
12986.1,3090.91
12984.3,3083.42
12983.1,3075.77
12982.8,3068.05
12982.8,2851.52
12983.1,2843.8
12984.3,2836.16
12986.1,2828.66
12988.7,2821.39
12992,2814.4
12996,2807.77
13000.6,2801.57
13005.8,2795.84
13011.5,2790.65
13017.7,2786.05
13024.4,2782.08
13031.4,2778.77
13038.6,2776.17
13046.1,2774.29
13053.8,2773.16
13061.5,2772.78
13219,2772.78
Z" /> 
</g>
<g >
</g>
<g style="fill:#000000; fill-opacity:1.0; 
stroke:#000000; stroke-width:0; stroke-opacity:1; 
stroke-linecap:round; stroke-linejoin:round;">
<path style="fill:#000000; fill-opacity:1.0; 
stroke:#000000; stroke-width:0; stroke-opacity:1; 
stroke-linecap:round; stroke-linejoin:round;fill-rule:evenodd;"
d="M 15214.9,10922.8
15222.5,10923.9
15230,10925.8
15237.3,10928.4
15244.3,10931.7
15250.9,10935.7
15257.1,10940.3
15262.8,10945.4
15268,10951.2
15272.6,10957.4
15276.6,10964
15279.9,10971
15282.5,10978.3
15284.4,10985.8
15285.5,10993.4
15285.9,11001.1
15285.9,11158.6
15285.5,11166.3
15284.4,11174
15282.5,11181.5
15279.9,11188.7
15276.6,11195.7
15272.6,11202.4
15268,11208.6
15262.8,11214.3
15257.1,11219.5
15250.9,11224.1
15244.3,11228
15237.3,11231.4
15230,11234
15222.5,11235.8
15214.9,11237
15207.2,11237.3
14990.6,11237.3
14982.9,11237
14975.3,11235.8
14967.8,11234
14960.5,11231.4
14953.5,11228
14946.9,11224.1
14940.7,11219.5
14934.9,11214.3
14929.8,11208.6
14925.2,11202.4
14921.2,11195.7
14917.9,11188.7
14915.3,11181.5
14913.4,11174
14912.3,11166.3
14911.9,11158.6
14911.9,11001.1
14912.3,10993.4
14913.4,10985.8
14915.3,10978.3
14917.9,10971
14921.2,10964
14925.2,10957.4
14929.8,10951.2
14934.9,10945.4
14940.7,10940.3
14946.9,10935.7
14953.5,10931.7
14960.5,10928.4
14967.8,10925.8
14975.3,10923.9
14982.9,10922.8
14990.6,10922.4
15207.2,10922.4
Z" /> 
<path style="fill:#000000; fill-opacity:1.0; 
stroke:#000000; stroke-width:0; stroke-opacity:1; 
stroke-linecap:round; stroke-linejoin:round;fill-rule:evenodd;"
d="M 15214.9,10273.2
15222.5,10274.3
15230,10276.2
15237.3,10278.8
15244.3,10282.1
15250.9,10286
15257.1,10290.7
15262.8,10295.8
15268,10301.6
15272.6,10307.8
15276.6,10314.4
15279.9,10321.4
15282.5,10328.7
15284.4,10336.2
15285.5,10343.8
15285.9,10351.5
15285.9,10509
15285.5,10516.7
15284.4,10524.4
15282.5,10531.9
15279.9,10539.1
15276.6,10546.1
15272.6,10552.7
15268,10559
15262.8,10564.7
15257.1,10569.9
15250.9,10574.5
15244.3,10578.4
15237.3,10581.7
15230,10584.3
15222.5,10586.2
15214.9,10587.4
15207.2,10587.7
14990.6,10587.7
14982.9,10587.4
14975.3,10586.2
14967.8,10584.3
14960.5,10581.7
14953.5,10578.4
14946.9,10574.5
14940.7,10569.9
14934.9,10564.7
14929.8,10559
14925.2,10552.7
14921.2,10546.1
14917.9,10539.1
14915.3,10531.9
14913.4,10524.4
14912.3,10516.7
14911.9,10509
14911.9,10351.5
14912.3,10343.8
14913.4,10336.2
14915.3,10328.7
14917.9,10321.4
14921.2,10314.4
14925.2,10307.8
14929.8,10301.6
14934.9,10295.8
14940.7,10290.7
14946.9,10286
14953.5,10282.1
14960.5,10278.8
14967.8,10276.2
14975.3,10274.3
14982.9,10273.2
14990.6,10272.8
15207.2,10272.8
Z" /> 
</g>
<g >
</g>
<g style="fill:#000000; fill-opacity:1.0; 
stroke:#000000; stroke-width:0; stroke-opacity:1; 
stroke-linecap:round; stroke-linejoin:round;">
<path style="fill:#000000; fill-opacity:1.0; 
stroke:#000000; stroke-width:0; stroke-opacity:1; 
stroke-linecap:round; stroke-linejoin:round;fill-rule:evenodd;"
d="M 4584.96,10981.8
4592.6,10983
4600.1,10984.8
4607.37,10987.4
4614.36,10990.7
4620.99,10994.7
4627.19,10999.3
4632.92,11004.5
4638.11,11010.2
4642.71,11016.4
4646.68,11023.1
4649.99,11030
4652.59,11037.3
4654.47,11044.8
4655.6,11052.5
4655.98,11060.2
4655.98,11217.7
4655.6,11225.4
4654.47,11233
4652.59,11240.5
4649.99,11247.8
4646.68,11254.8
4642.71,11261.4
4638.11,11267.6
4632.92,11273.3
4627.19,11278.5
4620.99,11283.1
4614.36,11287.1
4607.37,11290.4
4600.1,11293
4592.6,11294.9
4584.96,11296
4577.24,11296.4
4360.7,11296.4
4352.99,11296
4345.34,11294.9
4337.85,11293
4330.57,11290.4
4323.59,11287.1
4316.96,11283.1
4310.75,11278.5
4305.03,11273.3
4299.84,11267.6
4295.23,11261.4
4291.26,11254.8
4287.96,11247.8
4285.36,11240.5
4283.48,11233
4282.34,11225.4
4281.96,11217.7
4281.96,11060.2
4282.34,11052.5
4283.48,11044.8
4285.36,11037.3
4287.96,11030
4291.26,11023.1
4295.23,11016.4
4299.84,11010.2
4305.03,11004.5
4310.75,10999.3
4316.96,10994.7
4323.59,10990.7
4330.57,10987.4
4337.85,10984.8
4345.34,10983
4352.99,10981.8
4360.7,10981.4
4577.24,10981.4
Z" /> 
<path style="fill:#000000; fill-opacity:1.0; 
stroke:#000000; stroke-width:0; stroke-opacity:1; 
stroke-linecap:round; stroke-linejoin:round;fill-rule:evenodd;"
d="M 4584.96,11631.4
4592.6,11632.6
4600.1,11634.4
4607.37,11637
4614.36,11640.3
4620.99,11644.3
4627.19,11648.9
4632.92,11654.1
4638.11,11659.8
4642.71,11666
4646.68,11672.7
4649.99,11679.7
4652.59,11686.9
4654.47,11694.4
4655.6,11702.1
4655.98,11709.8
4655.98,11867.3
4655.6,11875
4654.47,11882.6
4652.59,11890.1
4649.99,11897.4
4646.68,11904.4
4642.71,11911
4638.11,11917.2
4632.92,11922.9
4627.19,11928.1
4620.99,11932.7
4614.36,11936.7
4607.37,11940
4600.1,11942.6
4592.6,11944.5
4584.96,11945.6
4577.24,11946
4360.7,11946
4352.99,11945.6
4345.34,11944.5
4337.85,11942.6
4330.57,11940
4323.59,11936.7
4316.96,11932.7
4310.75,11928.1
4305.03,11922.9
4299.84,11917.2
4295.23,11911
4291.26,11904.4
4287.96,11897.4
4285.36,11890.1
4283.48,11882.6
4282.34,11875
4281.96,11867.3
4281.96,11709.8
4282.34,11702.1
4283.48,11694.4
4285.36,11686.9
4287.96,11679.7
4291.26,11672.7
4295.23,11666
4299.84,11659.8
4305.03,11654.1
4310.75,11648.9
4316.96,11644.3
4323.59,11640.3
4330.57,11637
4337.85,11634.4
4345.34,11632.6
4352.99,11631.4
4360.7,11631
4577.24,11631
Z" /> 
</g>
<g >
</g>
<g style="fill:#000000; fill-opacity:1.0; 
stroke:#000000; stroke-width:0; stroke-opacity:1; 
stroke-linecap:round; stroke-linejoin:round;">
<path style="fill:#000000; fill-opacity:1.0; 
stroke:#000000; stroke-width:0; stroke-opacity:1; 
stroke-linecap:round; stroke-linejoin:round;fill-rule:evenodd;"
d="M 4584.96,12241.7
4592.6,12242.8
4600.1,12244.7
4607.37,12247.3
4614.36,12250.6
4620.99,12254.6
4627.19,12259.2
4632.92,12264.3
4638.11,12270.1
4642.71,12276.3
4646.68,12282.9
4649.99,12289.9
4652.59,12297.2
4654.47,12304.7
4655.6,12312.3
4655.98,12320
4655.98,12477.5
4655.6,12485.2
4654.47,12492.9
4652.59,12500.4
4649.99,12507.6
4646.68,12514.6
4642.71,12521.2
4638.11,12527.5
4632.92,12533.2
4627.19,12538.4
4620.99,12543
4614.36,12546.9
4607.37,12550.2
4600.1,12552.9
4592.6,12554.7
4584.96,12555.9
4577.24,12556.2
4360.7,12556.2
4352.99,12555.9
4345.34,12554.7
4337.85,12552.9
4330.57,12550.2
4323.59,12546.9
4316.96,12543
4310.75,12538.4
4305.03,12533.2
4299.84,12527.5
4295.23,12521.2
4291.26,12514.6
4287.96,12507.6
4285.36,12500.4
4283.48,12492.9
4282.34,12485.2
4281.96,12477.5
4281.96,12320
4282.34,12312.3
4283.48,12304.7
4285.36,12297.2
4287.96,12289.9
4291.26,12282.9
4295.23,12276.3
4299.84,12270.1
4305.03,12264.3
4310.75,12259.2
4316.96,12254.6
4323.59,12250.6
4330.57,12247.3
4337.85,12244.7
4345.34,12242.8
4352.99,12241.7
4360.7,12241.3
4577.24,12241.3
Z" /> 
<path style="fill:#000000; fill-opacity:1.0; 
stroke:#000000; stroke-width:0; stroke-opacity:1; 
stroke-linecap:round; stroke-linejoin:round;fill-rule:evenodd;"
d="M 4584.96,12891.3
4592.6,12892.4
4600.1,12894.3
4607.37,12896.9
4614.36,12900.2
4620.99,12904.2
4627.19,12908.8
4632.92,12914
4638.11,12919.7
4642.71,12925.9
4646.68,12932.5
4649.99,12939.5
4652.59,12946.8
4654.47,12954.3
4655.6,12961.9
4655.98,12969.6
4655.98,13127.1
4655.6,13134.8
4654.47,13142.5
4652.59,13150
4649.99,13157.2
4646.68,13164.2
4642.71,13170.9
4638.11,13177.1
4632.92,13182.8
4627.19,13188
4620.99,13192.6
4614.36,13196.6
4607.37,13199.9
4600.1,13202.5
4592.6,13204.3
4584.96,13205.5
4577.24,13205.8
4360.7,13205.8
4352.99,13205.5
4345.34,13204.3
4337.85,13202.5
4330.57,13199.9
4323.59,13196.6
4316.96,13192.6
4310.75,13188
4305.03,13182.8
4299.84,13177.1
4295.23,13170.9
4291.26,13164.2
4287.96,13157.2
4285.36,13150
4283.48,13142.5
4282.34,13134.8
4281.96,13127.1
4281.96,12969.6
4282.34,12961.9
4283.48,12954.3
4285.36,12946.8
4287.96,12939.5
4291.26,12932.5
4295.23,12925.9
4299.84,12919.7
4305.03,12914
4310.75,12908.8
4316.96,12904.2
4323.59,12900.2
4330.57,12896.9
4337.85,12894.3
4345.34,12892.4
4352.99,12891.3
4360.7,12890.9
4577.24,12890.9
Z" /> 
</g>
<g >
</g>
<g style="fill:#000000; fill-opacity:1.0; 
stroke:#000000; stroke-width:0; stroke-opacity:1; 
stroke-linecap:round; stroke-linejoin:round;">
<path style="fill:#000000; fill-opacity:1.0; 
stroke:#000000; stroke-width:0; stroke-opacity:1; 
stroke-linecap:round; stroke-linejoin:round;fill-rule:evenodd;"
d="M 5214.88,9092.06
5222.52,9093.19
5230.02,9095.07
5237.29,9097.67
5244.28,9100.97
5250.91,9104.95
5257.11,9109.55
5262.84,9114.74
5268.03,9120.46
5272.63,9126.67
5276.6,9133.3
5279.91,9140.28
5282.51,9147.56
5284.39,9155.05
5285.52,9162.7
5285.9,9170.42
5285.9,9327.9
5285.52,9335.61
5284.39,9343.26
5282.51,9350.75
5279.91,9358.03
5276.6,9365.01
5272.63,9371.64
5268.03,9377.85
5262.84,9383.57
5257.11,9388.76
5250.91,9393.37
5244.28,9397.34
5237.29,9400.64
5230.02,9403.25
5222.52,9405.12
5214.88,9406.26
5207.16,9406.64
4990.63,9406.64
4982.91,9406.26
4975.26,9405.12
4967.77,9403.25
4960.49,9400.64
4953.51,9397.34
4946.88,9393.37
4940.67,9388.76
4934.95,9383.57
4929.76,9377.85
4925.16,9371.64
4921.18,9365.01
4917.88,9358.03
4915.28,9350.75
4913.4,9343.26
4912.26,9335.61
4911.89,9327.9
4911.89,9170.42
4912.26,9162.7
4913.4,9155.05
4915.28,9147.56
4917.88,9140.28
4921.18,9133.3
4925.16,9126.67
4929.76,9120.46
4934.95,9114.74
4940.67,9109.55
4946.88,9104.95
4953.51,9100.97
4960.49,9097.67
4967.77,9095.07
4975.26,9093.19
4982.91,9092.06
4990.63,9091.68
5207.16,9091.68
Z" /> 
<path style="fill:#000000; fill-opacity:1.0; 
stroke:#000000; stroke-width:0; stroke-opacity:1; 
stroke-linecap:round; stroke-linejoin:round;fill-rule:evenodd;"
d="M 5214.88,9741.66
5222.52,9742.8
5230.02,9744.67
5237.29,9747.28
5244.28,9750.58
5250.91,9754.55
5257.11,9759.16
5262.84,9764.34
5268.03,9770.07
5272.63,9776.28
5276.6,9782.9
5279.91,9789.89
5282.51,9797.17
5284.39,9804.66
5285.52,9812.3
5285.9,9820.02
5285.9,9977.5
5285.52,9985.22
5284.39,9992.86
5282.51,10000.4
5279.91,10007.6
5276.6,10014.6
5272.63,10021.2
5268.03,10027.5
5262.84,10033.2
5257.11,10038.4
5250.91,10043
5244.28,10046.9
5237.29,10050.2
5230.02,10052.9
5222.52,10054.7
5214.88,10055.9
5207.16,10056.2
4990.63,10056.2
4982.91,10055.9
4975.26,10054.7
4967.77,10052.9
4960.49,10050.2
4953.51,10046.9
4946.88,10043
4940.67,10038.4
4934.95,10033.2
4929.76,10027.5
4925.16,10021.2
4921.18,10014.6
4917.88,10007.6
4915.28,10000.4
4913.4,9992.86
4912.26,9985.22
4911.89,9977.5
4911.89,9820.02
4912.26,9812.3
4913.4,9804.66
4915.28,9797.17
4917.88,9789.89
4921.18,9782.9
4925.16,9776.28
4929.76,9770.07
4934.95,9764.34
4940.67,9759.16
4946.88,9754.55
4953.51,9750.58
4960.49,9747.28
4967.77,9744.67
4975.26,9742.8
4982.91,9741.66
4990.63,9741.28
5207.16,9741.28
Z" /> 
</g>
<g >
</g>
<g style="fill:#000000; fill-opacity:1.0; 
stroke:#000000; stroke-width:0; stroke-opacity:1; 
stroke-linecap:round; stroke-linejoin:round;">
<path style="fill:#000000; fill-opacity:1.0; 
stroke:#000000; stroke-width:0; stroke-opacity:1; 
stroke-linecap:round; stroke-linejoin:round;fill-rule:evenodd;"
d="M 4427.48,9741.66
4435.12,9742.8
4442.62,9744.67
4449.89,9747.28
4456.88,9750.58
4463.51,9754.55
4469.71,9759.16
4475.44,9764.34
4480.63,9770.07
4485.23,9776.28
4489.2,9782.9
4492.51,9789.89
4495.11,9797.17
4496.99,9804.66
4498.12,9812.3
4498.5,9820.02
4498.5,9977.5
4498.12,9985.22
4496.99,9992.86
4495.11,10000.4
4492.51,10007.6
4489.2,10014.6
4485.23,10021.2
4480.63,10027.5
4475.44,10033.2
4469.71,10038.4
4463.51,10043
4456.88,10046.9
4449.89,10050.2
4442.62,10052.9
4435.12,10054.7
4427.48,10055.9
4419.76,10056.2
4203.22,10056.2
4195.51,10055.9
4187.86,10054.7
4180.37,10052.9
4173.09,10050.2
4166.11,10046.9
4159.48,10043
4153.27,10038.4
4147.55,10033.2
4142.36,10027.5
4137.75,10021.2
4133.78,10014.6
4130.48,10007.6
4127.87,10000.4
4126,9992.86
4124.86,9985.22
4124.48,9977.5
4124.48,9820.02
4124.86,9812.3
4126,9804.66
4127.87,9797.17
4130.48,9789.89
4133.78,9782.9
4137.75,9776.28
4142.36,9770.07
4147.55,9764.34
4153.27,9759.16
4159.48,9754.55
4166.11,9750.58
4173.09,9747.28
4180.37,9744.67
4187.86,9742.8
4195.51,9741.66
4203.22,9741.28
4419.76,9741.28
Z" /> 
<path style="fill:#000000; fill-opacity:1.0; 
stroke:#000000; stroke-width:0; stroke-opacity:1; 
stroke-linecap:round; stroke-linejoin:round;fill-rule:evenodd;"
d="M 4427.48,9092.06
4435.12,9093.19
4442.62,9095.07
4449.89,9097.67
4456.88,9100.97
4463.51,9104.95
4469.71,9109.55
4475.44,9114.74
4480.63,9120.46
4485.23,9126.67
4489.2,9133.3
4492.51,9140.28
4495.11,9147.56
4496.99,9155.05
4498.12,9162.7
4498.5,9170.42
4498.5,9327.9
4498.12,9335.61
4496.99,9343.26
4495.11,9350.75
4492.51,9358.03
4489.2,9365.01
4485.23,9371.64
4480.63,9377.85
4475.44,9383.57
4469.71,9388.76
4463.51,9393.37
4456.88,9397.34
4449.89,9400.64
4442.62,9403.25
4435.12,9405.12
4427.48,9406.26
4419.76,9406.64
4203.22,9406.64
4195.51,9406.26
4187.86,9405.12
4180.37,9403.25
4173.09,9400.64
4166.11,9397.34
4159.48,9393.37
4153.27,9388.76
4147.55,9383.57
4142.36,9377.85
4137.75,9371.64
4133.78,9365.01
4130.48,9358.03
4127.87,9350.75
4126,9343.26
4124.86,9335.61
4124.48,9327.9
4124.48,9170.42
4124.86,9162.7
4126,9155.05
4127.87,9147.56
4130.48,9140.28
4133.78,9133.3
4137.75,9126.67
4142.36,9120.46
4147.55,9114.74
4153.27,9109.55
4159.48,9104.95
4166.11,9100.97
4173.09,9097.67
4180.37,9095.07
4187.86,9093.19
4195.51,9092.06
4203.22,9091.68
4419.76,9091.68
Z" /> 
</g>
<g >
</g>
<g style="fill:#000000; fill-opacity:1.0; 
stroke:#000000; stroke-width:0; stroke-opacity:1; 
stroke-linecap:round; stroke-linejoin:round;">
<path style="fill:#000000; fill-opacity:1.0; 
stroke:#000000; stroke-width:0; stroke-opacity:1; 
stroke-linecap:round; stroke-linejoin:round;fill-rule:evenodd;"
d="M 16732.8,12566.1
16732.8,12251.1
17087.1,12251.1
17087.1,12566.1
Z" /> 
<path style="fill:#000000; fill-opacity:1.0; 
stroke:#000000; stroke-width:0; stroke-opacity:1; 
stroke-linecap:round; stroke-linejoin:round;fill-rule:evenodd;"
d="M 15945.4,12940.1
15945.4,12625.1
16299.7,12625.1
16299.7,12940.1
Z" /> 
<path style="fill:#000000; fill-opacity:1.0; 
stroke:#000000; stroke-width:0; stroke-opacity:1; 
stroke-linecap:round; stroke-linejoin:round;fill-rule:evenodd;"
d="M 15945.4,12192.1
15945.4,11877.1
16299.7,11877.1
16299.7,12192.1
Z" /> 
</g>
<g >
</g>
<g style="fill:#000000; fill-opacity:1.0; 
stroke:#000000; stroke-width:0; stroke-opacity:1; 
stroke-linecap:round; stroke-linejoin:round;">
<path style="fill:#000000; fill-opacity:1.0; 
stroke:#000000; stroke-width:0; stroke-opacity:1; 
stroke-linecap:round; stroke-linejoin:round;fill-rule:evenodd;"
d="M 16732.8,10991.3
16732.8,10676.3
17087.1,10676.3
17087.1,10991.3
Z" /> 
<path style="fill:#000000; fill-opacity:1.0; 
stroke:#000000; stroke-width:0; stroke-opacity:1; 
stroke-linecap:round; stroke-linejoin:round;fill-rule:evenodd;"
d="M 15945.4,11365.3
15945.4,11050.3
16299.7,11050.3
16299.7,11365.3
Z" /> 
<path style="fill:#000000; fill-opacity:1.0; 
stroke:#000000; stroke-width:0; stroke-opacity:1; 
stroke-linecap:round; stroke-linejoin:round;fill-rule:evenodd;"
d="M 15945.4,10617.3
15945.4,10302.3
16299.7,10302.3
16299.7,10617.3
Z" /> 
</g>
<g >
</g>
<g style="fill:#000000; fill-opacity:1.0; 
stroke:#000000; stroke-width:0; stroke-opacity:1; 
stroke-linecap:round; stroke-linejoin:round;">
<circle cx="5075.27" cy="16660.6" r="334.646" /> 
<path style="fill:#000000; fill-opacity:1.0; 
stroke:#000000; stroke-width:0; stroke-opacity:1; 
stroke-linecap:round; stroke-linejoin:round;fill-rule:evenodd;"
d="M 4409.92,16995.2
3740.63,16995.2
3740.63,16325.9
4409.92,16325.9
Z" /> 
</g>
<g >
</g>
<g style="fill:#000000; fill-opacity:1.0; 
stroke:#000000; stroke-width:0; stroke-opacity:1; 
stroke-linecap:round; stroke-linejoin:round;">
<circle cx="13681.6" cy="14920.4" r="334.646" /> 
<circle cx="13681.6" cy="15920.4" r="334.646" /> 
<circle cx="13681.6" cy="16920.4" r="334.646" /> 
<path style="fill:#000000; fill-opacity:1.0; 
stroke:#000000; stroke-width:0; stroke-opacity:1; 
stroke-linecap:round; stroke-linejoin:round;fill-rule:evenodd;"
d="M 14016.2,17585.8
14016.2,18255.1
13346.9,18255.1
13346.9,17585.8
Z" /> 
</g>
<g >
</g>
<g style="fill:#000000; fill-opacity:1.0; 
stroke:#000000; stroke-width:0; stroke-opacity:1; 
stroke-linecap:round; stroke-linejoin:round;">
<path style="fill:#000000; fill-opacity:1.0; 
stroke:#000000; stroke-width:0; stroke-opacity:1; 
stroke-linecap:round; stroke-linejoin:round;fill-rule:evenodd;"
d="M 12362.7,4573.96
12362.7,5282.62
11378.4,5282.62
11378.4,4573.96
Z" /> 
<path style="fill:#000000; fill-opacity:1.0; 
stroke:#000000; stroke-width:0; stroke-opacity:1; 
stroke-linecap:round; stroke-linejoin:round;fill-rule:evenodd;"
d="M 13937.5,4573.96
13937.5,5282.62
12953.2,5282.62
12953.2,4573.96
Z" /> 
</g>
<g >
</g>
<g style="fill:#000000; fill-opacity:1.0; 
stroke:#000000; stroke-width:0; stroke-opacity:1; 
stroke-linecap:round; stroke-linejoin:round;">
<path style="fill:#000000; fill-opacity:1.0; 
stroke:#000000; stroke-width:0; stroke-opacity:1; 
stroke-linecap:round; stroke-linejoin:round;fill-rule:evenodd;"
d="M 16063.3,15627.6
16072.8,15629
16082.2,15631.3
16091.3,15634.6
16100,15638.7
16108.3,15643.7
16116.1,15649.5
16123.2,15655.9
16129.7,15663.1
16135.5,15670.9
16140.4,15679.1
16144.6,15687.9
16147.8,15697
16150.2,15706.3
16151.6,15715.9
16152,15725.5
16152,16020.8
16151.6,16030.5
16150.2,16040
16147.8,16049.4
16144.6,16058.5
16140.4,16067.2
16135.5,16075.5
16129.7,16083.2
16123.2,16090.4
16116.1,16096.9
16108.3,16102.6
16100,16107.6
16091.3,16111.7
16082.2,16115
16072.8,16117.3
16063.3,16118.8
16053.6,16119.2
15561.5,16119.2
15551.8,16118.8
15542.3,16117.3
15532.9,16115
15523.8,16111.7
15515.1,16107.6
15506.8,16102.6
15499.1,16096.9
15491.9,16090.4
15485.4,16083.2
15479.7,16075.5
15474.7,16067.2
15470.6,16058.5
15467.3,16049.4
15465,16040
15463.5,16030.5
15463.1,16020.8
15463.1,15725.5
15463.5,15715.9
15465,15706.3
15467.3,15697
15470.6,15687.9
15474.7,15679.1
15479.7,15670.9
15485.4,15663.1
15491.9,15655.9
15499.1,15649.5
15506.8,15643.7
15515.1,15638.7
15523.8,15634.6
15532.9,15631.3
15542.3,15629
15551.8,15627.6
15561.5,15627.1
16053.6,15627.1
Z" /> 
<path style="fill:#000000; fill-opacity:1.0; 
stroke:#000000; stroke-width:0; stroke-opacity:1; 
stroke-linecap:round; stroke-linejoin:round;fill-rule:evenodd;"
d="M 16063.3,14525.2
16072.8,14526.6
16082.2,14529
16091.3,14532.2
16100,14536.4
16108.3,14541.3
16116.1,14547.1
16123.2,14553.6
16129.7,14560.7
16135.5,14568.5
16140.4,14576.8
16144.6,14585.5
16147.8,14594.6
16150.2,14604
16151.6,14613.5
16152,14623.2
16152,14918.4
16151.6,14928.1
16150.2,14937.6
16147.8,14947
16144.6,14956.1
16140.4,14964.8
16135.5,14973.1
16129.7,14980.9
16123.2,14988
16116.1,14994.5
16108.3,15000.3
16100,15005.3
16091.3,15009.4
16082.2,15012.6
16072.8,15015
16063.3,15016.4
16053.6,15016.9
15561.5,15016.9
15551.8,15016.4
15542.3,15015
15532.9,15012.6
15523.8,15009.4
15515.1,15005.3
15506.8,15000.3
15499.1,14994.5
15491.9,14988
15485.4,14980.9
15479.7,14973.1
15474.7,14964.8
15470.6,14956.1
15467.3,14947
15465,14937.6
15463.5,14928.1
15463.1,14918.4
15463.1,14623.2
15463.5,14613.5
15465,14604
15467.3,14594.6
15470.6,14585.5
15474.7,14576.8
15479.7,14568.5
15485.4,14560.7
15491.9,14553.6
15499.1,14547.1
15506.8,14541.3
15515.1,14536.4
15523.8,14532.2
15532.9,14529
15542.3,14526.6
15551.8,14525.2
15561.5,14524.7
16053.6,14524.7
Z" /> 
</g>
<g >
</g>
<g style="fill:#000000; fill-opacity:1.0; 
stroke:#000000; stroke-width:0; stroke-opacity:1; 
stroke-linecap:round; stroke-linejoin:round;">
<path style="fill:#000000; fill-opacity:1.0; 
stroke:#000000; stroke-width:0; stroke-opacity:1; 
stroke-linecap:round; stroke-linejoin:round;fill-rule:evenodd;"
d="M 17953,9407.11
17962.6,9408.53
17972,9410.87
17981,9414.13
17989.8,9418.26
17998.1,9423.22
18005.8,9428.98
18013,9435.46
18019.5,9442.62
18025.2,9450.38
18030.2,9458.66
18034.3,9467.4
18037.6,9476.49
18039.9,9485.86
18041.3,9495.41
18041.8,9505.06
18041.8,9800.34
18041.3,9809.98
18039.9,9819.54
18037.6,9828.91
18034.3,9838
18030.2,9846.73
18025.2,9855.02
18019.5,9862.78
18013,9869.93
18005.8,9876.42
17998.1,9882.17
17989.8,9887.14
17981,9891.27
17972,9894.52
17962.6,9896.87
17953,9898.29
17943.4,9898.76
17451.3,9898.76
17441.6,9898.29
17432.1,9896.87
17422.7,9894.52
17413.6,9891.27
17404.9,9887.14
17396.6,9882.17
17388.8,9876.42
17381.7,9869.93
17375.2,9862.78
17369.4,9855.02
17364.5,9846.73
17360.3,9838
17357.1,9828.91
17354.7,9819.54
17353.3,9809.98
17352.8,9800.34
17352.8,9505.06
17353.3,9495.41
17354.7,9485.86
17357.1,9476.49
17360.3,9467.4
17364.5,9458.66
17369.4,9450.38
17375.2,9442.62
17381.7,9435.46
17388.8,9428.98
17396.6,9423.22
17404.9,9418.26
17413.6,9414.13
17422.7,9410.87
17432.1,9408.53
17441.6,9407.11
17451.3,9406.64
17943.4,9406.64
Z" /> 
<path style="fill:#000000; fill-opacity:1.0; 
stroke:#000000; stroke-width:0; stroke-opacity:1; 
stroke-linecap:round; stroke-linejoin:round;fill-rule:evenodd;"
d="M 17953,8304.75
17962.6,8306.17
17972,8308.51
17981,8311.77
17989.8,8315.9
17998.1,8320.86
18005.8,8326.62
18013,8333.1
18019.5,8340.26
18025.2,8348.02
18030.2,8356.3
18034.3,8365.03
18037.6,8374.13
18039.9,8383.5
18041.3,8393.05
18041.8,8402.7
18041.8,8697.98
18041.3,8707.62
18039.9,8717.18
18037.6,8726.55
18034.3,8735.64
18030.2,8744.37
18025.2,8752.66
18019.5,8760.42
18013,8767.57
18005.8,8774.06
17998.1,8779.81
17989.8,8784.78
17981,8788.91
17972,8792.16
17962.6,8794.51
17953,8795.93
17943.4,8796.4
17451.3,8796.4
17441.6,8795.93
17432.1,8794.51
17422.7,8792.16
17413.6,8788.91
17404.9,8784.78
17396.6,8779.81
17388.8,8774.06
17381.7,8767.57
17375.2,8760.42
17369.4,8752.66
17364.5,8744.37
17360.3,8735.64
17357.1,8726.55
17354.7,8717.18
17353.3,8707.62
17352.8,8697.98
17352.8,8402.7
17353.3,8393.05
17354.7,8383.5
17357.1,8374.13
17360.3,8365.03
17364.5,8356.3
17369.4,8348.02
17375.2,8340.26
17381.7,8333.1
17388.8,8326.62
17396.6,8320.86
17404.9,8315.9
17413.6,8311.77
17422.7,8308.51
17432.1,8306.17
17441.6,8304.75
17451.3,8304.27
17943.4,8304.27
Z" /> 
</g>
<g >
</g>
<g style="fill:#000000; fill-opacity:1.0; 
stroke:#000000; stroke-width:0; stroke-opacity:1; 
stroke-linecap:round; stroke-linejoin:round;">
<path style="fill:#000000; fill-opacity:1.0; 
stroke:#000000; stroke-width:0; stroke-opacity:1; 
stroke-linecap:round; stroke-linejoin:round;fill-rule:evenodd;"
d="M 16535.7,3265.38
16545.3,3266.8
16554.6,3269.14
16563.7,3272.4
16572.5,3276.53
16580.7,3281.49
16588.5,3287.25
16595.7,3293.73
16602.1,3300.89
16607.9,3308.65
16612.9,3316.93
16617,3325.66
16620.2,3334.76
16622.6,3344.13
16624,3353.68
16624.5,3363.33
16624.5,3658.61
16624,3668.25
16622.6,3677.81
16620.2,3687.18
16617,3696.27
16612.9,3705
16607.9,3713.29
16602.1,3721.05
16595.7,3728.2
16588.5,3734.69
16580.7,3740.44
16572.5,3745.41
16563.7,3749.54
16554.6,3752.79
16545.3,3755.14
16535.7,3756.56
16526.1,3757.03
16033.9,3757.03
16024.3,3756.56
16014.7,3755.14
16005.4,3752.79
15996.3,3749.54
15987.5,3745.41
15979.3,3740.44
15971.5,3734.69
15964.3,3728.2
15957.8,3721.05
15952.1,3713.29
15947.1,3705
15943,3696.27
15939.7,3687.18
15937.4,3677.81
15936,3668.25
15935.5,3658.61
15935.5,3363.33
15936,3353.68
15937.4,3344.13
15939.7,3334.76
15943,3325.66
15947.1,3316.93
15952.1,3308.65
15957.8,3300.89
15964.3,3293.73
15971.5,3287.25
15979.3,3281.49
15987.5,3276.53
15996.3,3272.4
16005.4,3269.14
16014.7,3266.8
16024.3,3265.38
16033.9,3264.9
16526.1,3264.9
Z" /> 
<path style="fill:#000000; fill-opacity:1.0; 
stroke:#000000; stroke-width:0; stroke-opacity:1; 
stroke-linecap:round; stroke-linejoin:round;fill-rule:evenodd;"
d="M 16535.7,4367.74
16545.3,4369.16
16554.6,4371.5
16563.7,4374.76
16572.5,4378.89
16580.7,4383.85
16588.5,4389.61
16595.7,4396.09
16602.1,4403.25
16607.9,4411.01
16612.9,4419.29
16617,4428.03
16620.2,4437.12
16622.6,4446.49
16624,4456.04
16624.5,4465.69
16624.5,4760.97
16624,4770.61
16622.6,4780.17
16620.2,4789.54
16617,4798.63
16612.9,4807.36
16607.9,4815.65
16602.1,4823.41
16595.7,4830.56
16588.5,4837.05
16580.7,4842.8
16572.5,4847.77
16563.7,4851.9
16554.6,4855.15
16545.3,4857.5
16535.7,4858.92
16526.1,4859.39
16033.9,4859.39
16024.3,4858.92
16014.7,4857.5
16005.4,4855.15
15996.3,4851.9
15987.5,4847.77
15979.3,4842.8
15971.5,4837.05
15964.3,4830.56
15957.8,4823.41
15952.1,4815.65
15947.1,4807.36
15943,4798.63
15939.7,4789.54
15937.4,4780.17
15936,4770.61
15935.5,4760.97
15935.5,4465.69
15936,4456.04
15937.4,4446.49
15939.7,4437.12
15943,4428.03
15947.1,4419.29
15952.1,4411.01
15957.8,4403.25
15964.3,4396.09
15971.5,4389.61
15979.3,4383.85
15987.5,4378.89
15996.3,4374.76
16005.4,4371.5
16014.7,4369.16
16024.3,4367.74
16033.9,4367.27
16526.1,4367.27
Z" /> 
</g>
<g >
</g>
<g style="fill:#000000; fill-opacity:1.0; 
stroke:#000000; stroke-width:0; stroke-opacity:1; 
stroke-linecap:round; stroke-linejoin:round;">
<path style="fill:#000000; fill-opacity:1.0; 
stroke:#000000; stroke-width:0; stroke-opacity:1; 
stroke-linecap:round; stroke-linejoin:round;fill-rule:evenodd;"
d="M 5138.26,12467.7
5846.93,12467.7
5846.93,13451.9
5138.26,13451.9
Z" /> 
<path style="fill:#000000; fill-opacity:1.0; 
stroke:#000000; stroke-width:0; stroke-opacity:1; 
stroke-linecap:round; stroke-linejoin:round;fill-rule:evenodd;"
d="M 5138.26,10892.9
5846.93,10892.9
5846.93,11877.1
5138.26,11877.1
Z" /> 
</g>
<g >
</g>
<g style="fill:#000000; fill-opacity:1.0; 
stroke:#000000; stroke-width:0; stroke-opacity:1; 
stroke-linecap:round; stroke-linejoin:round;">
<path style="fill:#000000; fill-opacity:1.0; 
stroke:#000000; stroke-width:0; stroke-opacity:1; 
stroke-linecap:round; stroke-linejoin:round;fill-rule:evenodd;"
d="M 11879.2,3481.87
11887.8,3483.14
11896.3,3485.25
11904.4,3488.18
11912.3,3491.9
11919.8,3496.37
11926.7,3501.55
11933.2,3507.39
11939,3513.83
11944.2,3520.81
11948.7,3528.26
11952.4,3536.12
11955.3,3544.31
11957.4,3552.74
11958.7,3561.34
11959.1,3570.02
11959.1,3766.87
11958.7,3775.56
11957.4,3784.15
11955.3,3792.59
11952.4,3800.77
11948.7,3808.63
11944.2,3816.09
11939,3823.07
11933.2,3829.51
11926.7,3835.35
11919.8,3840.53
11912.3,3845
11904.4,3848.71
11896.3,3851.64
11887.8,3853.75
11879.2,3855.03
11870.5,3855.46
11693.4,3855.46
11684.7,3855.03
11676.1,3853.75
11667.7,3851.64
11659.5,3848.71
11651.6,3845
11644.2,3840.53
11637.2,3835.35
11630.7,3829.51
11624.9,3823.07
11619.7,3816.09
11615.3,3808.63
11611.5,3800.77
11608.6,3792.59
11606.5,3784.15
11605.2,3775.56
11604.8,3766.87
11604.8,3570.02
11605.2,3561.34
11606.5,3552.74
11608.6,3544.31
11611.5,3536.12
11615.3,3528.26
11619.7,3520.81
11624.9,3513.83
11630.7,3507.39
11637.2,3501.55
11644.2,3496.37
11651.6,3491.9
11659.5,3488.18
11667.7,3485.25
11676.1,3483.14
11684.7,3481.87
11693.4,3481.44
11870.5,3481.44
Z" /> 
<path style="fill:#000000; fill-opacity:1.0; 
stroke:#000000; stroke-width:0; stroke-opacity:1; 
stroke-linecap:round; stroke-linejoin:round;fill-rule:evenodd;"
d="M 11269,3481.87
11277.6,3483.14
11286,3485.25
11294.2,3488.18
11302.1,3491.9
11309.5,3496.37
11316.5,3501.55
11322.9,3507.39
11328.8,3513.83
11334,3520.81
11338.4,3528.26
11342.2,3536.12
11345.1,3544.31
11347.2,3552.74
11348.5,3561.34
11348.9,3570.02
11348.9,3766.87
11348.5,3775.56
11347.2,3784.15
11345.1,3792.59
11342.2,3800.77
11338.4,3808.63
11334,3816.09
11328.8,3823.07
11322.9,3829.51
11316.5,3835.35
11309.5,3840.53
11302.1,3845
11294.2,3848.71
11286,3851.64
11277.6,3853.75
11269,3855.03
11260.3,3855.46
11083.1,3855.46
11074.5,3855.03
11065.9,3853.75
11057.4,3851.64
11049.2,3848.71
11041.4,3845
11033.9,3840.53
11026.9,3835.35
11020.5,3829.51
11014.7,3823.07
11009.5,3816.09
11005,3808.63
11001.3,3800.77
10998.4,3792.59
10996.3,3784.15
10995,3775.56
10994.6,3766.87
10994.6,3570.02
10995,3561.34
10996.3,3552.74
10998.4,3544.31
11001.3,3536.12
11005,3528.26
11009.5,3520.81
11014.7,3513.83
11020.5,3507.39
11026.9,3501.55
11033.9,3496.37
11041.4,3491.9
11049.2,3488.18
11057.4,3485.25
11065.9,3483.14
11074.5,3481.87
11083.1,3481.44
11260.3,3481.44
Z" /> 
</g>
<g >
</g>
<g style="fill:#000000; fill-opacity:1.0; 
stroke:#000000; stroke-width:0; stroke-opacity:1; 
stroke-linecap:round; stroke-linejoin:round;">
<path style="fill:#000000; fill-opacity:1.0; 
stroke:#000000; stroke-width:0; stroke-opacity:1; 
stroke-linecap:round; stroke-linejoin:round;fill-rule:evenodd;"
d="M 6150.88,2635.41
6159.48,2636.69
6167.91,2638.8
6176.1,2641.73
6183.96,2645.44
6191.41,2649.91
6198.4,2655.09
6204.84,2660.93
6210.68,2667.37
6215.85,2674.35
6220.32,2681.81
6224.04,2689.67
6226.97,2697.85
6229.08,2706.28
6230.36,2714.88
6230.78,2723.57
6230.78,2900.73
6230.36,2909.41
6229.08,2918.01
6226.97,2926.45
6224.04,2934.63
6220.32,2942.49
6215.85,2949.94
6210.68,2956.93
6204.84,2963.37
6198.4,2969.21
6191.41,2974.39
6183.96,2978.85
6176.1,2982.57
6167.91,2985.5
6159.48,2987.61
6150.88,2988.89
6142.2,2989.31
5945.35,2989.31
5936.67,2988.89
5928.07,2987.61
5919.64,2985.5
5911.45,2982.57
5903.59,2978.85
5896.14,2974.39
5889.15,2969.21
5882.71,2963.37
5876.88,2956.93
5871.7,2949.94
5867.23,2942.49
5863.51,2934.63
5860.58,2926.45
5858.47,2918.01
5857.19,2909.41
5856.77,2900.73
5856.77,2723.57
5857.19,2714.88
5858.47,2706.28
5860.58,2697.85
5863.51,2689.67
5867.23,2681.81
5871.7,2674.35
5876.88,2667.37
5882.71,2660.93
5889.15,2655.09
5896.14,2649.91
5903.59,2645.44
5911.45,2641.73
5919.64,2638.8
5928.07,2636.69
5936.67,2635.41
5945.35,2634.98
6142.2,2634.98
Z" /> 
<path style="fill:#000000; fill-opacity:1.0; 
stroke:#000000; stroke-width:0; stroke-opacity:1; 
stroke-linecap:round; stroke-linejoin:round;fill-rule:evenodd;"
d="M 6150.88,3245.65
6159.48,3246.92
6167.91,3249.03
6176.1,3251.96
6183.96,3255.68
6191.41,3260.15
6198.4,3265.33
6204.84,3271.16
6210.68,3277.61
6215.85,3284.59
6220.32,3292.04
6224.04,3299.9
6226.97,3308.09
6229.08,3316.52
6230.36,3325.12
6230.78,3333.8
6230.78,3510.97
6230.36,3519.65
6229.08,3528.25
6226.97,3536.68
6224.04,3544.87
6220.32,3552.72
6215.85,3560.18
6210.68,3567.16
6204.84,3573.6
6198.4,3579.44
6191.41,3584.62
6183.96,3589.09
6176.1,3592.81
6167.91,3595.74
6159.48,3597.85
6150.88,3599.12
6142.2,3599.55
5945.35,3599.55
5936.67,3599.12
5928.07,3597.85
5919.64,3595.74
5911.45,3592.81
5903.59,3589.09
5896.14,3584.62
5889.15,3579.44
5882.71,3573.6
5876.88,3567.16
5871.7,3560.18
5867.23,3552.72
5863.51,3544.87
5860.58,3536.68
5858.47,3528.25
5857.19,3519.65
5856.77,3510.97
5856.77,3333.8
5857.19,3325.12
5858.47,3316.52
5860.58,3308.09
5863.51,3299.9
5867.23,3292.04
5871.7,3284.59
5876.88,3277.61
5882.71,3271.16
5889.15,3265.33
5896.14,3260.15
5903.59,3255.68
5911.45,3251.96
5919.64,3249.03
5928.07,3246.92
5936.67,3245.65
5945.35,3245.22
6142.2,3245.22
Z" /> 
</g>
<g >
</g>
<g >
</g>
<g style="fill:#000000; fill-opacity:1.0; 
stroke:#000000; stroke-width:0; stroke-opacity:1; 
stroke-linecap:round; stroke-linejoin:round;">
<path style="fill:#000000; fill-opacity:1.0; 
stroke:#000000; stroke-width:0; stroke-opacity:1; 
stroke-linecap:round; stroke-linejoin:round;fill-rule:evenodd;"
d="M 3709.94,12241.7
3718.54,12243
3726.97,12245.1
3735.16,12248
3743.01,12251.7
3750.47,12256.2
3757.45,12261.4
3763.89,12267.2
3769.73,12273.7
3774.91,12280.7
3779.38,12288.1
3783.1,12296
3786.02,12304.2
3788.14,12312.6
3789.41,12321.2
3789.84,12329.9
3789.84,12507
3789.41,12515.7
3788.14,12524.3
3786.02,12532.7
3783.1,12540.9
3779.38,12548.8
3774.91,12556.2
3769.73,12563.2
3763.89,12569.7
3757.45,12575.5
3750.47,12580.7
3743.01,12585.2
3735.16,12588.9
3726.97,12591.8
3718.54,12593.9
3709.94,12595.2
3701.26,12595.6
3504.41,12595.6
3495.72,12595.2
3487.12,12593.9
3478.69,12591.8
3470.51,12588.9
3462.65,12585.2
3455.19,12580.7
3448.21,12575.5
3441.77,12569.7
3435.93,12563.2
3430.75,12556.2
3426.28,12548.8
3422.57,12540.9
3419.64,12532.7
3417.52,12524.3
3416.25,12515.7
3415.82,12507
3415.82,12329.9
3416.25,12321.2
3417.52,12312.6
3419.64,12304.2
3422.57,12296
3426.28,12288.1
3430.75,12280.7
3435.93,12273.7
3441.77,12267.2
3448.21,12261.4
3455.19,12256.2
3462.65,12251.7
3470.51,12248
3478.69,12245.1
3487.12,12243
3495.72,12241.7
3504.41,12241.3
3701.26,12241.3
Z" /> 
<path style="fill:#000000; fill-opacity:1.0; 
stroke:#000000; stroke-width:0; stroke-opacity:1; 
stroke-linecap:round; stroke-linejoin:round;fill-rule:evenodd;"
d="M 3709.94,12851.9
3718.54,12853.2
3726.97,12855.3
3735.16,12858.3
3743.01,12862
3750.47,12866.4
3757.45,12871.6
3763.89,12877.5
3769.73,12883.9
3774.91,12890.9
3779.38,12898.3
3783.1,12906.2
3786.02,12914.4
3788.14,12922.8
3789.41,12931.4
3789.84,12940.1
3789.84,13117.3
3789.41,13125.9
3788.14,13134.5
3786.02,13143
3783.1,13151.2
3779.38,13159
3774.91,13166.5
3769.73,13173.5
3763.89,13179.9
3757.45,13185.7
3750.47,13190.9
3743.01,13195.4
3735.16,13199.1
3726.97,13202
3718.54,13204.1
3709.94,13205.4
3701.26,13205.8
3504.41,13205.8
3495.72,13205.4
3487.12,13204.1
3478.69,13202
3470.51,13199.1
3462.65,13195.4
3455.19,13190.9
3448.21,13185.7
3441.77,13179.9
3435.93,13173.5
3430.75,13166.5
3426.28,13159
3422.57,13151.2
3419.64,13143
3417.52,13134.5
3416.25,13125.9
3415.82,13117.3
3415.82,12940.1
3416.25,12931.4
3417.52,12922.8
3419.64,12914.4
3422.57,12906.2
3426.28,12898.3
3430.75,12890.9
3435.93,12883.9
3441.77,12877.5
3448.21,12871.6
3455.19,12866.4
3462.65,12862
3470.51,12858.3
3478.69,12855.3
3487.12,12853.2
3495.72,12851.9
3504.41,12851.5
3701.26,12851.5
Z" /> 
</g>
<g >
</g>
<g style="fill:#000000; fill-opacity:1.0; 
stroke:#000000; stroke-width:0; stroke-opacity:1; 
stroke-linecap:round; stroke-linejoin:round;">
<path style="fill:#000000; fill-opacity:1.0; 
stroke:#000000; stroke-width:0; stroke-opacity:1; 
stroke-linecap:round; stroke-linejoin:round;fill-rule:evenodd;"
d="M 6702.06,11985.8
6710.66,11987.1
6719.1,11989.2
6727.28,11992.1
6735.14,11995.8
6742.6,12000.3
6749.58,12005.5
6756.02,12011.3
6761.86,12017.8
6767.04,12024.7
6771.5,12032.2
6775.22,12040.1
6778.15,12048.2
6780.26,12056.7
6781.54,12065.3
6781.96,12074
6781.96,12270.8
6781.54,12279.5
6780.26,12288.1
6778.15,12296.5
6775.22,12304.7
6771.5,12312.6
6767.04,12320
6761.86,12327
6756.02,12333.4
6749.58,12339.3
6742.6,12344.5
6735.14,12348.9
6727.28,12352.6
6719.1,12355.6
6710.66,12357.7
6702.06,12359
6693.38,12359.4
6516.22,12359.4
6507.53,12359
6498.94,12357.7
6490.5,12355.6
6482.32,12352.6
6474.46,12348.9
6467,12344.5
6460.02,12339.3
6453.58,12333.4
6447.74,12327
6442.56,12320
6438.09,12312.6
6434.38,12304.7
6431.45,12296.5
6429.34,12288.1
6428.06,12279.5
6427.63,12270.8
6427.63,12074
6428.06,12065.3
6429.34,12056.7
6431.45,12048.2
6434.38,12040.1
6438.09,12032.2
6442.56,12024.7
6447.74,12017.8
6453.58,12011.3
6460.02,12005.5
6467,12000.3
6474.46,11995.8
6482.32,11992.1
6490.5,11989.2
6498.94,11987.1
6507.53,11985.8
6516.22,11985.4
6693.38,11985.4
Z" /> 
<path style="fill:#000000; fill-opacity:1.0; 
stroke:#000000; stroke-width:0; stroke-opacity:1; 
stroke-linecap:round; stroke-linejoin:round;fill-rule:evenodd;"
d="M 7312.3,11985.8
7320.9,11987.1
7329.33,11989.2
7337.52,11992.1
7345.38,11995.8
7352.83,12000.3
7359.81,12005.5
7366.26,12011.3
7372.09,12017.8
7377.27,12024.7
7381.74,12032.2
7385.46,12040.1
7388.39,12048.2
7390.5,12056.7
7391.77,12065.3
7392.2,12074
7392.2,12270.8
7391.77,12279.5
7390.5,12288.1
7388.39,12296.5
7385.46,12304.7
7381.74,12312.6
7377.27,12320
7372.09,12327
7366.26,12333.4
7359.81,12339.3
7352.83,12344.5
7345.38,12348.9
7337.52,12352.6
7329.33,12355.6
7320.9,12357.7
7312.3,12359
7303.62,12359.4
7126.45,12359.4
7117.77,12359
7109.17,12357.7
7100.74,12355.6
7092.55,12352.6
7084.7,12348.9
7077.24,12344.5
7070.26,12339.3
7063.82,12333.4
7057.98,12327
7052.8,12320
7048.33,12312.6
7044.61,12304.7
7041.68,12296.5
7039.57,12288.1
7038.3,12279.5
7037.87,12270.8
7037.87,12074
7038.3,12065.3
7039.57,12056.7
7041.68,12048.2
7044.61,12040.1
7048.33,12032.2
7052.8,12024.7
7057.98,12017.8
7063.82,12011.3
7070.26,12005.5
7077.24,12000.3
7084.7,11995.8
7092.55,11992.1
7100.74,11989.2
7109.17,11987.1
7117.77,11985.8
7126.45,11985.4
7303.62,11985.4
Z" /> 
</g>
<g >
</g>
<g style="fill:#000000; fill-opacity:1.0; 
stroke:#000000; stroke-width:0; stroke-opacity:1; 
stroke-linecap:round; stroke-linejoin:round;">
<path style="fill:#000000; fill-opacity:1.0; 
stroke:#000000; stroke-width:0; stroke-opacity:1; 
stroke-linecap:round; stroke-linejoin:round;fill-rule:evenodd;"
d="M 3060.33,15844.1
3068.93,15845.3
3077.36,15847.5
3085.55,15850.4
3093.41,15854.1
3100.86,15858.6
3107.85,15863.8
3114.29,15869.6
3120.12,15876
3125.3,15883
3129.77,15890.5
3133.49,15898.3
3136.42,15906.5
3138.53,15914.9
3139.81,15923.5
3140.23,15932.2
3140.23,16129.1
3139.81,16137.8
3138.53,16146.4
3136.42,16154.8
3133.49,16163
3129.77,16170.8
3125.3,16178.3
3120.12,16185.3
3114.29,16191.7
3107.85,16197.6
3100.86,16202.7
3093.41,16207.2
3085.55,16210.9
3077.36,16213.8
3068.93,16216
3060.33,16217.2
3051.65,16217.7
2874.48,16217.7
2865.8,16217.2
2857.2,16216
2848.77,16213.8
2840.59,16210.9
2832.73,16207.2
2825.27,16202.7
2818.29,16197.6
2811.85,16191.7
2806.01,16185.3
2800.83,16178.3
2796.36,16170.8
2792.64,16163
2789.72,16154.8
2787.6,16146.4
2786.33,16137.8
2785.9,16129.1
2785.9,15932.2
2786.33,15923.5
2787.6,15914.9
2789.72,15906.5
2792.64,15898.3
2796.36,15890.5
2800.83,15883
2806.01,15876
2811.85,15869.6
2818.29,15863.8
2825.27,15858.6
2832.73,15854.1
2840.59,15850.4
2848.77,15847.5
2857.2,15845.3
2865.8,15844.1
2874.48,15843.6
3051.65,15843.6
Z" /> 
<path style="fill:#000000; fill-opacity:1.0; 
stroke:#000000; stroke-width:0; stroke-opacity:1; 
stroke-linecap:round; stroke-linejoin:round;fill-rule:evenodd;"
d="M 2450.1,15844.1
2458.69,15845.3
2467.13,15847.5
2475.31,15850.4
2483.17,15854.1
2490.63,15858.6
2497.61,15863.8
2504.05,15869.6
2509.89,15876
2515.07,15883
2519.54,15890.5
2523.25,15898.3
2526.18,15906.5
2528.29,15914.9
2529.57,15923.5
2530,15932.2
2530,16129.1
2529.57,16137.8
2528.29,16146.4
2526.18,16154.8
2523.25,16163
2519.54,16170.8
2515.07,16178.3
2509.89,16185.3
2504.05,16191.7
2497.61,16197.6
2490.63,16202.7
2483.17,16207.2
2475.31,16210.9
2467.13,16213.8
2458.69,16216
2450.1,16217.2
2441.41,16217.7
2264.25,16217.7
2255.57,16217.2
2246.97,16216
2238.53,16213.8
2230.35,16210.9
2222.49,16207.2
2215.03,16202.7
2208.05,16197.6
2201.61,16191.7
2195.77,16185.3
2190.59,16178.3
2186.13,16170.8
2182.41,16163
2179.48,16154.8
2177.37,16146.4
2176.09,16137.8
2175.67,16129.1
2175.67,15932.2
2176.09,15923.5
2177.37,15914.9
2179.48,15906.5
2182.41,15898.3
2186.13,15890.5
2190.59,15883
2195.77,15876
2201.61,15869.6
2208.05,15863.8
2215.03,15858.6
2222.49,15854.1
2230.35,15850.4
2238.53,15847.5
2246.97,15845.3
2255.57,15844.1
2264.25,15843.6
2441.41,15843.6
Z" /> 
</g>
<g >
</g>
<g >
</g>
<g >
</g>
<g >
</g>
<g >
</g>
</g>
<g style="fill:#000000; fill-opacity:1.0; 
stroke:#000000; stroke-width:0; stroke-opacity:1; 
stroke-linecap:round; stroke-linejoin:round;">
</g>
<g style="fill:#000000; fill-opacity:1.0; 
stroke:#000000; stroke-width:47.2441; stroke-opacity:1; 
stroke-linecap:round; stroke-linejoin:round;">
</g>
<g style="fill:#000000; fill-opacity:0.0; 
stroke:#000000; stroke-width:47.2441; stroke-opacity:1; 
stroke-linecap:round; stroke-linejoin:round;">
<path d="M5846 5361
L6398 5361
" />
<path d="M6398 5361
L6398 5912
" />
<path d="M6398 5912
L5846 5912
" />
<path d="M5846 5912
L5846 5361
" />
<path d="M6319 11109
L6870 11109
" />
<path d="M6870 11109
L6870 11660
" />
<path d="M6870 11660
L6319 11660
" />
<path d="M6319 11660
L6319 11109
" />
<path d="M14902 12369
L15453 12369
" />
<path d="M15453 12369
L15453 12920
" />
<path d="M15453 12920
L14902 12920
" />
<path d="M14902 12920
L14902 12369
" />
<path d="M13287 10144
L14075 10144
" />
<path d="M14075 10144
L14075 8609
" />
<path d="M13287 10144
L13287 8609
" />
<path d="M8524 3196
L8524 4770
" />
<path d="M6870 3196
L6870 4770
" />
<path d="M3799 15715
L3799 14140
" />
<path d="M5453 15715
L5453 14140
" />
<path d="M10335 3113
L9626 3113
" />
<path d="M9626 4381
L10591 4381
" />
<path d="M3449 15125
L3449 14416
" />
<path d="M2181 14416
L2181 15381
" />
<path d="M5433 3294
L5433 8294
" />
<path d="M5433 8294
L2717 8294
" />
<path d="M2717 3294
L2717 8294
" />
<path d="M5433 3294
L2717 3294
" />
<path d="M2717 5400
L1358 5400
" />
<path d="M2717 4613
L1358 4613
" />
<path d="M1358 4613
L1358 5400
" />
<path d="M14339 9268
L14339 5422
" />
<path d="M16335 9268
L16335 5422
" />
<path d="M14339 9268
L16335 9268
" />
<path d="M14339 5422
L16335 5422
" />
<path d="M12908 3165
L12722 3165
" />
<path d="M12908 2754
L12722 2754
" />
<path d="M15304 10661
L15304 10848
" />
<path d="M14893 10661
L14893 10848
" />
<path d="M4263 11557
L4263 11370
" />
<path d="M4674 11557
L4674 11370
" />
<path d="M4263 12816
L4263 12630
" />
<path d="M4674 12816
L4674 12630
" />
<path d="M4893 9667
L4893 9480
" />
<path d="M5304 9667
L5304 9480
" />
<path d="M4517 9480
L4517 9667
" />
<path d="M4105 9480
L4105 9667
" />
<path d="M16815 13030
L16815 12664
" />
<path d="M16815 11786
L16815 12152
" />
<path d="M16815 11786
L15965 11786
" />
<path d="M16815 13030
L16240 13030
" />
<path d="M16815 11455
L16815 11089
" />
<path d="M16815 10211
L16815 10577
" />
<path d="M16815 10211
L15965 10211
" />
<path d="M16815 11455
L16240 11455
" />
<path d="M5598 17184
L5598 16136
" />
<path d="M4575 17184
L5598 17184
" />
<path d="M4575 16136
L5598 16136
" />
<path d="M4575 17184
L4575 16136
" />
<path d="M4075 17184
L3551 17184
" />
<path d="M3551 17184
L3551 16660
" />
<path d="M14205 14396
L13157 14396
" />
<path d="M14205 17420
L14205 14396
" />
<path d="M13157 17420
L13157 14396
" />
<path d="M14205 17420
L13157 17420
" />
<path d="M14205 17920
L14205 18444
" />
<path d="M14205 18444
L13681 18444
" />
<path d="M13996 5577
L13996 4278
" />
<path d="M13996 4278
L11870 4278
" />
<path d="M13996 5577
L11870 5577
" />
<path d="M16254 15951
L16254 14422
" />
<path d="M16254 14422
L15360 14422
" />
<path d="M15360 14422
L15360 15951
" />
<path d="M18144 9731
L18144 8201
" />
<path d="M18144 8201
L17250 8201
" />
<path d="M17250 8201
L17250 9731
" />
<path d="M15833 3432
L15833 4961
" />
<path d="M15833 4961
L16726 4961
" />
<path d="M16726 4961
L16726 3432
" />
<path d="M6142 10833
L4842 10833
" />
<path d="M4842 10833
L4842 12959
" />
<path d="M6142 10833
L6142 12959
" />
<path d="M11421 3467
L11532 3467
" />
<path d="M11421 3869
L11532 3869
" />
<path d="M5842 3172
L5842 3061
" />
<path d="M6244 3172
L6244 3061
" />
<circle cx="13228.8" cy="12014.9" r="1622.05" /> 
<path d="M13228 13621
L13228 10408
" />
<path d="M13213 13621
L13213 10408
" />
<path d="M13197 13621
L13197 10408
" />
<path d="M13181 13620
L13181 10408
" />
<path d="M13165 13620
L13165 10409
" />
<path d="M13150 13619
L13150 10410
" />
<path d="M13134 13618
L13134 10410
" />
<path d="M13118 13617
L13118 10412
" />
<path d="M13102 13616
L13102 10413
" />
<path d="M13087 13615
L13087 10414
" />
<path d="M13071 13613
L13071 10416
" />
<path d="M13055 13612
L13055 10417
" />
<path d="M13039 13610
L13039 10419
" />
<path d="M13024 13608
L13024 10421
" />
<path d="M13008 13606
L13008 10423
" />
<path d="M12992 13604
L12992 10425
" />
<path d="M12976 13601
L12976 10428
" />
<path d="M12961 13599
L12961 10430
" />
<path d="M12944 13596
L12944 12424
" />
<path d="M12944 11605
L12944 10433
" />
<path d="M12929 13593
L12929 12424
" />
<path d="M12929 11605
L12929 10436
" />
<path d="M12913 13590
L12913 12424
" />
<path d="M12913 11605
L12913 10439
" />
<path d="M12897 13587
L12897 12424
" />
<path d="M12897 11605
L12897 10442
" />
<path d="M12881 13583
L12881 12424
" />
<path d="M12881 11605
L12881 10446
" />
<path d="M12866 13580
L12866 12424
" />
<path d="M12866 11605
L12866 10449
" />
<path d="M12850 13576
L12850 12424
" />
<path d="M12850 11605
L12850 10453
" />
<path d="M12834 13572
L12834 12424
" />
<path d="M12834 11605
L12834 10457
" />
<path d="M12818 13568
L12818 12424
" />
<path d="M12818 11605
L12818 10460
" />
<path d="M12803 13564
L12803 12424
" />
<path d="M12803 11605
L12803 10465
" />
<path d="M12787 13560
L12787 12424
" />
<path d="M12787 11605
L12787 10469
" />
<path d="M12771 13555
L12771 12424
" />
<path d="M12771 11605
L12771 10473
" />
<path d="M12755 13551
L12755 12424
" />
<path d="M12755 11605
L12755 10478
" />
<path d="M12740 13546
L12740 12424
" />
<path d="M12740 11605
L12740 10483
" />
<path d="M12724 13541
L12724 12424
" />
<path d="M12724 11605
L12724 10488
" />
<path d="M12708 13535
L12708 12424
" />
<path d="M12708 11605
L12708 10494
" />
<path d="M12692 13530
L12692 12424
" />
<path d="M12692 11605
L12692 10499
" />
<path d="M12677 13524
L12677 12424
" />
<path d="M12677 11605
L12677 10505
" />
<path d="M12661 13519
L12661 12424
" />
<path d="M12661 11605
L12661 10510
" />
<path d="M12645 13512
L12645 12424
" />
<path d="M12645 11605
L12645 10516
" />
<path d="M12629 13507
L12629 12424
" />
<path d="M12629 11605
L12629 10522
" />
<path d="M12614 13500
L12614 12424
" />
<path d="M12614 11605
L12614 10529
" />
<path d="M12598 13494
L12598 12424
" />
<path d="M12598 11605
L12598 10535
" />
<path d="M12582 13487
L12582 12424
" />
<path d="M12582 11605
L12582 10542
" />
<path d="M12567 13480
L12567 12424
" />
<path d="M12567 11605
L12567 10549
" />
<path d="M12551 13473
L12551 12424
" />
<path d="M12551 11605
L12551 10556
" />
<path d="M12535 13466
L12535 12424
" />
<path d="M12535 11605
L12535 10563
" />
<path d="M12519 13458
L12519 12424
" />
<path d="M12519 11605
L12519 10571
" />
<path d="M12504 13450
L12504 12424
" />
<path d="M12504 11605
L12504 10579
" />
<path d="M12488 13442
L12488 12424
" />
<path d="M12488 11605
L12488 10586
" />
<path d="M12472 13434
L12472 12424
" />
<path d="M12472 11605
L12472 10595
" />
<path d="M12456 13425
L12456 12424
" />
<path d="M12456 11605
L12456 10603
" />
<path d="M12441 13417
L12441 12424
" />
<path d="M12441 11605
L12441 10612
" />
<path d="M12425 13408
L12425 12424
" />
<path d="M12425 11605
L12425 10621
" />
<path d="M12409 13399
L12409 12424
" />
<path d="M12409 11605
L12409 10630
" />
<path d="M12393 13390
L12393 12424
" />
<path d="M12393 11605
L12393 10639
" />
<path d="M12378 13380
L12378 12424
" />
<path d="M12378 11605
L12378 10649
" />
<path d="M12362 13370
L12362 12424
" />
<path d="M12362 11605
L12362 10658
" />
<path d="M12346 13360
L12346 12424
" />
<path d="M12346 11605
L12346 10669
" />
<path d="M12330 13350
L12330 12424
" />
<path d="M12330 11605
L12330 10679
" />
<path d="M12315 13339
L12315 12424
" />
<path d="M12315 11605
L12315 10690
" />
<path d="M12299 13329
L12299 12424
" />
<path d="M12299 11605
L12299 10700
" />
<path d="M12283 13317
L12283 12424
" />
<path d="M12283 11605
L12283 10712
" />
<path d="M12267 13306
L12267 12424
" />
<path d="M12267 11605
L12267 10723
" />
<path d="M12252 13294
L12252 12424
" />
<path d="M12252 11605
L12252 10735
" />
<path d="M12236 13282
L12236 12424
" />
<path d="M12236 11605
L12236 10747
" />
<path d="M12220 13270
L12220 12424
" />
<path d="M12220 11605
L12220 10759
" />
<path d="M12204 13257
L12204 12424
" />
<path d="M12204 11605
L12204 10772
" />
<path d="M12189 13244
L12189 12424
" />
<path d="M12189 11605
L12189 10784
" />
<path d="M12173 13231
L12173 12424
" />
<path d="M12173 11605
L12173 10798
" />
<path d="M12157 13217
L12157 12424
" />
<path d="M12157 11605
L12157 10812
" />
<path d="M12141 13203
L12141 12424
" />
<path d="M12141 11605
L12141 10826
" />
<path d="M12126 13189
L12126 10840
" />
<path d="M12110 13174
L12110 10855
" />
<path d="M12094 13159
L12094 10870
" />
<path d="M12078 13143
L12078 10886
" />
<path d="M12063 13127
L12063 10902
" />
<path d="M12047 13110
L12047 10918
" />
<path d="M12031 13094
L12031 10935
" />
<path d="M12015 13076
L12015 10953
" />
<path d="M12000 13058
L12000 10971
" />
<path d="M11984 13040
L11984 10989
" />
<path d="M11968 13021
L11968 11008
" />
<path d="M11952 13001
L11952 11028
" />
<path d="M11937 12981
L11937 11048
" />
<path d="M11921 12959
L11921 11070
" />
<path d="M11905 12938
L11905 11091
" />
<path d="M11889 12915
L11889 11114
" />
<path d="M11874 12892
L11874 11137
" />
<path d="M11858 12867
L11858 11162
" />
<path d="M11842 12842
L11842 11187
" />
<path d="M11826 12815
L11826 11214
" />
<path d="M11811 12788
L11811 11241
" />
<path d="M11795 12758
L11795 11270
" />
<path d="M11779 12728
L11779 11301
" />
<path d="M11763 12696
L11763 11333
" />
<path d="M11748 12662
L11748 11367
" />
<path d="M11732 12625
L11732 11403
" />
<path d="M11716 12586
L11716 11442
" />
<path d="M11700 12544
L11700 11484
" />
<path d="M11685 12498
L11685 11531
" />
<path d="M11669 12447
L11669 11582
" />
<path d="M11653 12388
L11653 11641
" />
<path d="M11637 12317
L11637 11712
" />
<path d="M11622 12224
L11622 11805
" />
<path d="M14964 12926
L14649 12926
" />
<path d="M14807 13083
L14807 12768
" />
<path d="M3402 12778
L3402 12668
" />
<path d="M3803 12778
L3803 12668
" />
<path d="M6965 12373
L6854 12373
" />
<path d="M6965 11971
L6854 11971
" />
<path d="M2602 15829
L2713 15829
" />
<path d="M2602 16231
L2713 16231
" />
<circle cx="9272.12" cy="15715.7" r="3543.31" /> 
<path d="M7087 15499
L7087 15892
" />
<path d="M6890 15715
L7283 15715
" />
<circle cx="9232.75" cy="8392.86" r="3543.31" /> 
<path d="M7047 8176
L7047 8570
" />
<path d="M6850 8392
L7244 8392
" />
</g>
<g style="fill:#000000; fill-opacity:0.0; 
stroke:#000000; stroke-width:59.0551; stroke-opacity:1; 
stroke-linecap:round; stroke-linejoin:round;">
<text x="13760.3" y="8117.27"
textLength="845.426" font-size="524.934" lengthAdjust="spacingAndGlyphs"
text-anchor="middle" opacity="0">D1</text>
<path d="M13469 8098
L13469 7704
L13563 7704
L13619 7723
L13657 7761
L13675 7798
L13694 7873
L13694 7929
L13675 8004
L13657 8042
L13619 8079
L13563 8098
L13469 8098
" />
<path d="M14069 8098
L13844 8098
" />
<path d="M13957 8098
L13957 7704
L13919 7761
L13882 7798
L13844 7817
" />
<text x="7776.06" y="2999.16"
textLength="770.435" font-size="524.934" lengthAdjust="spacingAndGlyphs"
text-anchor="middle" opacity="0">L2</text>
<path d="M7710 2980
L7522 2980
L7522 2586
" />
<path d="M7822 2624
L7841 2605
L7879 2586
L7972 2586
L8010 2605
L8029 2624
L8047 2661
L8047 2699
L8029 2755
L7804 2980
L8047 2980
" />
<text x="5886.3" y="15125.1"
textLength="770.435" font-size="524.934" lengthAdjust="spacingAndGlyphs"
text-anchor="middle" opacity="0">L1</text>
<path d="M5820 15106
L5633 15106
L5633 14712
" />
<path d="M6158 15106
L5933 15106
" />
<path d="M6045 15106
L6045 14712
L6008 14768
L5970 14806
L5933 14825
" />
<text x="10059.5" y="2999.16"
textLength="864.173" font-size="524.934" lengthAdjust="spacingAndGlyphs"
text-anchor="middle" opacity="0">U2</text>
<path d="M9759 2586
L9759 2905
L9778 2942
L9797 2961
L9834 2980
L9909 2980
L9947 2961
L9965 2942
L9984 2905
L9984 2586
" />
<path d="M10153 2624
L10172 2605
L10209 2586
L10303 2586
L10340 2605
L10359 2624
L10378 2661
L10378 2699
L10359 2755
L10134 2980
L10378 2980
" />
<text x="2500.47" y="13865.3"
textLength="864.173" font-size="524.934" lengthAdjust="spacingAndGlyphs"
text-anchor="middle" opacity="0">U1</text>
<path d="M2200 13452
L2200 13771
L2219 13809
L2238 13827
L2275 13846
L2350 13846
L2387 13827
L2406 13809
L2425 13771
L2425 13452
" />
<path d="M2819 13846
L2594 13846
" />
<path d="M2706 13846
L2706 13452
L2669 13509
L2631 13546
L2594 13565
" />
<text x="3366.61" y="9062.15"
textLength="1276.62" font-size="524.934" lengthAdjust="spacingAndGlyphs"
text-anchor="middle" opacity="0">SW1</text>
<path d="M2841 9024
L2897 9043
L2991 9043
L3029 9024
L3047 9005
L3066 8968
L3066 8930
L3047 8893
L3029 8874
L2991 8855
L2916 8837
L2879 8818
L2860 8799
L2841 8762
L2841 8724
L2860 8687
L2879 8668
L2916 8649
L3010 8649
L3066 8668
" />
<path d="M3197 8649
L3291 9043
L3366 8762
L3441 9043
L3535 8649
" />
<path d="M3891 9043
L3666 9043
" />
<path d="M3779 9043
L3779 8649
L3741 8705
L3704 8743
L3666 8762
" />
<text x="15020.2" y="5203.88"
textLength="1182.88" font-size="524.934" lengthAdjust="spacingAndGlyphs"
text-anchor="middle" opacity="0">RV1</text>
<path d="M14785 5185
L14654 4997
" />
<path d="M14560 5185
L14560 4791
L14710 4791
L14748 4810
L14767 4828
L14785 4866
L14785 4922
L14767 4960
L14748 4978
L14710 4997
L14560 4997
" />
<path d="M14898 4791
L15029 5185
L15160 4791
" />
<path d="M15498 5185
L15273 5185
" />
<path d="M15385 5185
L15385 4791
L15348 4847
L15310 4885
L15273 4903
" />
<text x="12815.4" y="3719.63"
textLength="845.426" font-size="524.934" lengthAdjust="spacingAndGlyphs"
text-anchor="middle" opacity="0">R6</text>
<path d="M12749 3700
L12618 3513
" />
<path d="M12524 3700
L12524 3307
L12674 3307
L12712 3325
L12731 3344
L12749 3382
L12749 3438
L12731 3475
L12712 3494
L12674 3513
L12524 3513
" />
<path d="M13087 3307
L13012 3307
L12974 3325
L12956 3344
L12918 3400
L12899 3475
L12899 3625
L12918 3663
L12937 3682
L12974 3700
L13049 3700
L13087 3682
L13106 3663
L13124 3625
L13124 3532
L13106 3494
L13087 3475
L13049 3457
L12974 3457
L12937 3475
L12918 3494
L12899 3532
" />
<text x="15335.1" y="11975.5"
textLength="845.426" font-size="524.934" lengthAdjust="spacingAndGlyphs"
text-anchor="middle" opacity="0">R5</text>
<path d="M15269 11956
L15138 11769
" />
<path d="M15044 11956
L15044 11563
L15194 11563
L15232 11581
L15250 11600
L15269 11638
L15269 11694
L15250 11731
L15232 11750
L15194 11769
L15044 11769
" />
<path d="M15625 11563
L15438 11563
L15419 11750
L15438 11731
L15475 11713
L15569 11713
L15606 11731
L15625 11750
L15644 11788
L15644 11881
L15625 11919
L15606 11938
L15569 11956
L15475 11956
L15438 11938
L15419 11919
" />
<g transform="rotate(-90 3905.98 11463.7)">
<text x="3905.98" y="11660.6"
textLength="845.426" font-size="524.934" lengthAdjust="spacingAndGlyphs"
text-anchor="middle" opacity="0">R4</text>
</g>
<path d="M4084 11529
L3896 11660
" />
<path d="M4084 11754
L3690 11754
L3690 11604
L3709 11566
L3727 11548
L3765 11529
L3821 11529
L3859 11548
L3877 11566
L3896 11604
L3896 11754
" />
<path d="M3821 11191
L4084 11191
" />
<path d="M3671 11285
L3952 11379
L3952 11135
" />
<text x="4468.97" y="13865.3"
textLength="845.426" font-size="524.934" lengthAdjust="spacingAndGlyphs"
text-anchor="middle" opacity="0">R3</text>
<path d="M4403 13846
L4272 13659
" />
<path d="M4178 13846
L4178 13452
L4328 13452
L4365 13471
L4384 13490
L4403 13527
L4403 13584
L4384 13621
L4365 13640
L4328 13659
L4178 13659
" />
<path d="M4534 13452
L4778 13452
L4647 13602
L4703 13602
L4740 13621
L4759 13640
L4778 13677
L4778 13771
L4759 13809
L4740 13827
L4703 13846
L4590 13846
L4553 13827
L4534 13809
" />
<text x="5177.63" y="10715.7"
textLength="845.426" font-size="524.934" lengthAdjust="spacingAndGlyphs"
text-anchor="middle" opacity="0">R2</text>
<path d="M5112 10696
L4980 10509
" />
<path d="M4887 10696
L4887 10303
L5037 10303
L5074 10321
L5093 10340
L5112 10378
L5112 10434
L5093 10471
L5074 10490
L5037 10509
L4887 10509
" />
<path d="M5261 10340
L5280 10321
L5318 10303
L5411 10303
L5449 10321
L5468 10340
L5486 10378
L5486 10415
L5468 10471
L5243 10696
L5486 10696
" />
<text x="4232.75" y="10715.7"
textLength="845.426" font-size="524.934" lengthAdjust="spacingAndGlyphs"
text-anchor="middle" opacity="0">R1</text>
<path d="M4167 10696
L4035 10509
" />
<path d="M3942 10696
L3942 10303
L4092 10303
L4129 10321
L4148 10340
L4167 10378
L4167 10434
L4148 10471
L4129 10490
L4092 10509
L3942 10509
" />
<path d="M4542 10696
L4317 10696
" />
<path d="M4429 10696
L4429 10303
L4392 10359
L4354 10396
L4317 10415
" />
<text x="16358.7" y="13629.1"
textLength="864.173" font-size="524.934" lengthAdjust="spacingAndGlyphs"
text-anchor="middle" opacity="0">Q2</text>
<path d="M16321 13647
L16283 13629
L16246 13591
L16190 13535
L16152 13516
L16115 13516
" />
<path d="M16133 13610
L16096 13591
L16058 13554
L16040 13479
L16040 13347
L16058 13272
L16096 13235
L16133 13216
L16208 13216
L16246 13235
L16283 13272
L16302 13347
L16302 13479
L16283 13554
L16246 13591
L16208 13610
L16133 13610
" />
<path d="M16452 13254
L16471 13235
L16508 13216
L16602 13216
L16639 13235
L16658 13254
L16677 13291
L16677 13329
L16658 13385
L16433 13610
L16677 13610
" />
<text x="16516.2" y="10007"
textLength="864.173" font-size="524.934" lengthAdjust="spacingAndGlyphs"
text-anchor="middle" opacity="0">Q1</text>
<path d="M16478 10025
L16441 10007
L16403 9969
L16347 9913
L16309 9894
L16272 9894
" />
<path d="M16291 9988
L16253 9969
L16216 9932
L16197 9857
L16197 9725
L16216 9650
L16253 9613
L16291 9594
L16366 9594
L16403 9613
L16441 9650
L16459 9725
L16459 9857
L16441 9932
L16403 9969
L16366 9988
L16291 9988
" />
<path d="M16834 9988
L16609 9988
" />
<path d="M16722 9988
L16722 9594
L16684 9650
L16647 9688
L16609 9707
" />
<text x="4468.97" y="17723.6"
textLength="751.687" font-size="524.934" lengthAdjust="spacingAndGlyphs"
text-anchor="middle" opacity="0">J2</text>
<path d="M4337 17311
L4337 17592
L4318 17648
L4281 17686
L4225 17704
L4187 17704
" />
<path d="M4506 17348
L4525 17329
L4562 17311
L4656 17311
L4693 17329
L4712 17348
L4731 17386
L4731 17423
L4712 17479
L4487 17704
L4731 17704
" />
<text x="13681.6" y="14022.8"
textLength="751.687" font-size="524.934" lengthAdjust="spacingAndGlyphs"
text-anchor="middle" opacity="0">J1</text>
<path d="M13550 13610
L13550 13891
L13531 13947
L13494 13985
L13437 14004
L13400 14004
" />
<path d="M13944 14004
L13719 14004
" />
<path d="M13831 14004
L13831 13610
L13794 13666
L13756 13704
L13719 13722
" />
<text x="12815.4" y="6227.5"
textLength="845.426" font-size="524.934" lengthAdjust="spacingAndGlyphs"
text-anchor="middle" opacity="0">D6</text>
<path d="M12524 6208
L12524 5815
L12618 5815
L12674 5833
L12712 5871
L12731 5908
L12749 5983
L12749 6040
L12731 6115
L12712 6152
L12674 6190
L12618 6208
L12524 6208
" />
<path d="M13087 5815
L13012 5815
L12974 5833
L12956 5852
L12918 5908
L12899 5983
L12899 6133
L12918 6171
L12937 6190
L12974 6208
L13049 6208
L13087 6190
L13106 6171
L13124 6133
L13124 6040
L13106 6002
L13087 5983
L13049 5965
L12974 5965
L12937 5983
L12918 6002
L12899 6040
" />
<text x="15728.8" y="14259"
textLength="845.426" font-size="524.934" lengthAdjust="spacingAndGlyphs"
text-anchor="middle" opacity="0">D5</text>
<path d="M15438 14240
L15438 13846
L15531 13846
L15588 13865
L15625 13902
L15644 13940
L15663 14015
L15663 14071
L15644 14146
L15625 14184
L15588 14221
L15531 14240
L15438 14240
" />
<path d="M16019 13846
L15831 13846
L15813 14034
L15831 14015
L15869 13996
L15963 13996
L16000 14015
L16019 14034
L16038 14071
L16038 14165
L16019 14202
L16000 14221
L15963 14240
L15869 14240
L15831 14221
L15813 14202
" />
<text x="17618.6" y="7881.05"
textLength="845.426" font-size="524.934" lengthAdjust="spacingAndGlyphs"
text-anchor="middle" opacity="0">D4</text>
<path d="M17327 7862
L17327 7468
L17421 7468
L17477 7487
L17515 7524
L17534 7562
L17552 7637
L17552 7693
L17534 7768
L17515 7806
L17477 7843
L17421 7862
L17327 7862
" />
<path d="M17890 7599
L17890 7862
" />
<path d="M17796 7449
L17702 7731
L17946 7731
" />
<text x="15098.9" y="4259"
textLength="845.426" font-size="524.934" lengthAdjust="spacingAndGlyphs"
text-anchor="middle" opacity="0">D3</text>
<path d="M14808 4240
L14808 3846
L14902 3846
L14958 3865
L14995 3902
L15014 3940
L15033 4015
L15033 4071
L15014 4146
L14995 4184
L14958 4221
L14902 4240
L14808 4240
" />
<path d="M15164 3846
L15408 3846
L15276 3996
L15333 3996
L15370 4015
L15389 4034
L15408 4071
L15408 4165
L15389 4202
L15370 4221
L15333 4240
L15220 4240
L15183 4221
L15164 4202
" />
<text x="5886.3" y="10479.5"
textLength="845.426" font-size="524.934" lengthAdjust="spacingAndGlyphs"
text-anchor="middle" opacity="0">D2</text>
<path d="M5595 10460
L5595 10067
L5689 10067
L5745 10085
L5783 10123
L5801 10160
L5820 10235
L5820 10291
L5801 10366
L5783 10404
L5745 10441
L5689 10460
L5595 10460
" />
<path d="M5970 10104
L5989 10085
L6026 10067
L6120 10067
L6158 10085
L6176 10104
L6195 10142
L6195 10179
L6176 10235
L5951 10460
L6195 10460
" />
<text x="11476.8" y="3302.31"
textLength="845.426" font-size="524.934" lengthAdjust="spacingAndGlyphs"
text-anchor="middle" opacity="0">C8</text>
<path d="M11411 3246
L11392 3264
L11336 3283
L11298 3283
L11242 3264
L11205 3227
L11186 3189
L11167 3114
L11167 3058
L11186 2983
L11205 2946
L11242 2908
L11298 2889
L11336 2889
L11392 2908
L11411 2927
" />
<path d="M11636 3058
L11598 3039
L11579 3021
L11561 2983
L11561 2964
L11579 2927
L11598 2908
L11636 2889
L11711 2889
L11748 2908
L11767 2927
L11786 2964
L11786 2983
L11767 3021
L11748 3039
L11711 3058
L11636 3058
L11598 3077
L11579 3096
L11561 3133
L11561 3208
L11579 3246
L11598 3264
L11636 3283
L11711 3283
L11748 3264
L11767 3246
L11786 3208
L11786 3133
L11767 3096
L11748 3077
L11711 3058
" />
<text x="6752.44" y="2999.16"
textLength="845.426" font-size="524.934" lengthAdjust="spacingAndGlyphs"
text-anchor="middle" opacity="0">C7</text>
<path d="M6686 2942
L6668 2961
L6611 2980
L6574 2980
L6518 2961
L6480 2924
L6461 2886
L6443 2811
L6443 2755
L6461 2680
L6480 2642
L6518 2605
L6574 2586
L6611 2586
L6668 2605
L6686 2624
" />
<path d="M6818 2586
L7080 2586
L6911 2980
" />
<text x="11004.4" y="12290.5"
textLength="845.426" font-size="524.934" lengthAdjust="spacingAndGlyphs"
text-anchor="middle" opacity="0">C6</text>
<path d="M10938 12234
L10920 12252
L10863 12271
L10826 12271
L10770 12252
L10732 12215
L10713 12178
L10695 12103
L10695 12046
L10713 11971
L10732 11934
L10770 11896
L10826 11878
L10863 11878
L10920 11896
L10938 11915
" />
<path d="M11276 11878
L11201 11878
L11163 11896
L11145 11915
L11107 11971
L11088 12046
L11088 12196
L11107 12234
L11126 12252
L11163 12271
L11238 12271
L11276 12252
L11294 12234
L11313 12196
L11313 12103
L11294 12065
L11276 12046
L11238 12028
L11163 12028
L11126 12046
L11107 12065
L11088 12103
" />
<text x="3602.83" y="13865.3"
textLength="845.426" font-size="524.934" lengthAdjust="spacingAndGlyphs"
text-anchor="middle" opacity="0">C5</text>
<path d="M3537 13809
L3518 13827
L3462 13846
L3424 13846
L3368 13827
L3330 13790
L3312 13752
L3293 13677
L3293 13621
L3312 13546
L3330 13509
L3368 13471
L3424 13452
L3462 13452
L3518 13471
L3537 13490
" />
<path d="M3893 13452
L3705 13452
L3687 13640
L3705 13621
L3743 13602
L3837 13602
L3874 13621
L3893 13640
L3912 13677
L3912 13771
L3893 13809
L3874 13827
L3837 13846
L3743 13846
L3705 13827
L3687 13809
" />
<text x="6831.18" y="12999.2"
textLength="845.426" font-size="524.934" lengthAdjust="spacingAndGlyphs"
text-anchor="middle" opacity="0">C4</text>
<path d="M6765 12942
L6746 12961
L6690 12980
L6653 12980
L6596 12961
L6559 12924
L6540 12886
L6521 12811
L6521 12755
L6540 12680
L6559 12642
L6596 12605
L6653 12586
L6690 12586
L6746 12605
L6765 12624
" />
<path d="M7103 12717
L7103 12980
" />
<path d="M7009 12567
L6915 12849
L7159 12849
" />
<text x="2657.95" y="16857.4"
textLength="845.426" font-size="524.934" lengthAdjust="spacingAndGlyphs"
text-anchor="middle" opacity="0">C3</text>
<path d="M2592 16801
L2573 16819
L2517 16838
L2479 16838
L2423 16819
L2386 16782
L2367 16744
L2348 16669
L2348 16613
L2367 16538
L2386 16501
L2423 16463
L2479 16444
L2517 16444
L2573 16463
L2592 16482
" />
<path d="M2723 16444
L2967 16444
L2836 16594
L2892 16594
L2929 16613
L2948 16632
L2967 16669
L2967 16763
L2948 16801
L2929 16819
L2892 16838
L2779 16838
L2742 16819
L2723 16801
" />
<text x="9272.12" y="15991.3"
textLength="845.426" font-size="524.934" lengthAdjust="spacingAndGlyphs"
text-anchor="middle" opacity="0">C2</text>
<path d="M9206 15935
L9187 15953
L9131 15972
L9094 15972
L9037 15953
L9000 15916
L8981 15878
L8962 15803
L8962 15747
L8981 15672
L9000 15635
L9037 15597
L9094 15578
L9131 15578
L9187 15597
L9206 15616
" />
<path d="M9356 15616
L9375 15597
L9412 15578
L9506 15578
L9543 15597
L9562 15616
L9581 15653
L9581 15691
L9562 15747
L9337 15972
L9581 15972
" />
<text x="9232.75" y="8589.71"
textLength="845.426" font-size="524.934" lengthAdjust="spacingAndGlyphs"
text-anchor="middle" opacity="0">C1</text>
<path d="M9167 8533
L9148 8552
L9092 8570
L9054 8570
L8998 8552
L8960 8514
L8942 8477
L8923 8402
L8923 8345
L8942 8270
L8960 8233
L8998 8196
L9054 8177
L9092 8177
L9148 8196
L9167 8214
" />
<path d="M9542 8570
L9317 8570
" />
<path d="M9429 8570
L9429 8177
L9392 8233
L9354 8270
L9317 8289
" />
<g >
</g>
</g>
<g style="fill:#000000; fill-opacity:0.0; 
stroke:#000000; stroke-width:59.0551; stroke-opacity:1; 
stroke-linecap:round; stroke-linejoin:round;">
</g>
<g style="fill:#000000; fill-opacity:0.0; 
stroke:#000000; stroke-width:19.685; stroke-opacity:1; 
stroke-linecap:round; stroke-linejoin:round;">
<path d="M1161 19810
L1240 19810
" />
<path d="M1161 12251
L1161 19810
" />
<path d="M2342 12251
L1161 12251
" />
<path d="M2342 1070
L2342 12251
" />
<path d="M2342 1070
L15020 1070
" />
<path d="M15020 19810
L1240 19810
" />
<path d="M15020.2 19810.2 A11034 11034 0.0 0 0 15020.2 1070.02" />
<g >
</g>
<g >
</g>
<g >
</g>
<g >
</g>
<g >
</g>
<g >
</g>
<g >
</g>
<g >
</g>
<g >
</g>
<g >
</g>
<g >
</g>
<g >
</g>
<g >
</g>
<g >
</g>
<g >
</g>
<g >
</g>
<g >
</g>
<g >
</g>
<g >
</g>
<g >
</g>
<g >
</g>
<g >
</g>
<g >
</g>
<g >
</g>
<g >
</g>
<g >
</g>
<g >
</g>
<g >
</g>
<g >
</g>
<g >
</g>
<g >
</g>
<g >
</g>
<g >
</g>
<g >
</g>
<g >
</g>
<g >
</g>
<g >
</g>
</g> 
</svg>
