M48
; DRILL file {KiCad (5.1.10)-1} date 06/03/22 20:42:22
; FORMAT={-:-/ absolute / metric / decimal}
; #@! TF.CreationDate,2022-06-03T20:42:22+03:00
; #@! TF.GenerationSoftware,Kicad,Pcbnew,(5.1.10)-1
FMAT,2
METRIC
T1C0.500
T2C0.700
T3C0.750
T4C0.762
T5C0.800
T6C1.000
T7C1.300
T8C2.000
%
G90
G05
T1
X36.558Y-51.934
X39.778Y-27.574
X43.338Y-59.934
X45.798Y-26.836
X48.338Y-33.694
X50.878Y-25.566
X58.588Y-47.394
T2
X39.608Y-63.164
X43.608Y-63.164
X43.608Y-65.664
X45.608Y-63.164
X45.608Y-65.664
T3
X33.128Y-56.324
X35.128Y-56.324
X42.508Y-29.684
X44.508Y-29.684
T4
X39.608Y-65.664
X47.608Y-63.164
X47.608Y-65.664
T5
X52.708Y-28.314
X52.708Y-31.814
X53.498Y-60.184
X53.498Y-62.724
X53.498Y-65.264
T6
X52.358Y-37.494
X52.358Y-40.034
X52.358Y-42.574
X52.358Y-45.114
T7
X37.458Y-64.414
X49.758Y-64.414
T8
X23.984Y-30.682
X28.984Y-63.682
X60.984Y-63.682
X65.984Y-30.682
T0
M30
