%TF.GenerationSoftware,KiCad,Pcbnew,(5.1.10)-1*%
%TF.CreationDate,2022-05-30T19:02:36+03:00*%
%TF.ProjectId,night-light,6e696768-742d-46c6-9967-68742e6b6963,rev?*%
%TF.SameCoordinates,Original*%
%TF.FileFunction,Copper,L1,Top*%
%TF.FilePolarity,Positive*%
%FSLAX46Y46*%
G04 Gerber Fmt 4.6, Leading zero omitted, Abs format (unit mm)*
G04 Created by KiCad (PCBNEW (5.1.10)-1) date 2022-05-30 19:02:36*
%MOMM*%
%LPD*%
G01*
G04 APERTURE LIST*
%TA.AperFunction,ComponentPad*%
%ADD10R,1.000000X1.000000*%
%TD*%
%TA.AperFunction,SMDPad,CuDef*%
%ADD11R,1.200000X0.900000*%
%TD*%
%TA.AperFunction,SMDPad,CuDef*%
%ADD12R,3.900000X1.200000*%
%TD*%
%TA.AperFunction,SMDPad,CuDef*%
%ADD13R,1.060000X0.650000*%
%TD*%
%TA.AperFunction,SMDPad,CuDef*%
%ADD14R,0.650000X1.060000*%
%TD*%
%TA.AperFunction,SMDPad,CuDef*%
%ADD15R,0.900000X0.800000*%
%TD*%
%TA.AperFunction,ComponentPad*%
%ADD16O,1.700000X1.700000*%
%TD*%
%TA.AperFunction,ComponentPad*%
%ADD17R,1.700000X1.700000*%
%TD*%
%TA.AperFunction,SMDPad,CuDef*%
%ADD18R,2.500000X1.800000*%
%TD*%
%TA.AperFunction,SMDPad,CuDef*%
%ADD19R,1.800000X2.500000*%
%TD*%
%TA.AperFunction,Conductor*%
%ADD20C,0.500000*%
%TD*%
%TA.AperFunction,Conductor*%
%ADD21C,0.250000*%
%TD*%
%TA.AperFunction,Conductor*%
%ADD22C,0.254000*%
%TD*%
%TA.AperFunction,Conductor*%
%ADD23C,0.100000*%
%TD*%
G04 APERTURE END LIST*
D10*
%TO.P,REF\u002A\u002A,1*%
%TO.N,BAT+*%
X31400000Y-29200000D03*
%TD*%
%TO.P,REF\u002A\u002A,1*%
%TO.N,Vch*%
X32600000Y-43800000D03*
%TD*%
%TO.P,REF\u002A\u002A,1*%
%TO.N,A_ON*%
X54400000Y-47000000D03*
%TD*%
D11*
%TO.P,D1,2*%
%TO.N,MOTION*%
X50600000Y-36750000D03*
%TO.P,D1,1*%
%TO.N,A_ON*%
X50600000Y-40050000D03*
%TD*%
D12*
%TO.P,L2,2*%
%TO.N,Net-(D6-Pad2)*%
X35400000Y-26400000D03*
%TO.P,L2,1*%
%TO.N,BAT+*%
X35400000Y-23600000D03*
%TD*%
%TO.P,L1,2*%
%TO.N,Net-(C4-Pad2)*%
X27600000Y-51400000D03*
%TO.P,L1,1*%
%TO.N,Net-(L1-Pad1)*%
X27600000Y-54200000D03*
%TD*%
D13*
%TO.P,U2,5*%
%TO.N,Net-(D6-Pad2)*%
X40100000Y-25350000D03*
%TO.P,U2,4*%
%TO.N,SOL-*%
X40100000Y-23450000D03*
%TO.P,U2,3*%
%TO.N,Net-(U2-Pad3)*%
X42300000Y-23450000D03*
%TO.P,U2,2*%
%TO.N,+5V*%
X42300000Y-24400000D03*
%TO.P,U2,1*%
X42300000Y-25350000D03*
%TD*%
D14*
%TO.P,U1,5*%
%TO.N,Net-(C5-Pad2)*%
X22050000Y-51300000D03*
%TO.P,U1,4*%
%TO.N,SOL+*%
X23950000Y-51300000D03*
%TO.P,U1,3*%
%TO.N,Net-(L1-Pad1)*%
X23950000Y-53500000D03*
%TO.P,U1,2*%
%TO.N,SOL-*%
X23000000Y-53500000D03*
%TO.P,U1,1*%
%TO.N,SOL+*%
X22050000Y-53500000D03*
%TD*%
%TO.P,R6,2*%
%TO.N,BAT+*%
%TA.AperFunction,SMDPad,CuDef*%
G36*
G01*
X47975000Y-22125000D02*
X47975000Y-22675000D01*
G75*
G02*
X47775000Y-22875000I-200000J0D01*
G01*
X47375000Y-22875000D01*
G75*
G02*
X47175000Y-22675000I0J200000D01*
G01*
X47175000Y-22125000D01*
G75*
G02*
X47375000Y-21925000I200000J0D01*
G01*
X47775000Y-21925000D01*
G75*
G02*
X47975000Y-22125000I0J-200000D01*
G01*
G37*
%TD.AperFunction*%
%TO.P,R6,1*%
%TO.N,Net-(D3-Pad2)*%
%TA.AperFunction,SMDPad,CuDef*%
G36*
G01*
X49625000Y-22125000D02*
X49625000Y-22675000D01*
G75*
G02*
X49425000Y-22875000I-200000J0D01*
G01*
X49025000Y-22875000D01*
G75*
G02*
X48825000Y-22675000I0J200000D01*
G01*
X48825000Y-22125000D01*
G75*
G02*
X49025000Y-21925000I200000J0D01*
G01*
X49425000Y-21925000D01*
G75*
G02*
X49625000Y-22125000I0J-200000D01*
G01*
G37*
%TD.AperFunction*%
%TD*%
%TO.P,R5,2*%
%TO.N,A_ON*%
%TA.AperFunction,SMDPad,CuDef*%
G36*
G01*
X53925000Y-42625000D02*
X54475000Y-42625000D01*
G75*
G02*
X54675000Y-42825000I0J-200000D01*
G01*
X54675000Y-43225000D01*
G75*
G02*
X54475000Y-43425000I-200000J0D01*
G01*
X53925000Y-43425000D01*
G75*
G02*
X53725000Y-43225000I0J200000D01*
G01*
X53725000Y-42825000D01*
G75*
G02*
X53925000Y-42625000I200000J0D01*
G01*
G37*
%TD.AperFunction*%
%TO.P,R5,1*%
%TO.N,Net-(Q1-Pad1)*%
%TA.AperFunction,SMDPad,CuDef*%
G36*
G01*
X53925000Y-40975000D02*
X54475000Y-40975000D01*
G75*
G02*
X54675000Y-41175000I0J-200000D01*
G01*
X54675000Y-41575000D01*
G75*
G02*
X54475000Y-41775000I-200000J0D01*
G01*
X53925000Y-41775000D01*
G75*
G02*
X53725000Y-41575000I0J200000D01*
G01*
X53725000Y-41175000D01*
G75*
G02*
X53925000Y-40975000I200000J0D01*
G01*
G37*
%TD.AperFunction*%
%TD*%
%TO.P,R4,2*%
%TO.N,Net-(C5-Pad2)*%
%TA.AperFunction,SMDPad,CuDef*%
G36*
G01*
X27475000Y-43575000D02*
X26925000Y-43575000D01*
G75*
G02*
X26725000Y-43375000I0J200000D01*
G01*
X26725000Y-42975000D01*
G75*
G02*
X26925000Y-42775000I200000J0D01*
G01*
X27475000Y-42775000D01*
G75*
G02*
X27675000Y-42975000I0J-200000D01*
G01*
X27675000Y-43375000D01*
G75*
G02*
X27475000Y-43575000I-200000J0D01*
G01*
G37*
%TD.AperFunction*%
%TO.P,R4,1*%
%TO.N,Net-(R3-Pad2)*%
%TA.AperFunction,SMDPad,CuDef*%
G36*
G01*
X27475000Y-45225000D02*
X26925000Y-45225000D01*
G75*
G02*
X26725000Y-45025000I0J200000D01*
G01*
X26725000Y-44625000D01*
G75*
G02*
X26925000Y-44425000I200000J0D01*
G01*
X27475000Y-44425000D01*
G75*
G02*
X27675000Y-44625000I0J-200000D01*
G01*
X27675000Y-45025000D01*
G75*
G02*
X27475000Y-45225000I-200000J0D01*
G01*
G37*
%TD.AperFunction*%
%TD*%
%TO.P,R3,2*%
%TO.N,Net-(R3-Pad2)*%
%TA.AperFunction,SMDPad,CuDef*%
G36*
G01*
X27475000Y-46775000D02*
X26925000Y-46775000D01*
G75*
G02*
X26725000Y-46575000I0J200000D01*
G01*
X26725000Y-46175000D01*
G75*
G02*
X26925000Y-45975000I200000J0D01*
G01*
X27475000Y-45975000D01*
G75*
G02*
X27675000Y-46175000I0J-200000D01*
G01*
X27675000Y-46575000D01*
G75*
G02*
X27475000Y-46775000I-200000J0D01*
G01*
G37*
%TD.AperFunction*%
%TO.P,R3,1*%
%TO.N,Net-(C4-Pad2)*%
%TA.AperFunction,SMDPad,CuDef*%
G36*
G01*
X27475000Y-48425000D02*
X26925000Y-48425000D01*
G75*
G02*
X26725000Y-48225000I0J200000D01*
G01*
X26725000Y-47825000D01*
G75*
G02*
X26925000Y-47625000I200000J0D01*
G01*
X27475000Y-47625000D01*
G75*
G02*
X27675000Y-47825000I0J-200000D01*
G01*
X27675000Y-48225000D01*
G75*
G02*
X27475000Y-48425000I-200000J0D01*
G01*
G37*
%TD.AperFunction*%
%TD*%
%TO.P,R2,2*%
%TO.N,Net-(R1-Pad1)*%
%TA.AperFunction,SMDPad,CuDef*%
G36*
G01*
X29075000Y-38775000D02*
X28525000Y-38775000D01*
G75*
G02*
X28325000Y-38575000I0J200000D01*
G01*
X28325000Y-38175000D01*
G75*
G02*
X28525000Y-37975000I200000J0D01*
G01*
X29075000Y-37975000D01*
G75*
G02*
X29275000Y-38175000I0J-200000D01*
G01*
X29275000Y-38575000D01*
G75*
G02*
X29075000Y-38775000I-200000J0D01*
G01*
G37*
%TD.AperFunction*%
%TO.P,R2,1*%
%TO.N,Net-(C5-Pad2)*%
%TA.AperFunction,SMDPad,CuDef*%
G36*
G01*
X29075000Y-40425000D02*
X28525000Y-40425000D01*
G75*
G02*
X28325000Y-40225000I0J200000D01*
G01*
X28325000Y-39825000D01*
G75*
G02*
X28525000Y-39625000I200000J0D01*
G01*
X29075000Y-39625000D01*
G75*
G02*
X29275000Y-39825000I0J-200000D01*
G01*
X29275000Y-40225000D01*
G75*
G02*
X29075000Y-40425000I-200000J0D01*
G01*
G37*
%TD.AperFunction*%
%TD*%
%TO.P,R1,2*%
%TO.N,SOL-*%
%TA.AperFunction,SMDPad,CuDef*%
G36*
G01*
X26525000Y-39625000D02*
X27075000Y-39625000D01*
G75*
G02*
X27275000Y-39825000I0J-200000D01*
G01*
X27275000Y-40225000D01*
G75*
G02*
X27075000Y-40425000I-200000J0D01*
G01*
X26525000Y-40425000D01*
G75*
G02*
X26325000Y-40225000I0J200000D01*
G01*
X26325000Y-39825000D01*
G75*
G02*
X26525000Y-39625000I200000J0D01*
G01*
G37*
%TD.AperFunction*%
%TO.P,R1,1*%
%TO.N,Net-(R1-Pad1)*%
%TA.AperFunction,SMDPad,CuDef*%
G36*
G01*
X26525000Y-37975000D02*
X27075000Y-37975000D01*
G75*
G02*
X27275000Y-38175000I0J-200000D01*
G01*
X27275000Y-38575000D01*
G75*
G02*
X27075000Y-38775000I-200000J0D01*
G01*
X26525000Y-38775000D01*
G75*
G02*
X26325000Y-38575000I0J200000D01*
G01*
X26325000Y-38175000D01*
G75*
G02*
X26525000Y-37975000I200000J0D01*
G01*
G37*
%TD.AperFunction*%
%TD*%
D15*
%TO.P,Q2,3*%
%TO.N,Net-(D3-Pad1)*%
X58800000Y-46400000D03*
%TO.P,Q2,2*%
%TO.N,SOL-*%
X56800000Y-47350000D03*
%TO.P,Q2,1*%
%TO.N,Net-(Q1-Pad2)*%
X56800000Y-45450000D03*
%TD*%
%TO.P,Q1,3*%
%TO.N,Net-(D3-Pad1)*%
X58800000Y-42400000D03*
%TO.P,Q1,2*%
%TO.N,Net-(Q1-Pad2)*%
X56800000Y-43350000D03*
%TO.P,Q1,1*%
%TO.N,Net-(Q1-Pad1)*%
X56800000Y-41450000D03*
%TD*%
D16*
%TO.P,J2,2*%
%TO.N,SOL-*%
X28740000Y-57200000D03*
D17*
%TO.P,J2,1*%
%TO.N,SOL+*%
X26200000Y-57200000D03*
%TD*%
D16*
%TO.P,J1,4*%
%TO.N,+5V*%
X50600000Y-52780000D03*
%TO.P,J1,3*%
%TO.N,MOTION*%
X50600000Y-55320000D03*
%TO.P,J1,2*%
%TO.N,SOL-*%
X50600000Y-57860000D03*
D17*
%TO.P,J1,1*%
%TO.N,+3V3*%
X50600000Y-60400000D03*
%TD*%
D18*
%TO.P,D6,2*%
%TO.N,Net-(D6-Pad2)*%
X46000000Y-27400000D03*
%TO.P,D6,1*%
%TO.N,+5V*%
X50000000Y-27400000D03*
%TD*%
%TO.P,D5,2*%
%TO.N,Net-(D3-Pad2)*%
%TA.AperFunction,SMDPad,CuDef*%
G36*
G01*
X55375000Y-54575000D02*
X56625000Y-54575000D01*
G75*
G02*
X56875000Y-54825000I0J-250000D01*
G01*
X56875000Y-55575000D01*
G75*
G02*
X56625000Y-55825000I-250000J0D01*
G01*
X55375000Y-55825000D01*
G75*
G02*
X55125000Y-55575000I0J250000D01*
G01*
X55125000Y-54825000D01*
G75*
G02*
X55375000Y-54575000I250000J0D01*
G01*
G37*
%TD.AperFunction*%
%TO.P,D5,1*%
%TO.N,Net-(D3-Pad1)*%
%TA.AperFunction,SMDPad,CuDef*%
G36*
G01*
X55375000Y-51775000D02*
X56625000Y-51775000D01*
G75*
G02*
X56875000Y-52025000I0J-250000D01*
G01*
X56875000Y-52775000D01*
G75*
G02*
X56625000Y-53025000I-250000J0D01*
G01*
X55375000Y-53025000D01*
G75*
G02*
X55125000Y-52775000I0J250000D01*
G01*
X55125000Y-52025000D01*
G75*
G02*
X55375000Y-51775000I250000J0D01*
G01*
G37*
%TD.AperFunction*%
%TD*%
%TO.P,D4,2*%
%TO.N,Net-(D3-Pad2)*%
%TA.AperFunction,SMDPad,CuDef*%
G36*
G01*
X60175000Y-38775000D02*
X61425000Y-38775000D01*
G75*
G02*
X61675000Y-39025000I0J-250000D01*
G01*
X61675000Y-39775000D01*
G75*
G02*
X61425000Y-40025000I-250000J0D01*
G01*
X60175000Y-40025000D01*
G75*
G02*
X59925000Y-39775000I0J250000D01*
G01*
X59925000Y-39025000D01*
G75*
G02*
X60175000Y-38775000I250000J0D01*
G01*
G37*
%TD.AperFunction*%
%TO.P,D4,1*%
%TO.N,Net-(D3-Pad1)*%
%TA.AperFunction,SMDPad,CuDef*%
G36*
G01*
X60175000Y-35975000D02*
X61425000Y-35975000D01*
G75*
G02*
X61675000Y-36225000I0J-250000D01*
G01*
X61675000Y-36975000D01*
G75*
G02*
X61425000Y-37225000I-250000J0D01*
G01*
X60175000Y-37225000D01*
G75*
G02*
X59925000Y-36975000I0J250000D01*
G01*
X59925000Y-36225000D01*
G75*
G02*
X60175000Y-35975000I250000J0D01*
G01*
G37*
%TD.AperFunction*%
%TD*%
%TO.P,D3,2*%
%TO.N,Net-(D3-Pad2)*%
%TA.AperFunction,SMDPad,CuDef*%
G36*
G01*
X57825000Y-24425000D02*
X56575000Y-24425000D01*
G75*
G02*
X56325000Y-24175000I0J250000D01*
G01*
X56325000Y-23425000D01*
G75*
G02*
X56575000Y-23175000I250000J0D01*
G01*
X57825000Y-23175000D01*
G75*
G02*
X58075000Y-23425000I0J-250000D01*
G01*
X58075000Y-24175000D01*
G75*
G02*
X57825000Y-24425000I-250000J0D01*
G01*
G37*
%TD.AperFunction*%
%TO.P,D3,1*%
%TO.N,Net-(D3-Pad1)*%
%TA.AperFunction,SMDPad,CuDef*%
G36*
G01*
X57825000Y-27225000D02*
X56575000Y-27225000D01*
G75*
G02*
X56325000Y-26975000I0J250000D01*
G01*
X56325000Y-26225000D01*
G75*
G02*
X56575000Y-25975000I250000J0D01*
G01*
X57825000Y-25975000D01*
G75*
G02*
X58075000Y-26225000I0J-250000D01*
G01*
X58075000Y-26975000D01*
G75*
G02*
X57825000Y-27225000I-250000J0D01*
G01*
G37*
%TD.AperFunction*%
%TD*%
D19*
%TO.P,D2,2*%
%TO.N,Net-(C4-Pad2)*%
X29800000Y-47800000D03*
%TO.P,D2,1*%
%TO.N,Vch*%
X29800000Y-43800000D03*
%TD*%
%TO.P,C8,2*%
%TO.N,SOL-*%
%TA.AperFunction,SMDPad,CuDef*%
G36*
G01*
X45325000Y-24450000D02*
X45325000Y-23950000D01*
G75*
G02*
X45550000Y-23725000I225000J0D01*
G01*
X46000000Y-23725000D01*
G75*
G02*
X46225000Y-23950000I0J-225000D01*
G01*
X46225000Y-24450000D01*
G75*
G02*
X46000000Y-24675000I-225000J0D01*
G01*
X45550000Y-24675000D01*
G75*
G02*
X45325000Y-24450000I0J225000D01*
G01*
G37*
%TD.AperFunction*%
%TO.P,C8,1*%
%TO.N,+5V*%
%TA.AperFunction,SMDPad,CuDef*%
G36*
G01*
X43775000Y-24450000D02*
X43775000Y-23950000D01*
G75*
G02*
X44000000Y-23725000I225000J0D01*
G01*
X44450000Y-23725000D01*
G75*
G02*
X44675000Y-23950000I0J-225000D01*
G01*
X44675000Y-24450000D01*
G75*
G02*
X44450000Y-24675000I-225000J0D01*
G01*
X44000000Y-24675000D01*
G75*
G02*
X43775000Y-24450000I0J225000D01*
G01*
G37*
%TD.AperFunction*%
%TD*%
%TO.P,C7,2*%
%TO.N,SOL-*%
%TA.AperFunction,SMDPad,CuDef*%
G36*
G01*
X31450000Y-22475000D02*
X30950000Y-22475000D01*
G75*
G02*
X30725000Y-22250000I0J225000D01*
G01*
X30725000Y-21800000D01*
G75*
G02*
X30950000Y-21575000I225000J0D01*
G01*
X31450000Y-21575000D01*
G75*
G02*
X31675000Y-21800000I0J-225000D01*
G01*
X31675000Y-22250000D01*
G75*
G02*
X31450000Y-22475000I-225000J0D01*
G01*
G37*
%TD.AperFunction*%
%TO.P,C7,1*%
%TO.N,BAT+*%
%TA.AperFunction,SMDPad,CuDef*%
G36*
G01*
X31450000Y-24025000D02*
X30950000Y-24025000D01*
G75*
G02*
X30725000Y-23800000I0J225000D01*
G01*
X30725000Y-23350000D01*
G75*
G02*
X30950000Y-23125000I225000J0D01*
G01*
X31450000Y-23125000D01*
G75*
G02*
X31675000Y-23350000I0J-225000D01*
G01*
X31675000Y-23800000D01*
G75*
G02*
X31450000Y-24025000I-225000J0D01*
G01*
G37*
%TD.AperFunction*%
%TD*%
%TO.P,C5,2*%
%TO.N,Net-(C5-Pad2)*%
%TA.AperFunction,SMDPad,CuDef*%
G36*
G01*
X25250000Y-46875000D02*
X24750000Y-46875000D01*
G75*
G02*
X24525000Y-46650000I0J225000D01*
G01*
X24525000Y-46200000D01*
G75*
G02*
X24750000Y-45975000I225000J0D01*
G01*
X25250000Y-45975000D01*
G75*
G02*
X25475000Y-46200000I0J-225000D01*
G01*
X25475000Y-46650000D01*
G75*
G02*
X25250000Y-46875000I-225000J0D01*
G01*
G37*
%TD.AperFunction*%
%TO.P,C5,1*%
%TO.N,Net-(C4-Pad2)*%
%TA.AperFunction,SMDPad,CuDef*%
G36*
G01*
X25250000Y-48425000D02*
X24750000Y-48425000D01*
G75*
G02*
X24525000Y-48200000I0J225000D01*
G01*
X24525000Y-47750000D01*
G75*
G02*
X24750000Y-47525000I225000J0D01*
G01*
X25250000Y-47525000D01*
G75*
G02*
X25475000Y-47750000I0J-225000D01*
G01*
X25475000Y-48200000D01*
G75*
G02*
X25250000Y-48425000I-225000J0D01*
G01*
G37*
%TD.AperFunction*%
%TD*%
%TO.P,C4,2*%
%TO.N,Net-(C4-Pad2)*%
%TA.AperFunction,SMDPad,CuDef*%
G36*
G01*
X33075000Y-45550000D02*
X33075000Y-46050000D01*
G75*
G02*
X32850000Y-46275000I-225000J0D01*
G01*
X32400000Y-46275000D01*
G75*
G02*
X32175000Y-46050000I0J225000D01*
G01*
X32175000Y-45550000D01*
G75*
G02*
X32400000Y-45325000I225000J0D01*
G01*
X32850000Y-45325000D01*
G75*
G02*
X33075000Y-45550000I0J-225000D01*
G01*
G37*
%TD.AperFunction*%
%TO.P,C4,1*%
%TO.N,SOL-*%
%TA.AperFunction,SMDPad,CuDef*%
G36*
G01*
X34625000Y-45550000D02*
X34625000Y-46050000D01*
G75*
G02*
X34400000Y-46275000I-225000J0D01*
G01*
X33950000Y-46275000D01*
G75*
G02*
X33725000Y-46050000I0J225000D01*
G01*
X33725000Y-45550000D01*
G75*
G02*
X33950000Y-45325000I225000J0D01*
G01*
X34400000Y-45325000D01*
G75*
G02*
X34625000Y-45550000I0J-225000D01*
G01*
G37*
%TD.AperFunction*%
%TD*%
%TO.P,C3,2*%
%TO.N,SOL-*%
%TA.AperFunction,SMDPad,CuDef*%
G36*
G01*
X22925000Y-55850000D02*
X22925000Y-55350000D01*
G75*
G02*
X23150000Y-55125000I225000J0D01*
G01*
X23600000Y-55125000D01*
G75*
G02*
X23825000Y-55350000I0J-225000D01*
G01*
X23825000Y-55850000D01*
G75*
G02*
X23600000Y-56075000I-225000J0D01*
G01*
X23150000Y-56075000D01*
G75*
G02*
X22925000Y-55850000I0J225000D01*
G01*
G37*
%TD.AperFunction*%
%TO.P,C3,1*%
%TO.N,SOL+*%
%TA.AperFunction,SMDPad,CuDef*%
G36*
G01*
X21375000Y-55850000D02*
X21375000Y-55350000D01*
G75*
G02*
X21600000Y-55125000I225000J0D01*
G01*
X22050000Y-55125000D01*
G75*
G02*
X22275000Y-55350000I0J-225000D01*
G01*
X22275000Y-55850000D01*
G75*
G02*
X22050000Y-56075000I-225000J0D01*
G01*
X21600000Y-56075000D01*
G75*
G02*
X21375000Y-55850000I0J225000D01*
G01*
G37*
%TD.AperFunction*%
%TD*%
D20*
%TO.N,Vch*%
X35900000Y-36300000D02*
X35800000Y-36200000D01*
X29800000Y-43800000D02*
X29800000Y-42200000D01*
X29800000Y-43800000D02*
X32600000Y-43800000D01*
D21*
%TO.N,SOL-*%
X23000000Y-55225000D02*
X23375000Y-55600000D01*
X23000000Y-53500000D02*
X23000000Y-55225000D01*
%TO.N,SOL+*%
X25400000Y-56575000D02*
X25375000Y-56600000D01*
D20*
X22050000Y-55375000D02*
X21825000Y-55600000D01*
X22050000Y-53500000D02*
X22050000Y-55375000D01*
X22869999Y-52380001D02*
X23950000Y-51300000D01*
X22139999Y-52380001D02*
X22869999Y-52380001D01*
X22050000Y-52470000D02*
X22139999Y-52380001D01*
X22050000Y-53500000D02*
X22050000Y-52470000D01*
X21825000Y-56075000D02*
X21825000Y-55600000D01*
X22950000Y-57200000D02*
X21825000Y-56075000D01*
X26200000Y-57200000D02*
X22950000Y-57200000D01*
D21*
%TO.N,Net-(C4-Pad2)*%
X31800000Y-45800000D02*
X29800000Y-47800000D01*
X32625000Y-45800000D02*
X31800000Y-45800000D01*
X29575000Y-48025000D02*
X29800000Y-47800000D01*
D20*
X27200000Y-48025000D02*
X29575000Y-48025000D01*
D21*
X27600000Y-48425000D02*
X27200000Y-48025000D01*
D20*
X27600000Y-51400000D02*
X27600000Y-48425000D01*
D21*
X25050000Y-48025000D02*
X25000000Y-47975000D01*
X27200000Y-48025000D02*
X25050000Y-48025000D01*
%TO.N,Net-(C5-Pad2)*%
X22050000Y-49375000D02*
X25000000Y-46425000D01*
X22050000Y-51300000D02*
X22050000Y-49375000D01*
X25000000Y-45375000D02*
X27200000Y-43175000D01*
X25000000Y-46425000D02*
X25000000Y-45375000D01*
X27200000Y-41625000D02*
X28800000Y-40025000D01*
X27200000Y-43175000D02*
X27200000Y-41625000D01*
%TO.N,A_ON*%
X53575000Y-43025000D02*
X50600000Y-40050000D01*
X54200000Y-43025000D02*
X53575000Y-43025000D01*
X54400000Y-43225000D02*
X54200000Y-43025000D01*
X54200000Y-46800000D02*
X54200000Y-43025000D01*
D20*
%TO.N,BAT+*%
X32950000Y-23600000D02*
X35400000Y-23600000D01*
X31400000Y-29200000D02*
X31400000Y-25150000D01*
X31200000Y-24400000D02*
X31675000Y-24875000D01*
X31200000Y-23575000D02*
X31200000Y-24400000D01*
X31675000Y-24875000D02*
X32950000Y-23600000D01*
X31400000Y-25150000D02*
X31675000Y-24875000D01*
X46975000Y-21800000D02*
X47575000Y-22400000D01*
X37200000Y-21800000D02*
X46975000Y-21800000D01*
X35400000Y-23600000D02*
X37200000Y-21800000D01*
%TO.N,+5V*%
X42300000Y-24400000D02*
X42300000Y-25350000D01*
X44025000Y-24400000D02*
X44225000Y-24200000D01*
X42300000Y-24400000D02*
X44025000Y-24400000D01*
X44225000Y-25275000D02*
X44150000Y-25350000D01*
X44225000Y-24200000D02*
X44225000Y-25275000D01*
X42300000Y-25350000D02*
X44150000Y-25350000D01*
X47950000Y-25350000D02*
X50000000Y-27400000D01*
X44150000Y-25350000D02*
X47950000Y-25350000D01*
X50000000Y-31015762D02*
X45400000Y-35615762D01*
X50000000Y-27400000D02*
X50000000Y-31015762D01*
X45400000Y-47580000D02*
X50600000Y-52780000D01*
X45400000Y-35615762D02*
X45400000Y-47580000D01*
D21*
%TO.N,MOTION*%
X50600000Y-55320000D02*
X51880000Y-55320000D01*
X51880000Y-55320000D02*
X52600000Y-54600000D01*
X52600000Y-54600000D02*
X52600000Y-50600000D01*
X52600000Y-50600000D02*
X49400000Y-47400000D01*
X49400000Y-47400000D02*
X49400000Y-42200000D01*
X49400000Y-42200000D02*
X48600000Y-41400000D01*
X48600000Y-38750000D02*
X50600000Y-36750000D01*
X48600000Y-41400000D02*
X48600000Y-38750000D01*
D20*
%TO.N,Net-(D3-Pad2)*%
X55800000Y-22400000D02*
X57200000Y-23800000D01*
X49225000Y-22400000D02*
X55800000Y-22400000D01*
X57200000Y-23800000D02*
X58800000Y-23800000D01*
X58800000Y-23800000D02*
X60800000Y-25800000D01*
X60800000Y-25800000D02*
X60800000Y-34000000D01*
X60800000Y-34000000D02*
X62200000Y-35400000D01*
X62200000Y-38000000D02*
X60800000Y-39400000D01*
X62200000Y-35400000D02*
X62200000Y-38000000D01*
X57800000Y-53400000D02*
X56000000Y-55200000D01*
X60200000Y-53400000D02*
X57800000Y-53400000D01*
X60800000Y-52800000D02*
X60200000Y-53400000D01*
X60800000Y-39400000D02*
X60800000Y-52800000D01*
%TO.N,Net-(D3-Pad1)*%
X58800000Y-42400000D02*
X58800000Y-44400000D01*
X57200000Y-26600000D02*
X57200000Y-34813190D01*
X58800000Y-42400000D02*
X58800000Y-41400000D01*
X58800000Y-44400000D02*
X58800000Y-46400000D01*
D21*
X57200000Y-34813190D02*
X57200000Y-35000000D01*
D20*
X58800000Y-36600000D02*
X60800000Y-36600000D01*
X57200000Y-35000000D02*
X58800000Y-36600000D01*
X58800000Y-36600000D02*
X58800000Y-41400000D01*
X58800000Y-49600000D02*
X56000000Y-52400000D01*
X58800000Y-46400000D02*
X58800000Y-49600000D01*
%TO.N,Net-(D6-Pad2)*%
X39050000Y-26400000D02*
X40100000Y-25350000D01*
X35400000Y-26400000D02*
X39050000Y-26400000D01*
D21*
X42150000Y-27400000D02*
X46000000Y-27400000D01*
X40100000Y-25350000D02*
X42150000Y-27400000D01*
D20*
%TO.N,Net-(L1-Pad1)*%
X24650000Y-54200000D02*
X23950000Y-53500000D01*
X27600000Y-54200000D02*
X24650000Y-54200000D01*
D21*
%TO.N,Net-(Q1-Pad2)*%
X56850000Y-43400000D02*
X56800000Y-43350000D01*
X56800000Y-43350000D02*
X56800000Y-45450000D01*
%TO.N,Net-(Q1-Pad1)*%
X56725000Y-41375000D02*
X56800000Y-41450000D01*
X54200000Y-41375000D02*
X56725000Y-41375000D01*
%TO.N,Net-(R1-Pad1)*%
X26800000Y-38375000D02*
X28800000Y-38375000D01*
%TO.N,Net-(R3-Pad2)*%
X27200000Y-44825000D02*
X27200000Y-46375000D01*
%TD*%
D22*
%TO.N,SOL-*%
X55352996Y-19309821D02*
X56963819Y-20583131D01*
X58474630Y-21973629D01*
X59876941Y-23473501D01*
X60497099Y-24245520D01*
X59456534Y-23204956D01*
X59428817Y-23171183D01*
X59294059Y-23060589D01*
X59140313Y-22978411D01*
X58973490Y-22927805D01*
X58843477Y-22915000D01*
X58843469Y-22915000D01*
X58800000Y-22910719D01*
X58756531Y-22915000D01*
X58549770Y-22915000D01*
X58452962Y-22797038D01*
X58318386Y-22686595D01*
X58164850Y-22604528D01*
X57998254Y-22553992D01*
X57825000Y-22536928D01*
X57188507Y-22536928D01*
X56456534Y-21804956D01*
X56428817Y-21771183D01*
X56294059Y-21660589D01*
X56140313Y-21578411D01*
X55973490Y-21527805D01*
X55843477Y-21515000D01*
X55843469Y-21515000D01*
X55800000Y-21510719D01*
X55756531Y-21515000D01*
X49996411Y-21515000D01*
X49890608Y-21428169D01*
X49745716Y-21350722D01*
X49588500Y-21303031D01*
X49425000Y-21286928D01*
X49025000Y-21286928D01*
X48861500Y-21303031D01*
X48704284Y-21350722D01*
X48559392Y-21428169D01*
X48432394Y-21532394D01*
X48400000Y-21571866D01*
X48367606Y-21532394D01*
X48240608Y-21428169D01*
X48095716Y-21350722D01*
X47938500Y-21303031D01*
X47775000Y-21286928D01*
X47713506Y-21286928D01*
X47631534Y-21204956D01*
X47603817Y-21171183D01*
X47469059Y-21060589D01*
X47315313Y-20978411D01*
X47148490Y-20927805D01*
X47018477Y-20915000D01*
X47018469Y-20915000D01*
X46975000Y-20910719D01*
X46931531Y-20915000D01*
X37243465Y-20915000D01*
X37199999Y-20910719D01*
X37156533Y-20915000D01*
X37156523Y-20915000D01*
X37026510Y-20927805D01*
X36859687Y-20978411D01*
X36705941Y-21060589D01*
X36705939Y-21060590D01*
X36705940Y-21060590D01*
X36604953Y-21143468D01*
X36604951Y-21143470D01*
X36571183Y-21171183D01*
X36543470Y-21204951D01*
X35386494Y-22361928D01*
X33450000Y-22361928D01*
X33325518Y-22374188D01*
X33205820Y-22410498D01*
X33095506Y-22469463D01*
X32998815Y-22548815D01*
X32919463Y-22645506D01*
X32880972Y-22717517D01*
X32776510Y-22727805D01*
X32609687Y-22778411D01*
X32455941Y-22860589D01*
X32455939Y-22860590D01*
X32455940Y-22860590D01*
X32354953Y-22943468D01*
X32354951Y-22943470D01*
X32321183Y-22971183D01*
X32293470Y-23004951D01*
X32254667Y-23043754D01*
X32247375Y-23019717D01*
X32169300Y-22873649D01*
X32205537Y-22829494D01*
X32264502Y-22719180D01*
X32300812Y-22599482D01*
X32313072Y-22475000D01*
X32310000Y-22310750D01*
X32151250Y-22152000D01*
X31327000Y-22152000D01*
X31327000Y-22172000D01*
X31073000Y-22172000D01*
X31073000Y-22152000D01*
X30248750Y-22152000D01*
X30090000Y-22310750D01*
X30086928Y-22475000D01*
X30099188Y-22599482D01*
X30135498Y-22719180D01*
X30194463Y-22829494D01*
X30230700Y-22873649D01*
X30152625Y-23019717D01*
X30103512Y-23181623D01*
X30086928Y-23350000D01*
X30086928Y-23800000D01*
X30103512Y-23968377D01*
X30152625Y-24130283D01*
X30232382Y-24279497D01*
X30312922Y-24377635D01*
X30310719Y-24400000D01*
X30315000Y-24443469D01*
X30315000Y-24443477D01*
X30319090Y-24485000D01*
X30327805Y-24573490D01*
X30378412Y-24740313D01*
X30460590Y-24894059D01*
X30527927Y-24976109D01*
X30527805Y-24976510D01*
X30510719Y-25150000D01*
X30515001Y-25193479D01*
X30515000Y-28194498D01*
X30448815Y-28248815D01*
X30369463Y-28345506D01*
X30310498Y-28455820D01*
X30274188Y-28575518D01*
X30261928Y-28700000D01*
X30261928Y-29700000D01*
X30274188Y-29824482D01*
X30310498Y-29944180D01*
X30369463Y-30054494D01*
X30448815Y-30151185D01*
X30545506Y-30230537D01*
X30655820Y-30289502D01*
X30775518Y-30325812D01*
X30900000Y-30338072D01*
X31900000Y-30338072D01*
X32024482Y-30325812D01*
X32144180Y-30289502D01*
X32254494Y-30230537D01*
X32351185Y-30151185D01*
X32430537Y-30054494D01*
X32489502Y-29944180D01*
X32525812Y-29824482D01*
X32538072Y-29700000D01*
X32538072Y-28700000D01*
X32525812Y-28575518D01*
X32489502Y-28455820D01*
X32430537Y-28345506D01*
X32351185Y-28248815D01*
X32285000Y-28194499D01*
X32285000Y-25519260D01*
X32303817Y-25503817D01*
X32331532Y-25470046D01*
X33082069Y-24719510D01*
X33095506Y-24730537D01*
X33205820Y-24789502D01*
X33325518Y-24825812D01*
X33450000Y-24838072D01*
X37350000Y-24838072D01*
X37474482Y-24825812D01*
X37594180Y-24789502D01*
X37704494Y-24730537D01*
X37801185Y-24651185D01*
X37880537Y-24554494D01*
X37939502Y-24444180D01*
X37975812Y-24324482D01*
X37988072Y-24200000D01*
X37988072Y-23000000D01*
X37975812Y-22875518D01*
X37939502Y-22755820D01*
X37901647Y-22685000D01*
X39109636Y-22685000D01*
X39039463Y-22770506D01*
X38980498Y-22880820D01*
X38944188Y-23000518D01*
X38931928Y-23125000D01*
X38935000Y-23164250D01*
X39093750Y-23323000D01*
X39973000Y-23323000D01*
X39973000Y-23303000D01*
X40227000Y-23303000D01*
X40227000Y-23323000D01*
X40247000Y-23323000D01*
X40247000Y-23577000D01*
X40227000Y-23577000D01*
X40227000Y-23597000D01*
X39973000Y-23597000D01*
X39973000Y-23577000D01*
X39093750Y-23577000D01*
X38935000Y-23735750D01*
X38931928Y-23775000D01*
X38944188Y-23899482D01*
X38980498Y-24019180D01*
X39039463Y-24129494D01*
X39118815Y-24226185D01*
X39215506Y-24305537D01*
X39325820Y-24364502D01*
X39442841Y-24400000D01*
X39325820Y-24435498D01*
X39215506Y-24494463D01*
X39118815Y-24573815D01*
X39039463Y-24670506D01*
X38980498Y-24780820D01*
X38944188Y-24900518D01*
X38931928Y-25025000D01*
X38931928Y-25266494D01*
X38683422Y-25515000D01*
X37917683Y-25515000D01*
X37880537Y-25445506D01*
X37801185Y-25348815D01*
X37704494Y-25269463D01*
X37594180Y-25210498D01*
X37474482Y-25174188D01*
X37350000Y-25161928D01*
X33450000Y-25161928D01*
X33325518Y-25174188D01*
X33205820Y-25210498D01*
X33095506Y-25269463D01*
X32998815Y-25348815D01*
X32919463Y-25445506D01*
X32860498Y-25555820D01*
X32824188Y-25675518D01*
X32811928Y-25800000D01*
X32811928Y-27000000D01*
X32824188Y-27124482D01*
X32860498Y-27244180D01*
X32919463Y-27354494D01*
X32998815Y-27451185D01*
X33095506Y-27530537D01*
X33205820Y-27589502D01*
X33325518Y-27625812D01*
X33450000Y-27638072D01*
X37350000Y-27638072D01*
X37474482Y-27625812D01*
X37594180Y-27589502D01*
X37704494Y-27530537D01*
X37801185Y-27451185D01*
X37880537Y-27354494D01*
X37917683Y-27285000D01*
X39006531Y-27285000D01*
X39050000Y-27289281D01*
X39093469Y-27285000D01*
X39093477Y-27285000D01*
X39223490Y-27272195D01*
X39390313Y-27221589D01*
X39544059Y-27139411D01*
X39678817Y-27028817D01*
X39706534Y-26995044D01*
X40188389Y-26513190D01*
X41586201Y-27911003D01*
X41609999Y-27940001D01*
X41725724Y-28034974D01*
X41857753Y-28105546D01*
X42001014Y-28149003D01*
X42112667Y-28160000D01*
X42112677Y-28160000D01*
X42150000Y-28163676D01*
X42187323Y-28160000D01*
X44111928Y-28160000D01*
X44111928Y-28300000D01*
X44124188Y-28424482D01*
X44160498Y-28544180D01*
X44219463Y-28654494D01*
X44298815Y-28751185D01*
X44395506Y-28830537D01*
X44505820Y-28889502D01*
X44625518Y-28925812D01*
X44750000Y-28938072D01*
X47250000Y-28938072D01*
X47374482Y-28925812D01*
X47494180Y-28889502D01*
X47604494Y-28830537D01*
X47701185Y-28751185D01*
X47780537Y-28654494D01*
X47839502Y-28544180D01*
X47875812Y-28424482D01*
X47888072Y-28300000D01*
X47888072Y-26539650D01*
X48111928Y-26763506D01*
X48111928Y-28300000D01*
X48124188Y-28424482D01*
X48160498Y-28544180D01*
X48219463Y-28654494D01*
X48298815Y-28751185D01*
X48395506Y-28830537D01*
X48505820Y-28889502D01*
X48625518Y-28925812D01*
X48750000Y-28938072D01*
X49115000Y-28938072D01*
X49115001Y-30649182D01*
X44804956Y-34959228D01*
X44771183Y-34986945D01*
X44660589Y-35121704D01*
X44578411Y-35275450D01*
X44548158Y-35375179D01*
X44527886Y-35442007D01*
X44527805Y-35442273D01*
X44515000Y-35572286D01*
X44515000Y-35572293D01*
X44510719Y-35615762D01*
X44515000Y-35659231D01*
X44515001Y-47536521D01*
X44510719Y-47580000D01*
X44527805Y-47753490D01*
X44578412Y-47920313D01*
X44660590Y-48074059D01*
X44743468Y-48175046D01*
X44743471Y-48175049D01*
X44771184Y-48208817D01*
X44804952Y-48236530D01*
X49129461Y-52561040D01*
X49115000Y-52633740D01*
X49115000Y-52926260D01*
X49172068Y-53213158D01*
X49284010Y-53483411D01*
X49446525Y-53726632D01*
X49653368Y-53933475D01*
X49827760Y-54050000D01*
X49653368Y-54166525D01*
X49446525Y-54373368D01*
X49284010Y-54616589D01*
X49172068Y-54886842D01*
X49115000Y-55173740D01*
X49115000Y-55466260D01*
X49172068Y-55753158D01*
X49284010Y-56023411D01*
X49446525Y-56266632D01*
X49653368Y-56473475D01*
X49835534Y-56595195D01*
X49718645Y-56664822D01*
X49502412Y-56859731D01*
X49328359Y-57093080D01*
X49203175Y-57355901D01*
X49158524Y-57503110D01*
X49279845Y-57733000D01*
X50473000Y-57733000D01*
X50473000Y-57713000D01*
X50727000Y-57713000D01*
X50727000Y-57733000D01*
X51920155Y-57733000D01*
X52041476Y-57503110D01*
X51996825Y-57355901D01*
X51871641Y-57093080D01*
X51697588Y-56859731D01*
X51481355Y-56664822D01*
X51364466Y-56595195D01*
X51546632Y-56473475D01*
X51753475Y-56266632D01*
X51875986Y-56083281D01*
X51880000Y-56083676D01*
X51917322Y-56080000D01*
X51917333Y-56080000D01*
X52028986Y-56069003D01*
X52172247Y-56025546D01*
X52304276Y-55954974D01*
X52420001Y-55860001D01*
X52443803Y-55830998D01*
X53111004Y-55163798D01*
X53140001Y-55140001D01*
X53234974Y-55024276D01*
X53305546Y-54892247D01*
X53349003Y-54748986D01*
X53360000Y-54637333D01*
X53360000Y-54637325D01*
X53363676Y-54600000D01*
X53360000Y-54562675D01*
X53360000Y-50637322D01*
X53363676Y-50599999D01*
X53360000Y-50562676D01*
X53360000Y-50562667D01*
X53349003Y-50451014D01*
X53305546Y-50307753D01*
X53234974Y-50175724D01*
X53192527Y-50124002D01*
X53163799Y-50088996D01*
X53163795Y-50088992D01*
X53140001Y-50059999D01*
X53111008Y-50036205D01*
X50160000Y-47085199D01*
X50160000Y-45298061D01*
X50165000Y-45298061D01*
X50165000Y-45501939D01*
X50204774Y-45701898D01*
X50282795Y-45890256D01*
X50396063Y-46059774D01*
X50540226Y-46203937D01*
X50709744Y-46317205D01*
X50898102Y-46395226D01*
X51098061Y-46435000D01*
X51301939Y-46435000D01*
X51501898Y-46395226D01*
X51690256Y-46317205D01*
X51859774Y-46203937D01*
X52003937Y-46059774D01*
X52117205Y-45890256D01*
X52195226Y-45701898D01*
X52235000Y-45501939D01*
X52235000Y-45298061D01*
X52195226Y-45098102D01*
X52117205Y-44909744D01*
X52003937Y-44740226D01*
X51859774Y-44596063D01*
X51690256Y-44482795D01*
X51501898Y-44404774D01*
X51301939Y-44365000D01*
X51098061Y-44365000D01*
X50898102Y-44404774D01*
X50709744Y-44482795D01*
X50540226Y-44596063D01*
X50396063Y-44740226D01*
X50282795Y-44909744D01*
X50204774Y-45098102D01*
X50165000Y-45298061D01*
X50160000Y-45298061D01*
X50160000Y-42237323D01*
X50163676Y-42200000D01*
X50160000Y-42162677D01*
X50160000Y-42162667D01*
X50149003Y-42051014D01*
X50105546Y-41907753D01*
X50034974Y-41775724D01*
X49940001Y-41659999D01*
X49911002Y-41636201D01*
X49360000Y-41085199D01*
X49360000Y-39064801D01*
X50586730Y-37838072D01*
X51200000Y-37838072D01*
X51324482Y-37825812D01*
X51444180Y-37789502D01*
X51554494Y-37730537D01*
X51651185Y-37651185D01*
X51730537Y-37554494D01*
X51789502Y-37444180D01*
X51825812Y-37324482D01*
X51838072Y-37200000D01*
X51838072Y-36300000D01*
X51825812Y-36175518D01*
X51789502Y-36055820D01*
X51747939Y-35978061D01*
X53765000Y-35978061D01*
X53765000Y-36181939D01*
X53804774Y-36381898D01*
X53882795Y-36570256D01*
X53996063Y-36739774D01*
X54140226Y-36883937D01*
X54309744Y-36997205D01*
X54498102Y-37075226D01*
X54698061Y-37115000D01*
X54901939Y-37115000D01*
X55101898Y-37075226D01*
X55290256Y-36997205D01*
X55459774Y-36883937D01*
X55603937Y-36739774D01*
X55717205Y-36570256D01*
X55795226Y-36381898D01*
X55835000Y-36181939D01*
X55835000Y-35978061D01*
X55795226Y-35778102D01*
X55717205Y-35589744D01*
X55603937Y-35420226D01*
X55459774Y-35276063D01*
X55290256Y-35162795D01*
X55101898Y-35084774D01*
X54901939Y-35045000D01*
X54698061Y-35045000D01*
X54498102Y-35084774D01*
X54309744Y-35162795D01*
X54140226Y-35276063D01*
X53996063Y-35420226D01*
X53882795Y-35589744D01*
X53804774Y-35778102D01*
X53765000Y-35978061D01*
X51747939Y-35978061D01*
X51730537Y-35945506D01*
X51651185Y-35848815D01*
X51554494Y-35769463D01*
X51444180Y-35710498D01*
X51324482Y-35674188D01*
X51200000Y-35661928D01*
X50000000Y-35661928D01*
X49875518Y-35674188D01*
X49755820Y-35710498D01*
X49645506Y-35769463D01*
X49548815Y-35848815D01*
X49469463Y-35945506D01*
X49410498Y-36055820D01*
X49374188Y-36175518D01*
X49361928Y-36300000D01*
X49361928Y-36913270D01*
X48088998Y-38186201D01*
X48060000Y-38209999D01*
X48036202Y-38238997D01*
X48036201Y-38238998D01*
X47965026Y-38325724D01*
X47894454Y-38457754D01*
X47874364Y-38523986D01*
X47854663Y-38588934D01*
X47850998Y-38601015D01*
X47836324Y-38750000D01*
X47840001Y-38787332D01*
X47840000Y-41362677D01*
X47836324Y-41400000D01*
X47840000Y-41437322D01*
X47840000Y-41437332D01*
X47850997Y-41548985D01*
X47886871Y-41667247D01*
X47894454Y-41692246D01*
X47965026Y-41824276D01*
X48004868Y-41872823D01*
X48059999Y-41940001D01*
X48089002Y-41963803D01*
X48640001Y-42514803D01*
X48640000Y-44964777D01*
X48617205Y-44909744D01*
X48503937Y-44740226D01*
X48359774Y-44596063D01*
X48190256Y-44482795D01*
X48001898Y-44404774D01*
X47801939Y-44365000D01*
X47598061Y-44365000D01*
X47398102Y-44404774D01*
X47209744Y-44482795D01*
X47040226Y-44596063D01*
X46896063Y-44740226D01*
X46782795Y-44909744D01*
X46704774Y-45098102D01*
X46665000Y-45298061D01*
X46665000Y-45501939D01*
X46704774Y-45701898D01*
X46782795Y-45890256D01*
X46896063Y-46059774D01*
X47040226Y-46203937D01*
X47209744Y-46317205D01*
X47398102Y-46395226D01*
X47598061Y-46435000D01*
X47801939Y-46435000D01*
X48001898Y-46395226D01*
X48190256Y-46317205D01*
X48359774Y-46203937D01*
X48503937Y-46059774D01*
X48617205Y-45890256D01*
X48640000Y-45835224D01*
X48640000Y-47362677D01*
X48636324Y-47400000D01*
X48640000Y-47437322D01*
X48640000Y-47437332D01*
X48650997Y-47548985D01*
X48691575Y-47682754D01*
X48694454Y-47692246D01*
X48765026Y-47824276D01*
X48787377Y-47851510D01*
X48859999Y-47940001D01*
X48889003Y-47963804D01*
X51840001Y-50914804D01*
X51840001Y-51962863D01*
X51753475Y-51833368D01*
X51546632Y-51626525D01*
X51303411Y-51464010D01*
X51033158Y-51352068D01*
X50746260Y-51295000D01*
X50453740Y-51295000D01*
X50381040Y-51309461D01*
X46285000Y-47213422D01*
X46285000Y-35982340D01*
X48829279Y-33438061D01*
X53765000Y-33438061D01*
X53765000Y-33641939D01*
X53804774Y-33841898D01*
X53882795Y-34030256D01*
X53996063Y-34199774D01*
X54140226Y-34343937D01*
X54309744Y-34457205D01*
X54498102Y-34535226D01*
X54698061Y-34575000D01*
X54901939Y-34575000D01*
X55101898Y-34535226D01*
X55290256Y-34457205D01*
X55459774Y-34343937D01*
X55603937Y-34199774D01*
X55717205Y-34030256D01*
X55795226Y-33841898D01*
X55835000Y-33641939D01*
X55835000Y-33438061D01*
X55795226Y-33238102D01*
X55717205Y-33049744D01*
X55603937Y-32880226D01*
X55459774Y-32736063D01*
X55290256Y-32622795D01*
X55101898Y-32544774D01*
X54901939Y-32505000D01*
X54698061Y-32505000D01*
X54498102Y-32544774D01*
X54309744Y-32622795D01*
X54140226Y-32736063D01*
X53996063Y-32880226D01*
X53882795Y-33049744D01*
X53804774Y-33238102D01*
X53765000Y-33438061D01*
X48829279Y-33438061D01*
X50595049Y-31672292D01*
X50628817Y-31644579D01*
X50739411Y-31509821D01*
X50821589Y-31356075D01*
X50872195Y-31189252D01*
X50885000Y-31059239D01*
X50885000Y-31059229D01*
X50889281Y-31015763D01*
X50885000Y-30972297D01*
X50885000Y-30898061D01*
X53765000Y-30898061D01*
X53765000Y-31101939D01*
X53804774Y-31301898D01*
X53882795Y-31490256D01*
X53996063Y-31659774D01*
X54140226Y-31803937D01*
X54309744Y-31917205D01*
X54498102Y-31995226D01*
X54698061Y-32035000D01*
X54901939Y-32035000D01*
X55101898Y-31995226D01*
X55290256Y-31917205D01*
X55459774Y-31803937D01*
X55603937Y-31659774D01*
X55717205Y-31490256D01*
X55795226Y-31301898D01*
X55835000Y-31101939D01*
X55835000Y-30898061D01*
X55795226Y-30698102D01*
X55717205Y-30509744D01*
X55603937Y-30340226D01*
X55459774Y-30196063D01*
X55290256Y-30082795D01*
X55101898Y-30004774D01*
X54901939Y-29965000D01*
X54698061Y-29965000D01*
X54498102Y-30004774D01*
X54309744Y-30082795D01*
X54140226Y-30196063D01*
X53996063Y-30340226D01*
X53882795Y-30509744D01*
X53804774Y-30698102D01*
X53765000Y-30898061D01*
X50885000Y-30898061D01*
X50885000Y-28938072D01*
X51250000Y-28938072D01*
X51374482Y-28925812D01*
X51494180Y-28889502D01*
X51604494Y-28830537D01*
X51701185Y-28751185D01*
X51780537Y-28654494D01*
X51839502Y-28544180D01*
X51875812Y-28424482D01*
X51888072Y-28300000D01*
X51888072Y-26500000D01*
X51875812Y-26375518D01*
X51839502Y-26255820D01*
X51780537Y-26145506D01*
X51701185Y-26048815D01*
X51604494Y-25969463D01*
X51494180Y-25910498D01*
X51374482Y-25874188D01*
X51250000Y-25861928D01*
X49713507Y-25861928D01*
X48606532Y-24754954D01*
X48578817Y-24721183D01*
X48444059Y-24610589D01*
X48290313Y-24528411D01*
X48123490Y-24477805D01*
X47993477Y-24465000D01*
X47993469Y-24465000D01*
X47950000Y-24460719D01*
X47906531Y-24465000D01*
X46839250Y-24465000D01*
X46701250Y-24327000D01*
X45902000Y-24327000D01*
X45902000Y-24347000D01*
X45648000Y-24347000D01*
X45648000Y-24327000D01*
X45628000Y-24327000D01*
X45628000Y-24073000D01*
X45648000Y-24073000D01*
X45648000Y-23248750D01*
X45902000Y-23248750D01*
X45902000Y-24073000D01*
X46701250Y-24073000D01*
X46860000Y-23914250D01*
X46863072Y-23725000D01*
X46850812Y-23600518D01*
X46814502Y-23480820D01*
X46755537Y-23370506D01*
X46676185Y-23273815D01*
X46579494Y-23194463D01*
X46469180Y-23135498D01*
X46349482Y-23099188D01*
X46225000Y-23086928D01*
X46060750Y-23090000D01*
X45902000Y-23248750D01*
X45648000Y-23248750D01*
X45489250Y-23090000D01*
X45325000Y-23086928D01*
X45200518Y-23099188D01*
X45080820Y-23135498D01*
X44970506Y-23194463D01*
X44926351Y-23230700D01*
X44780283Y-23152625D01*
X44618377Y-23103512D01*
X44450000Y-23086928D01*
X44000000Y-23086928D01*
X43831623Y-23103512D01*
X43669717Y-23152625D01*
X43520503Y-23232382D01*
X43468072Y-23275411D01*
X43468072Y-23125000D01*
X43455812Y-23000518D01*
X43419502Y-22880820D01*
X43360537Y-22770506D01*
X43290364Y-22685000D01*
X46537913Y-22685000D01*
X46553031Y-22838500D01*
X46600722Y-22995716D01*
X46678169Y-23140608D01*
X46782394Y-23267606D01*
X46909392Y-23371831D01*
X47054284Y-23449278D01*
X47211500Y-23496969D01*
X47375000Y-23513072D01*
X47775000Y-23513072D01*
X47938500Y-23496969D01*
X48095716Y-23449278D01*
X48240608Y-23371831D01*
X48367606Y-23267606D01*
X48400000Y-23228134D01*
X48432394Y-23267606D01*
X48559392Y-23371831D01*
X48704284Y-23449278D01*
X48861500Y-23496969D01*
X49025000Y-23513072D01*
X49425000Y-23513072D01*
X49588500Y-23496969D01*
X49745716Y-23449278D01*
X49890608Y-23371831D01*
X49996411Y-23285000D01*
X55433422Y-23285000D01*
X55686928Y-23538506D01*
X55686928Y-24175000D01*
X55703992Y-24348254D01*
X55754528Y-24514850D01*
X55836595Y-24668386D01*
X55947038Y-24802962D01*
X56081614Y-24913405D01*
X56235150Y-24995472D01*
X56401746Y-25046008D01*
X56575000Y-25063072D01*
X57825000Y-25063072D01*
X57998254Y-25046008D01*
X58164850Y-24995472D01*
X58318386Y-24913405D01*
X58452962Y-24802962D01*
X58497326Y-24748904D01*
X59915000Y-26166579D01*
X59915001Y-33956521D01*
X59910719Y-34000000D01*
X59927805Y-34173490D01*
X59978412Y-34340313D01*
X60060590Y-34494059D01*
X60143468Y-34595046D01*
X60143471Y-34595049D01*
X60171184Y-34628817D01*
X60204951Y-34656529D01*
X60885349Y-35336928D01*
X60175000Y-35336928D01*
X60001746Y-35353992D01*
X59835150Y-35404528D01*
X59681614Y-35486595D01*
X59547038Y-35597038D01*
X59450230Y-35715000D01*
X59166579Y-35715000D01*
X58085000Y-34633422D01*
X58085000Y-27819694D01*
X58164850Y-27795472D01*
X58318386Y-27713405D01*
X58452962Y-27602962D01*
X58563405Y-27468386D01*
X58645472Y-27314850D01*
X58696008Y-27148254D01*
X58713072Y-26975000D01*
X58713072Y-26225000D01*
X58696008Y-26051746D01*
X58645472Y-25885150D01*
X58563405Y-25731614D01*
X58452962Y-25597038D01*
X58318386Y-25486595D01*
X58164850Y-25404528D01*
X57998254Y-25353992D01*
X57825000Y-25336928D01*
X56575000Y-25336928D01*
X56401746Y-25353992D01*
X56235150Y-25404528D01*
X56081614Y-25486595D01*
X55947038Y-25597038D01*
X55836595Y-25731614D01*
X55754528Y-25885150D01*
X55703992Y-26051746D01*
X55686928Y-26225000D01*
X55686928Y-26975000D01*
X55703992Y-27148254D01*
X55754528Y-27314850D01*
X55836595Y-27468386D01*
X55947038Y-27602962D01*
X56081614Y-27713405D01*
X56235150Y-27795472D01*
X56315000Y-27819694D01*
X56315001Y-34856667D01*
X56319918Y-34906592D01*
X56310719Y-35000000D01*
X56327805Y-35173490D01*
X56378412Y-35340313D01*
X56460590Y-35494059D01*
X56543468Y-35595046D01*
X57915000Y-36966579D01*
X57915001Y-41356523D01*
X57915001Y-41535532D01*
X57898815Y-41548815D01*
X57888072Y-41561905D01*
X57888072Y-41050000D01*
X57875812Y-40925518D01*
X57839502Y-40805820D01*
X57780537Y-40695506D01*
X57701185Y-40598815D01*
X57604494Y-40519463D01*
X57494180Y-40460498D01*
X57374482Y-40424188D01*
X57250000Y-40411928D01*
X56350000Y-40411928D01*
X56225518Y-40424188D01*
X56105820Y-40460498D01*
X55995506Y-40519463D01*
X55898815Y-40598815D01*
X55885532Y-40615000D01*
X55094365Y-40615000D01*
X55067606Y-40582394D01*
X54940608Y-40478169D01*
X54795716Y-40400722D01*
X54638500Y-40353031D01*
X54475000Y-40336928D01*
X53925000Y-40336928D01*
X53761500Y-40353031D01*
X53604284Y-40400722D01*
X53459392Y-40478169D01*
X53332394Y-40582394D01*
X53228169Y-40709392D01*
X53150722Y-40854284D01*
X53103031Y-41011500D01*
X53086928Y-41175000D01*
X53086928Y-41462126D01*
X51838072Y-40213271D01*
X51838072Y-39600000D01*
X51825812Y-39475518D01*
X51789502Y-39355820D01*
X51730537Y-39245506D01*
X51651185Y-39148815D01*
X51554494Y-39069463D01*
X51444180Y-39010498D01*
X51324482Y-38974188D01*
X51200000Y-38961928D01*
X50000000Y-38961928D01*
X49875518Y-38974188D01*
X49755820Y-39010498D01*
X49645506Y-39069463D01*
X49548815Y-39148815D01*
X49469463Y-39245506D01*
X49410498Y-39355820D01*
X49374188Y-39475518D01*
X49361928Y-39600000D01*
X49361928Y-40500000D01*
X49374188Y-40624482D01*
X49410498Y-40744180D01*
X49469463Y-40854494D01*
X49548815Y-40951185D01*
X49645506Y-41030537D01*
X49755820Y-41089502D01*
X49875518Y-41125812D01*
X50000000Y-41138072D01*
X50613271Y-41138072D01*
X53011200Y-43536002D01*
X53034999Y-43565001D01*
X53150724Y-43659974D01*
X53243903Y-43709780D01*
X53332394Y-43817606D01*
X53440001Y-43905917D01*
X53440000Y-46059556D01*
X53369463Y-46145506D01*
X53310498Y-46255820D01*
X53274188Y-46375518D01*
X53261928Y-46500000D01*
X53261928Y-47500000D01*
X53274188Y-47624482D01*
X53310498Y-47744180D01*
X53369463Y-47854494D01*
X53448815Y-47951185D01*
X53545506Y-48030537D01*
X53655820Y-48089502D01*
X53775518Y-48125812D01*
X53900000Y-48138072D01*
X54900000Y-48138072D01*
X55024482Y-48125812D01*
X55144180Y-48089502D01*
X55254494Y-48030537D01*
X55351185Y-47951185D01*
X55430537Y-47854494D01*
X55486391Y-47750000D01*
X55711928Y-47750000D01*
X55724188Y-47874482D01*
X55760498Y-47994180D01*
X55819463Y-48104494D01*
X55898815Y-48201185D01*
X55995506Y-48280537D01*
X56105820Y-48339502D01*
X56225518Y-48375812D01*
X56350000Y-48388072D01*
X56514250Y-48385000D01*
X56673000Y-48226250D01*
X56673000Y-47477000D01*
X56927000Y-47477000D01*
X56927000Y-48226250D01*
X57085750Y-48385000D01*
X57250000Y-48388072D01*
X57374482Y-48375812D01*
X57494180Y-48339502D01*
X57604494Y-48280537D01*
X57701185Y-48201185D01*
X57780537Y-48104494D01*
X57839502Y-47994180D01*
X57875812Y-47874482D01*
X57888072Y-47750000D01*
X57885000Y-47635750D01*
X57726250Y-47477000D01*
X56927000Y-47477000D01*
X56673000Y-47477000D01*
X55873750Y-47477000D01*
X55715000Y-47635750D01*
X55711928Y-47750000D01*
X55486391Y-47750000D01*
X55489502Y-47744180D01*
X55525812Y-47624482D01*
X55538072Y-47500000D01*
X55538072Y-46500000D01*
X55525812Y-46375518D01*
X55489502Y-46255820D01*
X55430537Y-46145506D01*
X55351185Y-46048815D01*
X55254494Y-45969463D01*
X55144180Y-45910498D01*
X55024482Y-45874188D01*
X54960000Y-45867837D01*
X54960000Y-43905916D01*
X55067606Y-43817606D01*
X55171831Y-43690608D01*
X55249278Y-43545716D01*
X55296969Y-43388500D01*
X55313072Y-43225000D01*
X55313072Y-42825000D01*
X55296969Y-42661500D01*
X55249278Y-42504284D01*
X55171831Y-42359392D01*
X55067606Y-42232394D01*
X55028134Y-42200000D01*
X55067606Y-42167606D01*
X55094365Y-42135000D01*
X55782317Y-42135000D01*
X55819463Y-42204494D01*
X55898815Y-42301185D01*
X55995506Y-42380537D01*
X56031918Y-42400000D01*
X55995506Y-42419463D01*
X55898815Y-42498815D01*
X55819463Y-42595506D01*
X55760498Y-42705820D01*
X55724188Y-42825518D01*
X55711928Y-42950000D01*
X55711928Y-43750000D01*
X55724188Y-43874482D01*
X55760498Y-43994180D01*
X55819463Y-44104494D01*
X55898815Y-44201185D01*
X55995506Y-44280537D01*
X56040000Y-44304320D01*
X56040001Y-44495680D01*
X55995506Y-44519463D01*
X55898815Y-44598815D01*
X55819463Y-44695506D01*
X55760498Y-44805820D01*
X55724188Y-44925518D01*
X55711928Y-45050000D01*
X55711928Y-45850000D01*
X55724188Y-45974482D01*
X55760498Y-46094180D01*
X55819463Y-46204494D01*
X55898815Y-46301185D01*
X55995506Y-46380537D01*
X56031918Y-46400000D01*
X55995506Y-46419463D01*
X55898815Y-46498815D01*
X55819463Y-46595506D01*
X55760498Y-46705820D01*
X55724188Y-46825518D01*
X55711928Y-46950000D01*
X55715000Y-47064250D01*
X55873750Y-47223000D01*
X56673000Y-47223000D01*
X56673000Y-47203000D01*
X56927000Y-47203000D01*
X56927000Y-47223000D01*
X57726250Y-47223000D01*
X57810857Y-47138393D01*
X57819463Y-47154494D01*
X57898815Y-47251185D01*
X57915000Y-47264468D01*
X57915001Y-49233420D01*
X56011494Y-51136928D01*
X55375000Y-51136928D01*
X55201746Y-51153992D01*
X55035150Y-51204528D01*
X54881614Y-51286595D01*
X54747038Y-51397038D01*
X54636595Y-51531614D01*
X54554528Y-51685150D01*
X54503992Y-51851746D01*
X54486928Y-52025000D01*
X54486928Y-52775000D01*
X54503992Y-52948254D01*
X54554528Y-53114850D01*
X54636595Y-53268386D01*
X54747038Y-53402962D01*
X54881614Y-53513405D01*
X55035150Y-53595472D01*
X55201746Y-53646008D01*
X55375000Y-53663072D01*
X56285349Y-53663072D01*
X56011494Y-53936928D01*
X55375000Y-53936928D01*
X55201746Y-53953992D01*
X55035150Y-54004528D01*
X54881614Y-54086595D01*
X54747038Y-54197038D01*
X54636595Y-54331614D01*
X54554528Y-54485150D01*
X54503992Y-54651746D01*
X54486928Y-54825000D01*
X54486928Y-55575000D01*
X54503992Y-55748254D01*
X54554528Y-55914850D01*
X54636595Y-56068386D01*
X54747038Y-56202962D01*
X54881614Y-56313405D01*
X55035150Y-56395472D01*
X55201746Y-56446008D01*
X55375000Y-56463072D01*
X56625000Y-56463072D01*
X56798254Y-56446008D01*
X56964850Y-56395472D01*
X57118386Y-56313405D01*
X57252962Y-56202962D01*
X57363405Y-56068386D01*
X57445472Y-55914850D01*
X57496008Y-55748254D01*
X57513072Y-55575000D01*
X57513072Y-54938506D01*
X58166579Y-54285000D01*
X60156531Y-54285000D01*
X60200000Y-54289281D01*
X60243469Y-54285000D01*
X60243477Y-54285000D01*
X60373490Y-54272195D01*
X60540313Y-54221589D01*
X60694059Y-54139411D01*
X60828817Y-54028817D01*
X60856534Y-53995044D01*
X61395049Y-53456530D01*
X61428817Y-53428817D01*
X61470185Y-53378411D01*
X61539410Y-53294060D01*
X61539411Y-53294059D01*
X61621589Y-53140313D01*
X61672195Y-52973490D01*
X61685000Y-52843477D01*
X61685000Y-52843467D01*
X61689281Y-52800001D01*
X61685000Y-52756535D01*
X61685000Y-40619694D01*
X61764850Y-40595472D01*
X61918386Y-40513405D01*
X62052962Y-40402962D01*
X62163405Y-40268386D01*
X62245472Y-40114850D01*
X62296008Y-39948254D01*
X62313072Y-39775000D01*
X62313072Y-39138507D01*
X62795049Y-38656530D01*
X62828817Y-38628817D01*
X62861549Y-38588934D01*
X62939410Y-38494060D01*
X62958816Y-38457754D01*
X63021589Y-38340313D01*
X63072195Y-38173490D01*
X63085000Y-38043477D01*
X63085000Y-38043469D01*
X63089281Y-38000000D01*
X63085000Y-37956531D01*
X63085000Y-35443469D01*
X63089281Y-35400000D01*
X63085000Y-35356531D01*
X63085000Y-35356523D01*
X63072195Y-35226510D01*
X63021589Y-35059687D01*
X62939411Y-34905941D01*
X62874223Y-34826510D01*
X62856532Y-34804953D01*
X62856530Y-34804951D01*
X62828817Y-34771183D01*
X62795050Y-34743471D01*
X61685000Y-33633422D01*
X61685000Y-25843465D01*
X61685750Y-25835847D01*
X62325105Y-26766996D01*
X63357173Y-28542073D01*
X64253245Y-30389542D01*
X65008272Y-32298992D01*
X65618009Y-34259684D01*
X66079018Y-36260577D01*
X66388704Y-38290396D01*
X66545326Y-40337726D01*
X66548001Y-42391025D01*
X66396714Y-44438760D01*
X66092317Y-46469374D01*
X65636520Y-48471470D01*
X65031899Y-50433730D01*
X64281848Y-52345144D01*
X63390594Y-54194938D01*
X62363143Y-55972716D01*
X61205308Y-57668427D01*
X59923576Y-59272567D01*
X58525181Y-60776084D01*
X57017988Y-62170523D01*
X55410483Y-63448029D01*
X53802164Y-64540000D01*
X19460000Y-64540000D01*
X19460000Y-61914344D01*
X22915000Y-61914344D01*
X22915000Y-62285656D01*
X22987439Y-62649834D01*
X23129534Y-62992882D01*
X23335825Y-63301618D01*
X23598382Y-63564175D01*
X23907118Y-63770466D01*
X24250166Y-63912561D01*
X24614344Y-63985000D01*
X24985656Y-63985000D01*
X25349834Y-63912561D01*
X25692882Y-63770466D01*
X26001618Y-63564175D01*
X26264175Y-63301618D01*
X26470466Y-62992882D01*
X26612561Y-62649834D01*
X26685000Y-62285656D01*
X26685000Y-61914344D01*
X26612561Y-61550166D01*
X26470466Y-61207118D01*
X26264175Y-60898382D01*
X26001618Y-60635825D01*
X25692882Y-60429534D01*
X25349834Y-60287439D01*
X24985656Y-60215000D01*
X24614344Y-60215000D01*
X24250166Y-60287439D01*
X23907118Y-60429534D01*
X23598382Y-60635825D01*
X23335825Y-60898382D01*
X23129534Y-61207118D01*
X22987439Y-61550166D01*
X22915000Y-61914344D01*
X19460000Y-61914344D01*
X19460000Y-59550000D01*
X49111928Y-59550000D01*
X49111928Y-61250000D01*
X49124188Y-61374482D01*
X49160498Y-61494180D01*
X49219463Y-61604494D01*
X49298815Y-61701185D01*
X49395506Y-61780537D01*
X49505820Y-61839502D01*
X49625518Y-61875812D01*
X49750000Y-61888072D01*
X51450000Y-61888072D01*
X51574482Y-61875812D01*
X51694180Y-61839502D01*
X51804494Y-61780537D01*
X51901185Y-61701185D01*
X51980537Y-61604494D01*
X52039502Y-61494180D01*
X52075812Y-61374482D01*
X52088072Y-61250000D01*
X52088072Y-59914344D01*
X53915000Y-59914344D01*
X53915000Y-60285656D01*
X53987439Y-60649834D01*
X54129534Y-60992882D01*
X54335825Y-61301618D01*
X54598382Y-61564175D01*
X54907118Y-61770466D01*
X55250166Y-61912561D01*
X55614344Y-61985000D01*
X55985656Y-61985000D01*
X56349834Y-61912561D01*
X56692882Y-61770466D01*
X57001618Y-61564175D01*
X57264175Y-61301618D01*
X57470466Y-60992882D01*
X57612561Y-60649834D01*
X57685000Y-60285656D01*
X57685000Y-59914344D01*
X57612561Y-59550166D01*
X57470466Y-59207118D01*
X57264175Y-58898382D01*
X57001618Y-58635825D01*
X56692882Y-58429534D01*
X56349834Y-58287439D01*
X55985656Y-58215000D01*
X55614344Y-58215000D01*
X55250166Y-58287439D01*
X54907118Y-58429534D01*
X54598382Y-58635825D01*
X54335825Y-58898382D01*
X54129534Y-59207118D01*
X53987439Y-59550166D01*
X53915000Y-59914344D01*
X52088072Y-59914344D01*
X52088072Y-59550000D01*
X52075812Y-59425518D01*
X52039502Y-59305820D01*
X51980537Y-59195506D01*
X51901185Y-59098815D01*
X51804494Y-59019463D01*
X51694180Y-58960498D01*
X51613534Y-58936034D01*
X51697588Y-58860269D01*
X51871641Y-58626920D01*
X51996825Y-58364099D01*
X52041476Y-58216890D01*
X51920155Y-57987000D01*
X50727000Y-57987000D01*
X50727000Y-58007000D01*
X50473000Y-58007000D01*
X50473000Y-57987000D01*
X49279845Y-57987000D01*
X49158524Y-58216890D01*
X49203175Y-58364099D01*
X49328359Y-58626920D01*
X49502412Y-58860269D01*
X49586466Y-58936034D01*
X49505820Y-58960498D01*
X49395506Y-59019463D01*
X49298815Y-59098815D01*
X49219463Y-59195506D01*
X49160498Y-59305820D01*
X49124188Y-59425518D01*
X49111928Y-59550000D01*
X19460000Y-59550000D01*
X19460000Y-55350000D01*
X20736928Y-55350000D01*
X20736928Y-55850000D01*
X20753512Y-56018377D01*
X20802625Y-56180283D01*
X20882382Y-56329497D01*
X20989716Y-56460284D01*
X21056935Y-56515449D01*
X21085589Y-56569058D01*
X21196183Y-56703817D01*
X21229956Y-56731534D01*
X22293470Y-57795049D01*
X22321183Y-57828817D01*
X22354951Y-57856530D01*
X22354953Y-57856532D01*
X22423612Y-57912879D01*
X22455941Y-57939411D01*
X22609687Y-58021589D01*
X22776510Y-58072195D01*
X22906523Y-58085000D01*
X22906533Y-58085000D01*
X22949999Y-58089281D01*
X22993465Y-58085000D01*
X24715375Y-58085000D01*
X24724188Y-58174482D01*
X24760498Y-58294180D01*
X24819463Y-58404494D01*
X24898815Y-58501185D01*
X24995506Y-58580537D01*
X25105820Y-58639502D01*
X25225518Y-58675812D01*
X25350000Y-58688072D01*
X27050000Y-58688072D01*
X27174482Y-58675812D01*
X27294180Y-58639502D01*
X27404494Y-58580537D01*
X27501185Y-58501185D01*
X27580537Y-58404494D01*
X27639502Y-58294180D01*
X27663966Y-58213534D01*
X27739731Y-58297588D01*
X27973080Y-58471641D01*
X28235901Y-58596825D01*
X28383110Y-58641476D01*
X28613000Y-58520155D01*
X28613000Y-57327000D01*
X28867000Y-57327000D01*
X28867000Y-58520155D01*
X29096890Y-58641476D01*
X29244099Y-58596825D01*
X29506920Y-58471641D01*
X29740269Y-58297588D01*
X29935178Y-58081355D01*
X30084157Y-57831252D01*
X30181481Y-57556891D01*
X30060814Y-57327000D01*
X28867000Y-57327000D01*
X28613000Y-57327000D01*
X28593000Y-57327000D01*
X28593000Y-57073000D01*
X28613000Y-57073000D01*
X28613000Y-55879845D01*
X28867000Y-55879845D01*
X28867000Y-57073000D01*
X30060814Y-57073000D01*
X30181481Y-56843109D01*
X30084157Y-56568748D01*
X29935178Y-56318645D01*
X29740269Y-56102412D01*
X29506920Y-55928359D01*
X29244099Y-55803175D01*
X29096890Y-55758524D01*
X28867000Y-55879845D01*
X28613000Y-55879845D01*
X28383110Y-55758524D01*
X28235901Y-55803175D01*
X27973080Y-55928359D01*
X27739731Y-56102412D01*
X27663966Y-56186466D01*
X27639502Y-56105820D01*
X27580537Y-55995506D01*
X27501185Y-55898815D01*
X27404494Y-55819463D01*
X27294180Y-55760498D01*
X27174482Y-55724188D01*
X27050000Y-55711928D01*
X25350000Y-55711928D01*
X25225518Y-55724188D01*
X25105820Y-55760498D01*
X24995506Y-55819463D01*
X24898815Y-55898815D01*
X24819463Y-55995506D01*
X24760498Y-56105820D01*
X24738331Y-56178896D01*
X24669454Y-56307754D01*
X24667256Y-56315000D01*
X24415770Y-56315000D01*
X24450812Y-56199482D01*
X24463072Y-56075000D01*
X24460000Y-55885750D01*
X24301250Y-55727000D01*
X23502000Y-55727000D01*
X23502000Y-55747000D01*
X23248000Y-55747000D01*
X23248000Y-55727000D01*
X23228000Y-55727000D01*
X23228000Y-55473000D01*
X23248000Y-55473000D01*
X23248000Y-55453000D01*
X23502000Y-55453000D01*
X23502000Y-55473000D01*
X24301250Y-55473000D01*
X24460000Y-55314250D01*
X24463072Y-55125000D01*
X24457297Y-55066367D01*
X24476510Y-55072195D01*
X24606523Y-55085000D01*
X24606533Y-55085000D01*
X24649999Y-55089281D01*
X24693465Y-55085000D01*
X25082317Y-55085000D01*
X25119463Y-55154494D01*
X25198815Y-55251185D01*
X25295506Y-55330537D01*
X25405820Y-55389502D01*
X25525518Y-55425812D01*
X25650000Y-55438072D01*
X29550000Y-55438072D01*
X29674482Y-55425812D01*
X29794180Y-55389502D01*
X29904494Y-55330537D01*
X30001185Y-55251185D01*
X30080537Y-55154494D01*
X30139502Y-55044180D01*
X30175812Y-54924482D01*
X30188072Y-54800000D01*
X30188072Y-54693137D01*
X34815000Y-54693137D01*
X34815000Y-54906863D01*
X34856696Y-55116483D01*
X34938485Y-55313940D01*
X35057225Y-55491647D01*
X35208353Y-55642775D01*
X35386060Y-55761515D01*
X35583517Y-55843304D01*
X35793137Y-55885000D01*
X36006863Y-55885000D01*
X36216483Y-55843304D01*
X36413940Y-55761515D01*
X36591647Y-55642775D01*
X36742775Y-55491647D01*
X36861515Y-55313940D01*
X36943304Y-55116483D01*
X36985000Y-54906863D01*
X36985000Y-54693137D01*
X41815000Y-54693137D01*
X41815000Y-54906863D01*
X41856696Y-55116483D01*
X41938485Y-55313940D01*
X42057225Y-55491647D01*
X42208353Y-55642775D01*
X42386060Y-55761515D01*
X42583517Y-55843304D01*
X42793137Y-55885000D01*
X43006863Y-55885000D01*
X43216483Y-55843304D01*
X43413940Y-55761515D01*
X43591647Y-55642775D01*
X43742775Y-55491647D01*
X43861515Y-55313940D01*
X43943304Y-55116483D01*
X43985000Y-54906863D01*
X43985000Y-54693137D01*
X43943304Y-54483517D01*
X43861515Y-54286060D01*
X43742775Y-54108353D01*
X43591647Y-53957225D01*
X43413940Y-53838485D01*
X43216483Y-53756696D01*
X43006863Y-53715000D01*
X42793137Y-53715000D01*
X42583517Y-53756696D01*
X42386060Y-53838485D01*
X42208353Y-53957225D01*
X42057225Y-54108353D01*
X41938485Y-54286060D01*
X41856696Y-54483517D01*
X41815000Y-54693137D01*
X36985000Y-54693137D01*
X36943304Y-54483517D01*
X36861515Y-54286060D01*
X36742775Y-54108353D01*
X36591647Y-53957225D01*
X36413940Y-53838485D01*
X36216483Y-53756696D01*
X36006863Y-53715000D01*
X35793137Y-53715000D01*
X35583517Y-53756696D01*
X35386060Y-53838485D01*
X35208353Y-53957225D01*
X35057225Y-54108353D01*
X34938485Y-54286060D01*
X34856696Y-54483517D01*
X34815000Y-54693137D01*
X30188072Y-54693137D01*
X30188072Y-53600000D01*
X30175812Y-53475518D01*
X30139502Y-53355820D01*
X30080537Y-53245506D01*
X30001185Y-53148815D01*
X29904494Y-53069463D01*
X29794180Y-53010498D01*
X29674482Y-52974188D01*
X29550000Y-52961928D01*
X25650000Y-52961928D01*
X25525518Y-52974188D01*
X25405820Y-53010498D01*
X25295506Y-53069463D01*
X25198815Y-53148815D01*
X25119463Y-53245506D01*
X25082317Y-53315000D01*
X25016579Y-53315000D01*
X24913072Y-53211494D01*
X24913072Y-52970000D01*
X24900812Y-52845518D01*
X24864502Y-52725820D01*
X24805537Y-52615506D01*
X24726185Y-52518815D01*
X24629494Y-52439463D01*
X24555665Y-52400000D01*
X24629494Y-52360537D01*
X24726185Y-52281185D01*
X24805537Y-52184494D01*
X24864502Y-52074180D01*
X24900812Y-51954482D01*
X24913072Y-51830000D01*
X24913072Y-50770000D01*
X24900812Y-50645518D01*
X24864502Y-50525820D01*
X24805537Y-50415506D01*
X24726185Y-50318815D01*
X24629494Y-50239463D01*
X24519180Y-50180498D01*
X24399482Y-50144188D01*
X24275000Y-50131928D01*
X23625000Y-50131928D01*
X23500518Y-50144188D01*
X23380820Y-50180498D01*
X23270506Y-50239463D01*
X23173815Y-50318815D01*
X23094463Y-50415506D01*
X23035498Y-50525820D01*
X23000000Y-50642841D01*
X22964502Y-50525820D01*
X22905537Y-50415506D01*
X22826185Y-50318815D01*
X22810000Y-50305532D01*
X22810000Y-49689801D01*
X23958509Y-48541292D01*
X24032382Y-48679497D01*
X24139716Y-48810284D01*
X24270503Y-48917618D01*
X24419717Y-48997375D01*
X24581623Y-49046488D01*
X24750000Y-49063072D01*
X25250000Y-49063072D01*
X25418377Y-49046488D01*
X25580283Y-48997375D01*
X25729497Y-48917618D01*
X25860284Y-48810284D01*
X25881034Y-48785000D01*
X26305635Y-48785000D01*
X26332394Y-48817606D01*
X26459392Y-48921831D01*
X26604284Y-48999278D01*
X26715001Y-49032864D01*
X26715000Y-50161928D01*
X25650000Y-50161928D01*
X25525518Y-50174188D01*
X25405820Y-50210498D01*
X25295506Y-50269463D01*
X25198815Y-50348815D01*
X25119463Y-50445506D01*
X25060498Y-50555820D01*
X25024188Y-50675518D01*
X25011928Y-50800000D01*
X25011928Y-52000000D01*
X25024188Y-52124482D01*
X25060498Y-52244180D01*
X25119463Y-52354494D01*
X25198815Y-52451185D01*
X25295506Y-52530537D01*
X25405820Y-52589502D01*
X25525518Y-52625812D01*
X25650000Y-52638072D01*
X29550000Y-52638072D01*
X29674482Y-52625812D01*
X29794180Y-52589502D01*
X29904494Y-52530537D01*
X30001185Y-52451185D01*
X30080537Y-52354494D01*
X30139502Y-52244180D01*
X30175812Y-52124482D01*
X30188072Y-52000000D01*
X30188072Y-50800000D01*
X30175812Y-50675518D01*
X30139502Y-50555820D01*
X30080537Y-50445506D01*
X30001185Y-50348815D01*
X29904494Y-50269463D01*
X29794180Y-50210498D01*
X29674482Y-50174188D01*
X29550000Y-50161928D01*
X28485000Y-50161928D01*
X28485000Y-49530881D01*
X28545506Y-49580537D01*
X28655820Y-49639502D01*
X28775518Y-49675812D01*
X28900000Y-49688072D01*
X30700000Y-49688072D01*
X30824482Y-49675812D01*
X30944180Y-49639502D01*
X31054494Y-49580537D01*
X31151185Y-49501185D01*
X31230537Y-49404494D01*
X31289502Y-49294180D01*
X31325812Y-49174482D01*
X31338072Y-49050000D01*
X31338072Y-47336730D01*
X31913187Y-46761614D01*
X31920503Y-46767618D01*
X32069717Y-46847375D01*
X32231623Y-46896488D01*
X32400000Y-46913072D01*
X32850000Y-46913072D01*
X33018377Y-46896488D01*
X33180283Y-46847375D01*
X33326351Y-46769300D01*
X33370506Y-46805537D01*
X33480820Y-46864502D01*
X33600518Y-46900812D01*
X33725000Y-46913072D01*
X33889250Y-46910000D01*
X34048000Y-46751250D01*
X34048000Y-45927000D01*
X34302000Y-45927000D01*
X34302000Y-46751250D01*
X34460750Y-46910000D01*
X34625000Y-46913072D01*
X34749482Y-46900812D01*
X34869180Y-46864502D01*
X34979494Y-46805537D01*
X35076185Y-46726185D01*
X35155537Y-46629494D01*
X35214502Y-46519180D01*
X35250812Y-46399482D01*
X35263072Y-46275000D01*
X35260000Y-46085750D01*
X35101250Y-45927000D01*
X34302000Y-45927000D01*
X34048000Y-45927000D01*
X34028000Y-45927000D01*
X34028000Y-45673000D01*
X34048000Y-45673000D01*
X34048000Y-44848750D01*
X34302000Y-44848750D01*
X34302000Y-45673000D01*
X35101250Y-45673000D01*
X35260000Y-45514250D01*
X35263072Y-45325000D01*
X35250812Y-45200518D01*
X35214502Y-45080820D01*
X35155537Y-44970506D01*
X35076185Y-44873815D01*
X34979494Y-44794463D01*
X34869180Y-44735498D01*
X34749482Y-44699188D01*
X34625000Y-44686928D01*
X34460750Y-44690000D01*
X34302000Y-44848750D01*
X34048000Y-44848750D01*
X33889250Y-44690000D01*
X33725000Y-44686928D01*
X33600518Y-44699188D01*
X33591650Y-44701878D01*
X33630537Y-44654494D01*
X33689502Y-44544180D01*
X33725812Y-44424482D01*
X33738072Y-44300000D01*
X33738072Y-43300000D01*
X33725812Y-43175518D01*
X33689502Y-43055820D01*
X33630537Y-42945506D01*
X33551185Y-42848815D01*
X33454494Y-42769463D01*
X33344180Y-42710498D01*
X33224482Y-42674188D01*
X33100000Y-42661928D01*
X32100000Y-42661928D01*
X31975518Y-42674188D01*
X31855820Y-42710498D01*
X31745506Y-42769463D01*
X31648815Y-42848815D01*
X31594499Y-42915000D01*
X31338072Y-42915000D01*
X31338072Y-42550000D01*
X31325812Y-42425518D01*
X31289502Y-42305820D01*
X31230537Y-42195506D01*
X31151185Y-42098815D01*
X31054494Y-42019463D01*
X30944180Y-41960498D01*
X30824482Y-41924188D01*
X30700000Y-41911928D01*
X30637436Y-41911928D01*
X30621589Y-41859687D01*
X30539411Y-41705941D01*
X30428817Y-41571183D01*
X30294059Y-41460589D01*
X30140313Y-41378411D01*
X29973490Y-41327805D01*
X29800000Y-41310718D01*
X29626511Y-41327805D01*
X29459688Y-41378411D01*
X29305942Y-41460589D01*
X29171184Y-41571183D01*
X29060590Y-41705941D01*
X28978412Y-41859687D01*
X28962565Y-41911928D01*
X28900000Y-41911928D01*
X28775518Y-41924188D01*
X28655820Y-41960498D01*
X28545506Y-42019463D01*
X28448815Y-42098815D01*
X28369463Y-42195506D01*
X28310498Y-42305820D01*
X28274188Y-42425518D01*
X28261928Y-42550000D01*
X28261928Y-42695985D01*
X28249278Y-42654284D01*
X28171831Y-42509392D01*
X28067606Y-42382394D01*
X27960000Y-42294084D01*
X27960000Y-41939801D01*
X28836730Y-41063072D01*
X29075000Y-41063072D01*
X29238500Y-41046969D01*
X29395716Y-40999278D01*
X29540608Y-40921831D01*
X29667606Y-40817606D01*
X29771831Y-40690608D01*
X29849278Y-40545716D01*
X29896969Y-40388500D01*
X29913072Y-40225000D01*
X29913072Y-39825000D01*
X29896969Y-39661500D01*
X29849278Y-39504284D01*
X29771831Y-39359392D01*
X29667606Y-39232394D01*
X29628134Y-39200000D01*
X29667606Y-39167606D01*
X29771831Y-39040608D01*
X29849278Y-38895716D01*
X29896969Y-38738500D01*
X29913072Y-38575000D01*
X29913072Y-38175000D01*
X29896969Y-38011500D01*
X29849278Y-37854284D01*
X29771831Y-37709392D01*
X29667606Y-37582394D01*
X29540608Y-37478169D01*
X29395716Y-37400722D01*
X29238500Y-37353031D01*
X29075000Y-37336928D01*
X28525000Y-37336928D01*
X28361500Y-37353031D01*
X28204284Y-37400722D01*
X28059392Y-37478169D01*
X27932394Y-37582394D01*
X27905635Y-37615000D01*
X27694365Y-37615000D01*
X27667606Y-37582394D01*
X27540608Y-37478169D01*
X27395716Y-37400722D01*
X27238500Y-37353031D01*
X27075000Y-37336928D01*
X26525000Y-37336928D01*
X26361500Y-37353031D01*
X26204284Y-37400722D01*
X26059392Y-37478169D01*
X25932394Y-37582394D01*
X25828169Y-37709392D01*
X25750722Y-37854284D01*
X25703031Y-38011500D01*
X25686928Y-38175000D01*
X25686928Y-38575000D01*
X25703031Y-38738500D01*
X25750722Y-38895716D01*
X25828169Y-39040608D01*
X25911863Y-39142590D01*
X25873815Y-39173815D01*
X25794463Y-39270506D01*
X25735498Y-39380820D01*
X25699188Y-39500518D01*
X25686928Y-39625000D01*
X25690000Y-39739250D01*
X25848750Y-39898000D01*
X26673000Y-39898000D01*
X26673000Y-39878000D01*
X26927000Y-39878000D01*
X26927000Y-39898000D01*
X26947000Y-39898000D01*
X26947000Y-40152000D01*
X26927000Y-40152000D01*
X26927000Y-40172000D01*
X26673000Y-40172000D01*
X26673000Y-40152000D01*
X25848750Y-40152000D01*
X25690000Y-40310750D01*
X25686928Y-40425000D01*
X25699188Y-40549482D01*
X25735498Y-40669180D01*
X25794463Y-40779494D01*
X25873815Y-40876185D01*
X25970506Y-40955537D01*
X26080820Y-41014502D01*
X26200518Y-41050812D01*
X26325000Y-41063072D01*
X26514250Y-41060000D01*
X26672998Y-40901252D01*
X26672998Y-41060000D01*
X26690199Y-41060000D01*
X26688998Y-41061201D01*
X26660000Y-41084999D01*
X26636202Y-41113997D01*
X26636201Y-41113998D01*
X26565026Y-41200724D01*
X26494454Y-41332754D01*
X26480605Y-41378411D01*
X26458890Y-41449999D01*
X26450998Y-41476015D01*
X26436324Y-41625000D01*
X26440001Y-41662332D01*
X26440001Y-42294083D01*
X26332394Y-42382394D01*
X26228169Y-42509392D01*
X26150722Y-42654284D01*
X26103031Y-42811500D01*
X26086928Y-42975000D01*
X26086928Y-43213270D01*
X24488998Y-44811201D01*
X24460000Y-44834999D01*
X24436202Y-44863997D01*
X24436201Y-44863998D01*
X24365026Y-44950724D01*
X24294454Y-45082754D01*
X24267357Y-45172084D01*
X24252341Y-45221589D01*
X24250998Y-45226015D01*
X24236324Y-45375000D01*
X24240001Y-45412332D01*
X24240001Y-45507414D01*
X24139716Y-45589716D01*
X24032382Y-45720503D01*
X23952625Y-45869717D01*
X23903512Y-46031623D01*
X23886928Y-46200000D01*
X23886928Y-46463270D01*
X21538998Y-48811201D01*
X21510000Y-48834999D01*
X21486202Y-48863997D01*
X21486201Y-48863998D01*
X21415026Y-48950724D01*
X21344454Y-49082754D01*
X21322690Y-49154504D01*
X21300998Y-49226014D01*
X21296535Y-49271323D01*
X21286324Y-49375000D01*
X21290001Y-49412332D01*
X21290001Y-50305532D01*
X21273815Y-50318815D01*
X21194463Y-50415506D01*
X21135498Y-50525820D01*
X21099188Y-50645518D01*
X21086928Y-50770000D01*
X21086928Y-51830000D01*
X21099188Y-51954482D01*
X21135498Y-52074180D01*
X21194463Y-52184494D01*
X21207111Y-52199905D01*
X21177805Y-52296510D01*
X21160719Y-52470000D01*
X21165001Y-52513478D01*
X21165001Y-52670625D01*
X21135498Y-52725820D01*
X21099188Y-52845518D01*
X21086928Y-52970000D01*
X21086928Y-54030000D01*
X21099188Y-54154482D01*
X21135498Y-54274180D01*
X21165000Y-54329374D01*
X21165001Y-54608597D01*
X21120503Y-54632382D01*
X20989716Y-54739716D01*
X20882382Y-54870503D01*
X20802625Y-55019717D01*
X20753512Y-55181623D01*
X20736928Y-55350000D01*
X19460000Y-55350000D01*
X19460000Y-46660000D01*
X21767581Y-46660000D01*
X21800000Y-46663193D01*
X21832419Y-46660000D01*
X21929383Y-46650450D01*
X22053793Y-46612710D01*
X22168450Y-46551425D01*
X22268948Y-46468948D01*
X22351425Y-46368450D01*
X22412710Y-46253793D01*
X22450450Y-46129383D01*
X22463193Y-46000000D01*
X22460000Y-45967581D01*
X22460000Y-35623439D01*
X24915000Y-35623439D01*
X24915000Y-35876561D01*
X24964381Y-36124821D01*
X25061247Y-36358676D01*
X25201875Y-36569140D01*
X25380860Y-36748125D01*
X25591324Y-36888753D01*
X25825179Y-36985619D01*
X26073439Y-37035000D01*
X26326561Y-37035000D01*
X26574821Y-36985619D01*
X26808676Y-36888753D01*
X27019140Y-36748125D01*
X27198125Y-36569140D01*
X27338753Y-36358676D01*
X27435619Y-36124821D01*
X27441921Y-36093137D01*
X34715000Y-36093137D01*
X34715000Y-36306863D01*
X34756696Y-36516483D01*
X34838485Y-36713940D01*
X34957225Y-36891647D01*
X35108353Y-37042775D01*
X35286060Y-37161515D01*
X35483517Y-37243304D01*
X35693137Y-37285000D01*
X35906863Y-37285000D01*
X36116483Y-37243304D01*
X36313940Y-37161515D01*
X36491647Y-37042775D01*
X36642775Y-36891647D01*
X36761515Y-36713940D01*
X36843304Y-36516483D01*
X36885000Y-36306863D01*
X36885000Y-36093137D01*
X41715000Y-36093137D01*
X41715000Y-36306863D01*
X41756696Y-36516483D01*
X41838485Y-36713940D01*
X41957225Y-36891647D01*
X42108353Y-37042775D01*
X42286060Y-37161515D01*
X42483517Y-37243304D01*
X42693137Y-37285000D01*
X42906863Y-37285000D01*
X43116483Y-37243304D01*
X43313940Y-37161515D01*
X43491647Y-37042775D01*
X43642775Y-36891647D01*
X43761515Y-36713940D01*
X43843304Y-36516483D01*
X43885000Y-36306863D01*
X43885000Y-36093137D01*
X43843304Y-35883517D01*
X43761515Y-35686060D01*
X43642775Y-35508353D01*
X43491647Y-35357225D01*
X43313940Y-35238485D01*
X43116483Y-35156696D01*
X42906863Y-35115000D01*
X42693137Y-35115000D01*
X42483517Y-35156696D01*
X42286060Y-35238485D01*
X42108353Y-35357225D01*
X41957225Y-35508353D01*
X41838485Y-35686060D01*
X41756696Y-35883517D01*
X41715000Y-36093137D01*
X36885000Y-36093137D01*
X36843304Y-35883517D01*
X36761515Y-35686060D01*
X36642775Y-35508353D01*
X36491647Y-35357225D01*
X36313940Y-35238485D01*
X36116483Y-35156696D01*
X35906863Y-35115000D01*
X35693137Y-35115000D01*
X35483517Y-35156696D01*
X35286060Y-35238485D01*
X35108353Y-35357225D01*
X34957225Y-35508353D01*
X34838485Y-35686060D01*
X34756696Y-35883517D01*
X34715000Y-36093137D01*
X27441921Y-36093137D01*
X27485000Y-35876561D01*
X27485000Y-35623439D01*
X27435619Y-35375179D01*
X27338753Y-35141324D01*
X27198125Y-34930860D01*
X27019140Y-34751875D01*
X26808676Y-34611247D01*
X26574821Y-34514381D01*
X26326561Y-34465000D01*
X26073439Y-34465000D01*
X25825179Y-34514381D01*
X25591324Y-34611247D01*
X25380860Y-34751875D01*
X25201875Y-34930860D01*
X25061247Y-35141324D01*
X24964381Y-35375179D01*
X24915000Y-35623439D01*
X22460000Y-35623439D01*
X22460000Y-33499933D01*
X23934000Y-33499933D01*
X23934000Y-33700067D01*
X23973044Y-33896356D01*
X24049632Y-34081256D01*
X24160821Y-34247662D01*
X24302338Y-34389179D01*
X24468744Y-34500368D01*
X24653644Y-34576956D01*
X24849933Y-34616000D01*
X25050067Y-34616000D01*
X25246356Y-34576956D01*
X25431256Y-34500368D01*
X25597662Y-34389179D01*
X25739179Y-34247662D01*
X25850368Y-34081256D01*
X25926956Y-33896356D01*
X25966000Y-33700067D01*
X25966000Y-33499933D01*
X26434000Y-33499933D01*
X26434000Y-33700067D01*
X26473044Y-33896356D01*
X26549632Y-34081256D01*
X26660821Y-34247662D01*
X26802338Y-34389179D01*
X26968744Y-34500368D01*
X27153644Y-34576956D01*
X27349933Y-34616000D01*
X27550067Y-34616000D01*
X27746356Y-34576956D01*
X27931256Y-34500368D01*
X28097662Y-34389179D01*
X28239179Y-34247662D01*
X28350368Y-34081256D01*
X28426956Y-33896356D01*
X28466000Y-33700067D01*
X28466000Y-33499933D01*
X28426956Y-33303644D01*
X28350368Y-33118744D01*
X28239179Y-32952338D01*
X28097662Y-32810821D01*
X27931256Y-32699632D01*
X27746356Y-32623044D01*
X27551054Y-32584196D01*
X27737314Y-32547147D01*
X27916572Y-32472896D01*
X28077901Y-32365099D01*
X28215099Y-32227901D01*
X28322896Y-32066572D01*
X28397147Y-31887314D01*
X28435000Y-31697014D01*
X28435000Y-31502986D01*
X28397147Y-31312686D01*
X28322896Y-31133428D01*
X28215099Y-30972099D01*
X28077901Y-30834901D01*
X27916572Y-30727104D01*
X27737314Y-30652853D01*
X27547014Y-30615000D01*
X27352986Y-30615000D01*
X27162686Y-30652853D01*
X26983428Y-30727104D01*
X26822099Y-30834901D01*
X26684901Y-30972099D01*
X26577104Y-31133428D01*
X26502853Y-31312686D01*
X26465000Y-31502986D01*
X26465000Y-31697014D01*
X26502853Y-31887314D01*
X26577104Y-32066572D01*
X26684901Y-32227901D01*
X26822099Y-32365099D01*
X26983428Y-32472896D01*
X27162686Y-32547147D01*
X27348946Y-32584196D01*
X27153644Y-32623044D01*
X26968744Y-32699632D01*
X26802338Y-32810821D01*
X26660821Y-32952338D01*
X26549632Y-33118744D01*
X26473044Y-33303644D01*
X26434000Y-33499933D01*
X25966000Y-33499933D01*
X25926956Y-33303644D01*
X25850368Y-33118744D01*
X25739179Y-32952338D01*
X25597662Y-32810821D01*
X25431256Y-32699632D01*
X25246356Y-32623044D01*
X25051054Y-32584196D01*
X25237314Y-32547147D01*
X25416572Y-32472896D01*
X25577901Y-32365099D01*
X25715099Y-32227901D01*
X25822896Y-32066572D01*
X25897147Y-31887314D01*
X25935000Y-31697014D01*
X25935000Y-31502986D01*
X25897147Y-31312686D01*
X25822896Y-31133428D01*
X25715099Y-30972099D01*
X25577901Y-30834901D01*
X25416572Y-30727104D01*
X25237314Y-30652853D01*
X25047014Y-30615000D01*
X24852986Y-30615000D01*
X24662686Y-30652853D01*
X24483428Y-30727104D01*
X24322099Y-30834901D01*
X24184901Y-30972099D01*
X24077104Y-31133428D01*
X24002853Y-31312686D01*
X23965000Y-31502986D01*
X23965000Y-31697014D01*
X24002853Y-31887314D01*
X24077104Y-32066572D01*
X24184901Y-32227901D01*
X24322099Y-32365099D01*
X24483428Y-32472896D01*
X24662686Y-32547147D01*
X24848946Y-32584196D01*
X24653644Y-32623044D01*
X24468744Y-32699632D01*
X24302338Y-32810821D01*
X24160821Y-32952338D01*
X24049632Y-33118744D01*
X23973044Y-33303644D01*
X23934000Y-33499933D01*
X22460000Y-33499933D01*
X22460000Y-29502986D01*
X23965000Y-29502986D01*
X23965000Y-29697014D01*
X24002853Y-29887314D01*
X24077104Y-30066572D01*
X24184901Y-30227901D01*
X24322099Y-30365099D01*
X24483428Y-30472896D01*
X24662686Y-30547147D01*
X24852986Y-30585000D01*
X25047014Y-30585000D01*
X25237314Y-30547147D01*
X25416572Y-30472896D01*
X25577901Y-30365099D01*
X25715099Y-30227901D01*
X25822896Y-30066572D01*
X25897147Y-29887314D01*
X25935000Y-29697014D01*
X25935000Y-29502986D01*
X26465000Y-29502986D01*
X26465000Y-29697014D01*
X26502853Y-29887314D01*
X26577104Y-30066572D01*
X26684901Y-30227901D01*
X26822099Y-30365099D01*
X26983428Y-30472896D01*
X27162686Y-30547147D01*
X27352986Y-30585000D01*
X27547014Y-30585000D01*
X27737314Y-30547147D01*
X27916572Y-30472896D01*
X28077901Y-30365099D01*
X28215099Y-30227901D01*
X28322896Y-30066572D01*
X28397147Y-29887314D01*
X28435000Y-29697014D01*
X28435000Y-29502986D01*
X28397147Y-29312686D01*
X28322896Y-29133428D01*
X28215099Y-28972099D01*
X28077901Y-28834901D01*
X27916572Y-28727104D01*
X27737314Y-28652853D01*
X27547014Y-28615000D01*
X27352986Y-28615000D01*
X27162686Y-28652853D01*
X26983428Y-28727104D01*
X26822099Y-28834901D01*
X26684901Y-28972099D01*
X26577104Y-29133428D01*
X26502853Y-29312686D01*
X26465000Y-29502986D01*
X25935000Y-29502986D01*
X25897147Y-29312686D01*
X25822896Y-29133428D01*
X25715099Y-28972099D01*
X25577901Y-28834901D01*
X25416572Y-28727104D01*
X25237314Y-28652853D01*
X25047014Y-28615000D01*
X24852986Y-28615000D01*
X24662686Y-28652853D01*
X24483428Y-28727104D01*
X24322099Y-28834901D01*
X24184901Y-28972099D01*
X24077104Y-29133428D01*
X24002853Y-29312686D01*
X23965000Y-29502986D01*
X22460000Y-29502986D01*
X22460000Y-25499933D01*
X23934000Y-25499933D01*
X23934000Y-25700067D01*
X23973044Y-25896356D01*
X24049632Y-26081256D01*
X24160821Y-26247662D01*
X24302338Y-26389179D01*
X24468744Y-26500368D01*
X24653644Y-26576956D01*
X24849933Y-26616000D01*
X25050067Y-26616000D01*
X25246356Y-26576956D01*
X25431256Y-26500368D01*
X25597662Y-26389179D01*
X25739179Y-26247662D01*
X25850368Y-26081256D01*
X25926956Y-25896356D01*
X25966000Y-25700067D01*
X25966000Y-25502986D01*
X26465000Y-25502986D01*
X26465000Y-25697014D01*
X26502853Y-25887314D01*
X26577104Y-26066572D01*
X26684901Y-26227901D01*
X26822099Y-26365099D01*
X26983428Y-26472896D01*
X27162686Y-26547147D01*
X27352986Y-26585000D01*
X27547014Y-26585000D01*
X27737314Y-26547147D01*
X27916572Y-26472896D01*
X28077901Y-26365099D01*
X28215099Y-26227901D01*
X28322896Y-26066572D01*
X28397147Y-25887314D01*
X28435000Y-25697014D01*
X28435000Y-25502986D01*
X28397147Y-25312686D01*
X28322896Y-25133428D01*
X28215099Y-24972099D01*
X28077901Y-24834901D01*
X27916572Y-24727104D01*
X27737314Y-24652853D01*
X27547014Y-24615000D01*
X27352986Y-24615000D01*
X27162686Y-24652853D01*
X26983428Y-24727104D01*
X26822099Y-24834901D01*
X26684901Y-24972099D01*
X26577104Y-25133428D01*
X26502853Y-25312686D01*
X26465000Y-25502986D01*
X25966000Y-25502986D01*
X25966000Y-25499933D01*
X25926956Y-25303644D01*
X25850368Y-25118744D01*
X25739179Y-24952338D01*
X25597662Y-24810821D01*
X25431256Y-24699632D01*
X25246356Y-24623044D01*
X25050067Y-24584000D01*
X24849933Y-24584000D01*
X24653644Y-24623044D01*
X24468744Y-24699632D01*
X24302338Y-24810821D01*
X24160821Y-24952338D01*
X24049632Y-25118744D01*
X23973044Y-25303644D01*
X23934000Y-25499933D01*
X22460000Y-25499933D01*
X22460000Y-20414344D01*
X22915000Y-20414344D01*
X22915000Y-20785656D01*
X22987439Y-21149834D01*
X23129534Y-21492882D01*
X23335825Y-21801618D01*
X23598382Y-22064175D01*
X23907118Y-22270466D01*
X24250166Y-22412561D01*
X24614344Y-22485000D01*
X24985656Y-22485000D01*
X25349834Y-22412561D01*
X25586262Y-22314630D01*
X25380860Y-22451875D01*
X25201875Y-22630860D01*
X25061247Y-22841324D01*
X24964381Y-23075179D01*
X24915000Y-23323439D01*
X24915000Y-23576561D01*
X24964381Y-23824821D01*
X25061247Y-24058676D01*
X25201875Y-24269140D01*
X25380860Y-24448125D01*
X25591324Y-24588753D01*
X25825179Y-24685619D01*
X26073439Y-24735000D01*
X26326561Y-24735000D01*
X26574821Y-24685619D01*
X26808676Y-24588753D01*
X27019140Y-24448125D01*
X27198125Y-24269140D01*
X27338753Y-24058676D01*
X27435619Y-23824821D01*
X27485000Y-23576561D01*
X27485000Y-23323439D01*
X27435619Y-23075179D01*
X27338753Y-22841324D01*
X27198125Y-22630860D01*
X27019140Y-22451875D01*
X26808676Y-22311247D01*
X26574821Y-22214381D01*
X26326561Y-22165000D01*
X26073439Y-22165000D01*
X25825179Y-22214381D01*
X25697945Y-22267083D01*
X26001618Y-22064175D01*
X26264175Y-21801618D01*
X26415596Y-21575000D01*
X30086928Y-21575000D01*
X30090000Y-21739250D01*
X30248750Y-21898000D01*
X31073000Y-21898000D01*
X31073000Y-21098750D01*
X31327000Y-21098750D01*
X31327000Y-21898000D01*
X32151250Y-21898000D01*
X32310000Y-21739250D01*
X32313072Y-21575000D01*
X32300812Y-21450518D01*
X32264502Y-21330820D01*
X32205537Y-21220506D01*
X32126185Y-21123815D01*
X32029494Y-21044463D01*
X31919180Y-20985498D01*
X31799482Y-20949188D01*
X31675000Y-20936928D01*
X31485750Y-20940000D01*
X31327000Y-21098750D01*
X31073000Y-21098750D01*
X30914250Y-20940000D01*
X30725000Y-20936928D01*
X30600518Y-20949188D01*
X30480820Y-20985498D01*
X30370506Y-21044463D01*
X30273815Y-21123815D01*
X30194463Y-21220506D01*
X30135498Y-21330820D01*
X30099188Y-21450518D01*
X30086928Y-21575000D01*
X26415596Y-21575000D01*
X26470466Y-21492882D01*
X26612561Y-21149834D01*
X26685000Y-20785656D01*
X26685000Y-20414344D01*
X26612561Y-20050166D01*
X26470466Y-19707118D01*
X26264175Y-19398382D01*
X26001618Y-19135825D01*
X25692882Y-18929534D01*
X25349834Y-18787439D01*
X24985656Y-18715000D01*
X24614344Y-18715000D01*
X24250166Y-18787439D01*
X23907118Y-18929534D01*
X23598382Y-19135825D01*
X23335825Y-19398382D01*
X23129534Y-19707118D01*
X22987439Y-20050166D01*
X22915000Y-20414344D01*
X22460000Y-20414344D01*
X22460000Y-18260000D01*
X53798059Y-18260000D01*
X55352996Y-19309821D01*
%TA.AperFunction,Conductor*%
D23*
G36*
X55352996Y-19309821D02*
G01*
X56963819Y-20583131D01*
X58474630Y-21973629D01*
X59876941Y-23473501D01*
X60497099Y-24245520D01*
X59456534Y-23204956D01*
X59428817Y-23171183D01*
X59294059Y-23060589D01*
X59140313Y-22978411D01*
X58973490Y-22927805D01*
X58843477Y-22915000D01*
X58843469Y-22915000D01*
X58800000Y-22910719D01*
X58756531Y-22915000D01*
X58549770Y-22915000D01*
X58452962Y-22797038D01*
X58318386Y-22686595D01*
X58164850Y-22604528D01*
X57998254Y-22553992D01*
X57825000Y-22536928D01*
X57188507Y-22536928D01*
X56456534Y-21804956D01*
X56428817Y-21771183D01*
X56294059Y-21660589D01*
X56140313Y-21578411D01*
X55973490Y-21527805D01*
X55843477Y-21515000D01*
X55843469Y-21515000D01*
X55800000Y-21510719D01*
X55756531Y-21515000D01*
X49996411Y-21515000D01*
X49890608Y-21428169D01*
X49745716Y-21350722D01*
X49588500Y-21303031D01*
X49425000Y-21286928D01*
X49025000Y-21286928D01*
X48861500Y-21303031D01*
X48704284Y-21350722D01*
X48559392Y-21428169D01*
X48432394Y-21532394D01*
X48400000Y-21571866D01*
X48367606Y-21532394D01*
X48240608Y-21428169D01*
X48095716Y-21350722D01*
X47938500Y-21303031D01*
X47775000Y-21286928D01*
X47713506Y-21286928D01*
X47631534Y-21204956D01*
X47603817Y-21171183D01*
X47469059Y-21060589D01*
X47315313Y-20978411D01*
X47148490Y-20927805D01*
X47018477Y-20915000D01*
X47018469Y-20915000D01*
X46975000Y-20910719D01*
X46931531Y-20915000D01*
X37243465Y-20915000D01*
X37199999Y-20910719D01*
X37156533Y-20915000D01*
X37156523Y-20915000D01*
X37026510Y-20927805D01*
X36859687Y-20978411D01*
X36705941Y-21060589D01*
X36705939Y-21060590D01*
X36705940Y-21060590D01*
X36604953Y-21143468D01*
X36604951Y-21143470D01*
X36571183Y-21171183D01*
X36543470Y-21204951D01*
X35386494Y-22361928D01*
X33450000Y-22361928D01*
X33325518Y-22374188D01*
X33205820Y-22410498D01*
X33095506Y-22469463D01*
X32998815Y-22548815D01*
X32919463Y-22645506D01*
X32880972Y-22717517D01*
X32776510Y-22727805D01*
X32609687Y-22778411D01*
X32455941Y-22860589D01*
X32455939Y-22860590D01*
X32455940Y-22860590D01*
X32354953Y-22943468D01*
X32354951Y-22943470D01*
X32321183Y-22971183D01*
X32293470Y-23004951D01*
X32254667Y-23043754D01*
X32247375Y-23019717D01*
X32169300Y-22873649D01*
X32205537Y-22829494D01*
X32264502Y-22719180D01*
X32300812Y-22599482D01*
X32313072Y-22475000D01*
X32310000Y-22310750D01*
X32151250Y-22152000D01*
X31327000Y-22152000D01*
X31327000Y-22172000D01*
X31073000Y-22172000D01*
X31073000Y-22152000D01*
X30248750Y-22152000D01*
X30090000Y-22310750D01*
X30086928Y-22475000D01*
X30099188Y-22599482D01*
X30135498Y-22719180D01*
X30194463Y-22829494D01*
X30230700Y-22873649D01*
X30152625Y-23019717D01*
X30103512Y-23181623D01*
X30086928Y-23350000D01*
X30086928Y-23800000D01*
X30103512Y-23968377D01*
X30152625Y-24130283D01*
X30232382Y-24279497D01*
X30312922Y-24377635D01*
X30310719Y-24400000D01*
X30315000Y-24443469D01*
X30315000Y-24443477D01*
X30319090Y-24485000D01*
X30327805Y-24573490D01*
X30378412Y-24740313D01*
X30460590Y-24894059D01*
X30527927Y-24976109D01*
X30527805Y-24976510D01*
X30510719Y-25150000D01*
X30515001Y-25193479D01*
X30515000Y-28194498D01*
X30448815Y-28248815D01*
X30369463Y-28345506D01*
X30310498Y-28455820D01*
X30274188Y-28575518D01*
X30261928Y-28700000D01*
X30261928Y-29700000D01*
X30274188Y-29824482D01*
X30310498Y-29944180D01*
X30369463Y-30054494D01*
X30448815Y-30151185D01*
X30545506Y-30230537D01*
X30655820Y-30289502D01*
X30775518Y-30325812D01*
X30900000Y-30338072D01*
X31900000Y-30338072D01*
X32024482Y-30325812D01*
X32144180Y-30289502D01*
X32254494Y-30230537D01*
X32351185Y-30151185D01*
X32430537Y-30054494D01*
X32489502Y-29944180D01*
X32525812Y-29824482D01*
X32538072Y-29700000D01*
X32538072Y-28700000D01*
X32525812Y-28575518D01*
X32489502Y-28455820D01*
X32430537Y-28345506D01*
X32351185Y-28248815D01*
X32285000Y-28194499D01*
X32285000Y-25519260D01*
X32303817Y-25503817D01*
X32331532Y-25470046D01*
X33082069Y-24719510D01*
X33095506Y-24730537D01*
X33205820Y-24789502D01*
X33325518Y-24825812D01*
X33450000Y-24838072D01*
X37350000Y-24838072D01*
X37474482Y-24825812D01*
X37594180Y-24789502D01*
X37704494Y-24730537D01*
X37801185Y-24651185D01*
X37880537Y-24554494D01*
X37939502Y-24444180D01*
X37975812Y-24324482D01*
X37988072Y-24200000D01*
X37988072Y-23000000D01*
X37975812Y-22875518D01*
X37939502Y-22755820D01*
X37901647Y-22685000D01*
X39109636Y-22685000D01*
X39039463Y-22770506D01*
X38980498Y-22880820D01*
X38944188Y-23000518D01*
X38931928Y-23125000D01*
X38935000Y-23164250D01*
X39093750Y-23323000D01*
X39973000Y-23323000D01*
X39973000Y-23303000D01*
X40227000Y-23303000D01*
X40227000Y-23323000D01*
X40247000Y-23323000D01*
X40247000Y-23577000D01*
X40227000Y-23577000D01*
X40227000Y-23597000D01*
X39973000Y-23597000D01*
X39973000Y-23577000D01*
X39093750Y-23577000D01*
X38935000Y-23735750D01*
X38931928Y-23775000D01*
X38944188Y-23899482D01*
X38980498Y-24019180D01*
X39039463Y-24129494D01*
X39118815Y-24226185D01*
X39215506Y-24305537D01*
X39325820Y-24364502D01*
X39442841Y-24400000D01*
X39325820Y-24435498D01*
X39215506Y-24494463D01*
X39118815Y-24573815D01*
X39039463Y-24670506D01*
X38980498Y-24780820D01*
X38944188Y-24900518D01*
X38931928Y-25025000D01*
X38931928Y-25266494D01*
X38683422Y-25515000D01*
X37917683Y-25515000D01*
X37880537Y-25445506D01*
X37801185Y-25348815D01*
X37704494Y-25269463D01*
X37594180Y-25210498D01*
X37474482Y-25174188D01*
X37350000Y-25161928D01*
X33450000Y-25161928D01*
X33325518Y-25174188D01*
X33205820Y-25210498D01*
X33095506Y-25269463D01*
X32998815Y-25348815D01*
X32919463Y-25445506D01*
X32860498Y-25555820D01*
X32824188Y-25675518D01*
X32811928Y-25800000D01*
X32811928Y-27000000D01*
X32824188Y-27124482D01*
X32860498Y-27244180D01*
X32919463Y-27354494D01*
X32998815Y-27451185D01*
X33095506Y-27530537D01*
X33205820Y-27589502D01*
X33325518Y-27625812D01*
X33450000Y-27638072D01*
X37350000Y-27638072D01*
X37474482Y-27625812D01*
X37594180Y-27589502D01*
X37704494Y-27530537D01*
X37801185Y-27451185D01*
X37880537Y-27354494D01*
X37917683Y-27285000D01*
X39006531Y-27285000D01*
X39050000Y-27289281D01*
X39093469Y-27285000D01*
X39093477Y-27285000D01*
X39223490Y-27272195D01*
X39390313Y-27221589D01*
X39544059Y-27139411D01*
X39678817Y-27028817D01*
X39706534Y-26995044D01*
X40188389Y-26513190D01*
X41586201Y-27911003D01*
X41609999Y-27940001D01*
X41725724Y-28034974D01*
X41857753Y-28105546D01*
X42001014Y-28149003D01*
X42112667Y-28160000D01*
X42112677Y-28160000D01*
X42150000Y-28163676D01*
X42187323Y-28160000D01*
X44111928Y-28160000D01*
X44111928Y-28300000D01*
X44124188Y-28424482D01*
X44160498Y-28544180D01*
X44219463Y-28654494D01*
X44298815Y-28751185D01*
X44395506Y-28830537D01*
X44505820Y-28889502D01*
X44625518Y-28925812D01*
X44750000Y-28938072D01*
X47250000Y-28938072D01*
X47374482Y-28925812D01*
X47494180Y-28889502D01*
X47604494Y-28830537D01*
X47701185Y-28751185D01*
X47780537Y-28654494D01*
X47839502Y-28544180D01*
X47875812Y-28424482D01*
X47888072Y-28300000D01*
X47888072Y-26539650D01*
X48111928Y-26763506D01*
X48111928Y-28300000D01*
X48124188Y-28424482D01*
X48160498Y-28544180D01*
X48219463Y-28654494D01*
X48298815Y-28751185D01*
X48395506Y-28830537D01*
X48505820Y-28889502D01*
X48625518Y-28925812D01*
X48750000Y-28938072D01*
X49115000Y-28938072D01*
X49115001Y-30649182D01*
X44804956Y-34959228D01*
X44771183Y-34986945D01*
X44660589Y-35121704D01*
X44578411Y-35275450D01*
X44548158Y-35375179D01*
X44527886Y-35442007D01*
X44527805Y-35442273D01*
X44515000Y-35572286D01*
X44515000Y-35572293D01*
X44510719Y-35615762D01*
X44515000Y-35659231D01*
X44515001Y-47536521D01*
X44510719Y-47580000D01*
X44527805Y-47753490D01*
X44578412Y-47920313D01*
X44660590Y-48074059D01*
X44743468Y-48175046D01*
X44743471Y-48175049D01*
X44771184Y-48208817D01*
X44804952Y-48236530D01*
X49129461Y-52561040D01*
X49115000Y-52633740D01*
X49115000Y-52926260D01*
X49172068Y-53213158D01*
X49284010Y-53483411D01*
X49446525Y-53726632D01*
X49653368Y-53933475D01*
X49827760Y-54050000D01*
X49653368Y-54166525D01*
X49446525Y-54373368D01*
X49284010Y-54616589D01*
X49172068Y-54886842D01*
X49115000Y-55173740D01*
X49115000Y-55466260D01*
X49172068Y-55753158D01*
X49284010Y-56023411D01*
X49446525Y-56266632D01*
X49653368Y-56473475D01*
X49835534Y-56595195D01*
X49718645Y-56664822D01*
X49502412Y-56859731D01*
X49328359Y-57093080D01*
X49203175Y-57355901D01*
X49158524Y-57503110D01*
X49279845Y-57733000D01*
X50473000Y-57733000D01*
X50473000Y-57713000D01*
X50727000Y-57713000D01*
X50727000Y-57733000D01*
X51920155Y-57733000D01*
X52041476Y-57503110D01*
X51996825Y-57355901D01*
X51871641Y-57093080D01*
X51697588Y-56859731D01*
X51481355Y-56664822D01*
X51364466Y-56595195D01*
X51546632Y-56473475D01*
X51753475Y-56266632D01*
X51875986Y-56083281D01*
X51880000Y-56083676D01*
X51917322Y-56080000D01*
X51917333Y-56080000D01*
X52028986Y-56069003D01*
X52172247Y-56025546D01*
X52304276Y-55954974D01*
X52420001Y-55860001D01*
X52443803Y-55830998D01*
X53111004Y-55163798D01*
X53140001Y-55140001D01*
X53234974Y-55024276D01*
X53305546Y-54892247D01*
X53349003Y-54748986D01*
X53360000Y-54637333D01*
X53360000Y-54637325D01*
X53363676Y-54600000D01*
X53360000Y-54562675D01*
X53360000Y-50637322D01*
X53363676Y-50599999D01*
X53360000Y-50562676D01*
X53360000Y-50562667D01*
X53349003Y-50451014D01*
X53305546Y-50307753D01*
X53234974Y-50175724D01*
X53192527Y-50124002D01*
X53163799Y-50088996D01*
X53163795Y-50088992D01*
X53140001Y-50059999D01*
X53111008Y-50036205D01*
X50160000Y-47085199D01*
X50160000Y-45298061D01*
X50165000Y-45298061D01*
X50165000Y-45501939D01*
X50204774Y-45701898D01*
X50282795Y-45890256D01*
X50396063Y-46059774D01*
X50540226Y-46203937D01*
X50709744Y-46317205D01*
X50898102Y-46395226D01*
X51098061Y-46435000D01*
X51301939Y-46435000D01*
X51501898Y-46395226D01*
X51690256Y-46317205D01*
X51859774Y-46203937D01*
X52003937Y-46059774D01*
X52117205Y-45890256D01*
X52195226Y-45701898D01*
X52235000Y-45501939D01*
X52235000Y-45298061D01*
X52195226Y-45098102D01*
X52117205Y-44909744D01*
X52003937Y-44740226D01*
X51859774Y-44596063D01*
X51690256Y-44482795D01*
X51501898Y-44404774D01*
X51301939Y-44365000D01*
X51098061Y-44365000D01*
X50898102Y-44404774D01*
X50709744Y-44482795D01*
X50540226Y-44596063D01*
X50396063Y-44740226D01*
X50282795Y-44909744D01*
X50204774Y-45098102D01*
X50165000Y-45298061D01*
X50160000Y-45298061D01*
X50160000Y-42237323D01*
X50163676Y-42200000D01*
X50160000Y-42162677D01*
X50160000Y-42162667D01*
X50149003Y-42051014D01*
X50105546Y-41907753D01*
X50034974Y-41775724D01*
X49940001Y-41659999D01*
X49911002Y-41636201D01*
X49360000Y-41085199D01*
X49360000Y-39064801D01*
X50586730Y-37838072D01*
X51200000Y-37838072D01*
X51324482Y-37825812D01*
X51444180Y-37789502D01*
X51554494Y-37730537D01*
X51651185Y-37651185D01*
X51730537Y-37554494D01*
X51789502Y-37444180D01*
X51825812Y-37324482D01*
X51838072Y-37200000D01*
X51838072Y-36300000D01*
X51825812Y-36175518D01*
X51789502Y-36055820D01*
X51747939Y-35978061D01*
X53765000Y-35978061D01*
X53765000Y-36181939D01*
X53804774Y-36381898D01*
X53882795Y-36570256D01*
X53996063Y-36739774D01*
X54140226Y-36883937D01*
X54309744Y-36997205D01*
X54498102Y-37075226D01*
X54698061Y-37115000D01*
X54901939Y-37115000D01*
X55101898Y-37075226D01*
X55290256Y-36997205D01*
X55459774Y-36883937D01*
X55603937Y-36739774D01*
X55717205Y-36570256D01*
X55795226Y-36381898D01*
X55835000Y-36181939D01*
X55835000Y-35978061D01*
X55795226Y-35778102D01*
X55717205Y-35589744D01*
X55603937Y-35420226D01*
X55459774Y-35276063D01*
X55290256Y-35162795D01*
X55101898Y-35084774D01*
X54901939Y-35045000D01*
X54698061Y-35045000D01*
X54498102Y-35084774D01*
X54309744Y-35162795D01*
X54140226Y-35276063D01*
X53996063Y-35420226D01*
X53882795Y-35589744D01*
X53804774Y-35778102D01*
X53765000Y-35978061D01*
X51747939Y-35978061D01*
X51730537Y-35945506D01*
X51651185Y-35848815D01*
X51554494Y-35769463D01*
X51444180Y-35710498D01*
X51324482Y-35674188D01*
X51200000Y-35661928D01*
X50000000Y-35661928D01*
X49875518Y-35674188D01*
X49755820Y-35710498D01*
X49645506Y-35769463D01*
X49548815Y-35848815D01*
X49469463Y-35945506D01*
X49410498Y-36055820D01*
X49374188Y-36175518D01*
X49361928Y-36300000D01*
X49361928Y-36913270D01*
X48088998Y-38186201D01*
X48060000Y-38209999D01*
X48036202Y-38238997D01*
X48036201Y-38238998D01*
X47965026Y-38325724D01*
X47894454Y-38457754D01*
X47874364Y-38523986D01*
X47854663Y-38588934D01*
X47850998Y-38601015D01*
X47836324Y-38750000D01*
X47840001Y-38787332D01*
X47840000Y-41362677D01*
X47836324Y-41400000D01*
X47840000Y-41437322D01*
X47840000Y-41437332D01*
X47850997Y-41548985D01*
X47886871Y-41667247D01*
X47894454Y-41692246D01*
X47965026Y-41824276D01*
X48004868Y-41872823D01*
X48059999Y-41940001D01*
X48089002Y-41963803D01*
X48640001Y-42514803D01*
X48640000Y-44964777D01*
X48617205Y-44909744D01*
X48503937Y-44740226D01*
X48359774Y-44596063D01*
X48190256Y-44482795D01*
X48001898Y-44404774D01*
X47801939Y-44365000D01*
X47598061Y-44365000D01*
X47398102Y-44404774D01*
X47209744Y-44482795D01*
X47040226Y-44596063D01*
X46896063Y-44740226D01*
X46782795Y-44909744D01*
X46704774Y-45098102D01*
X46665000Y-45298061D01*
X46665000Y-45501939D01*
X46704774Y-45701898D01*
X46782795Y-45890256D01*
X46896063Y-46059774D01*
X47040226Y-46203937D01*
X47209744Y-46317205D01*
X47398102Y-46395226D01*
X47598061Y-46435000D01*
X47801939Y-46435000D01*
X48001898Y-46395226D01*
X48190256Y-46317205D01*
X48359774Y-46203937D01*
X48503937Y-46059774D01*
X48617205Y-45890256D01*
X48640000Y-45835224D01*
X48640000Y-47362677D01*
X48636324Y-47400000D01*
X48640000Y-47437322D01*
X48640000Y-47437332D01*
X48650997Y-47548985D01*
X48691575Y-47682754D01*
X48694454Y-47692246D01*
X48765026Y-47824276D01*
X48787377Y-47851510D01*
X48859999Y-47940001D01*
X48889003Y-47963804D01*
X51840001Y-50914804D01*
X51840001Y-51962863D01*
X51753475Y-51833368D01*
X51546632Y-51626525D01*
X51303411Y-51464010D01*
X51033158Y-51352068D01*
X50746260Y-51295000D01*
X50453740Y-51295000D01*
X50381040Y-51309461D01*
X46285000Y-47213422D01*
X46285000Y-35982340D01*
X48829279Y-33438061D01*
X53765000Y-33438061D01*
X53765000Y-33641939D01*
X53804774Y-33841898D01*
X53882795Y-34030256D01*
X53996063Y-34199774D01*
X54140226Y-34343937D01*
X54309744Y-34457205D01*
X54498102Y-34535226D01*
X54698061Y-34575000D01*
X54901939Y-34575000D01*
X55101898Y-34535226D01*
X55290256Y-34457205D01*
X55459774Y-34343937D01*
X55603937Y-34199774D01*
X55717205Y-34030256D01*
X55795226Y-33841898D01*
X55835000Y-33641939D01*
X55835000Y-33438061D01*
X55795226Y-33238102D01*
X55717205Y-33049744D01*
X55603937Y-32880226D01*
X55459774Y-32736063D01*
X55290256Y-32622795D01*
X55101898Y-32544774D01*
X54901939Y-32505000D01*
X54698061Y-32505000D01*
X54498102Y-32544774D01*
X54309744Y-32622795D01*
X54140226Y-32736063D01*
X53996063Y-32880226D01*
X53882795Y-33049744D01*
X53804774Y-33238102D01*
X53765000Y-33438061D01*
X48829279Y-33438061D01*
X50595049Y-31672292D01*
X50628817Y-31644579D01*
X50739411Y-31509821D01*
X50821589Y-31356075D01*
X50872195Y-31189252D01*
X50885000Y-31059239D01*
X50885000Y-31059229D01*
X50889281Y-31015763D01*
X50885000Y-30972297D01*
X50885000Y-30898061D01*
X53765000Y-30898061D01*
X53765000Y-31101939D01*
X53804774Y-31301898D01*
X53882795Y-31490256D01*
X53996063Y-31659774D01*
X54140226Y-31803937D01*
X54309744Y-31917205D01*
X54498102Y-31995226D01*
X54698061Y-32035000D01*
X54901939Y-32035000D01*
X55101898Y-31995226D01*
X55290256Y-31917205D01*
X55459774Y-31803937D01*
X55603937Y-31659774D01*
X55717205Y-31490256D01*
X55795226Y-31301898D01*
X55835000Y-31101939D01*
X55835000Y-30898061D01*
X55795226Y-30698102D01*
X55717205Y-30509744D01*
X55603937Y-30340226D01*
X55459774Y-30196063D01*
X55290256Y-30082795D01*
X55101898Y-30004774D01*
X54901939Y-29965000D01*
X54698061Y-29965000D01*
X54498102Y-30004774D01*
X54309744Y-30082795D01*
X54140226Y-30196063D01*
X53996063Y-30340226D01*
X53882795Y-30509744D01*
X53804774Y-30698102D01*
X53765000Y-30898061D01*
X50885000Y-30898061D01*
X50885000Y-28938072D01*
X51250000Y-28938072D01*
X51374482Y-28925812D01*
X51494180Y-28889502D01*
X51604494Y-28830537D01*
X51701185Y-28751185D01*
X51780537Y-28654494D01*
X51839502Y-28544180D01*
X51875812Y-28424482D01*
X51888072Y-28300000D01*
X51888072Y-26500000D01*
X51875812Y-26375518D01*
X51839502Y-26255820D01*
X51780537Y-26145506D01*
X51701185Y-26048815D01*
X51604494Y-25969463D01*
X51494180Y-25910498D01*
X51374482Y-25874188D01*
X51250000Y-25861928D01*
X49713507Y-25861928D01*
X48606532Y-24754954D01*
X48578817Y-24721183D01*
X48444059Y-24610589D01*
X48290313Y-24528411D01*
X48123490Y-24477805D01*
X47993477Y-24465000D01*
X47993469Y-24465000D01*
X47950000Y-24460719D01*
X47906531Y-24465000D01*
X46839250Y-24465000D01*
X46701250Y-24327000D01*
X45902000Y-24327000D01*
X45902000Y-24347000D01*
X45648000Y-24347000D01*
X45648000Y-24327000D01*
X45628000Y-24327000D01*
X45628000Y-24073000D01*
X45648000Y-24073000D01*
X45648000Y-23248750D01*
X45902000Y-23248750D01*
X45902000Y-24073000D01*
X46701250Y-24073000D01*
X46860000Y-23914250D01*
X46863072Y-23725000D01*
X46850812Y-23600518D01*
X46814502Y-23480820D01*
X46755537Y-23370506D01*
X46676185Y-23273815D01*
X46579494Y-23194463D01*
X46469180Y-23135498D01*
X46349482Y-23099188D01*
X46225000Y-23086928D01*
X46060750Y-23090000D01*
X45902000Y-23248750D01*
X45648000Y-23248750D01*
X45489250Y-23090000D01*
X45325000Y-23086928D01*
X45200518Y-23099188D01*
X45080820Y-23135498D01*
X44970506Y-23194463D01*
X44926351Y-23230700D01*
X44780283Y-23152625D01*
X44618377Y-23103512D01*
X44450000Y-23086928D01*
X44000000Y-23086928D01*
X43831623Y-23103512D01*
X43669717Y-23152625D01*
X43520503Y-23232382D01*
X43468072Y-23275411D01*
X43468072Y-23125000D01*
X43455812Y-23000518D01*
X43419502Y-22880820D01*
X43360537Y-22770506D01*
X43290364Y-22685000D01*
X46537913Y-22685000D01*
X46553031Y-22838500D01*
X46600722Y-22995716D01*
X46678169Y-23140608D01*
X46782394Y-23267606D01*
X46909392Y-23371831D01*
X47054284Y-23449278D01*
X47211500Y-23496969D01*
X47375000Y-23513072D01*
X47775000Y-23513072D01*
X47938500Y-23496969D01*
X48095716Y-23449278D01*
X48240608Y-23371831D01*
X48367606Y-23267606D01*
X48400000Y-23228134D01*
X48432394Y-23267606D01*
X48559392Y-23371831D01*
X48704284Y-23449278D01*
X48861500Y-23496969D01*
X49025000Y-23513072D01*
X49425000Y-23513072D01*
X49588500Y-23496969D01*
X49745716Y-23449278D01*
X49890608Y-23371831D01*
X49996411Y-23285000D01*
X55433422Y-23285000D01*
X55686928Y-23538506D01*
X55686928Y-24175000D01*
X55703992Y-24348254D01*
X55754528Y-24514850D01*
X55836595Y-24668386D01*
X55947038Y-24802962D01*
X56081614Y-24913405D01*
X56235150Y-24995472D01*
X56401746Y-25046008D01*
X56575000Y-25063072D01*
X57825000Y-25063072D01*
X57998254Y-25046008D01*
X58164850Y-24995472D01*
X58318386Y-24913405D01*
X58452962Y-24802962D01*
X58497326Y-24748904D01*
X59915000Y-26166579D01*
X59915001Y-33956521D01*
X59910719Y-34000000D01*
X59927805Y-34173490D01*
X59978412Y-34340313D01*
X60060590Y-34494059D01*
X60143468Y-34595046D01*
X60143471Y-34595049D01*
X60171184Y-34628817D01*
X60204951Y-34656529D01*
X60885349Y-35336928D01*
X60175000Y-35336928D01*
X60001746Y-35353992D01*
X59835150Y-35404528D01*
X59681614Y-35486595D01*
X59547038Y-35597038D01*
X59450230Y-35715000D01*
X59166579Y-35715000D01*
X58085000Y-34633422D01*
X58085000Y-27819694D01*
X58164850Y-27795472D01*
X58318386Y-27713405D01*
X58452962Y-27602962D01*
X58563405Y-27468386D01*
X58645472Y-27314850D01*
X58696008Y-27148254D01*
X58713072Y-26975000D01*
X58713072Y-26225000D01*
X58696008Y-26051746D01*
X58645472Y-25885150D01*
X58563405Y-25731614D01*
X58452962Y-25597038D01*
X58318386Y-25486595D01*
X58164850Y-25404528D01*
X57998254Y-25353992D01*
X57825000Y-25336928D01*
X56575000Y-25336928D01*
X56401746Y-25353992D01*
X56235150Y-25404528D01*
X56081614Y-25486595D01*
X55947038Y-25597038D01*
X55836595Y-25731614D01*
X55754528Y-25885150D01*
X55703992Y-26051746D01*
X55686928Y-26225000D01*
X55686928Y-26975000D01*
X55703992Y-27148254D01*
X55754528Y-27314850D01*
X55836595Y-27468386D01*
X55947038Y-27602962D01*
X56081614Y-27713405D01*
X56235150Y-27795472D01*
X56315000Y-27819694D01*
X56315001Y-34856667D01*
X56319918Y-34906592D01*
X56310719Y-35000000D01*
X56327805Y-35173490D01*
X56378412Y-35340313D01*
X56460590Y-35494059D01*
X56543468Y-35595046D01*
X57915000Y-36966579D01*
X57915001Y-41356523D01*
X57915001Y-41535532D01*
X57898815Y-41548815D01*
X57888072Y-41561905D01*
X57888072Y-41050000D01*
X57875812Y-40925518D01*
X57839502Y-40805820D01*
X57780537Y-40695506D01*
X57701185Y-40598815D01*
X57604494Y-40519463D01*
X57494180Y-40460498D01*
X57374482Y-40424188D01*
X57250000Y-40411928D01*
X56350000Y-40411928D01*
X56225518Y-40424188D01*
X56105820Y-40460498D01*
X55995506Y-40519463D01*
X55898815Y-40598815D01*
X55885532Y-40615000D01*
X55094365Y-40615000D01*
X55067606Y-40582394D01*
X54940608Y-40478169D01*
X54795716Y-40400722D01*
X54638500Y-40353031D01*
X54475000Y-40336928D01*
X53925000Y-40336928D01*
X53761500Y-40353031D01*
X53604284Y-40400722D01*
X53459392Y-40478169D01*
X53332394Y-40582394D01*
X53228169Y-40709392D01*
X53150722Y-40854284D01*
X53103031Y-41011500D01*
X53086928Y-41175000D01*
X53086928Y-41462126D01*
X51838072Y-40213271D01*
X51838072Y-39600000D01*
X51825812Y-39475518D01*
X51789502Y-39355820D01*
X51730537Y-39245506D01*
X51651185Y-39148815D01*
X51554494Y-39069463D01*
X51444180Y-39010498D01*
X51324482Y-38974188D01*
X51200000Y-38961928D01*
X50000000Y-38961928D01*
X49875518Y-38974188D01*
X49755820Y-39010498D01*
X49645506Y-39069463D01*
X49548815Y-39148815D01*
X49469463Y-39245506D01*
X49410498Y-39355820D01*
X49374188Y-39475518D01*
X49361928Y-39600000D01*
X49361928Y-40500000D01*
X49374188Y-40624482D01*
X49410498Y-40744180D01*
X49469463Y-40854494D01*
X49548815Y-40951185D01*
X49645506Y-41030537D01*
X49755820Y-41089502D01*
X49875518Y-41125812D01*
X50000000Y-41138072D01*
X50613271Y-41138072D01*
X53011200Y-43536002D01*
X53034999Y-43565001D01*
X53150724Y-43659974D01*
X53243903Y-43709780D01*
X53332394Y-43817606D01*
X53440001Y-43905917D01*
X53440000Y-46059556D01*
X53369463Y-46145506D01*
X53310498Y-46255820D01*
X53274188Y-46375518D01*
X53261928Y-46500000D01*
X53261928Y-47500000D01*
X53274188Y-47624482D01*
X53310498Y-47744180D01*
X53369463Y-47854494D01*
X53448815Y-47951185D01*
X53545506Y-48030537D01*
X53655820Y-48089502D01*
X53775518Y-48125812D01*
X53900000Y-48138072D01*
X54900000Y-48138072D01*
X55024482Y-48125812D01*
X55144180Y-48089502D01*
X55254494Y-48030537D01*
X55351185Y-47951185D01*
X55430537Y-47854494D01*
X55486391Y-47750000D01*
X55711928Y-47750000D01*
X55724188Y-47874482D01*
X55760498Y-47994180D01*
X55819463Y-48104494D01*
X55898815Y-48201185D01*
X55995506Y-48280537D01*
X56105820Y-48339502D01*
X56225518Y-48375812D01*
X56350000Y-48388072D01*
X56514250Y-48385000D01*
X56673000Y-48226250D01*
X56673000Y-47477000D01*
X56927000Y-47477000D01*
X56927000Y-48226250D01*
X57085750Y-48385000D01*
X57250000Y-48388072D01*
X57374482Y-48375812D01*
X57494180Y-48339502D01*
X57604494Y-48280537D01*
X57701185Y-48201185D01*
X57780537Y-48104494D01*
X57839502Y-47994180D01*
X57875812Y-47874482D01*
X57888072Y-47750000D01*
X57885000Y-47635750D01*
X57726250Y-47477000D01*
X56927000Y-47477000D01*
X56673000Y-47477000D01*
X55873750Y-47477000D01*
X55715000Y-47635750D01*
X55711928Y-47750000D01*
X55486391Y-47750000D01*
X55489502Y-47744180D01*
X55525812Y-47624482D01*
X55538072Y-47500000D01*
X55538072Y-46500000D01*
X55525812Y-46375518D01*
X55489502Y-46255820D01*
X55430537Y-46145506D01*
X55351185Y-46048815D01*
X55254494Y-45969463D01*
X55144180Y-45910498D01*
X55024482Y-45874188D01*
X54960000Y-45867837D01*
X54960000Y-43905916D01*
X55067606Y-43817606D01*
X55171831Y-43690608D01*
X55249278Y-43545716D01*
X55296969Y-43388500D01*
X55313072Y-43225000D01*
X55313072Y-42825000D01*
X55296969Y-42661500D01*
X55249278Y-42504284D01*
X55171831Y-42359392D01*
X55067606Y-42232394D01*
X55028134Y-42200000D01*
X55067606Y-42167606D01*
X55094365Y-42135000D01*
X55782317Y-42135000D01*
X55819463Y-42204494D01*
X55898815Y-42301185D01*
X55995506Y-42380537D01*
X56031918Y-42400000D01*
X55995506Y-42419463D01*
X55898815Y-42498815D01*
X55819463Y-42595506D01*
X55760498Y-42705820D01*
X55724188Y-42825518D01*
X55711928Y-42950000D01*
X55711928Y-43750000D01*
X55724188Y-43874482D01*
X55760498Y-43994180D01*
X55819463Y-44104494D01*
X55898815Y-44201185D01*
X55995506Y-44280537D01*
X56040000Y-44304320D01*
X56040001Y-44495680D01*
X55995506Y-44519463D01*
X55898815Y-44598815D01*
X55819463Y-44695506D01*
X55760498Y-44805820D01*
X55724188Y-44925518D01*
X55711928Y-45050000D01*
X55711928Y-45850000D01*
X55724188Y-45974482D01*
X55760498Y-46094180D01*
X55819463Y-46204494D01*
X55898815Y-46301185D01*
X55995506Y-46380537D01*
X56031918Y-46400000D01*
X55995506Y-46419463D01*
X55898815Y-46498815D01*
X55819463Y-46595506D01*
X55760498Y-46705820D01*
X55724188Y-46825518D01*
X55711928Y-46950000D01*
X55715000Y-47064250D01*
X55873750Y-47223000D01*
X56673000Y-47223000D01*
X56673000Y-47203000D01*
X56927000Y-47203000D01*
X56927000Y-47223000D01*
X57726250Y-47223000D01*
X57810857Y-47138393D01*
X57819463Y-47154494D01*
X57898815Y-47251185D01*
X57915000Y-47264468D01*
X57915001Y-49233420D01*
X56011494Y-51136928D01*
X55375000Y-51136928D01*
X55201746Y-51153992D01*
X55035150Y-51204528D01*
X54881614Y-51286595D01*
X54747038Y-51397038D01*
X54636595Y-51531614D01*
X54554528Y-51685150D01*
X54503992Y-51851746D01*
X54486928Y-52025000D01*
X54486928Y-52775000D01*
X54503992Y-52948254D01*
X54554528Y-53114850D01*
X54636595Y-53268386D01*
X54747038Y-53402962D01*
X54881614Y-53513405D01*
X55035150Y-53595472D01*
X55201746Y-53646008D01*
X55375000Y-53663072D01*
X56285349Y-53663072D01*
X56011494Y-53936928D01*
X55375000Y-53936928D01*
X55201746Y-53953992D01*
X55035150Y-54004528D01*
X54881614Y-54086595D01*
X54747038Y-54197038D01*
X54636595Y-54331614D01*
X54554528Y-54485150D01*
X54503992Y-54651746D01*
X54486928Y-54825000D01*
X54486928Y-55575000D01*
X54503992Y-55748254D01*
X54554528Y-55914850D01*
X54636595Y-56068386D01*
X54747038Y-56202962D01*
X54881614Y-56313405D01*
X55035150Y-56395472D01*
X55201746Y-56446008D01*
X55375000Y-56463072D01*
X56625000Y-56463072D01*
X56798254Y-56446008D01*
X56964850Y-56395472D01*
X57118386Y-56313405D01*
X57252962Y-56202962D01*
X57363405Y-56068386D01*
X57445472Y-55914850D01*
X57496008Y-55748254D01*
X57513072Y-55575000D01*
X57513072Y-54938506D01*
X58166579Y-54285000D01*
X60156531Y-54285000D01*
X60200000Y-54289281D01*
X60243469Y-54285000D01*
X60243477Y-54285000D01*
X60373490Y-54272195D01*
X60540313Y-54221589D01*
X60694059Y-54139411D01*
X60828817Y-54028817D01*
X60856534Y-53995044D01*
X61395049Y-53456530D01*
X61428817Y-53428817D01*
X61470185Y-53378411D01*
X61539410Y-53294060D01*
X61539411Y-53294059D01*
X61621589Y-53140313D01*
X61672195Y-52973490D01*
X61685000Y-52843477D01*
X61685000Y-52843467D01*
X61689281Y-52800001D01*
X61685000Y-52756535D01*
X61685000Y-40619694D01*
X61764850Y-40595472D01*
X61918386Y-40513405D01*
X62052962Y-40402962D01*
X62163405Y-40268386D01*
X62245472Y-40114850D01*
X62296008Y-39948254D01*
X62313072Y-39775000D01*
X62313072Y-39138507D01*
X62795049Y-38656530D01*
X62828817Y-38628817D01*
X62861549Y-38588934D01*
X62939410Y-38494060D01*
X62958816Y-38457754D01*
X63021589Y-38340313D01*
X63072195Y-38173490D01*
X63085000Y-38043477D01*
X63085000Y-38043469D01*
X63089281Y-38000000D01*
X63085000Y-37956531D01*
X63085000Y-35443469D01*
X63089281Y-35400000D01*
X63085000Y-35356531D01*
X63085000Y-35356523D01*
X63072195Y-35226510D01*
X63021589Y-35059687D01*
X62939411Y-34905941D01*
X62874223Y-34826510D01*
X62856532Y-34804953D01*
X62856530Y-34804951D01*
X62828817Y-34771183D01*
X62795050Y-34743471D01*
X61685000Y-33633422D01*
X61685000Y-25843465D01*
X61685750Y-25835847D01*
X62325105Y-26766996D01*
X63357173Y-28542073D01*
X64253245Y-30389542D01*
X65008272Y-32298992D01*
X65618009Y-34259684D01*
X66079018Y-36260577D01*
X66388704Y-38290396D01*
X66545326Y-40337726D01*
X66548001Y-42391025D01*
X66396714Y-44438760D01*
X66092317Y-46469374D01*
X65636520Y-48471470D01*
X65031899Y-50433730D01*
X64281848Y-52345144D01*
X63390594Y-54194938D01*
X62363143Y-55972716D01*
X61205308Y-57668427D01*
X59923576Y-59272567D01*
X58525181Y-60776084D01*
X57017988Y-62170523D01*
X55410483Y-63448029D01*
X53802164Y-64540000D01*
X19460000Y-64540000D01*
X19460000Y-61914344D01*
X22915000Y-61914344D01*
X22915000Y-62285656D01*
X22987439Y-62649834D01*
X23129534Y-62992882D01*
X23335825Y-63301618D01*
X23598382Y-63564175D01*
X23907118Y-63770466D01*
X24250166Y-63912561D01*
X24614344Y-63985000D01*
X24985656Y-63985000D01*
X25349834Y-63912561D01*
X25692882Y-63770466D01*
X26001618Y-63564175D01*
X26264175Y-63301618D01*
X26470466Y-62992882D01*
X26612561Y-62649834D01*
X26685000Y-62285656D01*
X26685000Y-61914344D01*
X26612561Y-61550166D01*
X26470466Y-61207118D01*
X26264175Y-60898382D01*
X26001618Y-60635825D01*
X25692882Y-60429534D01*
X25349834Y-60287439D01*
X24985656Y-60215000D01*
X24614344Y-60215000D01*
X24250166Y-60287439D01*
X23907118Y-60429534D01*
X23598382Y-60635825D01*
X23335825Y-60898382D01*
X23129534Y-61207118D01*
X22987439Y-61550166D01*
X22915000Y-61914344D01*
X19460000Y-61914344D01*
X19460000Y-59550000D01*
X49111928Y-59550000D01*
X49111928Y-61250000D01*
X49124188Y-61374482D01*
X49160498Y-61494180D01*
X49219463Y-61604494D01*
X49298815Y-61701185D01*
X49395506Y-61780537D01*
X49505820Y-61839502D01*
X49625518Y-61875812D01*
X49750000Y-61888072D01*
X51450000Y-61888072D01*
X51574482Y-61875812D01*
X51694180Y-61839502D01*
X51804494Y-61780537D01*
X51901185Y-61701185D01*
X51980537Y-61604494D01*
X52039502Y-61494180D01*
X52075812Y-61374482D01*
X52088072Y-61250000D01*
X52088072Y-59914344D01*
X53915000Y-59914344D01*
X53915000Y-60285656D01*
X53987439Y-60649834D01*
X54129534Y-60992882D01*
X54335825Y-61301618D01*
X54598382Y-61564175D01*
X54907118Y-61770466D01*
X55250166Y-61912561D01*
X55614344Y-61985000D01*
X55985656Y-61985000D01*
X56349834Y-61912561D01*
X56692882Y-61770466D01*
X57001618Y-61564175D01*
X57264175Y-61301618D01*
X57470466Y-60992882D01*
X57612561Y-60649834D01*
X57685000Y-60285656D01*
X57685000Y-59914344D01*
X57612561Y-59550166D01*
X57470466Y-59207118D01*
X57264175Y-58898382D01*
X57001618Y-58635825D01*
X56692882Y-58429534D01*
X56349834Y-58287439D01*
X55985656Y-58215000D01*
X55614344Y-58215000D01*
X55250166Y-58287439D01*
X54907118Y-58429534D01*
X54598382Y-58635825D01*
X54335825Y-58898382D01*
X54129534Y-59207118D01*
X53987439Y-59550166D01*
X53915000Y-59914344D01*
X52088072Y-59914344D01*
X52088072Y-59550000D01*
X52075812Y-59425518D01*
X52039502Y-59305820D01*
X51980537Y-59195506D01*
X51901185Y-59098815D01*
X51804494Y-59019463D01*
X51694180Y-58960498D01*
X51613534Y-58936034D01*
X51697588Y-58860269D01*
X51871641Y-58626920D01*
X51996825Y-58364099D01*
X52041476Y-58216890D01*
X51920155Y-57987000D01*
X50727000Y-57987000D01*
X50727000Y-58007000D01*
X50473000Y-58007000D01*
X50473000Y-57987000D01*
X49279845Y-57987000D01*
X49158524Y-58216890D01*
X49203175Y-58364099D01*
X49328359Y-58626920D01*
X49502412Y-58860269D01*
X49586466Y-58936034D01*
X49505820Y-58960498D01*
X49395506Y-59019463D01*
X49298815Y-59098815D01*
X49219463Y-59195506D01*
X49160498Y-59305820D01*
X49124188Y-59425518D01*
X49111928Y-59550000D01*
X19460000Y-59550000D01*
X19460000Y-55350000D01*
X20736928Y-55350000D01*
X20736928Y-55850000D01*
X20753512Y-56018377D01*
X20802625Y-56180283D01*
X20882382Y-56329497D01*
X20989716Y-56460284D01*
X21056935Y-56515449D01*
X21085589Y-56569058D01*
X21196183Y-56703817D01*
X21229956Y-56731534D01*
X22293470Y-57795049D01*
X22321183Y-57828817D01*
X22354951Y-57856530D01*
X22354953Y-57856532D01*
X22423612Y-57912879D01*
X22455941Y-57939411D01*
X22609687Y-58021589D01*
X22776510Y-58072195D01*
X22906523Y-58085000D01*
X22906533Y-58085000D01*
X22949999Y-58089281D01*
X22993465Y-58085000D01*
X24715375Y-58085000D01*
X24724188Y-58174482D01*
X24760498Y-58294180D01*
X24819463Y-58404494D01*
X24898815Y-58501185D01*
X24995506Y-58580537D01*
X25105820Y-58639502D01*
X25225518Y-58675812D01*
X25350000Y-58688072D01*
X27050000Y-58688072D01*
X27174482Y-58675812D01*
X27294180Y-58639502D01*
X27404494Y-58580537D01*
X27501185Y-58501185D01*
X27580537Y-58404494D01*
X27639502Y-58294180D01*
X27663966Y-58213534D01*
X27739731Y-58297588D01*
X27973080Y-58471641D01*
X28235901Y-58596825D01*
X28383110Y-58641476D01*
X28613000Y-58520155D01*
X28613000Y-57327000D01*
X28867000Y-57327000D01*
X28867000Y-58520155D01*
X29096890Y-58641476D01*
X29244099Y-58596825D01*
X29506920Y-58471641D01*
X29740269Y-58297588D01*
X29935178Y-58081355D01*
X30084157Y-57831252D01*
X30181481Y-57556891D01*
X30060814Y-57327000D01*
X28867000Y-57327000D01*
X28613000Y-57327000D01*
X28593000Y-57327000D01*
X28593000Y-57073000D01*
X28613000Y-57073000D01*
X28613000Y-55879845D01*
X28867000Y-55879845D01*
X28867000Y-57073000D01*
X30060814Y-57073000D01*
X30181481Y-56843109D01*
X30084157Y-56568748D01*
X29935178Y-56318645D01*
X29740269Y-56102412D01*
X29506920Y-55928359D01*
X29244099Y-55803175D01*
X29096890Y-55758524D01*
X28867000Y-55879845D01*
X28613000Y-55879845D01*
X28383110Y-55758524D01*
X28235901Y-55803175D01*
X27973080Y-55928359D01*
X27739731Y-56102412D01*
X27663966Y-56186466D01*
X27639502Y-56105820D01*
X27580537Y-55995506D01*
X27501185Y-55898815D01*
X27404494Y-55819463D01*
X27294180Y-55760498D01*
X27174482Y-55724188D01*
X27050000Y-55711928D01*
X25350000Y-55711928D01*
X25225518Y-55724188D01*
X25105820Y-55760498D01*
X24995506Y-55819463D01*
X24898815Y-55898815D01*
X24819463Y-55995506D01*
X24760498Y-56105820D01*
X24738331Y-56178896D01*
X24669454Y-56307754D01*
X24667256Y-56315000D01*
X24415770Y-56315000D01*
X24450812Y-56199482D01*
X24463072Y-56075000D01*
X24460000Y-55885750D01*
X24301250Y-55727000D01*
X23502000Y-55727000D01*
X23502000Y-55747000D01*
X23248000Y-55747000D01*
X23248000Y-55727000D01*
X23228000Y-55727000D01*
X23228000Y-55473000D01*
X23248000Y-55473000D01*
X23248000Y-55453000D01*
X23502000Y-55453000D01*
X23502000Y-55473000D01*
X24301250Y-55473000D01*
X24460000Y-55314250D01*
X24463072Y-55125000D01*
X24457297Y-55066367D01*
X24476510Y-55072195D01*
X24606523Y-55085000D01*
X24606533Y-55085000D01*
X24649999Y-55089281D01*
X24693465Y-55085000D01*
X25082317Y-55085000D01*
X25119463Y-55154494D01*
X25198815Y-55251185D01*
X25295506Y-55330537D01*
X25405820Y-55389502D01*
X25525518Y-55425812D01*
X25650000Y-55438072D01*
X29550000Y-55438072D01*
X29674482Y-55425812D01*
X29794180Y-55389502D01*
X29904494Y-55330537D01*
X30001185Y-55251185D01*
X30080537Y-55154494D01*
X30139502Y-55044180D01*
X30175812Y-54924482D01*
X30188072Y-54800000D01*
X30188072Y-54693137D01*
X34815000Y-54693137D01*
X34815000Y-54906863D01*
X34856696Y-55116483D01*
X34938485Y-55313940D01*
X35057225Y-55491647D01*
X35208353Y-55642775D01*
X35386060Y-55761515D01*
X35583517Y-55843304D01*
X35793137Y-55885000D01*
X36006863Y-55885000D01*
X36216483Y-55843304D01*
X36413940Y-55761515D01*
X36591647Y-55642775D01*
X36742775Y-55491647D01*
X36861515Y-55313940D01*
X36943304Y-55116483D01*
X36985000Y-54906863D01*
X36985000Y-54693137D01*
X41815000Y-54693137D01*
X41815000Y-54906863D01*
X41856696Y-55116483D01*
X41938485Y-55313940D01*
X42057225Y-55491647D01*
X42208353Y-55642775D01*
X42386060Y-55761515D01*
X42583517Y-55843304D01*
X42793137Y-55885000D01*
X43006863Y-55885000D01*
X43216483Y-55843304D01*
X43413940Y-55761515D01*
X43591647Y-55642775D01*
X43742775Y-55491647D01*
X43861515Y-55313940D01*
X43943304Y-55116483D01*
X43985000Y-54906863D01*
X43985000Y-54693137D01*
X43943304Y-54483517D01*
X43861515Y-54286060D01*
X43742775Y-54108353D01*
X43591647Y-53957225D01*
X43413940Y-53838485D01*
X43216483Y-53756696D01*
X43006863Y-53715000D01*
X42793137Y-53715000D01*
X42583517Y-53756696D01*
X42386060Y-53838485D01*
X42208353Y-53957225D01*
X42057225Y-54108353D01*
X41938485Y-54286060D01*
X41856696Y-54483517D01*
X41815000Y-54693137D01*
X36985000Y-54693137D01*
X36943304Y-54483517D01*
X36861515Y-54286060D01*
X36742775Y-54108353D01*
X36591647Y-53957225D01*
X36413940Y-53838485D01*
X36216483Y-53756696D01*
X36006863Y-53715000D01*
X35793137Y-53715000D01*
X35583517Y-53756696D01*
X35386060Y-53838485D01*
X35208353Y-53957225D01*
X35057225Y-54108353D01*
X34938485Y-54286060D01*
X34856696Y-54483517D01*
X34815000Y-54693137D01*
X30188072Y-54693137D01*
X30188072Y-53600000D01*
X30175812Y-53475518D01*
X30139502Y-53355820D01*
X30080537Y-53245506D01*
X30001185Y-53148815D01*
X29904494Y-53069463D01*
X29794180Y-53010498D01*
X29674482Y-52974188D01*
X29550000Y-52961928D01*
X25650000Y-52961928D01*
X25525518Y-52974188D01*
X25405820Y-53010498D01*
X25295506Y-53069463D01*
X25198815Y-53148815D01*
X25119463Y-53245506D01*
X25082317Y-53315000D01*
X25016579Y-53315000D01*
X24913072Y-53211494D01*
X24913072Y-52970000D01*
X24900812Y-52845518D01*
X24864502Y-52725820D01*
X24805537Y-52615506D01*
X24726185Y-52518815D01*
X24629494Y-52439463D01*
X24555665Y-52400000D01*
X24629494Y-52360537D01*
X24726185Y-52281185D01*
X24805537Y-52184494D01*
X24864502Y-52074180D01*
X24900812Y-51954482D01*
X24913072Y-51830000D01*
X24913072Y-50770000D01*
X24900812Y-50645518D01*
X24864502Y-50525820D01*
X24805537Y-50415506D01*
X24726185Y-50318815D01*
X24629494Y-50239463D01*
X24519180Y-50180498D01*
X24399482Y-50144188D01*
X24275000Y-50131928D01*
X23625000Y-50131928D01*
X23500518Y-50144188D01*
X23380820Y-50180498D01*
X23270506Y-50239463D01*
X23173815Y-50318815D01*
X23094463Y-50415506D01*
X23035498Y-50525820D01*
X23000000Y-50642841D01*
X22964502Y-50525820D01*
X22905537Y-50415506D01*
X22826185Y-50318815D01*
X22810000Y-50305532D01*
X22810000Y-49689801D01*
X23958509Y-48541292D01*
X24032382Y-48679497D01*
X24139716Y-48810284D01*
X24270503Y-48917618D01*
X24419717Y-48997375D01*
X24581623Y-49046488D01*
X24750000Y-49063072D01*
X25250000Y-49063072D01*
X25418377Y-49046488D01*
X25580283Y-48997375D01*
X25729497Y-48917618D01*
X25860284Y-48810284D01*
X25881034Y-48785000D01*
X26305635Y-48785000D01*
X26332394Y-48817606D01*
X26459392Y-48921831D01*
X26604284Y-48999278D01*
X26715001Y-49032864D01*
X26715000Y-50161928D01*
X25650000Y-50161928D01*
X25525518Y-50174188D01*
X25405820Y-50210498D01*
X25295506Y-50269463D01*
X25198815Y-50348815D01*
X25119463Y-50445506D01*
X25060498Y-50555820D01*
X25024188Y-50675518D01*
X25011928Y-50800000D01*
X25011928Y-52000000D01*
X25024188Y-52124482D01*
X25060498Y-52244180D01*
X25119463Y-52354494D01*
X25198815Y-52451185D01*
X25295506Y-52530537D01*
X25405820Y-52589502D01*
X25525518Y-52625812D01*
X25650000Y-52638072D01*
X29550000Y-52638072D01*
X29674482Y-52625812D01*
X29794180Y-52589502D01*
X29904494Y-52530537D01*
X30001185Y-52451185D01*
X30080537Y-52354494D01*
X30139502Y-52244180D01*
X30175812Y-52124482D01*
X30188072Y-52000000D01*
X30188072Y-50800000D01*
X30175812Y-50675518D01*
X30139502Y-50555820D01*
X30080537Y-50445506D01*
X30001185Y-50348815D01*
X29904494Y-50269463D01*
X29794180Y-50210498D01*
X29674482Y-50174188D01*
X29550000Y-50161928D01*
X28485000Y-50161928D01*
X28485000Y-49530881D01*
X28545506Y-49580537D01*
X28655820Y-49639502D01*
X28775518Y-49675812D01*
X28900000Y-49688072D01*
X30700000Y-49688072D01*
X30824482Y-49675812D01*
X30944180Y-49639502D01*
X31054494Y-49580537D01*
X31151185Y-49501185D01*
X31230537Y-49404494D01*
X31289502Y-49294180D01*
X31325812Y-49174482D01*
X31338072Y-49050000D01*
X31338072Y-47336730D01*
X31913187Y-46761614D01*
X31920503Y-46767618D01*
X32069717Y-46847375D01*
X32231623Y-46896488D01*
X32400000Y-46913072D01*
X32850000Y-46913072D01*
X33018377Y-46896488D01*
X33180283Y-46847375D01*
X33326351Y-46769300D01*
X33370506Y-46805537D01*
X33480820Y-46864502D01*
X33600518Y-46900812D01*
X33725000Y-46913072D01*
X33889250Y-46910000D01*
X34048000Y-46751250D01*
X34048000Y-45927000D01*
X34302000Y-45927000D01*
X34302000Y-46751250D01*
X34460750Y-46910000D01*
X34625000Y-46913072D01*
X34749482Y-46900812D01*
X34869180Y-46864502D01*
X34979494Y-46805537D01*
X35076185Y-46726185D01*
X35155537Y-46629494D01*
X35214502Y-46519180D01*
X35250812Y-46399482D01*
X35263072Y-46275000D01*
X35260000Y-46085750D01*
X35101250Y-45927000D01*
X34302000Y-45927000D01*
X34048000Y-45927000D01*
X34028000Y-45927000D01*
X34028000Y-45673000D01*
X34048000Y-45673000D01*
X34048000Y-44848750D01*
X34302000Y-44848750D01*
X34302000Y-45673000D01*
X35101250Y-45673000D01*
X35260000Y-45514250D01*
X35263072Y-45325000D01*
X35250812Y-45200518D01*
X35214502Y-45080820D01*
X35155537Y-44970506D01*
X35076185Y-44873815D01*
X34979494Y-44794463D01*
X34869180Y-44735498D01*
X34749482Y-44699188D01*
X34625000Y-44686928D01*
X34460750Y-44690000D01*
X34302000Y-44848750D01*
X34048000Y-44848750D01*
X33889250Y-44690000D01*
X33725000Y-44686928D01*
X33600518Y-44699188D01*
X33591650Y-44701878D01*
X33630537Y-44654494D01*
X33689502Y-44544180D01*
X33725812Y-44424482D01*
X33738072Y-44300000D01*
X33738072Y-43300000D01*
X33725812Y-43175518D01*
X33689502Y-43055820D01*
X33630537Y-42945506D01*
X33551185Y-42848815D01*
X33454494Y-42769463D01*
X33344180Y-42710498D01*
X33224482Y-42674188D01*
X33100000Y-42661928D01*
X32100000Y-42661928D01*
X31975518Y-42674188D01*
X31855820Y-42710498D01*
X31745506Y-42769463D01*
X31648815Y-42848815D01*
X31594499Y-42915000D01*
X31338072Y-42915000D01*
X31338072Y-42550000D01*
X31325812Y-42425518D01*
X31289502Y-42305820D01*
X31230537Y-42195506D01*
X31151185Y-42098815D01*
X31054494Y-42019463D01*
X30944180Y-41960498D01*
X30824482Y-41924188D01*
X30700000Y-41911928D01*
X30637436Y-41911928D01*
X30621589Y-41859687D01*
X30539411Y-41705941D01*
X30428817Y-41571183D01*
X30294059Y-41460589D01*
X30140313Y-41378411D01*
X29973490Y-41327805D01*
X29800000Y-41310718D01*
X29626511Y-41327805D01*
X29459688Y-41378411D01*
X29305942Y-41460589D01*
X29171184Y-41571183D01*
X29060590Y-41705941D01*
X28978412Y-41859687D01*
X28962565Y-41911928D01*
X28900000Y-41911928D01*
X28775518Y-41924188D01*
X28655820Y-41960498D01*
X28545506Y-42019463D01*
X28448815Y-42098815D01*
X28369463Y-42195506D01*
X28310498Y-42305820D01*
X28274188Y-42425518D01*
X28261928Y-42550000D01*
X28261928Y-42695985D01*
X28249278Y-42654284D01*
X28171831Y-42509392D01*
X28067606Y-42382394D01*
X27960000Y-42294084D01*
X27960000Y-41939801D01*
X28836730Y-41063072D01*
X29075000Y-41063072D01*
X29238500Y-41046969D01*
X29395716Y-40999278D01*
X29540608Y-40921831D01*
X29667606Y-40817606D01*
X29771831Y-40690608D01*
X29849278Y-40545716D01*
X29896969Y-40388500D01*
X29913072Y-40225000D01*
X29913072Y-39825000D01*
X29896969Y-39661500D01*
X29849278Y-39504284D01*
X29771831Y-39359392D01*
X29667606Y-39232394D01*
X29628134Y-39200000D01*
X29667606Y-39167606D01*
X29771831Y-39040608D01*
X29849278Y-38895716D01*
X29896969Y-38738500D01*
X29913072Y-38575000D01*
X29913072Y-38175000D01*
X29896969Y-38011500D01*
X29849278Y-37854284D01*
X29771831Y-37709392D01*
X29667606Y-37582394D01*
X29540608Y-37478169D01*
X29395716Y-37400722D01*
X29238500Y-37353031D01*
X29075000Y-37336928D01*
X28525000Y-37336928D01*
X28361500Y-37353031D01*
X28204284Y-37400722D01*
X28059392Y-37478169D01*
X27932394Y-37582394D01*
X27905635Y-37615000D01*
X27694365Y-37615000D01*
X27667606Y-37582394D01*
X27540608Y-37478169D01*
X27395716Y-37400722D01*
X27238500Y-37353031D01*
X27075000Y-37336928D01*
X26525000Y-37336928D01*
X26361500Y-37353031D01*
X26204284Y-37400722D01*
X26059392Y-37478169D01*
X25932394Y-37582394D01*
X25828169Y-37709392D01*
X25750722Y-37854284D01*
X25703031Y-38011500D01*
X25686928Y-38175000D01*
X25686928Y-38575000D01*
X25703031Y-38738500D01*
X25750722Y-38895716D01*
X25828169Y-39040608D01*
X25911863Y-39142590D01*
X25873815Y-39173815D01*
X25794463Y-39270506D01*
X25735498Y-39380820D01*
X25699188Y-39500518D01*
X25686928Y-39625000D01*
X25690000Y-39739250D01*
X25848750Y-39898000D01*
X26673000Y-39898000D01*
X26673000Y-39878000D01*
X26927000Y-39878000D01*
X26927000Y-39898000D01*
X26947000Y-39898000D01*
X26947000Y-40152000D01*
X26927000Y-40152000D01*
X26927000Y-40172000D01*
X26673000Y-40172000D01*
X26673000Y-40152000D01*
X25848750Y-40152000D01*
X25690000Y-40310750D01*
X25686928Y-40425000D01*
X25699188Y-40549482D01*
X25735498Y-40669180D01*
X25794463Y-40779494D01*
X25873815Y-40876185D01*
X25970506Y-40955537D01*
X26080820Y-41014502D01*
X26200518Y-41050812D01*
X26325000Y-41063072D01*
X26514250Y-41060000D01*
X26672998Y-40901252D01*
X26672998Y-41060000D01*
X26690199Y-41060000D01*
X26688998Y-41061201D01*
X26660000Y-41084999D01*
X26636202Y-41113997D01*
X26636201Y-41113998D01*
X26565026Y-41200724D01*
X26494454Y-41332754D01*
X26480605Y-41378411D01*
X26458890Y-41449999D01*
X26450998Y-41476015D01*
X26436324Y-41625000D01*
X26440001Y-41662332D01*
X26440001Y-42294083D01*
X26332394Y-42382394D01*
X26228169Y-42509392D01*
X26150722Y-42654284D01*
X26103031Y-42811500D01*
X26086928Y-42975000D01*
X26086928Y-43213270D01*
X24488998Y-44811201D01*
X24460000Y-44834999D01*
X24436202Y-44863997D01*
X24436201Y-44863998D01*
X24365026Y-44950724D01*
X24294454Y-45082754D01*
X24267357Y-45172084D01*
X24252341Y-45221589D01*
X24250998Y-45226015D01*
X24236324Y-45375000D01*
X24240001Y-45412332D01*
X24240001Y-45507414D01*
X24139716Y-45589716D01*
X24032382Y-45720503D01*
X23952625Y-45869717D01*
X23903512Y-46031623D01*
X23886928Y-46200000D01*
X23886928Y-46463270D01*
X21538998Y-48811201D01*
X21510000Y-48834999D01*
X21486202Y-48863997D01*
X21486201Y-48863998D01*
X21415026Y-48950724D01*
X21344454Y-49082754D01*
X21322690Y-49154504D01*
X21300998Y-49226014D01*
X21296535Y-49271323D01*
X21286324Y-49375000D01*
X21290001Y-49412332D01*
X21290001Y-50305532D01*
X21273815Y-50318815D01*
X21194463Y-50415506D01*
X21135498Y-50525820D01*
X21099188Y-50645518D01*
X21086928Y-50770000D01*
X21086928Y-51830000D01*
X21099188Y-51954482D01*
X21135498Y-52074180D01*
X21194463Y-52184494D01*
X21207111Y-52199905D01*
X21177805Y-52296510D01*
X21160719Y-52470000D01*
X21165001Y-52513478D01*
X21165001Y-52670625D01*
X21135498Y-52725820D01*
X21099188Y-52845518D01*
X21086928Y-52970000D01*
X21086928Y-54030000D01*
X21099188Y-54154482D01*
X21135498Y-54274180D01*
X21165000Y-54329374D01*
X21165001Y-54608597D01*
X21120503Y-54632382D01*
X20989716Y-54739716D01*
X20882382Y-54870503D01*
X20802625Y-55019717D01*
X20753512Y-55181623D01*
X20736928Y-55350000D01*
X19460000Y-55350000D01*
X19460000Y-46660000D01*
X21767581Y-46660000D01*
X21800000Y-46663193D01*
X21832419Y-46660000D01*
X21929383Y-46650450D01*
X22053793Y-46612710D01*
X22168450Y-46551425D01*
X22268948Y-46468948D01*
X22351425Y-46368450D01*
X22412710Y-46253793D01*
X22450450Y-46129383D01*
X22463193Y-46000000D01*
X22460000Y-45967581D01*
X22460000Y-35623439D01*
X24915000Y-35623439D01*
X24915000Y-35876561D01*
X24964381Y-36124821D01*
X25061247Y-36358676D01*
X25201875Y-36569140D01*
X25380860Y-36748125D01*
X25591324Y-36888753D01*
X25825179Y-36985619D01*
X26073439Y-37035000D01*
X26326561Y-37035000D01*
X26574821Y-36985619D01*
X26808676Y-36888753D01*
X27019140Y-36748125D01*
X27198125Y-36569140D01*
X27338753Y-36358676D01*
X27435619Y-36124821D01*
X27441921Y-36093137D01*
X34715000Y-36093137D01*
X34715000Y-36306863D01*
X34756696Y-36516483D01*
X34838485Y-36713940D01*
X34957225Y-36891647D01*
X35108353Y-37042775D01*
X35286060Y-37161515D01*
X35483517Y-37243304D01*
X35693137Y-37285000D01*
X35906863Y-37285000D01*
X36116483Y-37243304D01*
X36313940Y-37161515D01*
X36491647Y-37042775D01*
X36642775Y-36891647D01*
X36761515Y-36713940D01*
X36843304Y-36516483D01*
X36885000Y-36306863D01*
X36885000Y-36093137D01*
X41715000Y-36093137D01*
X41715000Y-36306863D01*
X41756696Y-36516483D01*
X41838485Y-36713940D01*
X41957225Y-36891647D01*
X42108353Y-37042775D01*
X42286060Y-37161515D01*
X42483517Y-37243304D01*
X42693137Y-37285000D01*
X42906863Y-37285000D01*
X43116483Y-37243304D01*
X43313940Y-37161515D01*
X43491647Y-37042775D01*
X43642775Y-36891647D01*
X43761515Y-36713940D01*
X43843304Y-36516483D01*
X43885000Y-36306863D01*
X43885000Y-36093137D01*
X43843304Y-35883517D01*
X43761515Y-35686060D01*
X43642775Y-35508353D01*
X43491647Y-35357225D01*
X43313940Y-35238485D01*
X43116483Y-35156696D01*
X42906863Y-35115000D01*
X42693137Y-35115000D01*
X42483517Y-35156696D01*
X42286060Y-35238485D01*
X42108353Y-35357225D01*
X41957225Y-35508353D01*
X41838485Y-35686060D01*
X41756696Y-35883517D01*
X41715000Y-36093137D01*
X36885000Y-36093137D01*
X36843304Y-35883517D01*
X36761515Y-35686060D01*
X36642775Y-35508353D01*
X36491647Y-35357225D01*
X36313940Y-35238485D01*
X36116483Y-35156696D01*
X35906863Y-35115000D01*
X35693137Y-35115000D01*
X35483517Y-35156696D01*
X35286060Y-35238485D01*
X35108353Y-35357225D01*
X34957225Y-35508353D01*
X34838485Y-35686060D01*
X34756696Y-35883517D01*
X34715000Y-36093137D01*
X27441921Y-36093137D01*
X27485000Y-35876561D01*
X27485000Y-35623439D01*
X27435619Y-35375179D01*
X27338753Y-35141324D01*
X27198125Y-34930860D01*
X27019140Y-34751875D01*
X26808676Y-34611247D01*
X26574821Y-34514381D01*
X26326561Y-34465000D01*
X26073439Y-34465000D01*
X25825179Y-34514381D01*
X25591324Y-34611247D01*
X25380860Y-34751875D01*
X25201875Y-34930860D01*
X25061247Y-35141324D01*
X24964381Y-35375179D01*
X24915000Y-35623439D01*
X22460000Y-35623439D01*
X22460000Y-33499933D01*
X23934000Y-33499933D01*
X23934000Y-33700067D01*
X23973044Y-33896356D01*
X24049632Y-34081256D01*
X24160821Y-34247662D01*
X24302338Y-34389179D01*
X24468744Y-34500368D01*
X24653644Y-34576956D01*
X24849933Y-34616000D01*
X25050067Y-34616000D01*
X25246356Y-34576956D01*
X25431256Y-34500368D01*
X25597662Y-34389179D01*
X25739179Y-34247662D01*
X25850368Y-34081256D01*
X25926956Y-33896356D01*
X25966000Y-33700067D01*
X25966000Y-33499933D01*
X26434000Y-33499933D01*
X26434000Y-33700067D01*
X26473044Y-33896356D01*
X26549632Y-34081256D01*
X26660821Y-34247662D01*
X26802338Y-34389179D01*
X26968744Y-34500368D01*
X27153644Y-34576956D01*
X27349933Y-34616000D01*
X27550067Y-34616000D01*
X27746356Y-34576956D01*
X27931256Y-34500368D01*
X28097662Y-34389179D01*
X28239179Y-34247662D01*
X28350368Y-34081256D01*
X28426956Y-33896356D01*
X28466000Y-33700067D01*
X28466000Y-33499933D01*
X28426956Y-33303644D01*
X28350368Y-33118744D01*
X28239179Y-32952338D01*
X28097662Y-32810821D01*
X27931256Y-32699632D01*
X27746356Y-32623044D01*
X27551054Y-32584196D01*
X27737314Y-32547147D01*
X27916572Y-32472896D01*
X28077901Y-32365099D01*
X28215099Y-32227901D01*
X28322896Y-32066572D01*
X28397147Y-31887314D01*
X28435000Y-31697014D01*
X28435000Y-31502986D01*
X28397147Y-31312686D01*
X28322896Y-31133428D01*
X28215099Y-30972099D01*
X28077901Y-30834901D01*
X27916572Y-30727104D01*
X27737314Y-30652853D01*
X27547014Y-30615000D01*
X27352986Y-30615000D01*
X27162686Y-30652853D01*
X26983428Y-30727104D01*
X26822099Y-30834901D01*
X26684901Y-30972099D01*
X26577104Y-31133428D01*
X26502853Y-31312686D01*
X26465000Y-31502986D01*
X26465000Y-31697014D01*
X26502853Y-31887314D01*
X26577104Y-32066572D01*
X26684901Y-32227901D01*
X26822099Y-32365099D01*
X26983428Y-32472896D01*
X27162686Y-32547147D01*
X27348946Y-32584196D01*
X27153644Y-32623044D01*
X26968744Y-32699632D01*
X26802338Y-32810821D01*
X26660821Y-32952338D01*
X26549632Y-33118744D01*
X26473044Y-33303644D01*
X26434000Y-33499933D01*
X25966000Y-33499933D01*
X25926956Y-33303644D01*
X25850368Y-33118744D01*
X25739179Y-32952338D01*
X25597662Y-32810821D01*
X25431256Y-32699632D01*
X25246356Y-32623044D01*
X25051054Y-32584196D01*
X25237314Y-32547147D01*
X25416572Y-32472896D01*
X25577901Y-32365099D01*
X25715099Y-32227901D01*
X25822896Y-32066572D01*
X25897147Y-31887314D01*
X25935000Y-31697014D01*
X25935000Y-31502986D01*
X25897147Y-31312686D01*
X25822896Y-31133428D01*
X25715099Y-30972099D01*
X25577901Y-30834901D01*
X25416572Y-30727104D01*
X25237314Y-30652853D01*
X25047014Y-30615000D01*
X24852986Y-30615000D01*
X24662686Y-30652853D01*
X24483428Y-30727104D01*
X24322099Y-30834901D01*
X24184901Y-30972099D01*
X24077104Y-31133428D01*
X24002853Y-31312686D01*
X23965000Y-31502986D01*
X23965000Y-31697014D01*
X24002853Y-31887314D01*
X24077104Y-32066572D01*
X24184901Y-32227901D01*
X24322099Y-32365099D01*
X24483428Y-32472896D01*
X24662686Y-32547147D01*
X24848946Y-32584196D01*
X24653644Y-32623044D01*
X24468744Y-32699632D01*
X24302338Y-32810821D01*
X24160821Y-32952338D01*
X24049632Y-33118744D01*
X23973044Y-33303644D01*
X23934000Y-33499933D01*
X22460000Y-33499933D01*
X22460000Y-29502986D01*
X23965000Y-29502986D01*
X23965000Y-29697014D01*
X24002853Y-29887314D01*
X24077104Y-30066572D01*
X24184901Y-30227901D01*
X24322099Y-30365099D01*
X24483428Y-30472896D01*
X24662686Y-30547147D01*
X24852986Y-30585000D01*
X25047014Y-30585000D01*
X25237314Y-30547147D01*
X25416572Y-30472896D01*
X25577901Y-30365099D01*
X25715099Y-30227901D01*
X25822896Y-30066572D01*
X25897147Y-29887314D01*
X25935000Y-29697014D01*
X25935000Y-29502986D01*
X26465000Y-29502986D01*
X26465000Y-29697014D01*
X26502853Y-29887314D01*
X26577104Y-30066572D01*
X26684901Y-30227901D01*
X26822099Y-30365099D01*
X26983428Y-30472896D01*
X27162686Y-30547147D01*
X27352986Y-30585000D01*
X27547014Y-30585000D01*
X27737314Y-30547147D01*
X27916572Y-30472896D01*
X28077901Y-30365099D01*
X28215099Y-30227901D01*
X28322896Y-30066572D01*
X28397147Y-29887314D01*
X28435000Y-29697014D01*
X28435000Y-29502986D01*
X28397147Y-29312686D01*
X28322896Y-29133428D01*
X28215099Y-28972099D01*
X28077901Y-28834901D01*
X27916572Y-28727104D01*
X27737314Y-28652853D01*
X27547014Y-28615000D01*
X27352986Y-28615000D01*
X27162686Y-28652853D01*
X26983428Y-28727104D01*
X26822099Y-28834901D01*
X26684901Y-28972099D01*
X26577104Y-29133428D01*
X26502853Y-29312686D01*
X26465000Y-29502986D01*
X25935000Y-29502986D01*
X25897147Y-29312686D01*
X25822896Y-29133428D01*
X25715099Y-28972099D01*
X25577901Y-28834901D01*
X25416572Y-28727104D01*
X25237314Y-28652853D01*
X25047014Y-28615000D01*
X24852986Y-28615000D01*
X24662686Y-28652853D01*
X24483428Y-28727104D01*
X24322099Y-28834901D01*
X24184901Y-28972099D01*
X24077104Y-29133428D01*
X24002853Y-29312686D01*
X23965000Y-29502986D01*
X22460000Y-29502986D01*
X22460000Y-25499933D01*
X23934000Y-25499933D01*
X23934000Y-25700067D01*
X23973044Y-25896356D01*
X24049632Y-26081256D01*
X24160821Y-26247662D01*
X24302338Y-26389179D01*
X24468744Y-26500368D01*
X24653644Y-26576956D01*
X24849933Y-26616000D01*
X25050067Y-26616000D01*
X25246356Y-26576956D01*
X25431256Y-26500368D01*
X25597662Y-26389179D01*
X25739179Y-26247662D01*
X25850368Y-26081256D01*
X25926956Y-25896356D01*
X25966000Y-25700067D01*
X25966000Y-25502986D01*
X26465000Y-25502986D01*
X26465000Y-25697014D01*
X26502853Y-25887314D01*
X26577104Y-26066572D01*
X26684901Y-26227901D01*
X26822099Y-26365099D01*
X26983428Y-26472896D01*
X27162686Y-26547147D01*
X27352986Y-26585000D01*
X27547014Y-26585000D01*
X27737314Y-26547147D01*
X27916572Y-26472896D01*
X28077901Y-26365099D01*
X28215099Y-26227901D01*
X28322896Y-26066572D01*
X28397147Y-25887314D01*
X28435000Y-25697014D01*
X28435000Y-25502986D01*
X28397147Y-25312686D01*
X28322896Y-25133428D01*
X28215099Y-24972099D01*
X28077901Y-24834901D01*
X27916572Y-24727104D01*
X27737314Y-24652853D01*
X27547014Y-24615000D01*
X27352986Y-24615000D01*
X27162686Y-24652853D01*
X26983428Y-24727104D01*
X26822099Y-24834901D01*
X26684901Y-24972099D01*
X26577104Y-25133428D01*
X26502853Y-25312686D01*
X26465000Y-25502986D01*
X25966000Y-25502986D01*
X25966000Y-25499933D01*
X25926956Y-25303644D01*
X25850368Y-25118744D01*
X25739179Y-24952338D01*
X25597662Y-24810821D01*
X25431256Y-24699632D01*
X25246356Y-24623044D01*
X25050067Y-24584000D01*
X24849933Y-24584000D01*
X24653644Y-24623044D01*
X24468744Y-24699632D01*
X24302338Y-24810821D01*
X24160821Y-24952338D01*
X24049632Y-25118744D01*
X23973044Y-25303644D01*
X23934000Y-25499933D01*
X22460000Y-25499933D01*
X22460000Y-20414344D01*
X22915000Y-20414344D01*
X22915000Y-20785656D01*
X22987439Y-21149834D01*
X23129534Y-21492882D01*
X23335825Y-21801618D01*
X23598382Y-22064175D01*
X23907118Y-22270466D01*
X24250166Y-22412561D01*
X24614344Y-22485000D01*
X24985656Y-22485000D01*
X25349834Y-22412561D01*
X25586262Y-22314630D01*
X25380860Y-22451875D01*
X25201875Y-22630860D01*
X25061247Y-22841324D01*
X24964381Y-23075179D01*
X24915000Y-23323439D01*
X24915000Y-23576561D01*
X24964381Y-23824821D01*
X25061247Y-24058676D01*
X25201875Y-24269140D01*
X25380860Y-24448125D01*
X25591324Y-24588753D01*
X25825179Y-24685619D01*
X26073439Y-24735000D01*
X26326561Y-24735000D01*
X26574821Y-24685619D01*
X26808676Y-24588753D01*
X27019140Y-24448125D01*
X27198125Y-24269140D01*
X27338753Y-24058676D01*
X27435619Y-23824821D01*
X27485000Y-23576561D01*
X27485000Y-23323439D01*
X27435619Y-23075179D01*
X27338753Y-22841324D01*
X27198125Y-22630860D01*
X27019140Y-22451875D01*
X26808676Y-22311247D01*
X26574821Y-22214381D01*
X26326561Y-22165000D01*
X26073439Y-22165000D01*
X25825179Y-22214381D01*
X25697945Y-22267083D01*
X26001618Y-22064175D01*
X26264175Y-21801618D01*
X26415596Y-21575000D01*
X30086928Y-21575000D01*
X30090000Y-21739250D01*
X30248750Y-21898000D01*
X31073000Y-21898000D01*
X31073000Y-21098750D01*
X31327000Y-21098750D01*
X31327000Y-21898000D01*
X32151250Y-21898000D01*
X32310000Y-21739250D01*
X32313072Y-21575000D01*
X32300812Y-21450518D01*
X32264502Y-21330820D01*
X32205537Y-21220506D01*
X32126185Y-21123815D01*
X32029494Y-21044463D01*
X31919180Y-20985498D01*
X31799482Y-20949188D01*
X31675000Y-20936928D01*
X31485750Y-20940000D01*
X31327000Y-21098750D01*
X31073000Y-21098750D01*
X30914250Y-20940000D01*
X30725000Y-20936928D01*
X30600518Y-20949188D01*
X30480820Y-20985498D01*
X30370506Y-21044463D01*
X30273815Y-21123815D01*
X30194463Y-21220506D01*
X30135498Y-21330820D01*
X30099188Y-21450518D01*
X30086928Y-21575000D01*
X26415596Y-21575000D01*
X26470466Y-21492882D01*
X26612561Y-21149834D01*
X26685000Y-20785656D01*
X26685000Y-20414344D01*
X26612561Y-20050166D01*
X26470466Y-19707118D01*
X26264175Y-19398382D01*
X26001618Y-19135825D01*
X25692882Y-18929534D01*
X25349834Y-18787439D01*
X24985656Y-18715000D01*
X24614344Y-18715000D01*
X24250166Y-18787439D01*
X23907118Y-18929534D01*
X23598382Y-19135825D01*
X23335825Y-19398382D01*
X23129534Y-19707118D01*
X22987439Y-20050166D01*
X22915000Y-20414344D01*
X22460000Y-20414344D01*
X22460000Y-18260000D01*
X53798059Y-18260000D01*
X55352996Y-19309821D01*
G37*
%TD.AperFunction*%
%TD*%
M02*
