M48
; DRILL file {KiCad (5.1.10)-1} date 05/30/22 19:05:36
; FORMAT={-:-/ absolute / metric / decimal}
; #@! TF.CreationDate,2022-05-30T19:05:36+03:00
; #@! TF.GenerationSoftware,Kicad,Pcbnew,(5.1.10)-1
FMAT,2
METRIC
T1C0.500
T2C0.700
T3C0.762
T4C0.800
T5C0.900
T6C1.000
T7C1.300
T8C2.500
%
G90
G05
T1
X31.4Y-29.2
X32.6Y-43.8
X54.4Y-47.0
T2
X24.95Y-29.6
X24.95Y-31.6
X27.45Y-25.6
X27.45Y-29.6
X27.45Y-31.6
T3
X24.95Y-25.6
X24.95Y-33.6
X27.45Y-33.6
T4
X47.7Y-45.4
X51.2Y-45.4
X54.8Y-31.0
X54.8Y-33.54
X54.8Y-36.08
T5
X35.8Y-36.2
X35.9Y-54.8
X42.8Y-36.2
X42.9Y-54.8
T6
X26.2Y-57.2
X28.74Y-57.2
X50.6Y-52.78
X50.6Y-55.32
X50.6Y-57.86
X50.6Y-60.4
T7
X26.2Y-23.45
X26.2Y-35.75
T8
X24.8Y-20.6
X24.8Y-62.1
X55.8Y-60.1
T0
M30
