%TF.GenerationSoftware,KiCad,Pcbnew,(5.1.10)-1*%
%TF.CreationDate,2022-05-30T19:02:36+03:00*%
%TF.ProjectId,night-light,6e696768-742d-46c6-9967-68742e6b6963,rev?*%
%TF.SameCoordinates,Original*%
%TF.FileFunction,Soldermask,Top*%
%TF.FilePolarity,Negative*%
%FSLAX46Y46*%
G04 Gerber Fmt 4.6, Leading zero omitted, Abs format (unit mm)*
G04 Created by KiCad (PCBNEW (5.1.10)-1) date 2022-05-30 19:02:36*
%MOMM*%
%LPD*%
G01*
G04 APERTURE LIST*
%ADD10C,2.500000*%
%ADD11R,1.000000X1.000000*%
%ADD12R,1.200000X0.900000*%
%ADD13R,3.900000X1.200000*%
%ADD14R,1.060000X0.650000*%
%ADD15R,0.650000X1.060000*%
%ADD16C,1.300000*%
%ADD17R,0.900000X0.800000*%
%ADD18O,1.700000X1.700000*%
%ADD19R,1.700000X1.700000*%
%ADD20R,2.500000X1.800000*%
%ADD21R,1.800000X2.500000*%
G04 APERTURE END LIST*
D10*
%TO.C,REF\u002A\u002A*%
X55800000Y-60100000D03*
%TD*%
%TO.C,REF\u002A\u002A*%
X24800000Y-20600000D03*
%TD*%
%TO.C,REF\u002A\u002A*%
X24800000Y-62100000D03*
%TD*%
D11*
%TO.C,REF\u002A\u002A*%
X31400000Y-29200000D03*
%TD*%
%TO.C,REF\u002A\u002A*%
X32600000Y-43800000D03*
%TD*%
%TO.C,REF\u002A\u002A*%
X54400000Y-47000000D03*
%TD*%
D12*
%TO.C,D1*%
X50600000Y-36750000D03*
X50600000Y-40050000D03*
%TD*%
D13*
%TO.C,L2*%
X35400000Y-26400000D03*
X35400000Y-23600000D03*
%TD*%
%TO.C,L1*%
X27600000Y-51400000D03*
X27600000Y-54200000D03*
%TD*%
D14*
%TO.C,U2*%
X40100000Y-25350000D03*
X40100000Y-23450000D03*
X42300000Y-23450000D03*
X42300000Y-24400000D03*
X42300000Y-25350000D03*
%TD*%
D15*
%TO.C,U1*%
X22050000Y-51300000D03*
X23950000Y-51300000D03*
X23950000Y-53500000D03*
X23000000Y-53500000D03*
X22050000Y-53500000D03*
%TD*%
D16*
%TO.C,SW1*%
X26200000Y-35750000D03*
X26200000Y-23450000D03*
%TD*%
%TO.C,R6*%
G36*
G01*
X47975000Y-22125000D02*
X47975000Y-22675000D01*
G75*
G02*
X47775000Y-22875000I-200000J0D01*
G01*
X47375000Y-22875000D01*
G75*
G02*
X47175000Y-22675000I0J200000D01*
G01*
X47175000Y-22125000D01*
G75*
G02*
X47375000Y-21925000I200000J0D01*
G01*
X47775000Y-21925000D01*
G75*
G02*
X47975000Y-22125000I0J-200000D01*
G01*
G37*
G36*
G01*
X49625000Y-22125000D02*
X49625000Y-22675000D01*
G75*
G02*
X49425000Y-22875000I-200000J0D01*
G01*
X49025000Y-22875000D01*
G75*
G02*
X48825000Y-22675000I0J200000D01*
G01*
X48825000Y-22125000D01*
G75*
G02*
X49025000Y-21925000I200000J0D01*
G01*
X49425000Y-21925000D01*
G75*
G02*
X49625000Y-22125000I0J-200000D01*
G01*
G37*
%TD*%
%TO.C,R5*%
G36*
G01*
X53925000Y-42625000D02*
X54475000Y-42625000D01*
G75*
G02*
X54675000Y-42825000I0J-200000D01*
G01*
X54675000Y-43225000D01*
G75*
G02*
X54475000Y-43425000I-200000J0D01*
G01*
X53925000Y-43425000D01*
G75*
G02*
X53725000Y-43225000I0J200000D01*
G01*
X53725000Y-42825000D01*
G75*
G02*
X53925000Y-42625000I200000J0D01*
G01*
G37*
G36*
G01*
X53925000Y-40975000D02*
X54475000Y-40975000D01*
G75*
G02*
X54675000Y-41175000I0J-200000D01*
G01*
X54675000Y-41575000D01*
G75*
G02*
X54475000Y-41775000I-200000J0D01*
G01*
X53925000Y-41775000D01*
G75*
G02*
X53725000Y-41575000I0J200000D01*
G01*
X53725000Y-41175000D01*
G75*
G02*
X53925000Y-40975000I200000J0D01*
G01*
G37*
%TD*%
%TO.C,R4*%
G36*
G01*
X27475000Y-43575000D02*
X26925000Y-43575000D01*
G75*
G02*
X26725000Y-43375000I0J200000D01*
G01*
X26725000Y-42975000D01*
G75*
G02*
X26925000Y-42775000I200000J0D01*
G01*
X27475000Y-42775000D01*
G75*
G02*
X27675000Y-42975000I0J-200000D01*
G01*
X27675000Y-43375000D01*
G75*
G02*
X27475000Y-43575000I-200000J0D01*
G01*
G37*
G36*
G01*
X27475000Y-45225000D02*
X26925000Y-45225000D01*
G75*
G02*
X26725000Y-45025000I0J200000D01*
G01*
X26725000Y-44625000D01*
G75*
G02*
X26925000Y-44425000I200000J0D01*
G01*
X27475000Y-44425000D01*
G75*
G02*
X27675000Y-44625000I0J-200000D01*
G01*
X27675000Y-45025000D01*
G75*
G02*
X27475000Y-45225000I-200000J0D01*
G01*
G37*
%TD*%
%TO.C,R3*%
G36*
G01*
X27475000Y-46775000D02*
X26925000Y-46775000D01*
G75*
G02*
X26725000Y-46575000I0J200000D01*
G01*
X26725000Y-46175000D01*
G75*
G02*
X26925000Y-45975000I200000J0D01*
G01*
X27475000Y-45975000D01*
G75*
G02*
X27675000Y-46175000I0J-200000D01*
G01*
X27675000Y-46575000D01*
G75*
G02*
X27475000Y-46775000I-200000J0D01*
G01*
G37*
G36*
G01*
X27475000Y-48425000D02*
X26925000Y-48425000D01*
G75*
G02*
X26725000Y-48225000I0J200000D01*
G01*
X26725000Y-47825000D01*
G75*
G02*
X26925000Y-47625000I200000J0D01*
G01*
X27475000Y-47625000D01*
G75*
G02*
X27675000Y-47825000I0J-200000D01*
G01*
X27675000Y-48225000D01*
G75*
G02*
X27475000Y-48425000I-200000J0D01*
G01*
G37*
%TD*%
%TO.C,R2*%
G36*
G01*
X29075000Y-38775000D02*
X28525000Y-38775000D01*
G75*
G02*
X28325000Y-38575000I0J200000D01*
G01*
X28325000Y-38175000D01*
G75*
G02*
X28525000Y-37975000I200000J0D01*
G01*
X29075000Y-37975000D01*
G75*
G02*
X29275000Y-38175000I0J-200000D01*
G01*
X29275000Y-38575000D01*
G75*
G02*
X29075000Y-38775000I-200000J0D01*
G01*
G37*
G36*
G01*
X29075000Y-40425000D02*
X28525000Y-40425000D01*
G75*
G02*
X28325000Y-40225000I0J200000D01*
G01*
X28325000Y-39825000D01*
G75*
G02*
X28525000Y-39625000I200000J0D01*
G01*
X29075000Y-39625000D01*
G75*
G02*
X29275000Y-39825000I0J-200000D01*
G01*
X29275000Y-40225000D01*
G75*
G02*
X29075000Y-40425000I-200000J0D01*
G01*
G37*
%TD*%
%TO.C,R1*%
G36*
G01*
X26525000Y-39625000D02*
X27075000Y-39625000D01*
G75*
G02*
X27275000Y-39825000I0J-200000D01*
G01*
X27275000Y-40225000D01*
G75*
G02*
X27075000Y-40425000I-200000J0D01*
G01*
X26525000Y-40425000D01*
G75*
G02*
X26325000Y-40225000I0J200000D01*
G01*
X26325000Y-39825000D01*
G75*
G02*
X26525000Y-39625000I200000J0D01*
G01*
G37*
G36*
G01*
X26525000Y-37975000D02*
X27075000Y-37975000D01*
G75*
G02*
X27275000Y-38175000I0J-200000D01*
G01*
X27275000Y-38575000D01*
G75*
G02*
X27075000Y-38775000I-200000J0D01*
G01*
X26525000Y-38775000D01*
G75*
G02*
X26325000Y-38575000I0J200000D01*
G01*
X26325000Y-38175000D01*
G75*
G02*
X26525000Y-37975000I200000J0D01*
G01*
G37*
%TD*%
D17*
%TO.C,Q2*%
X58800000Y-46400000D03*
X56800000Y-47350000D03*
X56800000Y-45450000D03*
%TD*%
%TO.C,Q1*%
X58800000Y-42400000D03*
X56800000Y-43350000D03*
X56800000Y-41450000D03*
%TD*%
D18*
%TO.C,J2*%
X28740000Y-57200000D03*
D19*
X26200000Y-57200000D03*
%TD*%
D18*
%TO.C,J1*%
X50600000Y-52780000D03*
X50600000Y-55320000D03*
X50600000Y-57860000D03*
D19*
X50600000Y-60400000D03*
%TD*%
D20*
%TO.C,D6*%
X46000000Y-27400000D03*
X50000000Y-27400000D03*
%TD*%
%TO.C,D5*%
G36*
G01*
X55375000Y-54575000D02*
X56625000Y-54575000D01*
G75*
G02*
X56875000Y-54825000I0J-250000D01*
G01*
X56875000Y-55575000D01*
G75*
G02*
X56625000Y-55825000I-250000J0D01*
G01*
X55375000Y-55825000D01*
G75*
G02*
X55125000Y-55575000I0J250000D01*
G01*
X55125000Y-54825000D01*
G75*
G02*
X55375000Y-54575000I250000J0D01*
G01*
G37*
G36*
G01*
X55375000Y-51775000D02*
X56625000Y-51775000D01*
G75*
G02*
X56875000Y-52025000I0J-250000D01*
G01*
X56875000Y-52775000D01*
G75*
G02*
X56625000Y-53025000I-250000J0D01*
G01*
X55375000Y-53025000D01*
G75*
G02*
X55125000Y-52775000I0J250000D01*
G01*
X55125000Y-52025000D01*
G75*
G02*
X55375000Y-51775000I250000J0D01*
G01*
G37*
%TD*%
%TO.C,D4*%
G36*
G01*
X60175000Y-38775000D02*
X61425000Y-38775000D01*
G75*
G02*
X61675000Y-39025000I0J-250000D01*
G01*
X61675000Y-39775000D01*
G75*
G02*
X61425000Y-40025000I-250000J0D01*
G01*
X60175000Y-40025000D01*
G75*
G02*
X59925000Y-39775000I0J250000D01*
G01*
X59925000Y-39025000D01*
G75*
G02*
X60175000Y-38775000I250000J0D01*
G01*
G37*
G36*
G01*
X60175000Y-35975000D02*
X61425000Y-35975000D01*
G75*
G02*
X61675000Y-36225000I0J-250000D01*
G01*
X61675000Y-36975000D01*
G75*
G02*
X61425000Y-37225000I-250000J0D01*
G01*
X60175000Y-37225000D01*
G75*
G02*
X59925000Y-36975000I0J250000D01*
G01*
X59925000Y-36225000D01*
G75*
G02*
X60175000Y-35975000I250000J0D01*
G01*
G37*
%TD*%
%TO.C,D3*%
G36*
G01*
X57825000Y-24425000D02*
X56575000Y-24425000D01*
G75*
G02*
X56325000Y-24175000I0J250000D01*
G01*
X56325000Y-23425000D01*
G75*
G02*
X56575000Y-23175000I250000J0D01*
G01*
X57825000Y-23175000D01*
G75*
G02*
X58075000Y-23425000I0J-250000D01*
G01*
X58075000Y-24175000D01*
G75*
G02*
X57825000Y-24425000I-250000J0D01*
G01*
G37*
G36*
G01*
X57825000Y-27225000D02*
X56575000Y-27225000D01*
G75*
G02*
X56325000Y-26975000I0J250000D01*
G01*
X56325000Y-26225000D01*
G75*
G02*
X56575000Y-25975000I250000J0D01*
G01*
X57825000Y-25975000D01*
G75*
G02*
X58075000Y-26225000I0J-250000D01*
G01*
X58075000Y-26975000D01*
G75*
G02*
X57825000Y-27225000I-250000J0D01*
G01*
G37*
%TD*%
D21*
%TO.C,D2*%
X29800000Y-47800000D03*
X29800000Y-43800000D03*
%TD*%
%TO.C,C8*%
G36*
G01*
X45325000Y-24450000D02*
X45325000Y-23950000D01*
G75*
G02*
X45550000Y-23725000I225000J0D01*
G01*
X46000000Y-23725000D01*
G75*
G02*
X46225000Y-23950000I0J-225000D01*
G01*
X46225000Y-24450000D01*
G75*
G02*
X46000000Y-24675000I-225000J0D01*
G01*
X45550000Y-24675000D01*
G75*
G02*
X45325000Y-24450000I0J225000D01*
G01*
G37*
G36*
G01*
X43775000Y-24450000D02*
X43775000Y-23950000D01*
G75*
G02*
X44000000Y-23725000I225000J0D01*
G01*
X44450000Y-23725000D01*
G75*
G02*
X44675000Y-23950000I0J-225000D01*
G01*
X44675000Y-24450000D01*
G75*
G02*
X44450000Y-24675000I-225000J0D01*
G01*
X44000000Y-24675000D01*
G75*
G02*
X43775000Y-24450000I0J225000D01*
G01*
G37*
%TD*%
%TO.C,C7*%
G36*
G01*
X31450000Y-22475000D02*
X30950000Y-22475000D01*
G75*
G02*
X30725000Y-22250000I0J225000D01*
G01*
X30725000Y-21800000D01*
G75*
G02*
X30950000Y-21575000I225000J0D01*
G01*
X31450000Y-21575000D01*
G75*
G02*
X31675000Y-21800000I0J-225000D01*
G01*
X31675000Y-22250000D01*
G75*
G02*
X31450000Y-22475000I-225000J0D01*
G01*
G37*
G36*
G01*
X31450000Y-24025000D02*
X30950000Y-24025000D01*
G75*
G02*
X30725000Y-23800000I0J225000D01*
G01*
X30725000Y-23350000D01*
G75*
G02*
X30950000Y-23125000I225000J0D01*
G01*
X31450000Y-23125000D01*
G75*
G02*
X31675000Y-23350000I0J-225000D01*
G01*
X31675000Y-23800000D01*
G75*
G02*
X31450000Y-24025000I-225000J0D01*
G01*
G37*
%TD*%
%TO.C,C5*%
G36*
G01*
X25250000Y-46875000D02*
X24750000Y-46875000D01*
G75*
G02*
X24525000Y-46650000I0J225000D01*
G01*
X24525000Y-46200000D01*
G75*
G02*
X24750000Y-45975000I225000J0D01*
G01*
X25250000Y-45975000D01*
G75*
G02*
X25475000Y-46200000I0J-225000D01*
G01*
X25475000Y-46650000D01*
G75*
G02*
X25250000Y-46875000I-225000J0D01*
G01*
G37*
G36*
G01*
X25250000Y-48425000D02*
X24750000Y-48425000D01*
G75*
G02*
X24525000Y-48200000I0J225000D01*
G01*
X24525000Y-47750000D01*
G75*
G02*
X24750000Y-47525000I225000J0D01*
G01*
X25250000Y-47525000D01*
G75*
G02*
X25475000Y-47750000I0J-225000D01*
G01*
X25475000Y-48200000D01*
G75*
G02*
X25250000Y-48425000I-225000J0D01*
G01*
G37*
%TD*%
%TO.C,C4*%
G36*
G01*
X33075000Y-45550000D02*
X33075000Y-46050000D01*
G75*
G02*
X32850000Y-46275000I-225000J0D01*
G01*
X32400000Y-46275000D01*
G75*
G02*
X32175000Y-46050000I0J225000D01*
G01*
X32175000Y-45550000D01*
G75*
G02*
X32400000Y-45325000I225000J0D01*
G01*
X32850000Y-45325000D01*
G75*
G02*
X33075000Y-45550000I0J-225000D01*
G01*
G37*
G36*
G01*
X34625000Y-45550000D02*
X34625000Y-46050000D01*
G75*
G02*
X34400000Y-46275000I-225000J0D01*
G01*
X33950000Y-46275000D01*
G75*
G02*
X33725000Y-46050000I0J225000D01*
G01*
X33725000Y-45550000D01*
G75*
G02*
X33950000Y-45325000I225000J0D01*
G01*
X34400000Y-45325000D01*
G75*
G02*
X34625000Y-45550000I0J-225000D01*
G01*
G37*
%TD*%
%TO.C,C3*%
G36*
G01*
X22925000Y-55850000D02*
X22925000Y-55350000D01*
G75*
G02*
X23150000Y-55125000I225000J0D01*
G01*
X23600000Y-55125000D01*
G75*
G02*
X23825000Y-55350000I0J-225000D01*
G01*
X23825000Y-55850000D01*
G75*
G02*
X23600000Y-56075000I-225000J0D01*
G01*
X23150000Y-56075000D01*
G75*
G02*
X22925000Y-55850000I0J225000D01*
G01*
G37*
G36*
G01*
X21375000Y-55850000D02*
X21375000Y-55350000D01*
G75*
G02*
X21600000Y-55125000I225000J0D01*
G01*
X22050000Y-55125000D01*
G75*
G02*
X22275000Y-55350000I0J-225000D01*
G01*
X22275000Y-55850000D01*
G75*
G02*
X22050000Y-56075000I-225000J0D01*
G01*
X21600000Y-56075000D01*
G75*
G02*
X21375000Y-55850000I0J225000D01*
G01*
G37*
%TD*%
M02*
